/* XPM */
static char *result[] = {
/* columns rows colors chars-per-pixel */
"75 75 42 1 ",
"  c #6C091F",
". c #763709",
"X c #81001A",
"o c #AA5B1E",
"O c #B97325",
"+ c #CF720B",
"@ c #CD7909",
"# c #D32158",
"$ c #B59122",
"% c #DA9130",
"& c #D5923C",
"* c #E59223",
"= c #EA9C33",
"- c #DBB43B",
"; c #F4A030",
": c #FAAE3A",
"> c #CF9544",
", c #DBB273",
"< c #F5CA40",
"1 c #9F9F9F",
"2 c #A0A0A0",
"3 c #A2A2A2",
"4 c gray64",
"5 c gray65",
"6 c #A7A7A7",
"7 c gray66",
"8 c gray68",
"9 c #B1B1B1",
"0 c gray71",
"q c #B6B6B6",
"w c gray73",
"e c gray",
"r c #F3CE8B",
"t c #F7DEB2",
"y c #FFE0AA",
"u c #FFEDCC",
"i c #FFF1C7",
"p c #FFF3CE",
"a c #FFF9E7",
"s c #F9F9F9",
"d c white",
"f c None",
/* pixels */
"fffffffffffffffffffffffffffffffffffffffffffffffffffffffffffffffffffffffffff",
"fffffffffffffffffffffffffffffffffffffffffffffffffffffffffffffffffffffffffff",
"fffffffffffffffffffffffffffffffffffffffffffffffffffffffffffffffffffffffffff",
"fffffffffffffffffffffffffffffffffffffffffffffffffffffffffffffffffffffffffff",
"fffffffffffffffffffffffffffffffffffffffffffffffffffffffffffffffffffffffffff",
"fffffffffffffffffffffffffffffffffffffffffffffffffffffffffffffffffffffffffff",
"fffffffffffffffffffffffffffffffffffffffffffffffffffffffffffffffffffffffffff",
"fffffffffffffffffffffffffffffffffffffffffffffffffffff11fffffff1ffffffffffff",
"fffffffffffffffffffffffffffffffffffffffffffffffffffff11fffffff1ffffffffffff",
"fffffffffffffffffffffffffffffffffffffffffffffffffffff11fffffff1ffffffffffff",
"fffffffffffffffffffffffffffffffffffffffffffffffffff11ss11fffff1ffffffffffff",
"ffffffffffffffffffffffffffffOOOOOffffffffffffffffffff11ffffff1d11ffffffffff",
"ffffffffffffffffffffffffffffOOOOOffffffffffffffffffff11ffffff1d11ffffffffff",
"fffffffffffffffffffffffffOOOuaaapOOOfffffffffffffffff11fff111dddd11ffffffff",
"fffffffffffffffffffffffffOOyuaaapuuuOfffffffffff1ffffffffffff1d11ffffffffff",
"fffffffffffffffffffffffffOOyuaaapuuuOfffffffffff1ffffffffffff1d11ffffffffff",
"fffffffffff11ffffffffffffOOypaaapuuuOffffffffff1d11fffffffffff1ffffffffffff",
"fffffffffff22ffffffffffffOOypaaapuuuuOffffffffff1fffffffffffff1ffffffffffff",
"fffffffffff22ffffffffffffOOypaaapuuuuOfffffffffffffffffff1fffffffffffffffff",
"fffffffffff22ffffffffffffOOypaaapuuuuOfffffffffffffffffff1fffffffffffffffff",
"fffffffff42ss23fffffffffOyyupa;;;uuuuOfffffffffffffffffffffffffffffffffffff",
"fffffffffff22fffffffffffOyyup;aap;uuuyOffffffffffffffffffffffffffff22ffffff",
"fffffffffff22fffffffffffOyyup;aap;uuuyOffffffffffffffffffffffffffff22ffffff",
"ffff8ffffff55ffffff5ffffOyyua;aapu;;;yOfffffffffffffffffffffffffffffffff77f",
"ffff8ffffff77ffffffffff6Oyypa;pppuuuu;OffffffffOOOOOOOOOOOfffffffffffff7ss7",
"ffff8ffffffffffffffOOOOO&yypa;pppuuuuyOffffOOOOyyyyiiiiiiiOOOOffffffffff77f",
"ffff8ffffffffffffffOOOOO&yypa;pppuuuuyOffffOOOOyyyyiiiiiiiOOOOffffffffff77f",
"fff8d8fffffffffOOOOr,,,,&yyp;apppuuuuyOffOOrrrry-<<<---iiiiiiyOOOOf00ffffff",
"899ddd998ffOOOOrrrrrrr,,&yyp;apppuuuuyOOOrrrrr$-yiiiiii--iiiiyyyyOfffffffff",
"899ddd998ffOOOOrrrrrrr,,&yyp;apppuuuuyOOOrrrrr$-yiiiiii--iiiiyyyyOfffffffff",
"fff8d8ffffOtttrrrrrrrr,,&yyp;apppuuuyyOrrrrr$$yyyiii-iiii-iiiyyyyrOfffffff7",
"ffffqfffffOtttrrrrrrrr,,&yyp;apppuuuyyOrrrr$rryyyii------i$$yyyrrrOffffffff",
"ffffqfffffOtttrrrrrrrr,,&yyp;apppuuuyyOrrrr$rryyyii------i$$yyyrrrOffffffff",
"ffff8ffffffOOtrrrrrrrrr&yyy;aapppuuuyyOrrr$r$$$----ii--i-iii$yyrrrO..ff0fff",
"ffff8ffff..OOttrrrrrrrr&ypp;aapppuuuyyOrrr$rrry-y<<ii---iiii$yyrrO,..ffffff",
"fffffffff.>OOttrrrrrrrr&ypp;aappuuuuyyOrrr$rrry--iiiiii-iiyy$yrrrO,..ffffff",
"fffffffff.>OOttrrrrrrrr&ypp;aappuuuuyyOrrr$rrry--iiiiii-iiyy$yrrrO,..ffffff",
"ffffffwwf.>>>Otrrrrrrrr&ypp;;;;;uuuuyyOrrr$ryyyy-iiiiii-iiyy$yrrrO,.. fffff",
"ffffffff  .>>Ottrrrrrrr&ypppaapp;;;;yyOrrr$ryyy-i<<ii--i-iyy$rrrrO.## fffff",
"ffffffff  .>>Ottrrrrrrr&ypppaapp;;;;yyOrrr$ryyy-i<<ii--i-iyy$rrrrO.## fffff",
"ffffef  # .>>Ottrrrrrrr&ypppaappuuyy@@@rrrr$yyy--<<<-----i$$yrrOO,.## fffff",
"ffffff  #X.>>>Otrrrrrr&yyppp;;;;;uyyyyOrrrrr$$yyiii<-iiii$yyyrrOO,.## fffff",
"ffffff  ##X..>Otttrrrr&yyppaaappu;**yyOrrrrryy$-iiii-ii-$yyyrrrOO,.## fffff",
"ffffff  ##X..>Otttrrrr&yyppaaappu;**yyOrrrrryy$-iiii-ii-$yyyrrrOO,.## fffff",
"feefffff #X..>Otttrrrr&yypp;;;;;;uyy@@Orrrrryyyi-<<<---iyyyyrrO,,.### fffff",
"eddeffff #X..>>Ottrrrr&yyppaapppu;@@yyOrrrryyyyiiiiiiiiiyyyyrrO,,.#  ffffff",
"eddeffff #X..>>Ottrrrr&yyppaapppu;@@yyOrrrryyyyiiiiiiiiiyyyyrrO,,.#  ffffff",
"feefffff ##XX.>Ottrr%%&yyppaapppuuyy@@Orrrryyy=::iiiiiiyyyrrrrO,,.#  ffffff",
"fffffffff #XX.>Otttr%%&yyppaapppuuyyyyOrrrr+++yiiiiiiiiyyyrrrrO..X#  ffffff",
"fffffefff #XX.>Otttr%%&y&&&&&&&&uuyyyy@rrrryyy=::::::iiyyyrrrO,..##  ffffff",
"fffffefff #XX.>Otttr%%&y&&&&&&&&uuyyyy@rrrryyy=::::::iiyyyrrrO,..##  ffffff",
"fffffffff ###X.>OOtr%%&&%%%,,,,,&&yyyyOrrrr+==iiiiiii==+yrrrrO,..# ffffffff",
"ffffffffff ##X.>OOtrrr&%%rrr,,,,,,&&yyOrrrryyy=:::::=yyyyrrrrO.XX# ffffffff",
"ffffffffff ##X.>OOtrrr&%%rrr,,,,,,&&yyOrrrryyy=:::::=yyyyrrrrO.XX# ffffffff",
"ffffffffff ##X.>OOttrrrrrrrr,,,,,,,,&yOrrrr+==iiiiiii==+yrrrO,.### ffffffff",
"ffffffffff ###X.>>Otrrrrrrrrr,,,,,,,,&OrrrOOOOOOOOOOiyyyrrrrO,.## fffffffff",
"ffffffffff ###X.>>Otrrrrrrrrr,,,,,,,,&OrrrOOOOOOOOOOiyyyrrrrO,.## fffffffff",
"fffffffffff  #X.>>OtttrrrOOOOOOOOOOO,&OrrO,,,,,,,,,,OOOyrrrrO,.## fffffffff",
"fffffffffff  #X.>>OtttrOO>>>>>>>>>>>OOOOO,,........,,,,OrrrrO.### fffffffff",
"fffffffffff  ##X..>OOOO>>oooo.......o>&,,...ooooooo....,OOOO,.#  ffffffffff",
"fffffffffff  ##X..>OOOO>>oooo.......o>&,,...ooooooo....,OOOO,.#  ffffffffff",
"fffffffffffff #X..>O>>>oo....XXXXXXX.....XXX.....oooooo..,OO,.#  ffffffffff",
"fffffffffffff #X..>ooo...XXXXXXXXXXXXXXXXXXXXXXXX....oooo.,,,.#  ffffffffff",
"fffffffffffff #X..>ooo...XXXXXXXXXXXXXXXXXXXXXXXX....oooo.,,,.#  ffffffffff",
"fffffffffffff ##XX....XXXXXXX#####XXXXXXXX####XXXXXXX....o...##  ffffffffff",
"ffffffffffffff #XX.XXXXXXXX#####  ########  #####XXXXXXXX....# ffffffffffff",
"ffffffffffffff ###XXXXX#####    ff        ff    #####XXXXXXXX# ffffffffffff",
"ffffffffffffff ###XXXXX#####    ff        ff    #####XXXXXXXX# ffffffffffff",
"fffffffffffffff ##XX####    ffffffffffffffffffff    #####XXX## ffffffffffff",
"fffffffffffffff ####    ffffffffffffffffffffffffffff    ##### fffffffffffff",
"fffffffffffffff ####    ffffffffffffffffffffffffffff    ##### fffffffffffff",
"ffffffffffffffff    ffffffffffffffffffffffffffffffffffff    # fffffffffffff",
"ffffffffffffffffffffffffffffffffffffffffffffffffffffffffffff  fffffffffffff",
"ffffffffffffffffffffffffffffffffffffffffffffffffffffffffffff  fffffffffffff",
"fffffffffffffffffffffffffffffffffffffffffffffffffffffffffffffffffffffffffff"
};
