/* XPM */
static char *result[] = {
/* columns rows colors chars-per-pixel */
"75 75 41 1 ",
"  c #6C091F",
". c #763709",
"X c #81001A",
"o c #AA5B1E",
"O c #B97325",
"+ c #D16403",
"@ c #DE7E0D",
"# c #D57928",
"$ c #D32158",
"% c #AC794A",
"& c #D5923C",
"* c #EA9C33",
"= c #F4A030",
"- c #FFD200",
"; c #FFF600",
": c #CF9544",
"> c #DBB273",
", c #9F9F9F",
"< c #A0A0A0",
"1 c #A2A2A2",
"2 c gray64",
"3 c gray65",
"4 c #A7A7A7",
"5 c gray66",
"6 c gray68",
"7 c #B1B1B1",
"8 c gray71",
"9 c #B6B6B6",
"0 c gray73",
"q c gray",
"w c #F3CE8B",
"e c #EFC299",
"r c #F7DEB2",
"t c #FFE0AA",
"y c #FFEDCC",
"u c #FFF1C7",
"i c #FFF3CE",
"p c #FFF9E7",
"a c #F9F9F9",
"s c white",
"d c None",
/* pixels */
"ddddddddddddddddddddddddddddddddddddddddddddddddddddd,,ddddddd,dddddddddddd",
"ddddddddddddddddddddddddddddddddddddddddddddddddddddd,,ddddddd,dddddddddddd",
"ddddddddddddddddddddddddddddddddddddddddddddddddddddd,,ddddddd,dddddddddddd",
"ddddddddddddddddddddddddddddddddddddddddddddddddddd,,aa,,ddddd,dddddddddddd",
"ddddddddddddddddddddddddddddddddddddddddddddddddddddd,,dddddd,s,,dddddddddd",
"ddddddddddddddddddddddddddddddddddddddddddddddddddddd,,dddddd,s,,dddddddddd",
"ddddddddddddddddddddddddddddOOOOOdddddddddddddddddddd,,ddd,,,ssss,,dddddddd",
"dddddddddddddddddddddddddOOOypppiOOOdddddddddddd,dddddddddddd,s,,dddddddddd",
"dddddddddddddddddddddddddOOOypppiOOOdddddddddddd,dddddddddddd,s,,dddddddddd",
"ddddddddddd,,ddddddddddddOOtypppiyyyOdddddddddd,s,,ddddddddddd,dddddddddddd",
"ddddddddddd<<ddddddddddddOOtipppiyyyOddddddddddd,ddddddddddddd,dddddddddddd",
"ddddddddddd<<ddddddddddddOOtipppiyyyyOddddddddddddddddddd,ddddddddddddddddd",
"ddddddddddd<<ddddddddddddOOtipppiyyyyOddddddddddddddddddd,ddddddddddddddddd",
"ddddddddd2<aa<1ddddddddddOOtipppiyyyyOddddddddddddddddddddddddddddddddddddd",
"ddddddddddd<<dddddddddddOttyipppiyyyyOddddddddddddddddddddddddddddd<<dddddd",
"ddddddddddd<<dddddddddddOttyipppiyyyyOddddddddddddddddddddddddddddd<<dddddd",
"dddd6dddddd33dddddd3ddddOttyipppiyyyytOddddddddddddddddddddddddddddddddd55d",
"dddd6dddddd55dddddddddd4Ottyppppiyyyyt%dddddddddddddddddddddddddddddddd5aa5",
"dddd6dddddddddddddddddddOttippiiiyyyy%%ddddddddOOOOOOOOOOOdddddddddddddd55d",
"dddd6dddddddddddddddddddOttippiiiyyyy%%ddddddddOOOOOOOOOOOdddddddddddddd55d",
"ddd6s6dddddddddddddOOOOO&ttippiiiyyyy%%ddddOOOOttttuuuuuuuOOOOddddd88dddddd",
"677sss776ddddddOOOOw>>>>&ttippiiiyyyy%%ddOOwwwwttttuuuuuuuuuutOOOOddddddddd",
"677sss776ddddddOOOOw>>>>&ttippiiiyyyy%%ddOOwwwwttttuuuuuuuuuutOOOOddddddddd",
"ddd6s6dddddOOOOwwwwwww>>&ttippiiiyyy%%OOOwwwwwwttuuuuuuuuuuuuttttOdddddddd5",
"dddd9dddddOrrrwwwwww====&ttippiiiyyy%%Owwwwwwwtttuuu*uuuuuuuuttttwOdddddddd",
"dddd6dddddOrrrwwww==ww>>&ttippiiiyyy%%Owwwwwwwtttuuu*uuuuuuutttwwwOdddd8ddd",
"dddd6dddddOrrrwwww==ww>>&ttippiiiyyy%%Owwwwwwwtttuuu*uuuuuuutttwwwOdddd8ddd",
"dddd6ddddddOOrww==wwwww&tttippiiiy%%%tOwwwwwwwtttuu**uuuu***+ttwwwO..dddddd",
"ddddddddd..OOrrw==wwwww&tiiippiiiy%%%tOwwwwwwwtttuu**uuuuuuutttwwO>..dddddd",
"ddddddddd..OOrrw==wwwww&tiiippiiiy%%%tOwwwwwwwtttuu**uuuuuuutttwwO>..dddddd",
"dddddd00d.:OOrrw==wwwww&tiiippiiy%%%%tOwwwwwwwttuuu**uuuu***+twwwO>..dddddd",
"ddddddddd.:::Orwww=wwww&tiiippiiy%%%ttOwwwwwttttu@@**uuuuuttttwwwO>.. ddddd",
"ddddddddd.:::Orwww=wwww&tiiippiiy%%%ttOwwwwwttttu@@**uuuuuttttwwwO>.. ddddd",
"ddddqddd  .::Orrww=wwww&tiiipp###%%%ttOwwwwwttttu@@****uu*++twwwwO.$$ ddddd",
"dddddd  $ .::Orrww=wwww&tiiipp#######tOwwwwwttttu@@@***uuutttwwOO>.$$ ddddd",
"dddddd  $X.:::Orwww=ww&ttiiip#eee####tOwwwwwttttu@@@***uuttttwwOO>.$$ ddddd",
"dddddd  $X.:::Orwww=ww&ttiiip#eee####tOwwwwwttttu@@@***uuttttwwOO>.$$ ddddd",
"dqqddd  $$X..:Orrrw=ww&ttiipp####eee#tOwwwwwtttu+@@@@**uutttwwwOO>.$$ ddddd",
"qssqdddd $X..:Orrrw=ww&ttiipp#######ttOwwwwwtttu---;@***ttttwwO>>.$$$ ddddd",
"qssqdddd $X..:Orrrw=ww&ttiipp#######ttOwwwwwtttu---;@***ttttwwO>>.$$$ ddddd",
"dqqddddd $X..::Orrw=ww&ttiipp#######ttOwwwwtttt+@--;;--*ttttwwO>>.$  dddddd",
"dddddddd $$XX.:Orrww==&ttiippiii##ttttOwwwwt+++++@@@@****twwwwO>>.$  dddddd",
"dddddqddd $XX.:Orrrw==&ttiippiiiyyttttOww+++++++++++++++**wwwwO..X$  dddddd",
"dddddqddd $XX.:Orrrw==&ttiippiiiyyttttOww+++++++++++++++**wwwwO..X$  dddddd",
"ddddddddd $XX.:Orrrwww&t&&&&&&&&yyttttOwwwwttttuuuuuuuu+++++wO>..$$  dddddd",
"ddddddddd $$$X.:OOrwww=&www>>>>>&&ttttOwwwwtttuuuuuuuuuttwwwwO>..$ dddddddd",
"ddddddddd $$$X.:OOrwww=&www>>>>>&&ttttOwwwwtttuuuuuuuuuttwwwwO>..$ dddddddd",
"dddddddddd $$X.:OOrwww&wwwww>>>>>>&&ttOwwwwtttuuuuuuuttttwwwwO.XX$ dddddddd",
"dddddddddd $$X.:OOrrwwwwwwww>>>>>>>>&tOwwwwtttuuuuuuuttttwwwO>.$$$ dddddddd",
"dddddddddd $$$X.::Orwwwwwwwww>>>>>>>>&OwwwOOOOOOOOOOutttwwwwO>.$$ ddddddddd",
"dddddddddd $$$X.::Orwwwwwwwww>>>>>>>>&OwwwOOOOOOOOOOutttwwwwO>.$$ ddddddddd",
"ddddddddddd  $X.::OrrrwwwOOOOOOOOOOO>&OwwO>>>>>>>>>>OOOtwwwwO>.$$ ddddddddd",
"ddddddddddd  $X.::OrrrwOO:::::::::::OOOOO>>........>>>>OwwwwO.$$$ ddddddddd",
"ddddddddddd  $X.::OrrrwOO:::::::::::OOOOO>>........>>>>OwwwwO.$$$ ddddddddd",
"ddddddddddd  $$X..:OOOO::oooo.......o:&>>...ooooooo....>OOOO>.$  dddddddddd",
"ddddddddddddd $X..:O:::oo....XXXXXXX.....XXX.....oooooo..>OO>.$  dddddddddd",
"ddddddddddddd $X..:O:::oo....XXXXXXX.....XXX.....oooooo..>OO>.$  dddddddddd",
"ddddddddddddd $X..:ooo...XXXXXXXXXXXXXXXXXXXXXXXX....oooo.>>>.$  dddddddddd",
"ddddddddddddd $$XX....XXXXXXX$$$$$XXXXXXXX$$$$XXXXXXX....o...$$  dddddddddd",
"dddddddddddddd $XX.XXXXXXXX$$$$$  $$$$$$$$  $$$$$XXXXXXXX....$ dddddddddddd",
"dddddddddddddd $XX.XXXXXXXX$$$$$  $$$$$$$$  $$$$$XXXXXXXX....$ dddddddddddd",
"dddddddddddddd $$$XXXXX$$$$$    dd        dd    $$$$$XXXXXXXX$ dddddddddddd",
"ddddddddddddddd $$XX$$$$    dddddddddddddddddddd    $$$$$XXX$$ dddddddddddd",
"ddddddddddddddd $$XX$$$$    dddddddddddddddddddd    $$$$$XXX$$ dddddddddddd",
"ddddddddddddddd $$$$    dddddddddddddddddddddddddddd    $$$$$ ddddddddddddd",
"dddddddddddddddd    dddddddddddddddddddddddddddddddddddd    $ ddddddddddddd",
"dddddddddddddddddddddddddddddddddddddddddddddddddddddddddddd  ddddddddddddd",
"dddddddddddddddddddddddddddddddddddddddddddddddddddddddddddd  ddddddddddddd",
"ddddddddddddddddddddddddddddddddddddddddddddddddddddddddddddddddddddddddddd",
"ddddddddddddddddddddddddddddddddddddddddddddddddddddddddddddddddddddddddddd",
"ddddddddddddddddddddddddddddddddddddddddddddddddddddddddddddddddddddddddddd",
"ddddddddddddddddddddddddddddddddddddddddddddddddddddddddddddddddddddddddddd",
"ddddddddddddddddddddddddddddddddddddddddddddddddddddddddddddddddddddddddddd",
"ddddddddddddddddddddddddddddddddddddddddddddddddddddddddddddddddddddddddddd",
"ddddddddddddddddddddddddddddddddddddddddddddddddddddddddddddddddddddddddddd"
};
