/* XPM */
static char *result[] = {
/* columns rows colors chars-per-pixel */
"75 75 64 1 ",
"  c #F3CE8B",
". c #B97325",
"X c #FFE0AA",
"o c #D32158",
"O c #763709",
"+ c #81001A",
"@ c #6C091F",
"# c #FFEDCC",
"$ c #EDC587",
"% c #DBB273",
"& c #FFF9E7",
"* c #F7DEB2",
"= c #CF9544",
"- c #FDDDA3",
"; c #FADAA2",
": c #FFF3CE",
"> c #E2B36C",
", c #AA5B1E",
"< c #EA9C33",
"1 c #DBB43B",
"2 c #D5923C",
"3 c #F4A030",
"4 c #D16403",
"5 c #CD7909",
"6 c #B59122",
"7 c gray64",
"8 c #F9F9F9",
"9 c #FAAE3A",
"0 c gray66",
"q c #F5CA40",
"w c gray71",
"e c #CF720B",
"r c gray65",
"t c #A7A7A7",
"y c #CACACA",
"u c #B1B1B1",
"i c #AAAAAA",
"p c #ACACAC",
"a c #A4A4A4",
"s c gray73",
"d c #E59223",
"f c #A9A9A9",
"g c gray99",
"h c #AFAFAF",
"j c gray74",
"k c gray76",
"l c #B9B9B9",
"z c gray79",
"x c gray72",
"c c gray70",
"v c gray69",
"b c gray67",
"n c #F8F8F8",
"m c black",
"M c black",
"N c black",
"B c black",
"V c black",
"C c black",
"Z c black",
"A c black",
"S c black",
"D c black",
"F c None",
/* pixels */
"FFFFFFFFFFFFFFFFFFFFFFFFFFFFFFFFFFFFFFFFFFFFFFFFFFFFFFFFFFFFFFFFFFFFFFFFFFF",
"FFFFFFFFFFFFFFFFFFFFFFFFFFFFFFFFFFFFFFFFFFFFFFFFFFFFFFFFFFFFFFFFFFFFFFFFFFF",
"FFFFFFFFFFFFFFFFFFFFFFFFFFFFFFFFFFFFFFFFFFFFFFFFFFFFFFFFFFFFFFFFFFFFFFFFFFF",
"FFFFFFFFFFFFFFFFFFFFFFFFFFFFFFFFFFFFFFFFFFFFFFFFFFFFFFFFFFFFFFFFFFFFFFFFFFF",
"FFFFFFFFFFFFFFFFFFFFFFFFFFFFFFFFFFFFFFFFFFFFFFFFFFFFFFFFFFFFF7FFFFFFFFFFFFF",
"FFFFFFFFFFFFFFFFFFFFFFFFFFFFFFFFFFFFFFFFFFFFFFFFFFFFFFFFFFFFF7FFFFFFFFFFFFF",
"FFFFFFFFFFFFFFFFFFFFFFFFFFFFFFFFFFFFFFFFFFFFFFFFFFFFFFFFFFFFF7FFFFFFFFFFFFF",
"FFFFFFFFFFFFFFFFFFFFFFFFFFFFFFFFFFFFFFFFFFFFFFFFFFFF......7778777FFFFFFFFFF",
"FFFFFFFFFFFFFFFFFFFFFFFFFFFFFFFFFFFFFFFFFFFFFFFFFFFF......7778777FFFFFFFFFF",
"FFFFFFFFFFF77FFFFFFFFFFFFFFFFFFFFFFFFFFFFFFFFFF7....&##;;.FFF7FFFFFFFFFFFFF",
"FFFFFFFFFFF77FFFFFFFFFFFFFFFFFFFFFFFFFFFFFFFFF..:&&&&##;;.FFF7FFFFFFFFFFFFF",
"FFFFFFFFFFFaaFFFFFFFFFFFFFFFFFFFFFFFFFFFFFFF..:::&&&&##;;.FFFFFFFF7FFFFFFFF",
"FFFFFFFFFFFaaFFFFFFFFFFFFFFFFFFFFFFFFFFFFFFF..:::&&&&##;;.FFFFFFFF7FFFFFFFF",
"FFFFFFFFFFrggrFFFFFFFFFFFFFFFFFFFFFFFFFFFFF.::::&&&&###;.FFFFFFFF7877FFFFFF",
"FFFFFF00008888ttttFFFFFFFttFFFFFFFFFFFFFFF.#::::&&&&#;;;.FFFFFFFFFaFFFFFFFF",
"FFFFFF00008888ttttFFFFFFFttFFFFFFFFFFFFFFF.#::::&&&&#;;;.FFFFFFFFFaFFFFFFFF",
"FFFFFFFFFFfnnfFFFFFFFFFF0880FFFFFFFFFFFFF.;#::::&&&&#;;;.FFFFFFFFFFFFFFFFFF",
"FFFFFFFFFFFiiFFFFFFiFFFFFiiFFFFFFFFFFFF..;;#::::&&&&#;;;.FFFFFFFFFFFFFFFFFF",
"FFFFFFFFFFFppFFFFFFFFFFbFFFFFFFFFFFFFFF..;;qqq11&&&&#;;;.FFFFFFFFFFFFFFFFFF",
"FFFFFFFFFFFppFFFFFFFFFFbFFFFFFFFFFFFFFF..;;qqq11&&&&#;;;.FFFFFFFFFFFFFFFFFF",
"FFFFFFFFFFFhhFFFFFFFFFFFFFFFFFFFFFFFFF.;;;1#::::111##;;2..FFFFFFFFFFFFFFFFF",
"FFFFFuFFFFFFFFFFFFF..............FFFFF.;;6;#::1:&&&6;;;2%%....FFFFFFFFFFppF",
"FFFFFuFFFFFFFFFFFFF..............FFFFF.;;6;#::1:&&&6;;;2%%....FFFFFFFFFFppF",
"FFFFFcFFFFFFFFF....        $$$$$$...FF.66;;#1111&11#6;;2%%    ...FFFFFFFFFF",
"FFFww8wwwFF....----        $$$$$$>>>.F.66;11:::1111;6;;2%     *..FFFFFvFFFF",
"FFFFFxFFFF.***----- 3333355555555>>>>..;;1#q:::1&&&;6;;2%     ***.FFFFFFFFF",
"FFFFFxFFFF.***----- 3333355555555>>>>..;;1#q:::1&&&;6;;2%     ***.FFFFFFFFF",
"FFFFFsFFFF.***----33        $$$$$555>>.;;11#:::&1##;6;;2%    ****.FFFFFFFFF",
"FFFFFFFFFFF..*--33-         $$$$$>55>>.;;;1#:::&111;6;;2<<44 ****.OOOFFFFFF",
"FFFFFFFFFFF..*--33-         $$$$$>55>>.;;;1#:::&111;6;;2<<44 ****.OOOFFFFFF",
"FFFFFFjjFOO..**-33--        $$$$$>55>>.;;1#q:::11116;;;2     **..%%OOFFlFFF",
"FFFFFFFFFO=..**-33--        $$$$$$55>>.;;11qqq11&116;22%<<44 **..%%OOFFFFFF",
"FFFFFFFFFO=..**-33--        $$$$$$55>>.;;11qqq11&116;22%<<44 **..%%OOFFFFFF",
"FkkFFFFFFO===.*---3-        $$$$$$55>>.66;##qq1&1;;;;22%     **..%%OO@FFFFF",
"FFFFFFFF@@O==.**--3---      $$$$$$55>>.;;61#::1&&66;;22%<4  ***..%Ooo@FFFFF",
"FFFFFF@@o@O==.**--3---      $$$$$$55>>.;;;1qqq111;;;;22     **.%%%Ooo@FFFFF",
"FFFFFF@@o@O==.**--3---      $$$$$$55>>.;;;1qqq111;;;;22     **.%%%Ooo@FFFFF",
"FFFFFF@@o+O===.*---3--       $$$$$55>>.;;;##::&&#;;;;22   ****.%%%Ooo@FFFFF",
"FFFFzF@@oo+OO=.***-3--       $$$$$55>>.;;;<999&&#;;;;22   ****.%%%Ooo@FFFFF",
"FFFFzF@@oo+OO=.***-3--       $$$$$55>>.;;;<999&&#;;;;22   ****.%%%Ooo@FFFFF",
"FFFFFFFF@o+OO=.***-3---      $$$$$55>>.;;e#:::&&#;;;;22   ***.%%%Oooo@FFFFF",
"FFFFFFFF@o+OO==.**-3---      $$$$$55>>.ee;<9999&;;;;2<<  ****.%%%Oo@@FFFFFF",
"FFFFyFFF@oo++O=.**--33- 3333d5555$55>>.;;<#:::&99<<;2<<< ****.%%%Oo@@FFFFFF",
"FFFFyFFF@oo++O=.**--33- 3333d5555$55>>.;;<#:::&99<<;2<<< ****.%%%Oo@@FFFFFF",
"FFFy8yFFF@o++O=.***-3333      $$$555>>.ee;<9999&;;;;244<<****.%OO+o@@FFFFFF",
"FFFFyFFFF@o++O=.***-----3333d555$$$$>>.;;<#:::&#;;;;244444**.%%OOoo@@FFFFFF",
"FFFFyFFFF@o++O=.***-----3333d555$$$$>>.;;<#:::&#;;;;244444**.%%OOoo@@FFFFFF",
"FFFFFFFFF@ooo+O=..*---33      $$$$$$>>.ee;#:&&2222222   ****.%%OOo@FFFFFFFF",
"FFFFFFFFFF@oo+O=..*----- 33335555$$$>>.;;;#222%%%%%%    ****.%O++o@FFFFFFFF",
"FFFFFFFFFF@oo+O=..**---33       $555>>.;;;2%%%%%%%%%    **..%%Oooo@FFFFFFFF",
"FFFFFFFFFF@oo+O=..**---33       $555>>.;;;2%%%%%%%%%    **..%%Oooo@FFFFFFFF",
"FFFFFFFFFF@ooo+O==.*-----       $$$$>>.;;2..........   ***..%%Ooo@FFFFFFFFF",
"FFFFFFFFFFF@@o+O==.***---...........>>.22.%%%%%%%%%%...***..%%Ooo@FFFFFFFFF",
"FFFFFFFFFFF@@o+O==.***---...........>>.22.%%%%%%%%%%...***..%%Ooo@FFFFFFFFF",
"FFFFFFFFFFF@@o+O==.***-..===========.....%%OOOOOOOO%%..***..%Oooo@FFFFFFFFF",
"FFFFFFFFFFF@@oo+OO=....==,,,,OOOOOOO,====OOO,,,,,,,OOOO...%%%Oo@@FFFFFFFFFF",
"FFFFFFFFFFF@@oo+OO=....==,,,,OOOOOOO,====OOO,,,,,,,OOOO...%%%Oo@@FFFFFFFFFF",
"FFFFFFFFFFFFF@o+OO=.===,,OOOO+++++++OOOOO+++OOOOO,,,,,,OO.%%%Oo@@FFFFFFFFFF",
"FFFFFFFFFFFFF@o+OO=,,,OOO++++++++++++++++++++++++OOOO,,,,O%%%Oo@@FFFFFFFFFF",
"FFFFFFFFFFFFF@oo++OOOO+++++++ooooo++++++++oooo+++++++OOOO,OOOoo@@FFFFFFFFFF",
"FFFFFFFFFFFFF@oo++OOOO+++++++ooooo++++++++oooo+++++++OOOO,OOOoo@@FFFFFFFFFF",
"FFFFFFFFFFFFFF@o++O++++++++ooooo@@oooooooo@@ooooo++++++++OOOOo@FFFFFFFFFFFF",
"FFFFFFFFFFFFFF@ooo+++++ooooo@@@@FF@@@@@@@@FF@@@@ooooo++++++++o@FFFFFFFFFFFF",
"FFFFFFFFFFFFFF@ooo+++++ooooo@@@@FF@@@@@@@@FF@@@@ooooo++++++++o@FFFFFFFFFFFF",
"FFFFFFFFFFFFFFF@oo++oooo@@@@FFFFFFFFFFFFFFFFFFFF@@@@ooooo+++oo@FFFFFFFFFFFF",
"FFFFFFFFFFFFFFF@oooo@@@@FFFFFFFFFFFFFFFFFFFFFFFFFFFF@@@@ooooo@FFFFFFFFFFFFF",
"FFFFFFFFFFFFFFFF@@@@FFFFFFFFFFFFFFFFFFFFFFFFFFFFFFFFFFFF@@@@o@FFFFFFFFFFFFF",
"FFFFFFFFFFFFFFFF@@@@FFFFFFFFFFFFFFFFFFFFFFFFFFFFFFFFFFFF@@@@o@FFFFFFFFFFFFF",
"FFFFFFFFFFFFFFFFFFFFFFFFFFFFFFFFFFFFFFFFFFFFFFFFFFFFFFFFFFFF@@FFFFFFFFFFFFF",
"FFFFFFFFFFFFFFFFFFFFFFFFFFFFFFFFFFFFFFFFFFFFFFFFFFFFFFFFFFFFFFFFFFFFFFFFFFF",
"FFFFFFFFFFFFFFFFFFFFFFFFFFFFFFFFFFFFFFFFFFFFFFFFFFFFFFFFFFFFFFFFFFFFFFFFFFF",
"FFFFFFFFFFFFFFFFFFFFFFFFFFFFFFFFFFFFFFFFFFFFFFFFFFFFFFFFFFFFFFFFFFFFFFFFFFF",
"FFFFFFFFFFFFFFFFFFFFFFFFFFFFFFFFFFFFFFFFFFFFFFFFFFFFFFFFFFFFFFFFFFFFFFFFFFF",
"FFFFFFFFFFFFFFFFFFFFFFFFFFFFFFFFFFFFFFFFFFFFFFFFFFFFFFFFFFFFFFFFFFFFFFFFFFF",
"FFFFFFFFFFFFFFFFFFFFFFFFFFFFFFFFFFFFFFFFFFFFFFFFFFFFFFFFFFFFFFFFFFFFFFFFFFF"
};
