/* XPM */
static char *result[] = {
/* columns rows colors chars-per-pixel */
"75 75 47 1 ",
"  c #6C091F",
". c #763709",
"X c #81001A",
"o c #AA5B1E",
"O c #B97325",
"+ c #D16403",
"@ c #CF720B",
"# c #DE7E0D",
"$ c #D57928",
"% c #D32158",
"& c #AC794A",
"* c #B59122",
"= c #D5923C",
"- c #EA9C33",
"; c #DBB43B",
": c #FAAE3A",
"> c #FFD200",
", c #FFF600",
"< c #CF9544",
"1 c #DBB273",
"2 c #E2B36C",
"3 c #9F9F9F",
"4 c #A0A0A0",
"5 c #A2A2A2",
"6 c gray64",
"7 c gray65",
"8 c #A7A7A7",
"9 c gray66",
"0 c gray68",
"q c #B1B1B1",
"w c gray71",
"e c #B6B6B6",
"r c gray73",
"t c gray",
"y c #EDC587",
"u c #F3CE8B",
"i c #EFC299",
"p c #FADAA2",
"a c #FDDDA3",
"s c #F7DEB2",
"d c #FFE0AA",
"f c #FFEDCC",
"g c #FFF1C7",
"h c #FFF9E7",
"j c #F9F9F9",
"k c white",
"l c None",
/* pixels */
"lllllllllllllllllllllllllllllllllllllllllllllllllllllllllllllllllllllllllll",
"lllllllllllllllllllllllllllllllllllllllllllllllllllllllllllllllllllllllllll",
"lllllllllllllllllllllllllllllllllllllllllllllllllllllllllllllllllllllllllll",
"lllllllllllllllllllllllllllllllllllllllllllllllllllllllllllllllllllllllllll",
"lllllllllllllllllllllllllllllllllllllllllllllllllllll33lllllll3llllllllllll",
"lllllllllllllllllllllllllllllllllllllllllllllllllllll33lllllll3llllllllllll",
"lllllllllllllllllllllllllllllllllllllllllllllllllllll33lllllll3llllllllllll",
"lllllllllllllllllllllllllllllllllllllllllllllllllll33jj33lllll3llllllllllll",
"lllllllllllllllllllllllllllllllllllllllllllllllllll33jj33lllll3llllllllllll",
"lllllllllllllllllllllllllllllllllllllllllllllllllllll33llllll3k33llllllllll",
"lllllllllllllllllllllllllllllllllllllllllllllllllllll33lll333kkkk33llllllll",
"llllllllllllllllllllllllllllllllllllllllllllllll3llllllllllll3k33llllllllll",
"llllllllllllllllllllllllllllllllllllllllllllllll3llllllllllll3k33llllllllll",
"lllllllllll33llllllllllllllllllllllllllllllllll3k33lllllllllll3llllllllllll",
"lllllllllll44llllllllllllllllllllllllllllllllllOOOOOOOOlllllll3llllllllllll",
"lllllllllll44llllllllllllllllllllllllllllllllllOOOOOOOOlllllll3llllllllllll",
"lllllllllll44lllllllllllllllllllllllllllllllOOOhhhhhhhhOl3lllllllllllllllll",
"lllllllll64jj45llllllllll55llllllllllllllllOffhhhhhhffff=llllllllllllllllll",
"lllllllllll44lllllllllll6jj6llllllllllllllOfffhhhhhhfffff=lllllllll44llllll",
"lllllllllll44lllllllllll6jj6llllllllllllllOfffhhhhhhfffff=lllllllll44llllll",
"llll0llllll77llllll7lllll77llllllllllllllOffffhhhhhhfffff=llllllllllllll99l",
"llll0llllll99llllllllll8lllllllllllllllllOffffhhh--fffffp=lllllllllllll9jj9",
"llll0llllll99llllllllll8lllllllllllllllllOffffhhh--fffffp=lllllllllllll9jj9",
"llll0llllllllllllllOOOOOOOOOOOOOOllllllOOpffffhhh--fffffpp==OOllllllllll99l",
"lll0k0lllllllllOOOOuuuuuuuuyyyyyyOOOlllOOpffffhh---fffffpp==gdOOOOlwwllllll",
"0qqkkkqq0llOOOOaaaauuuuuuuuyyyyyy222OlOpppffffhh---ffff-pp==gddddOlllllllll",
"0qqkkkqq0llOOOOaaaauuuuuuuuyyyyyy222OlOpppffffhh---ffff-pp==gddddOlllllllll",
"lll0k0llllOsssaaaaauuuuuuuuuyy&&y2222OOpppffffhh---fffff-pyy=dddduOlllllll9",
"llllelllllOsssaaaaauuuuuuuuuy&&&y22222Opppffffh#---ffff-p+yy=*duuuOllllllll",
"llllelllllOsssaaaaauuuuuuuuuy&&&y22222Opppffffh#---ffff-p+yy=*duuuOllllllll",
"llll0llllllOOsaaaaauuuuuuuuuy&&&y22222Opppffhhh#---ffffp-yyyy=*uuuO..llwlll",
"llll0llll..OOssaaaaauuuuuuuuy&&&y22222Opppffhhh##---fff-p+yyy=*uuO1..llllll",
"llll0llll..OOssaaaaauuuuuuuuy&&&y22222Opppffhhh##---fff-p+yyy=*uuO1..llllll",
"lllllllll.<OOssaaaaauuuuuuuu&&yyyy2222Opppffhhh##---fffp+yyy=d*uuO1..llllll",
"llllllrrl.<<<Osaaaaauuuuuuuu&&yyyy2222Opppffhh+####-fpppyyyy=d*uuO1.. lllll",
"llllllll  .<<Ossaaaaaauuuuuu&&yyyy2222Opppffhh>>,##-fpppyy==du*uuO.%% lllll",
"llllllll  .<<Ossaaaaaauuuuuu&&yyyy2222Opppffhh>>,##-fpppyy==du*uuO.%% lllll",
"lllltl  % .<<Ossaaaaaauuuuu&&yyyyy2222Opppff++#>,,,--ppyyy==d*uOO1.%% lllll",
"llllll  %X.<<<Osaaaaaauuuuu&&yyyyy2222Opppf++++####>-ppyy=dd*uuOO1.%% lllll",
"llllll  %X.<<<Osaaaaaauuuuu&&yyyyy2222Opppf++++####>-ppyy=dd*uuOO1.%% lllll",
"llllll  %%X..<Osssaaaauuu&&&&yyyyy2222Oppp++++++++++-uuy=;**uuuOO1.%% lllll",
"lttlllll %X..<Osssaaaaauu&&&uyyyyyyy22Opp+ffhhhhhff+---y=ddduuO11.%%% lllll",
"tkktllll %X..<<Ossaaaaa$$&&&uyyyyyyy22Opppfhhhhhhfff+--=dddduuO11.%  llllll",
"tkktllll %X..<<Ossaaaaa$$&&&uyyyyyyy22Opppfhhhhhhfff+--=dddduuO11.%  llllll",
"lttlllll %%XX.<Ossaaaaa$$$$$$yyyyyyy22Opppfhhhhhhfffyyy=dduuuuO11.%  llllll",
"lllllllll %XX.<Osssaaa$ii$$$$uyyyyyy22Opppfhhhhhhffpy==ddduuuuO..X%  llllll",
"lllllllll %XX.<Osssaaa$ii$$$$uyyyyyy22Opppfhhhhhhffpy==ddduuuuO..X%  llllll",
"llllltlll %XX.<Osssaaa$$$iii$uyyyyyy22Opppfhhhhhfffyy==:dduuuO1..%%  llllll",
"lllllllll %%%X.<OOsaaa$$$$$$uuyyyyyy22Opppf======ffyy==d-@uuuO1..% llllllll",
"llllllllll %%X.<OOsaaa$$$$$$uuyyyyyy22Oppp=dddgg-==y=::-duuuuO.XX% llllllll",
"llllllllll %%X.<OOsaaa$$$$$$uuyyyyyy22Oppp=dddgg-==y=::-duuuuO.XX% llllllll",
"llllllllll %%X.<OOssaaaa$$$uuuuuyyyy22Opp=uddd@-ggg==ddd-@uuO1.%%% llllllll",
"llllllllll %%%X.<<Osaaaaauuuuuuuyyyy22O==uOOOOOOOOO==ddduuuuO1.%% lllllllll",
"llllllllll %%%X.<<Osaaaaauuuuuuuyyyy22O==uOOOOOOOOO==ddduuuuO1.%% lllllllll",
"lllllllllll  %X.<<OsssaaaOOOOOOOOOOO22O==O111111111=OOOduuuuO1.%% lllllllll",
"lllllllllll  %X.<<OsssaOO<<<<<<<<<<<OOOOO11........=111OuuuuO.%%% lllllllll",
"lllllllllll  %X.<<OsssaOO<<<<<<<<<<<OOOOO11........=111OuuuuO.%%% lllllllll",
"lllllllllll  %%X..<OOOO<<oooo.......o<<<<...ooooooo....1OOOO1.%  llllllllll",
"lllllllllllll %X..<O<<<oo....XXXXXXX.....XXX.....oooooo..1OO1.%  llllllllll",
"lllllllllllll %X..<ooo...XXXXXXXXXXXXXXXXXXXXXXXX....oooo.111.%  llllllllll",
"lllllllllllll %X..<ooo...XXXXXXXXXXXXXXXXXXXXXXXX....oooo.111.%  llllllllll",
"lllllllllllll %%XX....XXXXXXX%%%%%XXXXXXXX%%%%XXXXXXX....o...%%  llllllllll",
"llllllllllllll %XX.XXXXXXXX%%%%%  %%%%%%%%  %%%%%XXXXXXXX....% llllllllllll",
"llllllllllllll %XX.XXXXXXXX%%%%%  %%%%%%%%  %%%%%XXXXXXXX....% llllllllllll",
"llllllllllllll %%%XXXXX%%%%%    ll        ll    %%%%%XXXXXXXX% llllllllllll",
"lllllllllllllll %%XX%%%%    llllllllllllllllllll    %%%%%XXX%% llllllllllll",
"lllllllllllllll %%%%    llllllllllllllllllllllllllll    %%%%% lllllllllllll",
"lllllllllllllll %%%%    llllllllllllllllllllllllllll    %%%%% lllllllllllll",
"llllllllllllllll    llllllllllllllllllllllllllllllllllll    % lllllllllllll",
"llllllllllllllllllllllllllllllllllllllllllllllllllllllllllll  lllllllllllll",
"llllllllllllllllllllllllllllllllllllllllllllllllllllllllllll  lllllllllllll",
"lllllllllllllllllllllllllllllllllllllllllllllllllllllllllllllllllllllllllll",
"lllllllllllllllllllllllllllllllllllllllllllllllllllllllllllllllllllllllllll",
"lllllllllllllllllllllllllllllllllllllllllllllllllllllllllllllllllllllllllll",
"lllllllllllllllllllllllllllllllllllllllllllllllllllllllllllllllllllllllllll"
};
