/* XPM */
static char *result[] = {
/* columns rows colors chars-per-pixel */
"75 75 53 1 ",
"  c #6C091F",
". c #763709",
"X c #81001A",
"o c #AA5B1E",
"O c #B97325",
"+ c #CF720B",
"@ c #CD7909",
"# c #D32158",
"$ c #B59122",
"% c #E59223",
"& c #EA9C33",
"* c #DBB43B",
"= c #F4A030",
"- c #FAAE3A",
"; c #CF9544",
": c #DB9F48",
"> c #DBB273",
", c #E2B36C",
"< c #F5CA40",
"1 c gray64",
"2 c #A4A4A4",
"3 c gray65",
"4 c #A7A7A7",
"5 c gray66",
"6 c #A9A9A9",
"7 c #AAAAAA",
"8 c gray67",
"9 c #ACACAC",
"0 c #AFAFAF",
"q c gray69",
"w c #B1B1B1",
"e c gray70",
"r c gray71",
"t c gray72",
"y c #B9B9B9",
"u c gray73",
"i c gray74",
"p c #EDC587",
"a c #F3CE8B",
"s c #FADAA2",
"d c #FDDDA3",
"f c #F7DEB2",
"g c #FFE0AA",
"h c gray76",
"j c gray79",
"k c #CACACA",
"l c #FFEDCC",
"z c #FFF3CE",
"x c #FFF9E7",
"c c #F8F8F8",
"v c #F9F9F9",
"b c gray99",
"n c None",
/* pixels */
"nnnnnnnnnnnnnnnnnnnnnnnnnnnnnnnnnnnnnnnnnnnnnnnnnnnnnnnnnnnnnnnnnnnnnnnnnnn",
"nnnnnnnnnnnnnnnnnnnnnnnnnnnnnnnnnnnnnnnnnnnnnnnnnnnnnnnnnnnnnnnnnnnnnnnnnnn",
"nnnnnnnnnnnnnnnnnnnnnnnnnnnnnnnnnnnnnnnnnnnnnnnnnnnnnnnnnnnnnnnnnnnnnnnnnnn",
"nnnnnnnnnnnnnnnnnnnnnnnnnnnnnnnnnnnnnnnnnnnnnnnnnnnnnnnnnnnnnnnnnnnnnnnnnnn",
"nnnnnnnnnnnnnnnnnnnnnnnnnnnnnnnnnnnnnnnnnnnnnnnnnnnnnnnnnnnnnnnnnnnnnnnnnnn",
"nnnnnnnnnnnnnnnnnnnnnnnnnnnnnnnnnnnnnnnnnnnnnnnnnnnnnnnnnnnnnnnnnnnnnnnnnnn",
"nnnnnnnnnnnnnnnnnnnnnnnnnnnnnnnnnnnnnnnnnnnnnnnnnnnnnnnnnnnnnnnnnnnnnnnnnnn",
"nnnnnnnnnnnnnnnnnnnnnnnnnnnnnnnnnnnnnnnnnnnnnnnnnnnnnnnnnnnnn1nnnnnnnnnnnnn",
"nnnnnnnnnnnnnnnnnnnnnnnnnnnnnnnnnnnnnnnnnnnnnnnnnnnnnnnnnnnnn1nnnnnnnnnnnnn",
"nnnnnnnnnnnnnnnnnnnnnnnnnnnnnnnnnnnnnnnnnnnnnnnnnnnnnnnnnnnnn1nnnnnnnnnnnnn",
"nnnnnnnnnnnnnnnnnnnnnnnnnnnnnnnnnnnnnnnnnnnnnnnnnnnnnnnnnn111v111nnnnnnnnnn",
"nnnnnnnnnnn11nnnnnnnnnnnnnnnnnnnnnnnnnnnnnnnnnn1nnnnn11nnnnnn1nnnnnnnnnnnnn",
"nnnnnnnnnnn11nnnnnnnnnnnnnnnnnnnnnnnnnnnnnnnnnn1nnnnn11nnnnnn1nnnnnnnnnnnnn",
"nnnnnnnnnnn11nnnnnnnnnnnnnnnnnnnnnnnnnnnnnnnnn1v1nnnnnnnnnnnn1nnnnnnnnnnnnn",
"nnnnnnnnnnn22nnnnnnnnnnnnnnnnnnnnnnnnnnnnnnnnnn1nnnnnnnnn1nnnnnnnn1nnnnnnnn",
"nnnnnnnnnnn22nnnnnnnnnnnnnnnnnnnnnnnnnnnnnnnnnn1nnnnnnnnn1nnnnnnnn1nnnnnnnn",
"nnnnnnnnnn3bb3nnnnnnnnnnnnnnnnnnnnnnnnnnnnnnnnnnnnnnnnnnnnnnnnnnn1v11nnnnnn",
"nnnnnn5555vvvv4444nnnnnnn44nnnnnnnnnnnnnnnnnnnnnOOOOOOOOOOOOOnnnnn2nnnnnnnn",
"nnnnnnnnnn6cc6nnnnnnnnnn5vv5nnnnnnnnnnnnnnnnnnOOzxxxxxxxzzzzlOOOOnnnnnnnnnn",
"nnnnnnnnnn6cc6nnnnnnnnnn5vv5nnnnnnnnnnnnnnnnnnOOzxxxxxxxzzzzlOOOOnnnnnnnnnn",
"nnnnnnnnnnn77nnnnnn7nnnnn77nnnnnnnnnnnnnnnnOOOlzxxxxxxxxzzzzlllggOnnnnnnnnn",
"nnnnnnnnnnn99nnnnnnnnnn8nnnnnnnnnnnnnnnnnnOllllzxxxxxxxxzzzzlllggOnnnnnnnnn",
"nnnnnnnnnnn99nnnnnnnnnn8nnnnnnnnnnnnnnnnnnOllllzxxxxxxxxzzzzlllggOnnnnnnnnn",
"nnnnnnnnnnn00nnnnnnnnnnnnnnnnnnnnnnnnnnnnOsllllz*<<<***xzzzzllgggOnnnnnnnnn",
"nnnnnwnnnnnnnnnnnnnOOOOOOOOOOOOOOnnnnnnOOsslll$*xxxxxxx**zzzllgggOnnnnnn99n",
"nnnnnennnnnnnnnOOOOaaaaaaaappppppOOOnnnOOssl$$lzxxxx*xxzz*zzllgggOnnnnnnnnn",
"nnnnnennnnnnnnnOOOOaaaaaaaappppppOOOnnnOOssl$$lzxxxx*xxzz*zzllgggOnnnnnnnnn",
"nnnrrvrrrnnOOOOddddaaaaaaaapppppp,,,OnOssss$lllzxxx******z$$llg::Onnnnqnnnn",
"nnnnntnnnnOfffddddda=====@@@@@@@@,,,,OOggg$l$$$****xx**z*zll$gg::aOnnnnnnnn",
"nnnnntnnnnOfffddddda=====@@@@@@@@,,,,OOggg$l$$$****xx**z*zll$gg::aOnnnnnnnn",
"nnnnnunnnnOfffdddd==aaaaaaaappppp@@@,,Oggg$llll*x<<xx***zzll$gg::aOnnnnnnnn",
"nnnnnnnnnnnOOfdd==daaaaaaaaappppp,@@,,Oggg$lllz**xxxxxx*zzll$gg::aO..nnnnnn",
"nnnnnnnnnnnOOfdd==daaaaaaaaappppp,@@,,Oggg$lllz**xxxxxx*zzll$gg::aO..nnnnnn",
"nnnnnniin..OOffd==ddaaaaaaaappppp,@@,,Oggg$lllzz*xxxxxx*zzll$gg::O>..nnynnn",
"nnnnnnnnn.;OOffd==ddaaaaaaaapppppp@@,,Oggg$lllz*x<<xx**z*lll$g:aaO>..nnnnnn",
"nhhnnnnnn.;;;Ofddd=daaaaaaaapppppp@@,,Ogggg$llz**<<<*****l$$gg:aaO>.. nnnnn",
"nhhnnnnnn.;;;Ofddd=daaaaaaaapppppp@@,,Ogggg$llz**<<<*****l$$gg:aaO>.. nnnnn",
"nnnnnnnn  .;;Offdd=dddaaaaaapppppp@@,,Oggggl$$zxxxx<*xxzz$llgg:aaO.## nnnnn",
"nnnnnn  # .;;Offdd=dddaaaaaapppppp@@,,Ogggglll$*xxxx*xx*$lgggg:OO>.## nnnnn",
"nnnnnn  # .;;Offdd=dddaaaaaapppppp@@,,Ogggglll$*xxxx*xx*$lgggg:OO>.## nnnnn",
"nnnnnn  #X.;;;Ofddd=ddaaaaaaappppp@@,,Ogggglllzx*<<<***zzlgggg:OO>.## nnnnn",
"nnnnjn  ##X..;Offfd=ddaaaaaaappppp@@,,Ogggglllzxxxxxxzzzzlgggg:OO>.## nnnnn",
"nnnnnnnn #X..;Offfd=dddaaaaaappppp@@,,Ogggglllzxxxxxxzzzlgggg:O>>.### nnnnn",
"nnnnnnnn #X..;Offfd=dddaaaaaappppp@@,,Ogggglllzxxxxxxzzzlgggg:O>>.### nnnnn",
"nnnnnnnn #X..;;Offd=dddaaaaaappppp@@,,Ogggglll&--xxxxzzzlgggg:O>>.#  nnnnnn",
"nnnnknnn ##XX.;Offdd==da====%@@@@p@@,,Ogggg+++zxxxxxxzzzlgggg:O>>.#  nnnnnn",
"nnnnknnn ##XX.;Offdd==da====%@@@@p@@,,Ogggg+++zxxxxxxzzzlgggg:O>>.#  nnnnnn",
"nnnkvknnn #XX.;Offfd====aaaaaappp@@@,,Ogggglll&------zzzlgggg:O..X#  nnnnnn",
"nnnnknnnn #XX.;Offfddddd====%@@@pppp,,Ogggs+&&zxxxxxx&&+lgggg:>..##  nnnnnn",
"nnnnnnnnn ###X.;OOfddd==aaaaaapppppp,,Ogggslll&-----&zzlgggg:O>..# nnnnnnnn",
"nnnnnnnnn ###X.;OOfddd==aaaaaapppppp,,Ogggslll&-----&zzlgggg:O>..# nnnnnnnn",
"nnnnnnnnnn ##X.;OOfddddda====@@@@ppp,,Ogggs+&&xxxxxxx&&+gggg:O.XX# nnnnnnnn",
"nnnnnnnnnn ##X.;OOffddd==aaaaaaap@@@,,Ogggslllxxxxxxxzzlgggg:>.### nnnnnnnn",
"nnnnnnnnnn ##X.;OOffddd==aaaaaaap@@@,,Ogggslllxxxxxxxzzlgggg:>.### nnnnnnnn",
"nnnnnnnnnn ###X.;;Ofdddddaaaaaaapppp,,Ogggllll::::::::::gggg:>.## nnnnnnnnn",
"nnnnnnnnnnn  #X.;;OfffdddOOOOOOOOOOO,,Ogggl:::>>>>>>OOOg::gg:>.## nnnnnnnnn",
"nnnnnnnnnnn  #X.;;OfffdddOOOOOOOOOOO,,Ogggl:::>>>>>>OOOg::gg:>.## nnnnnnnnn",
"nnnnnnnnnnn  #X.;;OfffdOO;;;;;;;;;;;OOOOOOO........>>>>Oaa::O.### nnnnnnnnn",
"nnnnnnnnnnn  ##X..;OOOO;;oooo.......o;;;;...ooooooo....>OOOO>.#  nnnnnnnnnn",
"nnnnnnnnnnnnn #X..;O;;;oo....XXXXXXX.....XXX.....oooooo..>OO>.#  nnnnnnnnnn",
"nnnnnnnnnnnnn #X..;O;;;oo....XXXXXXX.....XXX.....oooooo..>OO>.#  nnnnnnnnnn",
"nnnnnnnnnnnnn #X..;ooo...XXXXXXXXXXXXXXXXXXXXXXXX....oooo.>>>.#  nnnnnnnnnn",
"nnnnnnnnnnnnn ##XX....XXXXXXX#####XXXXXXXX####XXXXXXX....o...##  nnnnnnnnnn",
"nnnnnnnnnnnnn ##XX....XXXXXXX#####XXXXXXXX####XXXXXXX....o...##  nnnnnnnnnn",
"nnnnnnnnnnnnnn #XX.XXXXXXXX#####  ########  #####XXXXXXXX....# nnnnnnnnnnnn",
"nnnnnnnnnnnnnn ###XXXXX#####    nn        nn    #####XXXXXXXX# nnnnnnnnnnnn",
"nnnnnnnnnnnnnnn ##XX####    nnnnnnnnnnnnnnnnnnnn    #####XXX## nnnnnnnnnnnn",
"nnnnnnnnnnnnnnn ##XX####    nnnnnnnnnnnnnnnnnnnn    #####XXX## nnnnnnnnnnnn",
"nnnnnnnnnnnnnnn ####    nnnnnnnnnnnnnnnnnnnnnnnnnnnn    ##### nnnnnnnnnnnnn",
"nnnnnnnnnnnnnnnn    nnnnnnnnnnnnnnnnnnnnnnnnnnnnnnnnnnnn    # nnnnnnnnnnnnn",
"nnnnnnnnnnnnnnnn    nnnnnnnnnnnnnnnnnnnnnnnnnnnnnnnnnnnn    # nnnnnnnnnnnnn",
"nnnnnnnnnnnnnnnnnnnnnnnnnnnnnnnnnnnnnnnnnnnnnnnnnnnnnnnnnnnn  nnnnnnnnnnnnn",
"nnnnnnnnnnnnnnnnnnnnnnnnnnnnnnnnnnnnnnnnnnnnnnnnnnnnnnnnnnnnnnnnnnnnnnnnnnn",
"nnnnnnnnnnnnnnnnnnnnnnnnnnnnnnnnnnnnnnnnnnnnnnnnnnnnnnnnnnnnnnnnnnnnnnnnnnn",
"nnnnnnnnnnnnnnnnnnnnnnnnnnnnnnnnnnnnnnnnnnnnnnnnnnnnnnnnnnnnnnnnnnnnnnnnnnn"
};
