/* XPM */
static char *result[] = {
/* columns rows colors chars-per-pixel */
"75 75 82 1 ",
"  c #080A02",
". c #090A02",
"X c #050E13",
"o c #060E13",
"O c #070E13",
"+ c #060F13",
"@ c #1B0C11",
"# c #1B0D11",
"$ c #2A030D",
"% c #2B030D",
"& c #0B1C28",
"* c #0B1D28",
"= c #0B1E28",
"- c #1B152A",
"; c #1B152B",
": c #1B162A",
"> c #1C152A",
", c #1A2624",
"< c #16253B",
"1 c #3A3A3D",
"2 c #3A3B3D",
"3 c #3B3B3D",
"4 c #393B3E",
"5 c #393B3F",
"6 c #3A3A3E",
"7 c #3A3B3E",
"8 c #3B3B3E",
"9 c #3A3A3F",
"0 c #3A3B3F",
"q c #3A3C3D",
"w c #3A3C3E",
"e c #530014",
"r c #530015",
"t c #530016",
"y c #540014",
"u c #540015",
"i c #550015",
"p c #540016",
"a c #2F4541",
"s c #2F4542",
"d c #2E4642",
"f c #2F4643",
"g c #304543",
"h c #314946",
"j c #246D69",
"k c #246E68",
"l c #246E69",
"z c #246E6A",
"x c #416964",
"c c #426A64",
"v c #436A64",
"b c #426B64",
"n c #436B65",
"m c #646B6B",
"M c #636C6A",
"N c #646C6B",
"B c #656C6B",
"V c #78747F",
"C c #817076",
"Z c #797480",
"A c #7B7581",
"S c #059087",
"D c #059187",
"F c #069187",
"G c #059188",
"H c #2FAFA5",
"J c #2FAFA6",
"K c #33DBCE",
"L c #33DACF",
"P c #33DBCF",
"I c #33DCCF",
"U c #98858B",
"Y c #8C9392",
"T c #8D9392",
"R c #8D9393",
"E c #8E9392",
"W c #8D9492",
"Q c #B7A7AC",
"! c #B9A8AD",
"~ c #B9A9AD",
"^ c #8FFFF7",
"/ c None",
/* pixels */
"///////////////////////////////////////////////////////////////////////////",
"///////////////////////////////////////////////////////////////////////////",
"///////////////////////////////////////////////////////////////////////////",
"////////////////////////////////////D//////////////////////////////////////",
"////////////////////////////////////D//////////////////////////////////////",
"///////////////////////////////////DPP/////////////////////////////////////",
"//////////////////////////////////DDPPD////////////////////////////////////",
"//////////////////////////////////DPPPS///P////////////////////////////////",
"//////////////////////////////////DPPD7D//D////////////////////////////////",
"/////////////////////////////////P7DDDD///9P///////////////////////////////",
"/////////////////////////////////P7DPDD////P///////////////////////////////",
"/////////////////////////////////DDDPPPFDP/////////////////////////////////",
"/////////////////////////////////5DDPPPL-P7////////////////////////////////",
"/////////////////////////////////DPDPPP-#DD/-#/////////////////////////////",
"/////////////////////////////////DDDPP>#PPD-#//////////////////////////////",
"//////////////////////////////////DDPP:;PP-DP//////////////////////////////",
"/////////////////////////////////6DPP#---P--D//////////////////////////////",
"/////////////////////////////////DPP##-##P;#D//////////////////////////////",
"/////////////////////////////////DP##-###!##D//////////////////////////////",
"/////////////////////////////////DP@####!!#DDD/////////////////////////////",
"/////////////////////////////////DP####U^U#DDG/////////////////////////////",
"/////////////////////////////////2P##UU~!UPDDD/////////////////////////////",
"//////////////////////////////////4P###C#UF////////////////////////////////",
"//////////////////////////////////ccs####P/////////////////////////////////",
"//////////////////////////////////ccss###P/////////////////////////////////",
"/////////////////////////////////vcccss##c/////////////////////////////////",
"////////////////////////////////acssccssssc////////////////////////////////",
"////////////////////////////////lsccssssscs////////////////////////////////",
"/////////////////////////////3JlllsssccsssJ///////NJlH/////////////////////",
"/////////////////////////////uJlllossssso$J98///6N7Jll/////////////////////",
"/////////////////////////////uJJlooouyr+o$kJTN4w7NlNlN/////////////////////",
"////////////////////////////J$ulz/oouueoou/Nll7TTlNl4N/////////////////////",
"////////////////////////////JJ$l//oootpoou/MTTJNllNNTY/////////////////////",
"////////////////////////////Jl/////<oo$oo$///////TDTE//////////////////////",
"////////////////////////////JJl///$$$$oooo////////NT///////////////////////",
"////////////////////////////JJl///$$$$$AAA$///////7T///////////////////////",
"////////////////////////////lJj///$$%$$!!A%//////6TT///////////////////////",
"////////////////////////////$i////oo/$$A!A$//////T7T///////////////////////",
"////////////////////////////u/////*u/c,,A,7//////mTT///////////////////////",
"////////////////////////////$////u*$//,,,,u//////wTN///////////////////////",
"///////////////////////////37///u$u$//cc,Qu/////T/R////////////////////////",
"///////////////////////////JJ///u$$o//cccZu/////Y/T////////////////////////",
"///////////////////////////lJJ/uu$oo/hcV!A$//P//PWm//I/////////////////////",
"////////////////////////////l//uu$oonxsssso/DNTPTTNPPT/////////////////////",
"////////////////////////////j//u$ooocvsssso//DNTNTNTTN/////////////////////",
"///////////////////////////////$$*oo/bccss*///DNNNNNBK/////////////////////",
"///////////////////////////////$o*oogccccs*////DNTNND//////////////////////",
"///////////////////////////////*o*oo/dbccs*/////NNmD///////////////////////",
"/////////////////////////////w=***oo/fssss*////////////////////////////////",
"/////////////////////////////1****oooosssoo////////////////////////////////",
"/////////////////////////////2*o*ooo.oossoo////////////////////////////////",
"/////////////////////////////0*o*ooo.oooooo////////////////////////////////",
"/////////////////////////////7*ooooo.oooooo////////////////////////////////",
"/////////////////////////////**oooo..oooooo////////////////////////////////",
"////////////////////////////=*..oo......ooo////////////////////////////////",
"////////////////////////////**./&X./.....oo////////////////////////////////",
"////////////////////////////oO//+/./......o////////////////////////////////",
"///////////////////////////////+/////...q.o////////////////////////////////",
"///////////////////////////////////////.././///////////////////////////////",
"//////////////////////////////////////// //////////////////////////////////",
"///////////////////////////////////////////////////////////////////////////",
"///////////////////////////////////////////////////////////////////////////",
"///////////////////////////////////////////////////////////////////////////",
"///////////////////////////////////////////////////////////////////////////",
"///////////////////////////////////////////////////////////////////////////",
"///////////////////////////////////////////////////////////////////////////",
"///////////////////////////////////////////////////////////////////////////",
"///////////////////////////////////////////////////////////////////////////",
"///////////////////////////////////////////////////////////////////////////",
"///////////////////////////////////////////////////////////////////////////",
"///////////////////////////////////////////////////////////////////////////",
"///////////////////////////////////////////////////////////////////////////",
"///////////////////////////////////////////////////////////////////////////",
"///////////////////////////////////////////////////////////////////////////",
"///////////////////////////////////////////////////////////////////////////"
};
