/* XPM */
static char *result[] = {
/* columns rows colors chars-per-pixel */
"75 75 83 1 ",
"  c #090901",
". c #090A01",
"X c #090A02",
"o c #090B02",
"O c #090B03",
"+ c #0A0A02",
"@ c #050D13",
"# c #050E13",
"$ c #060E13",
"% c #060F13",
"& c #060E14",
"* c #070E14",
"= c #1B0D10",
"- c #1B0C11",
"; c #1B0D11",
": c #1B0D12",
"> c #2A030C",
", c #2A030D",
"< c #2B030D",
"1 c #0B1D28",
"2 c #1A152A",
"3 c #1B152A",
"4 c #1B152B",
"5 c #1B162A",
"6 c #1C1529",
"7 c #1A2624",
"8 c #393B3D",
"9 c #3A3A3D",
"0 c #3A3B3D",
"q c #3B3B3D",
"w c #393B3E",
"e c #393B3F",
"r c #3A3A3E",
"t c #3A3B3E",
"y c #3B3B3E",
"u c #3A3B3F",
"i c #3B3B3F",
"p c #3A3C3D",
"a c #3A3C3E",
"s c #3A3C3F",
"d c #530015",
"f c #540015",
"g c #540016",
"h c #2E4542",
"j c #2F4542",
"k c #2F4543",
"l c #2E4642",
"z c #236E69",
"x c #246D68",
"c c #246D69",
"v c #256E68",
"b c #246E69",
"n c #246F69",
"m c #426A63",
"M c #426A64",
"N c #426B64",
"B c #646B6B",
"V c #646C6B",
"C c #646D6B",
"Z c #646C6C",
"A c #817076",
"S c #7B7481",
"D c #7B7581",
"F c #7B7681",
"G c #7C7581",
"H c #059186",
"J c #059087",
"K c #059187",
"L c #069087",
"P c #069187",
"I c #059287",
"U c #2FAFA6",
"Y c #2FB0A6",
"T c #2FB0A7",
"R c #32DBCF",
"E c #33DBCF",
"W c #33DCCE",
"Q c #33DBD0",
"! c #34DBD0",
"~ c #98858B",
"^ c #8D9392",
"/ c #B9A8AD",
"( c None",
/* pixels */
"(((((((((((((((((((((((((((((((((((((((((((((((((((((((((((((((((((((((((((",
"((((((((((((((((((((((((((((((((((((EQ(((((((((((((((((((((((((((((((((((((",
"(((((((((((((((((((((((((((((((((((EEK(((((((((((((((((((((((((((((((((((((",
"(((((((((((((((((((((((((((((((((((EEK(((((((((((((((((((((((((((((((((((((",
"(((((((((((((((((((((((((((((((((((EKK(((((((((((((((((((((((((((((((((((((",
"((((((((((((((((((((((((((((((((((((r(((((((E((((((((((((((((((((((((((((((",
"(((((((((((((((((((((((((((((((((((((((((((EE((((((((((((((((((((((((((((((",
"((((((((((((((((((((((((((((((((((((((((((EEE((((((((((((((((((((((((((((((",
"((((((((((((((((((((((((((((((((((((((((((EEE((((((((((((((((((((((((((((((",
"((((((((((((((((((((((((((((((((((((((((((EEE((((((((((((((((((((((((((((((",
"((((((((((((((((((((((((((((((((((rI(KKK((EEK((((((((((((((((((((((((((((((",
"((((((((((((((((((((((((((((((((((KK(KEEKJKKH((((((((((((((((((((((((((((((",
"(((((((((((((((((((((((((((((((((KKEKEQ3KEKpt-(((((((((((((((((((((((((((((",
"((((((((((((((((((((((((((((((((KKKKEE5;EEK03((((((((((((((((((((((((((((((",
"((((((((((((((((((((((((((((((((KKKEEE23EE4;L((((((((((((((((((((((((((((((",
"((((((((((((((((((((((((((((((((yKEEE;36EE334((((((((((((((((((((((((((((((",
"((((((((((((((((((((((((((((((((KKEE;;6;EE33;K(((((((((((((((((((((((((((((",
"((((((((((((((((((((((((((((((((JEER:3=;//;;;K(((((((((((((((((((((((((((((",
"((((((((((((((((((((((((((((((((QEEW;;;~~~;EI((((((((((((((((((((((((((((((",
"(((((((((((((((((((((((((((((((((EE!;~~/~EEE(((((((((((((((((((((((((((((((",
"((((((((((((((((((((((((((((((((((EE;;//~EEP(((((((((((((((((((((((((((((((",
"(((((((((((((((((((((((((((((((((((E;;~~~EE((((((((((((((((((((((((((((((((",
"(((((((((((((((((((((((((((((((((((t;;;A~EE((((((((((((((((((((((((((((((((",
"(((((((((((((((((((((((((((((((((((Mjj;;Er(((((((((((((((((((((((((((((((((",
"((((((((((((((((((((((((((((((((MMjMMjj;MM(((((((((((((((((((((((((((((((((",
"((((((((((((((((((((((((((((((((jMMjMMjjjMm((((((((((((((((((((((((((((((((",
"(((((((((((((((((((((((((((((((njjjMjjjjMMj((((((((((((((((((((((((((((((((",
"((((((((((((((((((((((((((((((Ubbb$kjMMj((bT(((((((UU((((((((((((((((((((((",
"(((((((((((((((((((((((((((((fUbbb$$jjjj,,UU((((((VUb((((((((((((((((((((((",
"(((((((((((((((((((((((((((((fUbb$$$fff$,fUb(((((CtUb((((((((((((((((((((((",
"((((((((((((((((((((((((((((U<fb(($$fff$ffzUUVut^VbVc((((((((((((((((((((((",
"((((((((((((((((((((((((((((YU,((((a$,,$f,((V^UV^bVVBV(((((((((((((((((((((",
"((((((((((((((((((((((((((((Ub(((((y$$,$,$((rVbb^V((tt(((((((((((((((((((((",
"(((((((((((((((((((((((((((UbU(((((t$$$$$$((((((e^((^^(((((((((((((((((((((",
"(((((((((((((((((((((((((((bUUv(((a,,,$$%$((((((((((^^(((((((((((((((((((((",
"(((((((((((((((((((((((((((UUUx(((y,,,<SG,,(((((((((VV(((((((((((((((((((((",
"(((((((((((((((((((((((((((f<ft((it$j,,DF,,(((((((((^^(((((((((((((((((((((",
"(((((((((((((((((((((((((((dft9ptt11j(7777a(((((E(((^^(((((((((((((((((((((",
"(((((((((((((((((((((((((((f,twqff,1j(7777f(((((J(((VV(((((((((((((((((((((",
"(((((((((((((((((((((((((((,ttwgf,,fj((//Dff(((((r((tt(((((((((((((((((((((",
"((((((((((((((((((((((((((pUUbyff,,$jj((D$f,((((Et((^^(((((((((((((((((((((",
"((((((((((((((((((((((((((ybUUyf,,,$Nj(DD$,,(((EEK((VV(((((((((((((((((((((",
"(((((((((((((((((((((((((((UbUyf,,$$MMjDj$,>(((EKt(((tEEE((((((((((((((((((",
"(((((((((((((((((((((((((((nb(pf,,$$MNjjj$$,(((EEu((wtKEQ((((((((((((((((((",
"((((((((((((((((((((((((((((((p,,1$$MMjjj$$,(((pEEw9^^tEK((((((((((((((((((",
"((((((((((((((((((((((((((((((8$1$$$jMMMj$1$((((tV^^ZV^^V((((((((((((((((((",
"((((((((((((((((((((((((((((((w$1$$$jlMMj$1$(((((KVVVV((W((((((((((((((((((",
"((((((((((((((((((((((((((((((t$1$$$j(MMj$1$((((((KVVZ(((((((((((((((((((((",
"((((((((((((((((((((((((((((((1$1$$$khjjj11$(((((((KVVP((((((((((((((((((((",
"((((((((((((((((((((((((((((((1$$1$$1$$j$1$$(((((((((((((((((((((((((((((((",
"((((((((((((((((((((((((((((((1$$1$$1$$1$1$$#((((((((((((((((((((((((((((((",
"((((((((((((((((((((((((((((((11$1$$1$X1$1$$#((((((((((((((((((((((((((((((",
"(((((((((((((((((((((((((((((r$1$1$$XXX1$1$$*((((((((((((((((((((((((((((((",
"((((((((((((((((((((((((((((($$1$$$XXXX$$X$$$((((((((((((((((((((((((((((((",
"((((((((((((((((((((((((((((($$$$$XXXXXX$$$$$((((((((((((((((((((((((((((((",
"((((((((((((((((((((((((((((($$X$$XXXXXX$$$$$$(((((((((((((((((((((((((((((",
"(((((((((((((((((((((((((((((#@(($XXXXsXXX$$$$(((((((((((((((((((((((((((((",
"((((((((((((((((((((((((((((((((($%(O.+(o X&$$(((((((((((((((((((((((((((((",
"((((((((((((((((((((((((((((((((((((((((((((($(((((((((((((((((((((((((((((",
"(((((((((((((((((((((((((((((((((((((((((((((((((((((((((((((((((((((((((((",
"(((((((((((((((((((((((((((((((((((((((((((((((((((((((((((((((((((((((((((",
"(((((((((((((((((((((((((((((((((((((((((((((((((((((((((((((((((((((((((((",
"(((((((((((((((((((((((((((((((((((((((((((((((((((((((((((((((((((((((((((",
"(((((((((((((((((((((((((((((((((((((((((((((((((((((((((((((((((((((((((((",
"(((((((((((((((((((((((((((((((((((((((((((((((((((((((((((((((((((((((((((",
"(((((((((((((((((((((((((((((((((((((((((((((((((((((((((((((((((((((((((((",
"(((((((((((((((((((((((((((((((((((((((((((((((((((((((((((((((((((((((((((",
"(((((((((((((((((((((((((((((((((((((((((((((((((((((((((((((((((((((((((((",
"(((((((((((((((((((((((((((((((((((((((((((((((((((((((((((((((((((((((((((",
"(((((((((((((((((((((((((((((((((((((((((((((((((((((((((((((((((((((((((((",
"(((((((((((((((((((((((((((((((((((((((((((((((((((((((((((((((((((((((((((",
"(((((((((((((((((((((((((((((((((((((((((((((((((((((((((((((((((((((((((((",
"(((((((((((((((((((((((((((((((((((((((((((((((((((((((((((((((((((((((((((",
"(((((((((((((((((((((((((((((((((((((((((((((((((((((((((((((((((((((((((((",
"((((((((((((((((((((((((((((((((((((((((((((((((((((((((((((((((((((((((((("
};
