/* XPM */
static char *result[] = {
/* columns rows colors chars-per-pixel */
"75 75 22 1 ",
"  c #090A02",
". c #060E13",
"X c #1B0D11",
"o c #2A030D",
"O c #0B1D28",
"+ c #1B152A",
"@ c #1A2624",
"# c #3A3B3E",
"$ c #540015",
"% c #2F4542",
"& c #246E69",
"* c #426A64",
"= c #646C6B",
"- c #817076",
"; c #7B7581",
": c #059187",
"> c #2FAFA6",
", c #33DBCF",
"< c #98858B",
"1 c #8D9392",
"2 c #B9A8AD",
"3 c None",
/* pixels */
"33333333333333333333333333333333333333333333,,,3333333333333333333333333333",
"33333333333333333333333333333333333333333333,,:3333333333333333333333333333",
"33333333333333333333333333333333333333333333,,:3333333333333333333333333333",
"33333333333333333333333333333333333333333333,,:3333333333333333333333333333",
"33333333333333333333333333333333333333333333,:33333333333333333333333333333",
"33333333333333333333333333333333333333,,3333:333333333333333333333333333333",
"3333333333333333333333333333333333333::,3333:333333333333333333333333333333",
"3333333333333333333333333333333333333::333333333333333333333333333333333333",
"3333333333333333333333333333333333333::333333333333333333333333333333333333",
"3333333333333333333333333333333333333:,:33333333333333333333333333333333333",
"333333333333333333333333333333333333,,,,::3:::33333333333333333333333333333",
"3333333333333333333333333333333333:,,,,3,::,+X33333333333333333333333333333",
"33333333333333333333333333333333::,,,,+3,,,,3333333333333333333333333333333",
"3333333333333333333333333333333::,,,,,+,,,,3:333333333333333333333333333333",
"3333333333333333333333333333333::,,,,X++,,3+:333333333333333333333333333333",
"3333333333333333333333333333333:::,,XX+X,,3+:333333333333333333333333333333",
"3333333333333333333333333333333:::,,X+XX22XX3333333333333333333333333333333",
"3333333333333333333333333333333:::,,XXXX2<XX3333333333333333333333333333333",
"3333333333333333333333333333333333:,X<<2<,,,3333333333333333333333333333333",
"33333333333333333333333333333333333,XX22<,,:3333333333333333333333333333333",
"33333333333333333333333333333333333,XX<<<,,33333333333333333333333333333333",
"333333333333333333333333333333333333XXX-<,333333333333333333333333333333333",
"33333333333333333333333333333333333*%XXX,3333333333333333333333333333333333",
"33333333333333333333333333333333**%**%%X**333333333333333333333333333333333",
"33333333333333333333333333333333%**%**%%%**33333333333333333333333333333333",
"3333333333333333333333333333333&%%%*%%%%**333333333333333333333333333333333",
"3333333333333333333333333333333&&&%%****%%&33333333333333333333333333333333",
"333333333333333333333333333333>&&&..%%%%oo>>3333333>>3333333333333333333333",
"33333333333333333333333333333$>&&...$$$.o$>&333333=>&3333333333333333333333",
"3333333333333333333333333333>o$&33..$$$.$$&>33333=3>&3333333333333333333333",
"3333333333333333333333333333>>o3333..$$.$$3&1=331=&=&1333333333333333333333",
"3333333333333333333333333333>&333333..o.o.3311>=1&===3333333333333333333333",
"333333333333333333333333333>&>333333......33==3&1=3331333333333333333333333",
"333333333333333333333333333&>>&3333ooo....333333313311333333333333333333333",
"333333333333333333333333333>>>&3333oooo;;oo3333333331=333333333333333333333",
"333333333333333333333333333>&>33333oooo2;oo333333333=3333333333333333333333",
"333333333333333333333333333$$33333OO%2@@@@333333333333133333333333333333333",
"333333333333333333333333333$o333$$oO%2@@@@$33333333331=33333333333333333333",
"333333333333333333333333333o#33$$oo$%2222;$$3333,,3331333333333333333333333",
"333333333333333333333333333>>33$$ooo%222;;$$333,,:,33=13:,33333333333333333",
"333333333333333333333333333&>>3$ooo.*%2;;.oo333:333331=:,,:3333333333333333",
"333333333333333333333333333>&>3$oo..**%;%.oo33333,333=33:333333333333333333",
"333333333333333333333333333&&33$oo..**%%%..o33333,,333,3:333333333333333333",
"3333333333333333333333333333&33oo...**%%%..o33333,,333:33333333333333333333",
"3333333333333333333333333333333.....%***%...3333331,,1=,,1,3333333333333333",
"3333333333333333333333333333333.....%%**%...33333,3111311,33333333333333333",
"3333333333333333333333333333333.....%%**%...333333,3333==333333333333333333",
"3333333333333333333333333333333.....%%%%%...3333333,31==:333333333333333333",
"3333333333333333333333333333333....O.O%%....33333333:==:3333333333333333333",
"3333333333333333333333333333333...O..O......3333333333333333333333333333333",
"3333333333333333333333333333333...O..O.......333333333333333333333333333333",
"3333333333333333333333333333333...O... ......333333333333333333333333333333",
"3333333333333333333333333333333......   .....333333333333333333333333333333",
"333333333333333333333333333333......    .. ..333333333333333333333333333333",
"3333333333333333333333333333333. ...     .....33333333333333333333333333333",
"3333333333333333333333333333333.33..      ....33333333333333333333333333333",
"3333333333333333333333333333333.33..3      ...33333333333333333333333333333",
"3333333333333333333333333333333333333333 333...3333333333333333333333333333",
"33333333333333333333333333333333333333333333.333333333333333333333333333333",
"333333333333333333333333333333333333333333333333333333333333333333333333333",
"333333333333333333333333333333333333333333333333333333333333333333333333333",
"333333333333333333333333333333333333333333333333333333333333333333333333333",
"333333333333333333333333333333333333333333333333333333333333333333333333333",
"333333333333333333333333333333333333333333333333333333333333333333333333333",
"333333333333333333333333333333333333333333333333333333333333333333333333333",
"333333333333333333333333333333333333333333333333333333333333333333333333333",
"333333333333333333333333333333333333333333333333333333333333333333333333333",
"333333333333333333333333333333333333333333333333333333333333333333333333333",
"333333333333333333333333333333333333333333333333333333333333333333333333333",
"333333333333333333333333333333333333333333333333333333333333333333333333333",
"333333333333333333333333333333333333333333333333333333333333333333333333333",
"333333333333333333333333333333333333333333333333333333333333333333333333333",
"333333333333333333333333333333333333333333333333333333333333333333333333333",
"333333333333333333333333333333333333333333333333333333333333333333333333333",
"333333333333333333333333333333333333333333333333333333333333333333333333333"
};
