/* XPM */
static char *result[] = {
/* columns rows colors chars-per-pixel */
"75 75 22 1 ",
"  c #090A02",
". c #060E13",
"X c #1B0D11",
"o c #2A030D",
"O c #0B1D28",
"+ c #1B152A",
"@ c #1A2624",
"# c #3A3B3E",
"$ c #540015",
"% c #2F4542",
"& c #246E69",
"* c #426A64",
"= c #646C6B",
"- c #817076",
"; c #7B7581",
": c #059187",
"> c #2FAFA6",
", c #33DBCF",
"< c #98858B",
"1 c #8D9392",
"2 c #B9A8AD",
"3 c None",
/* pixels */
"333333333333333333333333333333333333333333333333333333333333333333333333333",
"333333333333333333333333333333333333333333333333333333333333333333333333333",
"333333333333333333333333333333333333333333333333333333333333333333333333333",
"333333333333333333333333333333333333333333333333333333333333333333333333333",
"333333333333333333333333333333333333333333333333333333333333333333333333333",
"3333333333333333333333333333333333::333333333333333333333333333333333333333",
"333333333333333333333333333333333::3333333333333333333333333333333333333333",
"333333333333333333333333333333333::3333333333333333333333333333333333333333",
"33333333333333333333333333333333::33333333333333333333333333333333333333333",
"33333333333333333333333333333333:,,3,,3333333333333333333333333333333333333",
"3333333333333333333333333333333:,,,,,,,3,::,,333333333333333333333333333333",
"333333333333333333333333333333::,,,,,,33,,,,3:33333333333333333333333333333",
"333333333333333333333333333333::,,,,,,+,,,,3X:33333333333333333333333333333",
"333333333333333333333333333333::,,,,,,++,,33,:33333333333333333333333333333",
"3333333333333333333333333333333:::,,XX+X::3+3333333333333333333333333333333",
"3333333333333333333333333333333:::,,X+XX22XX3333333333333333333333333333333",
"333333333333333333333333333333333:,,XXXX2<XX:333333333333333333333333333333",
"333333333333333333333333333333333:,,XXX<<<X,:333333333333333333333333333333",
"33333333333333333333333333333333333:XX22<,,:3333333333333333333333333333333",
"333333333333333333333333333333333333XX<<<,:33333333333333333333333333333333",
"333333333333333333333333333333333333XXX-<3333333333333333333333333333333333",
"33333333333333333333333333333333333*%XXX,3333333333333333333333333333333333",
"3333333333333333333333333333333333%*%%XX33333333333333333333333333333333333",
"33333333333333333333333333333333%**%**%%%**33333333333333333333333333333333",
"3333333333333333333333333333333&%%%*%%%%**333333333333333333333333333333333",
"3333333333333333333333333333333&&&%%****%%&>3333333>>3333333333333333333333",
"333333333333333333333333333333>&&&.%%**%%o>>3333333>&3333333333333333333333",
"33333333333333333333333333333$>&&...$$$.o$&>>3331=&=&3333333333333333333333",
"3333333333333333333333333333>o$&33..$$$.$$3&3&31>&=&31333333333333333333333",
"3333333333333333333333333333>>o3333..$$.$$33=1>=1&==3=333333333333333333333",
"3333333333333333333333333333>>o33333.oo.$o333=&&1=3331333333333333333333333",
"333333333333333333333333333>&>333333......333333333331313333,33333333333333",
"3333333333333333333333333333>>33333ooo....33333333333=1=3333:33333333333333",
"333333333333333333333333333>>>&3333oooo;;oo33333333333113333333333333333333",
"333333333333333333333333333>&>33333oooo2;oo33333333333131333333333333333333",
"333333333333333333333333333$o$33333.%oo;;oo33333333333313,33333333333333333",
"333333333333333333333333333$o333$$oO%2@@@@$333,,33333331=133333333333333333",
"333333333333333333333333333o#33$$oo$%2222;$$3333333333313133333333333333333",
"333333333333333333333333333>>33$$ooo%222;;$$333333333333=133333333333333333",
"333333333333333333333333333>>&3$$oo.%%22;.$o3333333333331333333333333333333",
"333333333333333333333333333>&>3$oo..**%;%.oo333333333:33113,,,3333333333333",
"333333333333333333333333333&&33$oo..**%%%..o33333333:1::11,,333333333333333",
"3333333333333333333333333333&33oo...**%%%..o333333333=11=1113,3333333333333",
"3333333333333333333333333333333o...O****%..o333333333:=====3,33333333333333",
"3333333333333333333333333333333....O%***%.O.3333333333:==13:333333333333333",
"3333333333333333333333333333333....O%%**%.O.333333333333:333333333333333333",
"333333333333333333333333333333O....O%%%%%.O.3333333333333333333333333333333",
"333333333333333333333333333333O.O..O..%%..O.3333333333333333333333333333333",
"333333333333333333333333333333O.O......%..O.3333333333333333333333333333333",
"333333333333333333333333333333O..O.... ....O3333333333333333333333333333333",
"333333333333333333333333333333...O.... ....O3333333333333333333333333333333",
"333333333333333333333333333333...O..    . .OO333333333333333333333333333333",
"33333333333333333333333333333....O..    . ..O333333333333333333333333333333",
"33333333333333333333333333333... ...    .....333333333333333333333333333333",
"33333333333333333333333333333. 3...3     ....333333333333333333333333333333",
"333333333333333333333333333333 3..33     ....333333333333333333333333333333",
"333333333333333333333333333333333..33  3  ...333333333333333333333333333333",
"333333333333333333333333333333333.3333 33 33.333333333333333333333333333333",
"333333333333333333333333333333333333333333333333333333333333333333333333333",
"333333333333333333333333333333333333333333333333333333333333333333333333333",
"333333333333333333333333333333333333333333333333333333333333333333333333333",
"333333333333333333333333333333333333333333333333333333333333333333333333333",
"333333333333333333333333333333333333333333333333333333333333333333333333333",
"333333333333333333333333333333333333333333333333333333333333333333333333333",
"333333333333333333333333333333333333333333333333333333333333333333333333333",
"333333333333333333333333333333333333333333333333333333333333333333333333333",
"333333333333333333333333333333333333333333333333333333333333333333333333333",
"333333333333333333333333333333333333333333333333333333333333333333333333333",
"333333333333333333333333333333333333333333333333333333333333333333333333333",
"333333333333333333333333333333333333333333333333333333333333333333333333333",
"333333333333333333333333333333333333333333333333333333333333333333333333333",
"333333333333333333333333333333333333333333333333333333333333333333333333333",
"333333333333333333333333333333333333333333333333333333333333333333333333333",
"333333333333333333333333333333333333333333333333333333333333333333333333333",
"333333333333333333333333333333333333333333333333333333333333333333333333333"
};
