/* XPM */
static char *result[] = {
/* columns rows colors chars-per-pixel */
"75 75 22 1 ",
"  c #090A02",
". c #060E13",
"X c #1B0D11",
"o c #2A030D",
"O c #0B1D28",
"+ c #1B152A",
"@ c #1A2624",
"# c #3A3B3E",
"$ c #540015",
"% c #2F4542",
"& c #246E69",
"* c #426A64",
"= c #646C6B",
"- c #817076",
"; c #7B7581",
": c #059187",
"> c #2FAFA6",
", c #33DBCF",
"< c #98858B",
"1 c #8D9392",
"2 c #B9A8AD",
"3 c None",
/* pixels */
"333333333333333333333333333333333333,,3333333333333333333333333333333333333",
"33333333333333333333333333333333333:,,:333,33333333333333333333333333333333",
"333333333333333333333333333333333333,:3333,33333333333333333333333333333333",
"333333333333333333333333333333333:33::3333,,3333333333333333333333333333333",
"33333333333333333333333333333333:,,3,333333:3333333333333333333333333333333",
"33333333333333333333333333333333:,,3,33:333:3333333333333333333333333333333",
"333333333333333333333333333333333:,3,,,3,3333333333333333333333333333333333",
"3333333333333333333333333333333333:3,,,,,3333333333333333333333333333333333",
"3333333333333333333333333333333333:3,,,,33333333333333333333333333333333333",
"33333333333333333333333333333333333:,,,,3333,333333333333333333333333333333",
"333333333333333333333333333333333:::,,,3,:,33333333333333333333333333333333",
"333333333333333333333333333333333:::,,33,,,,3:33333333333333333333333333333",
"333333333333333333333333333333333:::,,3,,,,3:333333333333333333333333333333",
"333333333333333333333333333333333::,,,33,,33:333333333333333333333333333333",
"333333333333333333333333333333333::,XX+X,,33::33333333333333333333333333333",
"333333333333333333333333333333333::,X+XX2233::33333333333333333333333333333",
"333333333333333333333333333333333:,,XXXX2<33:333333333333333333333333333333",
"333333333333333333333333333333333:,,XXX<<<X:3333333333333333333333333333333",
"3333333333333333333333333333333333,,X<<2<,,:3333333333333333333333333333333",
"33333333333333333333333333333333333,XX<<<,,33333333333333333333333333333333",
"333333333333333333333333333333333333XXX-<,,33333333333333333333333333333333",
"33333333333333333333333333333333333*%XXX,,333333333333333333333333333333333",
"3333333333333333333333333333333333%*%%XX,3333333333333333333333333333333333",
"33333333333333333333333333333333%**%**%%%**33333333333333333333333333333333",
"333333333333333333333333333333333%%*%%%%**333333333333333333333333333333333",
"3333333333333333333333333333333&&&%%****%%&>3333333>>3333333333333333333333",
"33333333333333333333333333333#>&&&.%%**%%o>>333333=>&3333333333333333333333",
"33333333333333333333333333333$>>&...$$$.o$&>1=331=&=&1333333333333333333333",
"3333333333333333333333333333>o$&33..$$$.$$3&&&31>&=&11=33333333333333333333",
"3333333333333333333333333333>>o&333..$$.$$3311>=1&==31333333333333333333333",
"3333333333333333333333333333>>o33333.oo.$o3333&&1=3333133::3333333333333333",
"3333333333333333333333333333>&333333..o.o.3333333133313133:3333333333333333",
"333333333333333333333333333&>>33333ooo....33333333333=133333333333333333333",
"333333333333333333333333333>>>&3333oooo;;oo3333333333=313333333333333333333",
"333333333333333333333333333>&>33333oooo2;oo33333333331131333333333333333333",
"333333333333333333333333333$o$33333.%oo;;oo33333333333113333333333333333333",
"333333333333333333333333333$o333$$oO%2@@@@$3333333333331=333333333333333333",
"333333333333333333333333333o#333$oo$%2222;$$333333333331:333333333333333333",
"333333333333333333333333333>>333$ooo%222;;$$333333333331,333333333333333333",
"333333333333333333333333333>>&33$oo.%%22;.$o333333333,3313333,,333333333333",
"333333333333333333333333333>&>#$oo..**%;%.oo33333333331,,1=,,1,333333333333",
"333333333333333333333333333&&33$oo..**%%%..o333333333:311131133333333333333",
"3333333333333333333333333333&33$o.O.**%%%..o3333333333:3=33=3,3333333333333",
"3333333333333333333333333333333o.OO.****%.Oo33333333333:31==:33333333333333",
"3333333333333333333333333333333O.O..%%**%.O.3333333333333=,3333333333333333",
"3333333333333333333333333333333O.O..%%**%.O.3333333333333333333333333333333",
"333333333333333333333333333333OO.O..%%%%%.O.3333333333333333333333333333333",
"333333333333333333333333333333OO.O....%%....3333333333333333333333333333333",
"333333333333333333333333333333O...O. ..%.O..3333333333333333333333333333333",
"333333333333333333333333333333O.O.O. ....O.O3333333333333333333333333333333",
"33333333333333333333333333333OO.O.O. ....O.O3333333333333333333333333333333",
"33333333333333333333333333333OO.O... ....O.O3333333333333333333333333333333",
"33333333333333333333333333333O..O..   ...O.O3333333333333333333333333333333",
"3333333333333333333333333333OO 3..      ...O3333333333333333333333333333333",
"3333333333333333333333333333..33.3       ..O3333333333333333333333333333333",
"3333333333333333333333333333333.33 33     ..3333333333333333333333333333333",
"333333333333333333333333333333333333333 3  .3333333333333333333333333333333",
"333333333333333333333333333333333333333333333333333333333333333333333333333",
"333333333333333333333333333333333333333333333333333333333333333333333333333",
"333333333333333333333333333333333333333333333333333333333333333333333333333",
"333333333333333333333333333333333333333333333333333333333333333333333333333",
"333333333333333333333333333333333333333333333333333333333333333333333333333",
"333333333333333333333333333333333333333333333333333333333333333333333333333",
"333333333333333333333333333333333333333333333333333333333333333333333333333",
"333333333333333333333333333333333333333333333333333333333333333333333333333",
"333333333333333333333333333333333333333333333333333333333333333333333333333",
"333333333333333333333333333333333333333333333333333333333333333333333333333",
"333333333333333333333333333333333333333333333333333333333333333333333333333",
"333333333333333333333333333333333333333333333333333333333333333333333333333",
"333333333333333333333333333333333333333333333333333333333333333333333333333",
"333333333333333333333333333333333333333333333333333333333333333333333333333",
"333333333333333333333333333333333333333333333333333333333333333333333333333",
"333333333333333333333333333333333333333333333333333333333333333333333333333",
"333333333333333333333333333333333333333333333333333333333333333333333333333",
"333333333333333333333333333333333333333333333333333333333333333333333333333"
};
