/* XPM */
static char *result[] = {
/* columns rows colors chars-per-pixel */
"75 75 22 1 ",
"  c #090A02",
". c #060E13",
"X c #1B0D11",
"o c #2A030D",
"O c #0B1D28",
"+ c #1B152A",
"@ c #1A2624",
"# c #3A3B3E",
"$ c #540015",
"% c #2F4542",
"& c #246E69",
"* c #426A64",
"= c #646C6B",
"- c #817076",
"; c #7B7581",
": c #059187",
"> c #2FAFA6",
", c #33DBCF",
"< c #98858B",
"1 c #8D9392",
"2 c #B9A8AD",
"3 c None",
/* pixels */
"33333333333333333333333333333333333333:333333333333333333333333333333333333",
"333333333333333333333333333333333,33333333333333333333333333333333333333333",
"33333333333333333333333333333333,,3333333,333333333333333333333333333333333",
"33333333333333333333333333333333,:3333333:333333333333333333333333333333333",
"33333333333333333333333333333333,:3333333:333333333333333333333333333333333",
"333333333333333333333333333333333:33:33333:33333333333333333333333333333333",
"33333333333333333333333333333333333:,,3333333333333333333333333333333333333",
"33333333333333333333333333333333333:,33333333333333333333333333333333333333",
"33333333333333333333333333333333333:,33333333333333333333333333333333333333",
"333333333333333333333333333333333333333333333333333333333333333333333333333",
"33333333333333333333333333333333333333,,::3:3333333333333333333333333333333",
"3333333333333333333333333333333333333,,3:::,3333333333333333333333333333333",
"333333333333333333333333333333333:::,,33,,:,3:33333333333333333333333333333",
"33333333333333333333333333333333::,,,,3,,,:3::33333333333333333333333333333",
"33333333333333333333333333333333::,,,X++,,33:::3333333333333333333333333333",
"33333333333333333333333333333333::,,XX+X,,33:::3333333333333333333333333333",
"33333333333333333333333333333333:,,,X+XX2233::33333333333333333333333333333",
"33333333333333333333333333333333::,,XXXX2<3X:333333333333333333333333333333",
"33333333333333333333333333333333::,,XXX<<<X:3333333333333333333333333333333",
"33333333333333333333333333333333333,XX22<,::3333333333333333333333333333333",
"33333333333333333333333333333333333,XX<<<,:33333333333333333333333333333333",
"33333333333333333333333333333333333#XXX-<,,33333333333333333333333333333333",
"33333333333333333333333333333333333*%XXX,,333333333333333333333333333333333",
"33333333333333333333333333333333**%**%%X*3333333333333333333333333333333333",
"33333333333333333333333333333333%**%**%%%**33333333333333333333333333333333",
"3333333333333333333333333333333&&&%*%%%%**3>3333333>>3333333333333333333333",
"333333333333333333333333333333>&&&%%****%%>>333333=>&3333333333333333333333",
"33333333333333333333333333333$>>&...%%%%oo&>13331=&=&1333333333333333333333",
"3333333333333333333333333333>o$&#...$$$.o$3&&&31>&=&1=333333333333333333333",
"3333333333333333333333333333>>o333..$$$.$$3311>=1&===1333333333333333333333",
"3333333333333333333333333333>>o3333..$$.$$333=&&1=3331133333333333333333333",
"3333333333333333333333333333>>333333.oo.$o333333313333133333333333333333333",
"333333333333333333333333333>>>&33333......333333333331333333333333333333333",
"333333333333333333333333333>&>&3333ooo....333333333331133333333333333333333",
"333333333333333333333333333$o$33333oooo;;oo33333333331313333333333333333333",
"333333333333333333333333333$$333333oooo2;oo333333333311=3333333333333333333",
"333333333333333333333333333o#33333OO%2@@@@333333333333113333333333333333333",
"333333333333333333333333333>>333$$oO%2@@@@$33333333,31=13333333333333333333",
"333333333333333333333333333>>&33$oo$%2222;$$333333,,313=3333333333333333333",
"333333333333333333333333333&>>33$ooo%222;;$$3333333:33==3333333333333333333",
"333333333333333333333333333&&33$ooo.*%2;;.oo33333333333=3333333333333333333",
"3333333333333333333333333333&33$oo..**%;%.oo33333333,,31133,,33333333333333",
"3333333333333333333333333333333$oo..**%%%%.o3333333,3,,11,,31:3333333333333",
"3333333333333333333333333333333$oO..****%%.o33333333:11=1113,33333333333333",
"3333333333333333333333333333333o....O%%**%..333333333:==1=:,333333333333333",
"3333333333333333333333333333333O....O%%*%%..3333333333:==:33333333333333333",
"3333333333333333333333333333333O....O%%%%%..33333333333:3333333333333333333",
"333333333333333333333333333333OO.......%%O..3333333333333333333333333333333",
"333333333333333333333333333333OO...O....%...3333333333333333333333333333333",
"333333333333333333333333333333OO...O. ..O.O.3333333333333333333333333333333",
"333333333333333333333333333333OO..... ..O.O.3333333333333333333333333333333",
"333333333333333333333333333333......  ..O.O.3333333333333333333333333333333",
"333333333333333333333333333333......  ..O.O.3333333333333333333333333333333",
"33333333333333333333333333333.  ..      ..O..333333333333333333333333333333",
"33333333333333333333333333333.O ..      ..O..333333333333333333333333333333",
"33333333333333333333333333333333..  3    .O..333333333333333333333333333333",
"33333333333333333333333333333333.33  333 33..333333333333333333333333333333",
"333333333333333333333333333333333333333333333333333333333333333333333333333",
"333333333333333333333333333333333333333333333333333333333333333333333333333",
"333333333333333333333333333333333333333333333333333333333333333333333333333",
"333333333333333333333333333333333333333333333333333333333333333333333333333",
"333333333333333333333333333333333333333333333333333333333333333333333333333",
"333333333333333333333333333333333333333333333333333333333333333333333333333",
"333333333333333333333333333333333333333333333333333333333333333333333333333",
"333333333333333333333333333333333333333333333333333333333333333333333333333",
"333333333333333333333333333333333333333333333333333333333333333333333333333",
"333333333333333333333333333333333333333333333333333333333333333333333333333",
"333333333333333333333333333333333333333333333333333333333333333333333333333",
"333333333333333333333333333333333333333333333333333333333333333333333333333",
"333333333333333333333333333333333333333333333333333333333333333333333333333",
"333333333333333333333333333333333333333333333333333333333333333333333333333",
"333333333333333333333333333333333333333333333333333333333333333333333333333",
"333333333333333333333333333333333333333333333333333333333333333333333333333",
"333333333333333333333333333333333333333333333333333333333333333333333333333",
"333333333333333333333333333333333333333333333333333333333333333333333333333"
};
