/* XPM */
static char *result[] = {
/* columns rows colors chars-per-pixel */
"75 75 22 1 ",
"  c #090A02",
". c #060E13",
"X c #1B0D11",
"o c #2A030D",
"O c #0B1D28",
"+ c #1B152A",
"@ c #1A2624",
"# c #3A3B3E",
"$ c #540015",
"% c #2F4542",
"& c #246E69",
"* c #426A64",
"= c #646C6B",
"- c #817076",
"; c #7B7581",
": c #059187",
"> c #2FAFA6",
", c #33DBCF",
"< c #98858B",
"1 c #8D9392",
"2 c #B9A8AD",
"3 c None",
/* pixels */
"333333333333333333333333333333333:333333333:3333333333333333333333333333333",
"333333333333333333333333333333333333,,3333333333333333333333333333333333333",
"33333333333333333333333333333333333,,:3333333333333333333333333333333333333",
"33333333333333333333333333333333333,,:3333333333333333333333333333333333333",
"33333333333333333333333333333333333,::3333333333333333333333333333333333333",
"333333333333333333333333333333333333:33333333333333333333333333333333333333",
"3333333333333333333333333333333333333333333,:333333333333333333333333333333",
"333333333333333333333333333333333333333333,,:333333333333333333333333333333",
"333333333333333333333333333333333333333333,,:333333333333333333333333333333",
"333333333333333333333333333333333333333333,,:333333333333333333333333333333",
"333333333333333333333333333333333333333333,,3333333333333333333333333333333",
"3333333333333333333333333333333333333:,,::::3333333333333333333333333333333",
"333333333333333333333333333333333333:,,3:,:3+X33333333333333333333333333333",
"333333333333333333333333333333333333,,+X,,:3X333333333333333333333333333333",
"333333333333333333333333333333333:::,,++,,+33333333333333333333333333333333",
"333333333333333333333333333333333::,,X++,,++:333333333333333333333333333333",
"333333333333333333333333333333333::,XX+X,,++::33333333333333333333333333333",
"33333333333333333333333333333333::,,X+XX22XX::33333333333333333333333333333",
"33333333333333333333333333333333::,,XXXX2<XX::33333333333333333333333333333",
"333333333333333333333333333333333:,,X<<2<,,,:333333333333333333333333333333",
"3333333333333333333333333333333333,,XX22<,,:3333333333333333333333333333333",
"33333333333333333333333333333333333,XX<<<,,33333333333333333333333333333333",
"333333333333333333333333333333333333XXX-<,,33333333333333333333333333333333",
"33333333333333333333333333333333333*%%XX,3333333333333333333333333333333333",
"33333333333333333333333333333333**%**%%X*3333333333333333333333333333333333",
"333333333333333333333333333333333**%**%%%**33333333333333333333333333333333",
"3333333333333333333333333333333&&&%*%%%%**3>3333333>>3333333333333333333333",
"33333333333333333333333333333$>&&&.%%**%%o>&1=331=3=&3333333333333333333333",
"33333333333333333333333333333$>>&...%%%%oo&>333133=&&3333333333333333333333",
"3333333333333333333333333333>o$&3...$$$.o$#&113=1&==33333333333333333333333",
"3333333333333333333333333333>>o333..$$$.$$3333>>1=3311333333333333333333333",
"3333333333333333333333333333>>o3333..$$.$$333&&&&133==333333333333333333333",
"333333333333333333333333333>>>&33333..o.o.333333333311333333333333333333333",
"333333333333333333333333333>>>&33333......333333333311333333333333333333333",
"333333333333333333333333333>&>&3333ooo....3333333333==333333333333333333333",
"333333333333333333333333333$o$33333oooo;;oo33333333333333333333333333333333",
"333333333333333333333333333$o333333.%oo;;oo33333,33311333333333333333333333",
"333333333333333333333333333o#33333OO%2@@@@333333:333==333333333333333333333",
"333333333333333333333333333>>333$$oO%2@@@@$33333333333333333333333333333333",
"333333333333333333333333333>>&33$oo$%2222;$$33333,3311333333333333333333333",
"333333333333333333333333333>&>33$oo.%%22;.$o33333333==333333333333333333333",
"333333333333333333333333333&&33$ooo.*%2;;.oo3333333333,,,333333333333333333",
"3333333333333333333333333333&33$oo..**%;%%oo3333333333:,,333333333333333333",
"3333333333333333333333333333333$oo..****%%.o33333,33113,:333333333333333333",
"3333333333333333333333333333333oOO...%%**%.o33333311==113333333333333333333",
"3333333333333333333333333333333oO....%%*%%O.33333:3====3,333333333333333333",
"3333333333333333333333333333333OO....%%%%%O.333333:3===:3333333333333333333",
"3333333333333333333333333333333OO.....O%%.O.3333333:33:33333333333333333333",
"333333333333333333333333333333OOO.....O.%OO.33333333:,333333333333333333333",
"333333333333333333333333333333OO.O..O..O.O..3333333333333333333333333333333",
"333333333333333333333333333333OO.O..O..O.O..3333333333333333333333333333333",
"333333333333333333333333333333O..O..O. O.O..3333333333333333333333333333333",
"333333333333333333333333333333...O..   O.O..3333333333333333333333333333333",
"33333333333333333333333333333......    .. ...333333333333333333333333333333",
"33333333333333333333333333333.. ..      .....333333333333333333333333333333",
"33333333333333333333333333333..3..      ......33333333333333333333333333333",
"33333333333333333333333333333..33.    3   ....33333333333333333333333333333",
"333333333333333333333333333333333333333333 3..33333333333333333333333333333",
"33333333333333333333333333333333333333333333..33333333333333333333333333333",
"333333333333333333333333333333333333333333333333333333333333333333333333333",
"333333333333333333333333333333333333333333333333333333333333333333333333333",
"333333333333333333333333333333333333333333333333333333333333333333333333333",
"333333333333333333333333333333333333333333333333333333333333333333333333333",
"333333333333333333333333333333333333333333333333333333333333333333333333333",
"333333333333333333333333333333333333333333333333333333333333333333333333333",
"333333333333333333333333333333333333333333333333333333333333333333333333333",
"333333333333333333333333333333333333333333333333333333333333333333333333333",
"333333333333333333333333333333333333333333333333333333333333333333333333333",
"333333333333333333333333333333333333333333333333333333333333333333333333333",
"333333333333333333333333333333333333333333333333333333333333333333333333333",
"333333333333333333333333333333333333333333333333333333333333333333333333333",
"333333333333333333333333333333333333333333333333333333333333333333333333333",
"333333333333333333333333333333333333333333333333333333333333333333333333333",
"333333333333333333333333333333333333333333333333333333333333333333333333333",
"333333333333333333333333333333333333333333333333333333333333333333333333333"
};
