/* XPM */
static char *result[] = {
/* columns rows colors chars-per-pixel */
"75 75 21 1 ",
"  c #090A02",
". c #060E13",
"X c #1B0D11",
"o c #2A030D",
"O c #0B1D28",
"+ c #1B152A",
"@ c #1A2624",
"# c #3A3B3E",
"$ c #540015",
"% c #2F4542",
"& c #246E69",
"* c #426A64",
"= c #646C6B",
"- c #7B7581",
"; c #059187",
": c #2FAFA6",
"> c #33DBCF",
", c #98858B",
"< c #8D9392",
"1 c #B9A8AD",
"2 c None",
/* pixels */
"2222222222222222222222222222222222222222222222>2222222222222222222222222222",
"22222222222222222222222222222222222222222222>>>2222222222222222222222222222",
"22222222222222222222222222222222222222222222>>>2222222222222222222222222222",
"22222222222222222222222222222222222222222222>>;2222222222222222222222222222",
"22222222222222222222222222222222222222222222>>;2222222222222222222222222222",
"22222222222222222222222222222222222222222222>>;2222222222222222222222222222",
"22222222222222222222222222222222222222222222>222222222222222222222222222222",
"22222222222222222222222222222222222222>>2222;222222222222222222222222222222",
"2222222222222222222222222222222222222;;>2222;222222222222222222222222222222",
"2222222222222222222222222222222222222;;222222222222222222222222222222222222",
"2222222222222222222222222222222222222;>;22222222222222222222222222222222222",
"22222222222222222222222222222222222;2;;;2222;222222222222222222222222222222",
"2222222222222222222222222222222222;>>>>>;;2;;;22222222222222222222222222222",
"222222222222222222222222222222222;;>>>>+>;;>+X22222222222222222222222222222",
"22222222222222222222222222222222;>>>>>+>>>>+;222222222222222222222222222222",
"22222222222222222222222222222222;>>>>>++>>+X;222222222222222222222222222222",
"22222222222222222222222222222222;>>>>X++>>2+;222222222222222222222222222222",
"22222222222222222222222222222222;;>>XX+X>>++;222222222222222222222222222222",
"22222222222222222222222222222222;;>>X+XX11XX;222222222222222222222222222222",
"22222222222222222222222222222222;;;>XXX,,,2;2222222222222222222222222222222",
"2222222222222222222222222222222222;>X,,1,>>;2222222222222222222222222222222",
"22222222222222222222222222222222222>XX11,>>;2222222222222222222222222222222",
"22222222222222222222222222222222222>XX,,,>>22222222222222222222222222222222",
"222222222222222222222222222222222222%XXX>>222222222222222222222222222222222",
"2222222222222222222222222222222222%*%%XX>2222222222222222222222222222222222",
"22222222222222222222222222222222**%**%%X**222222222222222222222222222222222",
"22222222222222222222222222222222%**%**%%%**22222222222222222222222222222222",
"222222222222222222222222222222:&&&%%****%%&:222222=::2222222222222222222222",
"22222222222222222222222222222$:&&&.%%**%%o::22222=2:&2222222222222222222222",
"22222222222222222222222222222$::&...%%%%oo:&<=22<=2=&2222222222222222222222",
"2222222222222222222222222222:o$&2...$$$.o$&:22=<22=&&2222222222222222222222",
"2222222222222222222222222222::o&22..$$$.$$2&<<2=<&==22222222222222222222222",
"2222222222222222222222222222::#22222.oo.$o222&&&&<2<<2222222222222222222222",
"222222222222222222222222222:::&22222..o.o.222222222<<2222222222222222222222",
"222222222222222222222222222:::&22222......222222222=22222222222222222222222",
"222222222222222222222222222:&:&2222ooo....2222222222<2222222222222222222222",
"222222222222222222222222222$$222222oooo1-oo2222222<2<2222222222222222222222",
"222222222222222222222222222$o222222.%oo--oo2222222=<<2222222222222222222222",
"222222222222222222222222222o#22222OO%1@@@@222222222<2;>>2222222222222222222",
"222222222222222222222222222::222$$oO%1@@@@$2222222<=2>>>>222222222222222222",
"222222222222222222222222222&::22$ooo%111--$$22>>22=<<;;22222222222222222222",
"222222222222222222222222222:&:22$oo.%%11-.$o22>>>22==;222222222222222222222",
"222222222222222222222222222&&22$ooo.*%1--.oo22;>>22=;2222222222222222222222",
"2222222222222222222222222222&22$oo..**%-%%oo222>>2<<<2>>>222222222222222222",
"2222222222222222222222222222222$o....%***%.o222>2<2<2<2>2222222222222222222",
"2222222222222222222222222222222o.....%%**%.o2222>22=22;22222222222222222222",
"2222222222222222222222222222222o....O%%*%%..2222222<2;222222222222222222222",
"2222222222222222222222222222222O....O%%%%%..22222;2222222222222222222222222",
"2222222222222222222222222222222O....O..%%...222222;2>2222222222222222222222",
"2222222222222222222222222222222O...O.O......2222222222222222222222222222222",
"2222222222222222222222222222222O..O..O......2222222222222222222222222222222",
"2222222222222222222222222222222O..O..O......2222222222222222222222222222222",
"2222222222222222222222222222222...O..O.......222222222222222222222222222222",
"2222222222222222222222222222222......   .....222222222222222222222222222222",
"222222222222222222222222222222......    .. ..222222222222222222222222222222",
"222222222222222222222222222222......    .. ..222222222222222222222222222222",
"2222222222222222222222222222222. ...     .....22222222222222222222222222222",
"2222222222222222222222222222222.22..2      ...22222222222222222222222222222",
"2222222222222222222222222222222222..2222 2 ....2222222222222222222222222222",
"2222222222222222222222222222222222222222 222...2222222222222222222222222222",
"22222222222222222222222222222222222222222222.222222222222222222222222222222",
"222222222222222222222222222222222222222222222222222222222222222222222222222",
"222222222222222222222222222222222222222222222222222222222222222222222222222",
"222222222222222222222222222222222222222222222222222222222222222222222222222",
"222222222222222222222222222222222222222222222222222222222222222222222222222",
"222222222222222222222222222222222222222222222222222222222222222222222222222",
"222222222222222222222222222222222222222222222222222222222222222222222222222",
"222222222222222222222222222222222222222222222222222222222222222222222222222",
"222222222222222222222222222222222222222222222222222222222222222222222222222",
"222222222222222222222222222222222222222222222222222222222222222222222222222",
"222222222222222222222222222222222222222222222222222222222222222222222222222",
"222222222222222222222222222222222222222222222222222222222222222222222222222",
"222222222222222222222222222222222222222222222222222222222222222222222222222",
"222222222222222222222222222222222222222222222222222222222222222222222222222",
"222222222222222222222222222222222222222222222222222222222222222222222222222"
};
