/* XPM */
static char *result[] = {
/* columns rows colors chars-per-pixel */
"75 75 85 1 ",
"  c #080A02",
". c #090A02",
"X c #050E13",
"o c #060E13",
"O c #070E13",
"+ c #060F13",
"@ c #1B0C11",
"# c #1B0D11",
"$ c #2A030D",
"% c #2B030D",
"& c #0B1C28",
"* c #0B1D28",
"= c #0B1E28",
"- c #1B152A",
"; c #1B152B",
": c #1B162A",
"> c #1C152A",
", c #1A2624",
"< c #16253B",
"1 c #3A3A3D",
"2 c #3A3B3D",
"3 c #3B3B3D",
"4 c #393B3E",
"5 c #393B3F",
"6 c #3A3A3E",
"7 c #3A3B3E",
"8 c #3B3B3E",
"9 c #3A3A3F",
"0 c #3A3B3F",
"q c #3A3C3D",
"w c #3A3C3E",
"e c #530014",
"r c #530015",
"t c #530016",
"y c #540014",
"u c #540015",
"i c #550015",
"p c #540016",
"a c #2F4541",
"s c #2F4542",
"d c #2E4642",
"f c #2F4643",
"g c #304543",
"h c #314946",
"j c #246D69",
"k c #246E68",
"l c #246E69",
"z c #246E6A",
"x c #416964",
"c c #426964",
"v c #426A64",
"b c #436A64",
"n c #426B64",
"m c #426A65",
"M c #436A65",
"N c #436B65",
"B c #646B6B",
"V c #636C6A",
"C c #646C6B",
"Z c #656C6B",
"A c #78747F",
"S c #817076",
"D c #797480",
"F c #7B7581",
"G c #059087",
"H c #059187",
"J c #069187",
"K c #059188",
"L c #2FAFA5",
"P c #2FAFA6",
"I c #33DBCE",
"U c #33DACF",
"Y c #33DBCF",
"T c #33DCCF",
"R c #98858B",
"E c #8C9392",
"W c #8D9392",
"Q c #8D9393",
"! c #8E9392",
"~ c #8D9492",
"^ c #B7A7AC",
"/ c #B9A8AD",
"( c #B9A9AD",
") c #8FFFF7",
"_ c None",
/* pixels */
"___________________________________________________________________________",
"___________________________________________________________________________",
"___________________________________________________________________________",
"______________________________________H____________________________________",
"______________________________________H____________________________________",
"_____________________________________YYH___________________________________",
"____________________________________HYYHH__________________________________",
"________________________________Y___GYYYH__________________________________",
"________________________________H__H7HYYH__________________________________",
"_______________________________Y9___HHHH7Y_________________________________",
"_______________________________Y____HHYH7Y_________________________________",
"_________________________________YHJYYYHHH_________________________________",
"________________________________7Y-UYYYHH5_________________________________",
"_____________________________#-_HH#-YYYHYH_________________________________",
"______________________________#-HYY#>YYHHH_________________________________",
"______________________________YH-YY;:YYHH__________________________________",
"______________________________H--Y---#YYH6_________________________________",
"______________________________H#;Y##-##YYH_________________________________",
"______________________________H##/###-##YH_________________________________",
"_____________________________HHH#//####@YH_________________________________",
"_____________________________KHH#R)R####YH_________________________________",
"_____________________________HHHYR/(RR##Y2_________________________________",
"________________________________JR#S###Y4__________________________________",
"_________________________________Y####svv__________________________________",
"_________________________________Y###ssvv__________________________________",
"_________________________________v##ssvvvb_________________________________",
"________________________________vssssvvssva________________________________",
"________________________________svsssssvvsl________________________________",
"_____________________LlPC_______PsssvvssslllP3_____________________________",
"_____________________llP7C6___89P$osssssolllPu_____________________________",
"_____________________ClClC7w4CWPk$o+ryuooolPPu_____________________________",
"_____________________C4lClWW7llC_uooeuuoo_zlu$P____________________________",
"_____________________EWCCllCPWWV_uooptooo__l$PP____________________________",
"______________________!WHW_______$oo$oo<_____lP____________________________",
"_______________________WC________oooo$$$$___lPP____________________________",
"_______________________W7_______$FFF$$$$$___lPP____________________________",
"_______________________WW6______%F//$$%$$___jPl____________________________",
"_______________________W7W______$F/F$$_oo____i$____________________________",
"_______________________WWB______7,F,,N_u*_____u____________________________",
"_______________________CWw______u,,,,__$*u____$____________________________",
"________________________Q_W_____u^,vM__$u$u___73___________________________",
"________________________W_E_____uDcvv__o$$u___PP___________________________",
"_____________________T__B~Y__Y__$F/Amh_oo$uu_PPl___________________________",
"_____________________WYYCWWYWCH_ossssxNoo$uu__l____________________________",
"_____________________CWWCWCWCH__ossssbvooo$u__j____________________________",
"_____________________IZCCCCCH___*ssvvn_oo*$$_______________________________",
"______________________HCCWCH____*svvvvgoo*o$_______________________________",
"_______________________HBCC_____*svvnd_oo*o*_______________________________",
"________________________________*ssssf_oo***=w_____________________________",
"________________________________oosssoooo****1_____________________________",
"________________________________oossoo.ooo*o*2_____________________________",
"________________________________oooooo.ooo*o*0_____________________________",
"________________________________oooooo.ooooo*7_____________________________",
"________________________________oooooo..oooo**_____________________________",
"________________________________ooo......oo..*=____________________________",
"________________________________oo....._.X&_.**____________________________",
"________________________________o......_._+__Oo____________________________",
"________________________________o.q..._____+_______________________________",
"________________________________._.._______________________________________",
"__________________________________ ________________________________________",
"___________________________________________________________________________",
"___________________________________________________________________________",
"___________________________________________________________________________",
"___________________________________________________________________________",
"___________________________________________________________________________",
"___________________________________________________________________________",
"___________________________________________________________________________",
"___________________________________________________________________________",
"___________________________________________________________________________",
"___________________________________________________________________________",
"___________________________________________________________________________",
"___________________________________________________________________________",
"___________________________________________________________________________",
"___________________________________________________________________________",
"___________________________________________________________________________"
};
