/* XPM */
static char *result[] = {
/* columns rows colors chars-per-pixel */
"75 75 83 1 ",
"  c #090901",
". c #090A01",
"X c #090A02",
"o c #090B02",
"O c #090B03",
"+ c #0A0A02",
"@ c #050D13",
"# c #050E13",
"$ c #060E13",
"% c #060F13",
"& c #060E14",
"* c #070E14",
"= c #1B0D10",
"- c #1B0C11",
"; c #1B0D11",
": c #1B0D12",
"> c #2A030C",
", c #2A030D",
"< c #2B030D",
"1 c #0B1D28",
"2 c #1A152A",
"3 c #1B152A",
"4 c #1B152B",
"5 c #1B162A",
"6 c #1C1529",
"7 c #1A2624",
"8 c #393B3D",
"9 c #3A3A3D",
"0 c #3A3B3D",
"q c #3B3B3D",
"w c #393B3E",
"e c #393B3F",
"r c #3A3A3E",
"t c #3A3B3E",
"y c #3B3B3E",
"u c #3A3B3F",
"i c #3B3B3F",
"p c #3A3C3D",
"a c #3A3C3E",
"s c #3A3C3F",
"d c #530015",
"f c #540015",
"g c #540016",
"h c #2E4542",
"j c #2F4542",
"k c #2F4543",
"l c #2E4642",
"z c #236E69",
"x c #246D68",
"c c #246D69",
"v c #256E68",
"b c #246E69",
"n c #246F69",
"m c #426A63",
"M c #426A64",
"N c #426B64",
"B c #646B6B",
"V c #646C6B",
"C c #646D6B",
"Z c #646C6C",
"A c #817076",
"S c #7B7481",
"D c #7B7581",
"F c #7B7681",
"G c #7C7581",
"H c #059186",
"J c #059087",
"K c #059187",
"L c #069087",
"P c #069187",
"I c #059287",
"U c #2FAFA6",
"Y c #2FB0A6",
"T c #2FB0A7",
"R c #32DBCF",
"E c #33DBCF",
"W c #33DCCE",
"Q c #33DBD0",
"! c #34DBD0",
"~ c #98858B",
"^ c #8D9392",
"/ c #B9A8AD",
"( c None",
/* pixels */
"(((((((((((((((((((((((((((((((((((((((((((((((((((((((((((((((((((((((((((",
"(((((((((((((((((((((((((((((((((((((QE((((((((((((((((((((((((((((((((((((",
"(((((((((((((((((((((((((((((((((((((KEE(((((((((((((((((((((((((((((((((((",
"(((((((((((((((((((((((((((((((((((((KEE(((((((((((((((((((((((((((((((((((",
"(((((((((((((((((((((((((((((((((((((KKE(((((((((((((((((((((((((((((((((((",
"((((((((((((((((((((((((((((((E(((((((r((((((((((((((((((((((((((((((((((((",
"((((((((((((((((((((((((((((((EE(((((((((((((((((((((((((((((((((((((((((((",
"((((((((((((((((((((((((((((((EEE((((((((((((((((((((((((((((((((((((((((((",
"((((((((((((((((((((((((((((((EEE((((((((((((((((((((((((((((((((((((((((((",
"((((((((((((((((((((((((((((((EEE((((((((((((((((((((((((((((((((((((((((((",
"((((((((((((((((((((((((((((((KEE((KKK(Ir((((((((((((((((((((((((((((((((((",
"((((((((((((((((((((((((((((((HKKJKEEK(KK((((((((((((((((((((((((((((((((((",
"(((((((((((((((((((((((((((((-tpKEK3QEKEKK(((((((((((((((((((((((((((((((((",
"((((((((((((((((((((((((((((((30KEE;5EEKKKK((((((((((((((((((((((((((((((((",
"((((((((((((((((((((((((((((((L;4EE32EEEKKK((((((((((((((((((((((((((((((((",
"((((((((((((((((((((((((((((((433EE63;EEEKy((((((((((((((((((((((((((((((((",
"(((((((((((((((((((((((((((((K;33EE;6;;EEKK((((((((((((((((((((((((((((((((",
"(((((((((((((((((((((((((((((K;;;//;=3:REEJ((((((((((((((((((((((((((((((((",
"((((((((((((((((((((((((((((((IE;~~~;;;WEEQ((((((((((((((((((((((((((((((((",
"(((((((((((((((((((((((((((((((EEE~/~~;!EE(((((((((((((((((((((((((((((((((",
"(((((((((((((((((((((((((((((((PEE~//;;EE((((((((((((((((((((((((((((((((((",
"((((((((((((((((((((((((((((((((EE~~~;;E(((((((((((((((((((((((((((((((((((",
"((((((((((((((((((((((((((((((((EE~A;;;t(((((((((((((((((((((((((((((((((((",
"(((((((((((((((((((((((((((((((((rE;;jjM(((((((((((((((((((((((((((((((((((",
"(((((((((((((((((((((((((((((((((MM;jjMMjMM((((((((((((((((((((((((((((((((",
"((((((((((((((((((((((((((((((((mMjjjMMjMMj((((((((((((((((((((((((((((((((",
"((((((((((((((((((((((((((((((((jMMjjjjMjjjn(((((((((((((((((((((((((((((((",
"((((((((((((((((((((((UU(((((((Tb((jMMjk$bbbU((((((((((((((((((((((((((((((",
"((((((((((((((((((((((bUV((((((UU,,jjjj$$bbbUf(((((((((((((((((((((((((((((",
"((((((((((((((((((((((bUtC(((((bUf,$fff$$$bbUf(((((((((((((((((((((((((((((",
"((((((((((((((((((((((cVbV^tuVUUzff$fff$$((bf<U((((((((((((((((((((((((((((",
"(((((((((((((((((((((VBVVb^VU^V((,f$,,$a((((,UY((((((((((((((((((((((((((((",
"(((((((((((((((((((((tt((V^bbVr(($,$,$$y(((((bU((((((((((((((((((((((((((((",
"(((((((((((((((((((((^^((^e(((((($$$$$$t(((((UbU(((((((((((((((((((((((((((",
"(((((((((((((((((((((^^(((((((((($%$$,,,a(((vUUb(((((((((((((((((((((((((((",
"(((((((((((((((((((((VV(((((((((,,GS<,,,y(((xUUU(((((((((((((((((((((((((((",
"(((((((((((((((((((((^^(((((((((,,FD,,j$ti((tf<f(((((((((((((((((((((((((((",
"(((((((((((((((((((((^^(((E(((((a7777(j11ttp9tfd(((((((((((((((((((((((((((",
"(((((((((((((((((((((VV(((J(((((f7777(j1,ffqwt,f(((((((((((((((((((((((((((",
"(((((((((((((((((((((tt((r(((((ffD//((jf,,fgwtt,(((((((((((((((((((((((((((",
"(((((((((((((((((((((^^((tE((((,f$D((jj$,,ffybUUp((((((((((((((((((((((((((",
"(((((((((((((((((((((VV((KEE(((,,$DD(jN$,,,fyUUby((((((((((((((((((((((((((",
"((((((((((((((((((EEEt(((tKE(((>,$jDjMM$$,,fyUbU(((((((((((((((((((((((((((",
"((((((((((((((((((QEKtw((uEE(((,$$jjjNM$$,,fp(bn(((((((((((((((((((((((((((",
"((((((((((((((((((KEt^^9wEEp(((,$$jjjMM$$1,,p((((((((((((((((((((((((((((((",
"((((((((((((((((((V^^VZ^^Vt(((($1$jMMMj$$$1$8((((((((((((((((((((((((((((((",
"((((((((((((((((((W((VVVVK((((($1$jMMlj$$$1$w((((((((((((((((((((((((((((((",
"(((((((((((((((((((((ZVVK(((((($1$jMM(j$$$1$t((((((((((((((((((((((((((((((",
"((((((((((((((((((((PVVK((((((($11jjjhk$$$1$1((((((((((((((((((((((((((((((",
"((((((((((((((((((((((((((((((($$1$j$$1$$1$$1((((((((((((((((((((((((((((((",
"((((((((((((((((((((((((((((((#$$1$1$$1$$1$$1((((((((((((((((((((((((((((((",
"((((((((((((((((((((((((((((((#$$1$1X$1$$1$11((((((((((((((((((((((((((((((",
"((((((((((((((((((((((((((((((*$$1$1XXX$$1$1$r(((((((((((((((((((((((((((((",
"(((((((((((((((((((((((((((((($$$X$$XXXX$$$1$$(((((((((((((((((((((((((((((",
"(((((((((((((((((((((((((((((($$$$$XXXXXX$$$$$(((((((((((((((((((((((((((((",
"((((((((((((((((((((((((((((($$$$$$XXXXXX$$X$$(((((((((((((((((((((((((((((",
"((((((((((((((((((((((((((((($$$$XXXsXXXX$((@#(((((((((((((((((((((((((((((",
"((((((((((((((((((((((((((((($$&X o(+.O(%$(((((((((((((((((((((((((((((((((",
"((((((((((((((((((((((((((((($(((((((((((((((((((((((((((((((((((((((((((((",
"(((((((((((((((((((((((((((((((((((((((((((((((((((((((((((((((((((((((((((",
"(((((((((((((((((((((((((((((((((((((((((((((((((((((((((((((((((((((((((((",
"(((((((((((((((((((((((((((((((((((((((((((((((((((((((((((((((((((((((((((",
"(((((((((((((((((((((((((((((((((((((((((((((((((((((((((((((((((((((((((((",
"(((((((((((((((((((((((((((((((((((((((((((((((((((((((((((((((((((((((((((",
"(((((((((((((((((((((((((((((((((((((((((((((((((((((((((((((((((((((((((((",
"(((((((((((((((((((((((((((((((((((((((((((((((((((((((((((((((((((((((((((",
"(((((((((((((((((((((((((((((((((((((((((((((((((((((((((((((((((((((((((((",
"(((((((((((((((((((((((((((((((((((((((((((((((((((((((((((((((((((((((((((",
"(((((((((((((((((((((((((((((((((((((((((((((((((((((((((((((((((((((((((((",
"(((((((((((((((((((((((((((((((((((((((((((((((((((((((((((((((((((((((((((",
"(((((((((((((((((((((((((((((((((((((((((((((((((((((((((((((((((((((((((((",
"(((((((((((((((((((((((((((((((((((((((((((((((((((((((((((((((((((((((((((",
"(((((((((((((((((((((((((((((((((((((((((((((((((((((((((((((((((((((((((((",
"(((((((((((((((((((((((((((((((((((((((((((((((((((((((((((((((((((((((((((",
"((((((((((((((((((((((((((((((((((((((((((((((((((((((((((((((((((((((((((("
};
