/* XPM */
static char *result[] = {
/* columns rows colors chars-per-pixel */
"75 75 47 1 ",
"  c #020300",
". c #070302",
"X c #010406",
"o c #040405",
"O c #010509",
"+ c #01060B",
"@ c #08050A",
"# c #140509",
"$ c #250005",
"% c #13211F",
"& c #140D25",
"* c #031722",
"= c #031723",
"- c #041523",
"; c #37383B",
": c #313E3D",
"> c #53000D",
", c #53000E",
"< c #2B433F",
"1 c #2B4240",
"2 c #2B4340",
"3 c #1F6E69",
"4 c #1F6F69",
"5 c #3F6A64",
"6 c #406A64",
"7 c #646B6A",
"8 c #646B6B",
"9 c #646C6A",
"0 c #646C6B",
"q c #827177",
"w c #7C7682",
"e c #019188",
"r c #009288",
"t c #019288",
"y c #009289",
"u c #019289",
"i c #2BB0A7",
"p c #30DCD0",
"a c #99868C",
"s c #8D9393",
"d c #8E9393",
"f c #8F9492",
"g c #8E9493",
"h c #8E9593",
"j c #8F9593",
"k c #BAA9AE",
"l c None",
/* pixels */
"lllllllllllllllllllllllllllllllllllllppllllllllllllllllllllllllllllllllllll",
"llllllllllllllllllllllllllllllllpllltpptlllllllllllllllllllllllllllllllllll",
"llllllllllllllllllllllllllllllllplllltpllllllllllllllllllllllllllllllllllll",
"lllllllllllllllllllllllllllllllppllllttlltlllllllllllllllllllllllllllllllll",
"llllllllllllllllllllllllllllllltllllllplpprllllllllllllllllllllllllllllllll",
"llllllllllllllllllllllllllllllltllltllplpptllllllllllllllllllllllllllllllll",
"llllllllllllllllllllllllllllllllllplppplptlllllllllllllllllllllllllllllllll",
"llllllllllllllllllllllllllllllllllppppplrllllllllllllllllllllllllllllllllll",
"lllllllllllllllllllllllllllllllllllpppplrllllllllllllllllllllllllllllllllll",
"llllllllllllllllllllllllllllllpllllpppptlllllllllllllllllllllllllllllllllll",
"llllllllllllllllllllllllllllllllptplppptttlllllllllllllllllllllllllllllllll",
"llllllllllllllllllllllllllllltlppppllpptttlllllllllllllllllllllllllllllllll",
"lllllllllllllllllllllllllllllltlpppplpptttlllllllllllllllllllllllllllllllll",
"lllllllllllllllllllllllllllllltllppllpppttlllllllllllllllllllllllllllllllll",
"lllllllllllllllllllllllllllllttllpp#&o@pttlllllllllllllllllllllllllllllllll",
"lllllllllllllllllllllllllllllttllkk##&#pttlllllllllllllllllllllllllllllllll",
"lllllllllllllllllllllllllllllltllak####pptlllllllllllllllllllllllllllllllll",
"lllllllllllllllllllllllllllllllt.aaa###pptlllllllllllllllllllllllllllllllll",
"llllllllllllllllllllllllllllllltppakaa#ppllllllllllllllllllllllllllllllllll",
"llllllllllllllllllllllllllllllllppaaa##plllllllllllllllllllllllllllllllllll",
"llllllllllllllllllllllllllllllllppaq###llllllllllllllllllllllllllllllllllll",
"lllllllllllllllllllllllllllllllllpp###26lllllllllllllllllllllllllllllllllll",
"llllllllllllllllllllllllllllllllllp##116<llllllllllllllllllllllllllllllllll",
"llllllllllllllllllllllllllllllll6612266256<llllllllllllllllllllllllllllllll",
"lllllllllllllllllllllllllllllllll6622226:2lllllllllllllllllllllllllllllllll",
"lllllllllllllllllllllliillllllli322666622333lllllllllllllllllllllllllllllll",
"llllllllllllllllllllll3i9llllllii$226622+333i;lllllllllllllllllllllllllllll",
"lllllllllllllllllllllh3030gll7di3>$+>>>++O3ii>lllllllllllllllllllllllllllll",
"llllllllllllllllllll8gg303ihl333l>>+>>>++ll3,$illllllllllllllllllllllllllll",
"lllllllllllllllllllllgl783g7ihgll>>+>>+Xlll3$iillllllllllllllllllllllllllll",
"lllllllllllllllltrllgllll8g43llll$>+$$+lllll$iillllllllllllllllllllllllllll",
"llllllllllllllllellglglllhlllllll+$+$++llllll3illllllllllllllllllllllllllll",
"llllllllllllllllllllg7lllllllllll++++$$$lllllii3lllllllllllllllllllllllllll",
"lllllllllllllllllllgl7llllllllll$$ww$$$$llll3iiilllllllllllllllllllllllllll",
"llllllllllllllllllglgdllllllllll$$wk$$$$llllli3illlllllllllllllllllllllllll",
"llllllllllllllllll7gglllllllllll$$ww$$2+lllll>$>lllllllllllllllllllllllllll",
"llllllllllllllllll0gllllllllllll>%%%%k2=$>>lll$>lllllllllllllllllllllllllll",
"lllllllllllllllllluglllllllllll>>wkkkk2>$$>lll:$lllllllllllllllllllllllllll",
"llllllllllllllllllphlllllllllll>>wwkkk2$$$>llliilllllllllllllllllllllllllll",
"llllllllllllppllllgllplllllllll$>+wkk22+$$>ll3iilllllllllllllllllllllllllll",
"llllllllllllpfpp0hppsllllllllll$$+2w266++$$>;i3illlllllllllllllllllllllllll",
"lllllllllllllljglggdltlllllllll$++22266++$$>ll33lllllllllllllllllllllllllll",
"lllllllllllllpl0ll7ltllllllllll$++22266+=+$>ll3llllllllllllllllllllllllllll",
"lllllllllllllly00hltlllllllllll$=+26666+==+$lllllllllllllllllllllllllllllll",
"llllllllllllllllp0lllllllllllllo=+26622++=+=lllllllllllllllllllllllllllllll",
"lllllllllllllllllllllllllllllllO=+26622++=+=lllllllllllllllllllllllllllllll",
"lllllllllllllllllllllllllllllllO=+22222++=+==llllllllllllllllllllllllllllll",
"lllllllllllllllllllllllllllllllOOX+22++++=+==llllllllllllllllllllllllllllll",
"lllllllllllllllllllllllllllllllO+=+2++ +=+++=llllllllllllllllllllllllllllll",
"lllllllllllllllllllllllllllllll*@=++++ +=+=+=llllllllllllllllllllllllllllll",
"lllllllllllllllllllllllllllllll*@*++++ +=+=+==lllllllllllllllllllllllllllll",
"lllllllllllllllllllllllllllllll=+-++++ +++=+==lllllllllllllllllllllllllllll",
"lllllllllllllllllllllllllllllll=o=+++   ++=++=lllllllllllllllllllllllllllll",
"lllllllllllllllllllllllllllllll=+++   O. ++lo==llllllllllllllllllllllllllll",
"lllllllllllllllllllllllllllllll=++    ooXl+ll++llllllllllllllllllllllllllll",
"lllllllllllllllllllllllllllllllo+ o.  ll.ll+lllllllllllllllllllllllllllllll",
"lllllllllllllllllllllllllllllll+X l lllllllllllllllllllllllllllllllllllllll",
"lllllllllllllllllllllllllllllllllllllllllllllllllllllllllllllllllllllllllll",
"lllllllllllllllllllllllllllllllllllllllllllllllllllllllllllllllllllllllllll",
"lllllllllllllllllllllllllllllllllllllllllllllllllllllllllllllllllllllllllll",
"lllllllllllllllllllllllllllllllllllllllllllllllllllllllllllllllllllllllllll",
"lllllllllllllllllllllllllllllllllllllllllllllllllllllllllllllllllllllllllll",
"lllllllllllllllllllllllllllllllllllllllllllllllllllllllllllllllllllllllllll",
"lllllllllllllllllllllllllllllllllllllllllllllllllllllllllllllllllllllllllll",
"lllllllllllllllllllllllllllllllllllllllllllllllllllllllllllllllllllllllllll",
"lllllllllllllllllllllllllllllllllllllllllllllllllllllllllllllllllllllllllll",
"lllllllllllllllllllllllllllllllllllllllllllllllllllllllllllllllllllllllllll",
"lllllllllllllllllllllllllllllllllllllllllllllllllllllllllllllllllllllllllll",
"lllllllllllllllllllllllllllllllllllllllllllllllllllllllllllllllllllllllllll",
"lllllllllllllllllllllllllllllllllllllllllllllllllllllllllllllllllllllllllll",
"lllllllllllllllllllllllllllllllllllllllllllllllllllllllllllllllllllllllllll",
"lllllllllllllllllllllllllllllllllllllllllllllllllllllllllllllllllllllllllll",
"lllllllllllllllllllllllllllllllllllllllllllllllllllllllllllllllllllllllllll",
"lllllllllllllllllllllllllllllllllllllllllllllllllllllllllllllllllllllllllll",
"lllllllllllllllllllllllllllllllllllllllllllllllllllllllllllllllllllllllllll"
};
