/* XPM */
static char *result[] = {
/* columns rows colors chars-per-pixel */
"75 75 68 1 ",
"  c #090A02",
". c #060E12",
"X c #060E13",
"o c #070E13",
"O c #060F13",
"+ c #060D14",
"@ c #1A0D11",
"# c #1B0D11",
"$ c #1B0C12",
"% c #1C0D11",
"& c #2A030D",
"* c #2A040D",
"= c #0A1C28",
"- c #0B1D28",
"; c #0B1D29",
": c #0B1E28",
"> c #1B152A",
", c #1B162A",
"< c #1C142A",
"1 c #1A2624",
"2 c #3A3B3E",
"3 c #3A3C3F",
"4 c #540015",
"5 c #540016",
"6 c #2F4542",
"7 c #304542",
"8 c #236F69",
"9 c #246E68",
"0 c #246E69",
"q c #256E69",
"w c #246F69",
"e c #246D6A",
"r c #426964",
"t c #436964",
"y c #416A64",
"u c #426A64",
"i c #646B6B",
"p c #636C6A",
"a c #636C6B",
"s c #636D6B",
"d c #646C6A",
"f c #646C6B",
"g c #656C6B",
"h c #646D6B",
"j c #636C6C",
"k c #646C6C",
"l c #656C6C",
"z c #817076",
"x c #7B7581",
"c c #059187",
"v c #049287",
"b c #059188",
"n c #059288",
"m c #2FAFA6",
"M c #2FB0A6",
"N c #33DBCF",
"B c #98858B",
"V c #8D9292",
"C c #8C9392",
"Z c #8D9392",
"A c #8C9393",
"S c #8D9393",
"D c #8E9292",
"F c #8E9392",
"G c #8C9492",
"H c #8D9492",
"J c #B9A8AD",
"K c None",
/* pixels */
"KKKKKKKKKKKKKKKKKKKKKKKKKKKKKKKcKKKKKKKKKnKKKKKKKKKKKKKKKKKKKKKKKKKKKKKKKKK",
"KKKKKKKKKKKKKKKKKKKKKKKKKKKKKKKKKKKKKNNKKKKKKKKKKKKKKKKKKKKKKKKKKKKKKKKKKKK",
"KKKKKKKKKKKKKKKKKKKKKKKKKKKKKKKKKKKKKcNNKKKKKKKKKKKKKKKKKKKKKKKKKKKKKKKKKKK",
"KKKKKKKKKKKKKKKKKKKKKKKKKKKKKKKKKKKKKcNNKKKKKKKKKKKKKKKKKKKKKKKKKKKKKKKKKKK",
"KKKKKKKKKKKKKKKKKKKKKKKKKKKKKKKKKKKKKccNKKKKKKKKKKKKKKKKKKKKKKKKKKKKKKKKKKK",
"KKKKKKKKKKKKKKKKKKKKKKKKKKKKKKKKKKKKKKcKKKKKKKKKKKKKKKKKKKKKKKKKKKKKKKKKKKK",
"KKKKKKKKKKKKKKKKKKKKKKKKKKKKKKcNKKKKKKKKKKKKKKKKKKKKKKKKKKKKKKKKKKKKKKKKKKK",
"KKKKKKKKKKKKKKKKKKKKKKKKKKKKKKcNNKKKKKKKKKKKKKKKKKKKKKKKKKKKKKKKKKKKKKKKKKK",
"KKKKKKKKKKKKKKKKKKKKKKKKKKKKKKcNNKKKKKKKKKKKKKKKKKKKKKKKKKKKKKKKKKKKKKKKKKK",
"KKKKKKKKKKKKKKKKKKKKKKKKKKKKKKcNNKKKKKKKKKKKKKKKKKKKKKKKKKKKKKKKKKKKKKKKKKK",
"KKKKKKKKKKKKKKKKKKKKKKKKKKKKKKKNNKKKKKKKKKKKKKKKKKKKKKKKKKKKKKKKKKKKKKKKKKK",
"KKKKKKKKKKKKKKKKKKKKKKKKKKKKKKKccccNNcKKKKKKKKKKKKKKKKKKKKKKKKKKKKKKKKKKKKK",
"KKKKKKKKKKKKKKKKKKKKKKKKKKKKK#<KcNcKNNbKKKKKKKKKKKKKKKKKKKKKKKKKKKKKKKKKKKK",
"KKKKKKKKKKKKKKKKKKKKKKKKKKKKKK$KcNN#>NNKKKKKKKKKKKKKKKKKKKKKKKKKKKKKKKKKKKK",
"KKKKKKKKKKKKKKKKKKKKKKKKKKKKKKKK,NN>>NNcccKKKKKKKKKKKKKKKKKKKKKKKKKKKKKKKKK",
"KKKKKKKKKKKKKKKKKKKKKKKKKKKKKKc,>NN>>#NNccKKKKKKKKKKKKKKKKKKKKKKKKKKKKKKKKK",
"KKKKKKKKKKKKKKKKKKKKKKKKKKKKKcc>>NN#>##NccKKKKKKKKKKKKKKKKKKKKKKKKKKKKKKKKK",
"KKKKKKKKKKKKKKKKKKKKKKKKKKKKKcc@#JJ##>#NNcbKKKKKKKKKKKKKKKKKKKKKKKKKKKKKKKK",
"KKKKKKKKKKKKKKKKKKKKKKKKKKKKKcc#%BJ####NNcvKKKKKKKKKKKKKKKKKKKKKKKKKKKKKKKK",
"KKKKKKKKKKKKKKKKKKKKKKKKKKKKKKcNNNBJBB#NNcKKKKKKKKKKKKKKKKKKKKKKKKKKKKKKKKK",
"KKKKKKKKKKKKKKKKKKKKKKKKKKKKKKKcNNBJJ##NNKKKKKKKKKKKKKKKKKKKKKKKKKKKKKKKKKK",
"KKKKKKKKKKKKKKKKKKKKKKKKKKKKKKKKNNBBB##NKKKKKKKKKKKKKKKKKKKKKKKKKKKKKKKKKKK",
"KKKKKKKKKKKKKKKKKKKKKKKKKKKKKKKKNNBz###KKKKKKKKKKKKKKKKKKKKKKKKKKKKKKKKKKKK",
"KKKKKKKKKKKKKKKKKKKKKKKKKKKKKKKKKKN##66uKKKKKKKKKKKKKKKKKKKKKKKKKKKKKKKKKKK",
"KKKKKKKKKKKKKKKKKKKKKKKKKKKKKKKKKKu#66uu7rtKKKKKKKKKKKKKKKKKKKKKKKKKKKKKKKK",
"KKKKKKKKKKKKKKKKKKKKKKKKKKKKKKKKyu666uu6uuKKKKKKKKKKKKKKKKKKKKKKKKKKKKKKKKK",
"KKKKKKKKKKKKKKKKKKKKKKmmKKKKKKKMKuu6666u6000KKKKKKKKKKKKKKKKKKKKKKKKKKKKKKK",
"KKKKKKKKKKKKKKKKKKKKKK0kKsZKKhZ0m&66uu66X000m4KKKKKKKKKKKKKKKKKKKKKKKKKKKKK",
"KKKKKKKKKKKKKKKKKKKKKK00pKKZKKKm9&&6666XXX0mm4KKKKKKKKKKKKKKKKKKKKKKKKKKKKK",
"KKKKKKKKKKKKKKKKKKKKKKKffqCsKZGw34&X444XXoK04&mKKKKKKKKKKKKKKKKKKKKKKKKKKKK",
"KKKKKKKKKKKKKKKKKKKKKZSKKaZmmKKKK44X444XXKKK*mmKKKKKKKKKKKKKKKKKKKKKKKKKKKK",
"KKKKKKKKKKKKKKKKKKKKKpgKKZ090eKKK44X44X+KKKK&mmKKKKKKKKKKKKKKKKKKKKKKKKKKKK",
"KKKKKKKKKKKKKKKKKKKKKFZKKKKKKKKKKX&X&XXKKKKK0mmMKKKKKKKKKKKKKKKKKKKKKKKKKKK",
"KKKKKKKKKKKKKKKKKKKKKZHKKKKKKKKKKXXXXXOKKKKKwmmmKKKKKKKKKKKKKKKKKKKKKKKKKKK",
"KKKKKKKKKKKKKKKKKKKKKiiKKKKKKKKKKXXXX&&&KKKKqm0mKKKKKKKKKKKKKKKKKKKKKKKKKKK",
"KKKKKKKKKKKKKKKKKKKKKKKKKKKKKKKK&&xx&&&&KKKKK5&4KKKKKKKKKKKKKKKKKKKKKKKKKKK",
"KKKKKKKKKKKKKKKKKKKKKZZKKKNKKKKK&&xx&&6XKKKKKK&4KKKKKKKKKKKKKKKKKKKKKKKKKKK",
"KKKKKKKKKKKKKKKKKKKKKjfKKKcKKKKKK1111J6-;KKKKK2&KKKKKKKKKKKKKKKKKKKKKKKKKKK",
"KKKKKKKKKKKKKKKKKKKKKKKKKKKKKKKK41111J6-&44KKKmmKKKKKKKKKKKKKKKKKKKKKKKKKKK",
"KKKKKKKKKKKKKKKKKKKKKZZKKNKKKKK44xJJJJ64&&4KK0mmKKKKKKKKKKKKKKKKKKKKKKKKKKK",
"KKKKKKKKKKKKKKKKKKKKKpdKKKKKKKK&4XxJJ66X&&4KKm8mKKKKKKKKKKKKKKKKKKKKKKKKKKK",
"KKKKKKKKKKKKKKKKKKNNNKKKKKKKKKK&&XxxJ6uX&&&4KK00KKKKKKKKKKKKKKKKKKKKKKKKKKK",
"KKKKKKKKKKKKKKKKKKNNcKKKKKKKKKK&&66x6uuXX&&4KK0KKKKKKKKKKKKKKKKKKKKKKKKKKKK",
"KKKKKKKKKKKKKKKKKKbNKZZKKNKKKKK&X66uuuuXX&&4KKKKKKKKKKKKKKKKKKKKKKKKKKKKKKK",
"KKKKKKKKKKKKKKKKKKKAVffCDKKKKKK&X6uu66XXX--&KKKKKKKKKKKKKKKKKKKKKKKKKKKKKKK",
"KKKKKKKKKKKKKKKKKKNKfhfkKcKKKKKX-66u66XXXX-&KKKKKKKKKKKKKKKKKKKKKKKKKKKKKKK",
"KKKKKKKKKKKKKKKKKKKclfiKbKKKKKKX-66666XXXX-=KKKKKKKKKKKKKKKKKKKKKKKKKKKKKKK",
"KKKKKKKKKKKKKKKKKKKKcKKcKKKKKKK.-X66-XXXXX--KKKKKKKKKKKKKKKKKKKKKKKKKKKKKKK",
"KKKKKKKKKKKKKKKKKKKKKNcKKKKKKKKX--6X-XXXXX---KKKKKKKKKKKKKKKKKKKKKKKKKKKKKK",
"KKKKKKKKKKKKKKKKKKKKKKKKKKKKKKKXX-X-XX-XX-X--KKKKKKKKKKKKKKKKKKKKKKKKKKKKKK",
"KKKKKKKKKKKKKKKKKKKKKKKKKKKKKKKXX-X-XX-XX-X--KKKKKKKKKKKKKKKKKKKKKKKKKKKKKK",
"KKKKKKKKKKKKKKKKKKKKKKKKKKKKKKKXX-X- X-XX-XX:KKKKKKKKKKKKKKKKKKKKKKKKKKKKKK",
"KKKKKKKKKKKKKKKKKKKKKKKKKKKKKKKXX-X-   XX-XXXKKKKKKKKKKKKKKKKKKKKKKKKKKKKKK",
"KKKKKKKKKKKKKKKKKKKKKKKKKKKKKKXXX XX    XXXXXXKKKKKKKKKKKKKKKKKKKKKKKKKKKKK",
"KKKKKKKKKKKKKKKKKKKKKKKKKKKKKKXXXXX      XX XXKKKKKKKKKKKKKKKKKKKKKKKKKKKKK",
"KKKKKKKKKKKKKKKKKKKKKKKKKKKKKXXXXXX      XXKXXKKKKKKKKKKKKKKKKKKKKKKKKKKKKK",
"KKKKKKKKKKKKKKKKKKKKKKKKKKKKKXXXX   K    XKKOOKKKKKKKKKKKKKKKKKKKKKKKKKKKKK",
"KKKKKKKKKKKKKKKKKKKKKKKKKKKKKXXK KKKKKKKKKKKKKKKKKKKKKKKKKKKKKKKKKKKKKKKKKK",
"KKKKKKKKKKKKKKKKKKKKKKKKKKKKKXXKKKKKKKKKKKKKKKKKKKKKKKKKKKKKKKKKKKKKKKKKKKK",
"KKKKKKKKKKKKKKKKKKKKKKKKKKKKKKKKKKKKKKKKKKKKKKKKKKKKKKKKKKKKKKKKKKKKKKKKKKK",
"KKKKKKKKKKKKKKKKKKKKKKKKKKKKKKKKKKKKKKKKKKKKKKKKKKKKKKKKKKKKKKKKKKKKKKKKKKK",
"KKKKKKKKKKKKKKKKKKKKKKKKKKKKKKKKKKKKKKKKKKKKKKKKKKKKKKKKKKKKKKKKKKKKKKKKKKK",
"KKKKKKKKKKKKKKKKKKKKKKKKKKKKKKKKKKKKKKKKKKKKKKKKKKKKKKKKKKKKKKKKKKKKKKKKKKK",
"KKKKKKKKKKKKKKKKKKKKKKKKKKKKKKKKKKKKKKKKKKKKKKKKKKKKKKKKKKKKKKKKKKKKKKKKKKK",
"KKKKKKKKKKKKKKKKKKKKKKKKKKKKKKKKKKKKKKKKKKKKKKKKKKKKKKKKKKKKKKKKKKKKKKKKKKK",
"KKKKKKKKKKKKKKKKKKKKKKKKKKKKKKKKKKKKKKKKKKKKKKKKKKKKKKKKKKKKKKKKKKKKKKKKKKK",
"KKKKKKKKKKKKKKKKKKKKKKKKKKKKKKKKKKKKKKKKKKKKKKKKKKKKKKKKKKKKKKKKKKKKKKKKKKK",
"KKKKKKKKKKKKKKKKKKKKKKKKKKKKKKKKKKKKKKKKKKKKKKKKKKKKKKKKKKKKKKKKKKKKKKKKKKK",
"KKKKKKKKKKKKKKKKKKKKKKKKKKKKKKKKKKKKKKKKKKKKKKKKKKKKKKKKKKKKKKKKKKKKKKKKKKK",
"KKKKKKKKKKKKKKKKKKKKKKKKKKKKKKKKKKKKKKKKKKKKKKKKKKKKKKKKKKKKKKKKKKKKKKKKKKK",
"KKKKKKKKKKKKKKKKKKKKKKKKKKKKKKKKKKKKKKKKKKKKKKKKKKKKKKKKKKKKKKKKKKKKKKKKKKK",
"KKKKKKKKKKKKKKKKKKKKKKKKKKKKKKKKKKKKKKKKKKKKKKKKKKKKKKKKKKKKKKKKKKKKKKKKKKK",
"KKKKKKKKKKKKKKKKKKKKKKKKKKKKKKKKKKKKKKKKKKKKKKKKKKKKKKKKKKKKKKKKKKKKKKKKKKK",
"KKKKKKKKKKKKKKKKKKKKKKKKKKKKKKKKKKKKKKKKKKKKKKKKKKKKKKKKKKKKKKKKKKKKKKKKKKK",
"KKKKKKKKKKKKKKKKKKKKKKKKKKKKKKKKKKKKKKKKKKKKKKKKKKKKKKKKKKKKKKKKKKKKKKKKKKK"
};
