/* XPM */
static char *result[] = {
/* columns rows colors chars-per-pixel */
"75 75 189 2 ",
"   c #010107",
".  c #03030F",
"X  c #060715",
"o  c #0B0D1E",
"O  c #101326",
"+  c #131A30",
"@  c #18213A",
"#  c #16224C",
"$  c #172C59",
"%  c #252D43",
"&  c #2D354E",
"*  c #1E3469",
"=  c #373E64",
"-  c #344057",
";  c #3C4C63",
":  c #28437C",
">  c #3E4374",
",  c #42556D",
"<  c #494E7F",
"1  c #485D76",
"2  c #3D5C9A",
"3  c #4F4F8B",
"4  c #4D5D83",
"5  c #54578C",
"6  c #575E8B",
"7  c #595996",
"8  c #516685",
"9  c #59678A",
"0  c #5E6792",
"q  c #5A689C",
"w  c #577391",
"e  c #61679F",
"r  c #637198",
"t  c #67779D",
"y  c #5C5BA1",
"u  c #5E51BA",
"i  c #625EAF",
"p  c #605FBE",
"a  c #5671B2",
"s  c #6462A5",
"d  c #6367AD",
"f  c #6970A6",
"g  c #6A7EA1",
"h  c #6B70AE",
"j  c #7077A8",
"k  c #6263B5",
"l  c #6567B8",
"z  c #6D69BF",
"x  c #6970B8",
"c  c #7177B2",
"v  c #797FB3",
"b  c #7376BC",
"n  c #7A7FBE",
"m  c #6324EF",
"M  c #6226EF",
"N  c #652DEE",
"B  c #6330EF",
"V  c #6635EC",
"C  c #5B46C2",
"Z  c #6054C1",
"A  c #654FD0",
"S  c #6A6DC6",
"D  c #676AC8",
"F  c #6C7AC7",
"G  c #6F7CC4",
"H  c #7676C6",
"J  c #7C7FC6",
"K  c #7071CF",
"L  c #6967D1",
"P  c #6F74DA",
"I  c #7878D2",
"U  c #7B7FDE",
"Y  c #6841ED",
"T  c #6556EE",
"R  c #6C56EE",
"E  c #6040F0",
"W  c #6345F1",
"Q  c #6448F1",
"!  c #6856F0",
"~  c #6F68ED",
"^  c #6C69EE",
"/  c #7274EC",
"(  c #747AEE",
")  c #6863F0",
"_  c #6966F2",
"`  c #6C6FF1",
"'  c #6D75F1",
"]  c #717AF2",
"[  c #5B8099",
"{  c #5D8EA0",
"}  c #6E87A3",
"|  c #7480A9",
" . c #758CAA",
".. c #7B88AF",
"X. c #6794AB",
"o. c #7B95AC",
"O. c #6B87B4",
"+. c #6D80B9",
"@. c #7F86BC",
"#. c #7A9DB4",
"$. c #729EBF",
"%. c #62A0A8",
"&. c #6BAEB7",
"*. c #66BEB8",
"=. c #7284CA",
"-. c #7E85CA",
";. c #7D8DCC",
":. c #7A9CC6",
">. c #7B82D2",
",. c #7180DC",
"<. c #778CDF",
"1. c #7BA9C9",
"2. c #79BDCB",
"3. c #7487EF",
"4. c #7C84EC",
"5. c #7D96E8",
"6. c #7889F3",
"7. c #7C81FA",
"8. c #7892F2",
"9. c #7E90F3",
"0. c #7F99F0",
"q. c #7E99F5",
"w. c #6CCAC5",
"e. c #76D9D4",
"r. c #7BE6E3",
"t. c #7FE7E7",
"y. c #8290B4",
"u. c #8898B4",
"i. c #8895BE",
"p. c #849FB9",
"a. c #82A6BE",
"s. c #8DA7BF",
"d. c #93A0B6",
"f. c #A0B2BB",
"g. c #8389C4",
"h. c #878FCA",
"j. c #8E9DC6",
"k. c #838AD3",
"l. c #868CDF",
"z. c #8A93D2",
"x. c #809DD7",
"c. c #929ED2",
"v. c #82ACC8",
"b. c #92ACC6",
"n. c #89B2C8",
"m. c #89BDCD",
"M. c #95B5C8",
"N. c #9AABD2",
"B. c #95A2DE",
"V. c #9EACDE",
"C. c #97BED4",
"Z. c #A2BBCA",
"A. c #898EED",
"S. c #8B97E1",
"D. c #8095EF",
"F. c #839EEF",
"G. c #8D93FA",
"H. c #849EFA",
"J. c #949FFC",
"K. c #88ABED",
"L. c #91A0EF",
"P. c #8BB2E2",
"I. c #94BDE4",
"U. c #81A3F0",
"Y. c #89ACF0",
"T. c #88ABF9",
"R. c #9CAEF0",
"E. c #93AEFD",
"W. c #9FAEFD",
"Q. c #8FBAF5",
"!. c #9DBBFE",
"~. c #A7BBE6",
"^. c #AABCFE",
"/. c #8DC8D6",
"(. c #83C4DD",
"). c #B3C2CA",
"_. c #A5C4D5",
"`. c #AFCDDE",
"'. c #8CC6EF",
"]. c #9DC9E0",
"[. c #90C5EC",
"{. c #8CD6E7",
"}. c #94CBF0",
"|. c #BDD0EC",
" X c #A6C6FD",
".X c #B2C8FE",
"XX c #BDD9FB",
"oX c #C3CED3",
"OX c None",
/* pixels */
"OXOXOXOXOXOXOXOXOXOXOXOXOXOXOXOXOXOXOXOXOXOXOXOXOXOXOXOXOXOXOXOXOXOXOXOXOXOXOXOXOXOXOXOXOXOXOXOXOXOXOXOXOXOXOXOXOXOXOXOXOXOXOXOXOXOXOXOXOXOXOXOXOXOXOX",
"OXOXOXOXOXOXOXOXOXOXOXOXOXOXOXOXOXOXOXOXOXOXOXOXOXOXOXOXOXOXOXOXOXOXOXOXOXOXOXOXOXOXOXOXOXOXOXOXOXOXOXOXOXOXOXOXOXOXOXOXOXOXOXOXOXOXOXOXOXOXOXOXOXOXOX",
"OXOXOXOXOXOXOXOXOXOXOXOXOXOXOXOXOXOXOXOXOXOXOXOXOXOXOXOXOXOXOXOXOXOXOXOXOXOXOXOXOXOXOXOXOXOXOXOXOXOXOXOXOXOXOXOXOXOXOXOXOXOXOXOXOXOXOXOXOXOXOXOXOXOXOX",
"OXOXOXOXOXOXOXOXOXOXOXOXOXOXOXOXOXOXOXOXOXOXOXOXOXOXOXOXOXOXOXOXOXOXOXOXOXOXOXOXOXOXOXOXOXOXOXOXOXOXOXOXOXOXOXOXOXOXOXOXOXOXOXOXOXOXOXOXOXOXOXOXOXOXOX",
"OXOXOXOXOXOXOXOXOXOXOXOXOXOXOXOXOXOXOXOXOXOXOXOXOXOXOXOXOXOXOXOXOXOXOXOXOXOXOXOXOXOXOXOXOXOXOXOXOXOXOXOXOXOXOXOXOXOXOXOXOXOXOXOXOXOXOXOXOXOXOXOXOXOXOX",
"OXOXOXOXOXOXOXOXOXOXOXOXOXOXOXOXOXOXOXOXOXOXOXOXOXOXOXOXOXOXOXOXOXOXOXOXOXOXOXOXOXOXOXOXOXOXOXOXOXOXOXOXOXOXOXOXOXOXOXOXOXOXOXOXOXOXOXOXOXOXOXOXOXOXOX",
"OXOXOXOXOXOXOXOXOXOXOXOXOXOXOXOXOXOXOXOXOXOXOXOXOXOXOXOXOXOXOXOXOXOXOXOXOXOXOXOXOXOXOXOXOXOXOXOXOXOXOXOXOXOXOXOXOXOXOXOXOXOXOXOXOXOXOXOXOXOXOXOXOXOXOX",
"OXOXOXOXOXOXOXOXOXOXOXOXOXOXOXOXOXOXOXOXOXOXOXOXOXOXOXOXOXOXOXOXOXOXOXOXOXOXOXM M E E T M OXOXOXOXOXOXOXOXOXOXOXOXOXOXOXOXOXOXOXOXOXOXOXOXOXOXOXOXOXOX",
"OXOXOXOXOXOXOXOXOXOXOXOXOXOXOXOXOXOXOXOXOXOXOXOXOXOXOXOXOXOXOXE E E E T T 8.8.) T B B W W ) T m M OXOXOXOXOXOXOXOXOXOXOXOXOXOXOXOXOXOXOXOXOXOXOXOXOXOX",
"OXOXOXOXOXOXOXOXOXOXOXOXOXOXOXOXOXOXOXOXOXOXOXOXOXOXOXE C u ) D 8.` ` ` D ` 3.3.3.U.U.` Q Q ! ^ ) B E OXOXOXOXOXOXOXOXOXOXOXOXOXOXOXOXOXOXOXOXOXOXOXOX",
"OXOXOXOXOXOXOXOXOXOXOXOXOXOXOXOXOXOXOXOXOXOXOX_ ' 8.` 3.] ,.,.,.x.x.x.(.(.(.(.K.K.K.K.0.K.K.` ! ` 3.! W m OXOXOXOXOXOXOXOXOXOXOXOXOXOXOXOXOXOXOXOXOXOX",
"OXOXOXOXOXOXOXOXOXOXOXOXOXOXOXOXOXOXOXOXOXT Q ^ ] x.P.(.(.(.2.2.&.w.w.*.*.*.&.&.2.e.e.[.I.[.I.}.] ^ ] ] ! W M OXOXOXOXOXOXOXOXOXOXOXOXOXOXOXOXOXOXOXOX",
"OXOXOXOXOXOXOXOXOXOXOXOXOXOXOXOXOXOXE N ^ ,.,.,.L ,.:.v.v.$.X.{ g { X.%.%.%.{ { { %.*.w.w.w.(./.].].D.D.S.^ ` B E M OXOXOXOXOXOXOXOXOXOXOXOXOXOXOXOXOX",
"OXOXOXOXOXOXOXOXOXOXOXOXOXOXOXOXm V ^ ,.A A k k k q q [ { w w 4 4 4 5 0 t r t g w 9 0 w { &.*.&.2./.].].K.Y.6.^ W T m M OXOXOXOXOXOXOXOXOXOXOXOXOXOXOX",
"OXOXOXOXOXOXOXOXOXOXOXOXOXOXM Q Y A Z D k q q q q q y 7 y y 7 5 < < < 3 7 3 < 4 4 4 6 0 0 8 w { { %.m.].].P.Y.P.] ) W N M OXOXOXOXOXOXOXOXOXOXOXOXOXOX",
"OXOXOXOXOXOXOXOXOXOXOXOXOXB Q A Z Z Z D q 8 4 6 7 d l l l l d d y y 7 7 5 7 i 7 3 3 4 4 0 0 4 0 r w { &./.{.].I.}.D.` Q B m OXOXOXOXOXOXOXOXOXOXOXOXOX",
"OXOXOXOXOXOXOXOXOXOXOXM T B m B u D O.q q d d s s s s s e e e s s h h d s y 5 d d y 3 3 3 e 0 4 4 4 8 w &.e.{._.].].K.^ Q B m OXOXOXOXOXOXOXOXOXOXOXOX",
"OXOXOXOXOXOXOXOXOXOXM m OXOXOXC O.q k x x s 7 6 r r e j | | j f j r r 0 e h b d 7 i i i 7 7 e 9 4 4 4 4 w { m./._.].].P.^ V N B OXOXOXOXOXOXOXOXOXOXOX",
"OXOXOXOXOXOXOXOXOXOXOXOXOXOXOXO.D q q 7 < 5 6 9 0 r j v v v n g.@.y.d.u.v j f b b d y i p i d 0 9 4 4 4 4 9 } n.C.].].].}.] V N B OXOXOXOXOXOXOXOXOXOX",
"OXOXOXOXOXOXOXOXOXOXOXOXOXOX1.O.q 6 4 4 4 7 e h c c h d d i z S U U >.-.-.g.@.y.n b b s i i S d 9 8 4 4 4 4 w o.b.C._.].}.}.^ V Q T OXOXOXOXOXOXOXOXOX",
"OXOXOXOXOXOXOXOXOXOXOXOXOX1.O.} r t 0 0 e s s s i l S I U U U U / H.9.7.4.<.<.k.g.z.g.n h s l S d e 9 6 < 4 1 r a.b.C.C.C.I.K.Y V W OXOXOXOXOXOXOXOXOX",
"OXOXOXOXOXOXOXOXOXOXOXOX1.%.%.} } t 0 0 s x x z H S H S K S S K K K P K P 9.F.F.F.k.c.c.J x s i S l e 0 6 4 4 4  .s.s.s.a.2.{.D.Y ! ) OXOXOXOXOXOXOXOX",
"OXOXOXOXOXOXOXOXOXOXOXO.:.#.o. .g r 5 7 s d z I U U J.L.L.L.~.L.l.U >.>.H H >.U 5.P.<.S.V.h.b s d S S d 0 0 4 4 4 d.s.s.X.X.2.}.R Y ! OXOXOXOXOXOXOXOX",
"OXOXOXOXOXOXOXOXOXOX'.a.a.#.#.} 9 6 s x I U A.A.I b J h.g.n x d b H b h.c.N.j.h.h.z.v.P.S.V.i.v e d S F d t e 4 4  .s.s.#.[ %.r.Y.Y ` W OXOXOXOXOXOXOX",
"OXOXOXOXOXOXOXOXOX'.:.v.a.#.g 0 7 z U U J.l.H H B.~.~.S.S.k.>.=.>.>.c.c.J F g.Z.M.j.b.n.M.v.c.@.n s l F F h j 0 8 8 u.p.b.g [ 2.{.R R ` OXOXOXOXOXOXOX",
"OXOXOXOXOXOXOXOX'.n.m.n.p.} 0 s K I G.l.H b V.XX|.~.P.I.~.I.~.P.B.S.<.P ;.=.+.d +.).N.n.Z.m.n.h.@.c d S =.x c f 0 8 o.u.b.p.8 %.r.Y.R ^ B OXOXOXOXOXOX",
"OXOXOXOXOXOXOXU.K.m.n.p.} r f x U A.>.d l.|.~.L.5.L.5.5.5.F.Y.S.<.x.x.;.F a a a h a ).).M.Z.M.s.i.@.h d S =.x @.e 0 g u.b.b.g [ r.{.R 6.) _ OXOXOXOXOX",
"OXOXOXOXOXOX8.( /.m.a. .t 0 s l.U H f S.^.~.5.F.F.T.T.H.H.5.9.5.<.F a 2 a a 2 a 2 2 a b.).).).Z.s...| s d F +.h.f d t y.s.b.p.r *.w./ 6.] ' OXOXOXOXOX",
"OXOXOXOXOX' ^ I.C.v.#.} r e >.I b s L.R.L.F.F.T.H.H.H.F.9.5.<.=.x a 2 2 : : 2 2 2 2 4 w p.)._.`.Z.s.| j s F =.-.@.h ..g u.M.p. .{ w.I.( 6.) OXOXOXOXOX",
"OXOXOXOXOX8.] {.m.a.o.} 0 >.H x d L.R.F.F.Q.Q.T.Q.9.A.V.z.x 2 : 2 : : : : : * * : : : : 2 d.)._.).).u.j e x =.=.h.b +.t y.b.p.g [ *.{.( D.) _ OXOXOXOX",
"OXOXOXOXOXE [.I.v.#.o.r H H b s U R.F.T.Q.T.T.!./ l.J b +.y : : * $ * $ * * * * * * : : : 8 d.M.`.oXZ...f s +.=.z.J -.| y.s.p.w 2 &.r./ Y.! ' OXOXOXOX",
"OXOXOXOXOX' K.P.a.&. .h U >.y P L.4.T.Q.T.T./ I c.h.J b e < : * # # # # # $ $ $ # $ $ * - : r  .C.oXoXd.| e f +.k.k.-.| o.u.s.w w +.e.4.}.^ ) E OXOXOX",
"OXOXOXOXOX'.0.x.v.#.r l.I 5 i A.A.!.T.T.T./ H k.J -.h.@.7 * * $ # # # # @ @ @ @ # # $ $ $ * , w a._.oXZ.u.e r +.-.l.-...o.u.s.w w g *.F.}.^ 8.E OXOXOX",
"OXOXOXOXOXU.K.x.a.o.k.z 7 7 z 4.T.Q.T.T.7.b -.k.B.c.i.e > > = % @ + O o O o o O @ + @ # $ $ * 1 g M.oXoXf.f 0 t n z.J i.u.u.u.0 w g &.Q.{.] 8.B OXOXOX",
"OXOXOXOX' 3.x.v.#. .z s 6 7 S G.Q.T.H.E.z k.l.l.z.j.h 3 > = % @ O O O O O O O o o o O @ # % $ = 8 a.oXoXZ.| 9 r c z.-.i.d.u.g r 0 g +.n.{.6.U.W OXOXOX",
"OXOXOXOXq.] R 2.#.| s 0 6 7 l 9.T.H.T.K n b I z.j.+.3 < = @ O o o o o o o X X . . X X O @ @ # & , { ).oXZ...9 0 c g.-.j.d.u.| g r  .y.b.m.D.U.W OXOXOX",
"OXOXOXOX' ^ R 2.p.| 0 0 0 7 L Q.5.H.4.v J b k.z.-.h 5 = @ o X .       . . . . . . . X X O @ @ & ; [ f.oX)...4 8 c -.h.j.d.u. .| t #.j.M.C.K.0.W OXOXOX",
"OXOXOXOX) ` ( m.a.| r 0 0 5 4.5.<.9.P @.b S S.c.n y = @ X .           . . . .       . . o + # % - 8 d.).Z.h 9 9 c g.h.c.d.j.y.| g #.a.M.M.P.0.N OXOXOX",
"OXOXOXOX) ! P.n.a. .t r 0 y 4.P 5.U >.v S B.V.h.d > % o . .           . . . .       . . o O @ % - 8 o.).Z.h 4 9 c g.z.N.j.i.y.| j i.s.M.C.I.K.N OXOXOX",
"OXOXOXOXT ! (.n.a...g r r y <.<.F.U g.g.H ~.N.h.y > @ X . .       .   . . . .         . X O @ # - 1 o.f.f.e 4 9 c h.c.V.j.i...r t i.b.M.C.].6.N OXOXOX",
"OXOXOXOXW V e.n.a.p.g r h 7 P F.F.K c.J U `.N.J y = + X X .       . . . . .           . X O + % ; 1 o.f.y.0 4 r v N.V.c.j.u...t j j.b.M.].}.^ Q OXOXOX",
"OXOXOXOXT N e.n.a.a.} t t 7 F 5.P S N.H A.`.N.-.y = O X X X     .   . . . .         . . X O + & - 1 o.f.c 8 8 g s._.V.c.j.y...| v i.b.M.].}.Y Q OXOXOX",
"OXOXOXOXM B e.C.n.n. .t t 7 l 5.K S N.U R.`.V.>.y > O X X o     . . . . . .       . . X o + @ & - 8 d.@.f 4 9 j g.V.c.c.i.@...j v j.b._.].I.Y W OXOXOX",
"OXOXOXOXOXOXt.{./.n.o.g g 7 d <.K l N.A.R.|.~.k.i > + X X o X . . . . . . . . . . . . o O @ @ & , [ u.f 4 4 0 c c.B.c.z.i...f j y.d.N._.].K.^ B OXOXOX",
"OXOXOXOXOXOXt.[.e.n.#.} } 7 y P S d g.U E.|.~.B.p 3 % o X O O X . . . . . . . . . . X O + @ % = 8 g j 0 1 4 f -.N.B.c.c...j f v i.d.M.~.].6.! OXOXOXOX",
"OXOXOXOXOXOXt.P.e.m.p. . .e y F K d c H E.XX~.S.p 2 = + X X @ @ o X X X X X X X X X O + @ & ; 4 r s 0 , , r J B.B.c.z.g...v j ..u.b.Z._.].( ) OXOXOXOX",
"OXOXOXOXOXOX'.K.r.m.a.#.o.f e l S d x I J.|.|.U L p 5 & O X O & % O O o o X X o o O + % - , 4 7 e < > , 6 c z.V.c.z.z.y.v j j ..d.b._._.S.] ) OXOXOXOX",
"OXOXOXOXOXOX'.K.r.e.n.p.#.j e y l l S b G. X|.R.U L y 9 & + O @ & & % % @ + + @ @ % - ; 1 8 7 0 < = > 0 j z.~.B.B.;...c | | ..d.f.M.C.C.D.^ E OXOXOXOX",
"OXOXOXOXOXOX' [.{.r./.s.#.} d e d p F @.H.E.|.|.P P L h < $ % @ % & = , , = - - = , 1 4 3 < 8 & & > 0 c >.R.L.~.;.n f f j j d.d.f.M.N.S.( ` OXOXOXOXOX",
"OXOXOXOXOXOXOXt.D.r.e.M.a.o.c e 7 7 h n P H..XXXL.P P p @.7 > = & % % & ; ; 8 8 8 1 , ; ; - & > 4 r c k.~.|.S.;.n h e f j u.d.d.b.b.b.K.0.W OXOXOXOXOX",
"OXOXOXOXOXOXOXt.] r.r.M.n.p.o.f 7 7 y b n T. XXXXX9.4.P p c.h e < = - & & % & & & % % & = ; 5 e s z U R. XS.g.n c h h j i.d.d.s.i.b.P.D.` ) OXOXOXOXOX",
"OXOXOXOXOXOXOX'.3.}.{.C.M.s.p.| e e 7 x n K !.!.XXW.U / P L I J @.| r < > > > > 8 < < 3 7 e s x H S.R.R.S.h.-.J b c v @.i.u.d.j.b.N.x.6.` E OXOXOXOXOX",
"OXOXOXOXOXOXOXOX'.] r.{.C.M.s.p.g h 7 l +.g.9.E..XXXJ./ / P L p i z.V.N.f.@.c j r r j j x z U A. X XXXL.k.k.H J >.h.g.g...y.@.s.N.$.K.` ) OXOXOXOXOXOX",
"OXOXOXOXOXOXOXOX'.) {.r.]./.f.s.o.h e 3 x -.-.9.E..XXXJ./ / / L L i i z H U L.A.U I I 4.9.E.E.E.R.R.!.L.z.b b J -.@.@.v n z.i.~.C.x.,.3.OXOXOXOXOXOXOX",
"OXOXOXOXOXOXOXOX_ 8.3.{.].{./.Z.s. .b 0 d x g.J 4.E..X.XW.4./ / P P L P 7.7.G.T.!.E.G.A.L.F.L.L.L.S.J b H >.=.n k.U A.U A.i.C.~.].x.D.m OXOXOXOXOXOXOX",
"OXOXOXOXOXOXOXOXOX'.W [.}.Y.I.m.M.s.| c t x +.@.b <.E.^.^.^.G.7.7.7.7.7.7.G.J.E. XXX X!.!.E.G.A.k.-.>.l.S.-.J A.G.J.A.A.u._.`.`.V.D.B OXOXOXOXOXOXOXOX",
"OXOXOXOXOXOXOXOXOXOX_ ) {.}.{.P.m.M.u.j j t F ;.g.b <.E. X^.^.^.J.4.J.7.G.G.J.E. XXX.X X!.J.A.k.z.z.k.n k.G.G.J.A.A.l.b.`.`.].I.D.B OXOXOXOXOXOXOXOXOX",
"OXOXOXOXOXOXOXOXOXOXq.E 3.Q.F.{.P.n.s.o.| | j +.;.g.n P T.J..X X^.W.L.V.S.z.V.R.W.R.c.g.b -.h.h.-.J A.G.J..XG.A.G.i.Z.`.].I.{.~ m OXOXOXOXOXOXOXOXOXOX",
"OXOXOXOXOXOXOXOXOXOXOXOXE 0.9./ 5.v.a.p. .| g c F k.J @.H F.T.^..X^.^.W.l.n -.b c n g.n J n J A.W.W.^..XE.H.J.l.s._.`.`.].e.Y OXOXOXOXOXOXOXOXOXOXOXOX",
"OXOXOXOXOXOXOXOXOXOXOXOXOXE K.4.( P $.#.o. .t g c +.k.;.@.n P 5.T.!..X.X.X.X.X^.W.W.G.J.W.^. X!.W.J.J.J.J.F.B.b._._.`.`.K.N OXOXOXOXOXOXOXOXOXOXOXOXOX",
"OXOXOXOXOXOXOXOXOXOXOXOXOXOXT K.( / U x.&.%.} r t | +.>.;.J @.b >.<.F.E.!..X.X^. XW..X X X X X^.H.H.9.A.k.@.s.M._._.].,.B OXOXOXOXOXOXOXOXOXOXOXOXOXOX",
"OXOXOXOXOXOXOXOXOXOXOXOXOXOXOXE 0.( ~ ~ <.*.&.} g ..| x k.<.;.k.-.J H k.>.<.L.!.!.W.E.F.A.A.S.>.-.h.h.i.b.s.v.m./.L N M OXOXOXOXOXOXOXOXOXOXOXOXOXOXOX",
"OXOXOXOXOXOXOXOXOXOXOXOXOXOXOXOXOX3.~ R ~ <.e.*.X.X.f.| c F H P g.=.h.>.J H v c H l.L.l.k.+.n g.y.s.b.s.a.&.m.L D T OXOXOXOXOXOXOXOXOXOXOXOXOXOXOXOXOX",
"OXOXOXOXOXOXOXOXOXOXOXOXOXOXOXOXOXOX) ^ Y ( R <.w.*.*.&.&.u.n x x ;.>.=.I k.c.>.J b J g.@.@.j j e r t c l A D B M OXOXOXOXOXOXOXOXOXOXOXOXOXOXOXOXOXOX",
"OXOXOXOXOXOXOXOXOXOXOXOXOXOXOXOXOXOXOX) V Y R Y ( Y.w.w.w.*.&.X.v @.h ;.F S K S.S.V.S.l.J I I z z i d k Z u u C OXOXOXOXOXOXOXOXOXOXOXOXOXOXOXOXOXOXOX",
"OXOXOXOXOXOXOXOXOXOXOXOXOXOXOXOXOXOXOXOXOXN Y Y R Y ~ Y.e.e.e.w.&.X.X.r +.x F >.l.>.P S K H K I I L L x k Z u OXOXOXOXOXOXOXOXOXOXOXOXOXOXOXOXOXOXOXOX",
"OXOXOXOXOXOXOXOXOXOXOXOXOXOXOXOXOXOXOXOXOXOXE N V V ! V R ~ {.e.e.(.2.&.&.$.$.=.=.=.=.J >.,.,.,.L G D Z u OXOXOXOXOXOXOXOXOXOXOXOXOXOXOXOXOXOXOXOXOXOX",
"OXOXOXOXOXOXOXOXOXOXOXOXOXOXOXOXOXOXOXOXOXOXOXOXM B N V Q N Y Y ^ [.e.e.(.P.x.:.:.:.:.G G D D ) C OXOXOXOXOXOXOXOXOXOXOXOXOXOXOXOXOXOXOXOXOXOXOXOXOXOX",
"OXOXOXOXOXOXOXOXOXOXOXOXOXOXOXOXOXOXOXOXOXOXOXOXOXOXOXm B B B N B N N Q ! ` 3.,.3.3.3.` ) ) E OXOXOXOXOXOXOXOXOXOXOXOXOXOXOXOXOXOXOXOXOXOXOXOXOXOXOXOX",
"OXOXOXOXOXOXOXOXOXOXOXOXOXOXOXOXOXOXOXOXOXOXOXOXOXOXOXOXOXOXM m M M OXOXM M M M OXOXOXOXOXOXOXOXOXOXOXOXOXOXOXOXOXOXOXOXOXOXOXOXOXOXOXOXOXOXOXOXOXOXOX",
"OXOXOXOXOXOXOXOXOXOXOXOXOXOXOXOXOXOXOXOXOXOXOXOXOXOXOXOXOXOXOXOXOXOXOXOXOXOXOXOXOXOXOXOXOXOXOXOXOXOXOXOXOXOXOXOXOXOXOXOXOXOXOXOXOXOXOXOXOXOXOXOXOXOXOX",
"OXOXOXOXOXOXOXOXOXOXOXOXOXOXOXOXOXOXOXOXOXOXOXOXOXOXOXOXOXOXOXOXOXOXOXOXOXOXOXOXOXOXOXOXOXOXOXOXOXOXOXOXOXOXOXOXOXOXOXOXOXOXOXOXOXOXOXOXOXOXOXOXOXOXOX",
"OXOXOXOXOXOXOXOXOXOXOXOXOXOXOXOXOXOXOXOXOXOXOXOXOXOXOXOXOXOXOXOXOXOXOXOXOXOXOXOXOXOXOXOXOXOXOXOXOXOXOXOXOXOXOXOXOXOXOXOXOXOXOXOXOXOXOXOXOXOXOXOXOXOXOX",
"OXOXOXOXOXOXOXOXOXOXOXOXOXOXOXOXOXOXOXOXOXOXOXOXOXOXOXOXOXOXOXOXOXOXOXOXOXOXOXOXOXOXOXOXOXOXOXOXOXOXOXOXOXOXOXOXOXOXOXOXOXOXOXOXOXOXOXOXOXOXOXOXOXOXOX",
"OXOXOXOXOXOXOXOXOXOXOXOXOXOXOXOXOXOXOXOXOXOXOXOXOXOXOXOXOXOXOXOXOXOXOXOXOXOXOXOXOXOXOXOXOXOXOXOXOXOXOXOXOXOXOXOXOXOXOXOXOXOXOXOXOXOXOXOXOXOXOXOXOXOXOX"
};
