/* XPM */
static char *result[] = {
/* columns rows colors chars-per-pixel */
"75 75 189 2 ",
"   c #010107",
".  c #03030F",
"X  c #060715",
"o  c #0B0D1E",
"O  c #101326",
"+  c #131A30",
"@  c #18213A",
"#  c #16224C",
"$  c #172C59",
"%  c #252D43",
"&  c #2D354E",
"*  c #1E3469",
"=  c #373E64",
"-  c #344057",
";  c #3C4C63",
":  c #28437C",
">  c #3E4374",
",  c #42556D",
"<  c #494E7F",
"1  c #485D76",
"2  c #3D5C9A",
"3  c #4F4F8B",
"4  c #4D5D83",
"5  c #54578C",
"6  c #575E8B",
"7  c #595996",
"8  c #516685",
"9  c #59678A",
"0  c #5E6792",
"q  c #5A689C",
"w  c #577391",
"e  c #61679F",
"r  c #637198",
"t  c #67779D",
"y  c #5C5BA1",
"u  c #5E51BA",
"i  c #625EAF",
"p  c #605FBE",
"a  c #5671B2",
"s  c #6462A5",
"d  c #6367AD",
"f  c #6970A6",
"g  c #6A7EA1",
"h  c #6B70AE",
"j  c #7077A8",
"k  c #6263B5",
"l  c #6567B8",
"z  c #6D69BF",
"x  c #6970B8",
"c  c #7177B2",
"v  c #797FB3",
"b  c #7376BC",
"n  c #7A7FBE",
"m  c #6324EF",
"M  c #6226EF",
"N  c #652DEE",
"B  c #6330EF",
"V  c #6635EC",
"C  c #5B46C2",
"Z  c #6054C1",
"A  c #654FD0",
"S  c #6A6DC6",
"D  c #676AC8",
"F  c #6C7AC7",
"G  c #6F7CC4",
"H  c #7676C6",
"J  c #7C7FC6",
"K  c #7071CF",
"L  c #6967D1",
"P  c #6F74DA",
"I  c #7878D2",
"U  c #7B7FDE",
"Y  c #6841ED",
"T  c #6556EE",
"R  c #6C56EE",
"E  c #6040F0",
"W  c #6345F1",
"Q  c #6448F1",
"!  c #6856F0",
"~  c #6F68ED",
"^  c #6C69EE",
"/  c #7274EC",
"(  c #747AEE",
")  c #6863F0",
"_  c #6966F2",
"`  c #6C6FF1",
"'  c #6D75F1",
"]  c #717AF2",
"[  c #5B8099",
"{  c #5D8EA0",
"}  c #6E87A3",
"|  c #7480A9",
" . c #758CAA",
".. c #7B88AF",
"X. c #6794AB",
"o. c #7B95AC",
"O. c #6B87B4",
"+. c #6D80B9",
"@. c #7F86BC",
"#. c #7A9DB4",
"$. c #729EBF",
"%. c #62A0A8",
"&. c #6BAEB7",
"*. c #66BEB8",
"=. c #7284CA",
"-. c #7E85CA",
";. c #7D8DCC",
":. c #7A9CC6",
">. c #7B82D2",
",. c #7180DC",
"<. c #778CDF",
"1. c #7BA9C9",
"2. c #79BDCB",
"3. c #7487EF",
"4. c #7C84EC",
"5. c #7D96E8",
"6. c #7889F3",
"7. c #7C81FA",
"8. c #7892F2",
"9. c #7E90F3",
"0. c #7F99F0",
"q. c #7E99F5",
"w. c #6CCAC5",
"e. c #76D9D4",
"r. c #7BE6E3",
"t. c #7FE7E7",
"y. c #8290B4",
"u. c #8898B4",
"i. c #8895BE",
"p. c #849FB9",
"a. c #82A6BE",
"s. c #8DA7BF",
"d. c #93A0B6",
"f. c #A0B2BB",
"g. c #8389C4",
"h. c #878FCA",
"j. c #8E9DC6",
"k. c #838AD3",
"l. c #868CDF",
"z. c #8A93D2",
"x. c #809DD7",
"c. c #929ED2",
"v. c #82ACC8",
"b. c #92ACC6",
"n. c #89B2C8",
"m. c #89BDCD",
"M. c #95B5C8",
"N. c #9AABD2",
"B. c #95A2DE",
"V. c #9EACDE",
"C. c #97BED4",
"Z. c #A2BBCA",
"A. c #898EED",
"S. c #8B97E1",
"D. c #8095EF",
"F. c #839EEF",
"G. c #8D93FA",
"H. c #849EFA",
"J. c #949FFC",
"K. c #88ABED",
"L. c #91A0EF",
"P. c #8BB2E2",
"I. c #94BDE4",
"U. c #81A3F0",
"Y. c #89ACF0",
"T. c #88ABF9",
"R. c #9CAEF0",
"E. c #93AEFD",
"W. c #9FAEFD",
"Q. c #8FBAF5",
"!. c #9DBBFE",
"~. c #A7BBE6",
"^. c #AABCFE",
"/. c #8DC8D6",
"(. c #83C4DD",
"). c #B3C2CA",
"_. c #A5C4D5",
"`. c #AFCDDE",
"'. c #8CC6EF",
"]. c #9DC9E0",
"[. c #90C5EC",
"{. c #8CD6E7",
"}. c #94CBF0",
"|. c #BDD0EC",
" X c #A6C6FD",
".X c #B2C8FE",
"XX c #BDD9FB",
"oX c #C3CED3",
"OX c None",
/* pixels */
"OXOXOXOXOXOXOXOXOXOXOXOXOXOXOXOXOXOXOXOXOXOXOXOXOXOXOXOXOXOXOXOXOXOXOXOXOXOXOXOXOXOXOXOXOXOXOXOXOXOXOXOXOXOXOXOXOXOXOXOXOXOXOXOXOXOXOXOXOXOXOXOXOXOXOX",
"OXOXOXOXOXOXOXOXOXOXOXOXOXOXOXOXOXOXOXOXOXOXOXOXOXOXOXOXOXOXOXOXOXOXOXOXOXOXOXOXOXOXOXOXOXOXOXOXOXOXOXOXOXOXOXOXOXOXOXOXOXOXOXOXOXOXOXOXOXOXOXOXOXOXOX",
"OXOXOXOXOXOXOXOXOXOXOXOXOXOXOXOXOXOXOXOXOXOXOXOXOXOXOXOXOXOXOXOXOXOXOXOXOXOXOXOXOXOXOXOXOXOXOXOXOXOXOXOXOXOXOXOXOXOXOXOXOXOXOXOXOXOXOXOXOXOXOXOXOXOXOX",
"OXOXOXOXOXOXOXOXOXOXOXOXOXOXOXOXOXOXOXOXOXOXOXOXOXOXOXOXOXOXOXE E B W W W N N N Q Q W B OXOXOXOXOXOXOXOXOXOXOXOXOXOXOXOXOXOXOXOXOXOXOXOXOXOXOXOXOXOXOX",
"OXOXOXOXOXOXOXOXOXOXOXOXOXOXOXOXOXOXOXOXOXOXOXOXOXOXOXOXOX_ ' ) 8.8.U.U.0.0.K.6.^ Y Y ^ ! ) ) E OXOXOXOXOXOXOXOXOXOXOXOXOXOXOXOXOXOXOXOXOXOXOXOXOXOXOX",
"OXOXOXOXOXOXOXOXOXOXOXOXOXOXOXOXOXOXOXOXOXOXOXOXOXOX_ ' ) ) ! ^ ^ ] 6.D.K.P.I.].}.}.I.K.6.( ] ^ ` W ) E OXOXOXOXOXOXOXOXOXOXOXOXOXOXOXOXOXOXOXOXOXOXOX",
"OXOXOXOXOXOXOXOXOXOXOXOXOXOXOXOXOXOXOXOXOXOXOXOXOXB ) ] 6.D.Y.}.}.{.{.m.C.M.C.C.].].].].].].S.D.( 0.` ` ) OXOXOXOXOXOXOXOXOXOXOXOXOXOXOXOXOXOXOXOXOXOX",
"OXOXOXOXOXOXOXOXOXOXOXOXOXOXOXOXOXOXOXOXOXOXOXW ` ^ 6.6.( ( / 4.F.Q.n.b.M.M.M.M.M.M._._.~._._.C.S.K.D.6.` 3.m OXOXOXOXOXOXOXOXOXOXOXOXOXOXOXOXOXOXOXOX",
"OXOXOXOXOXOXOXOXOXOXOXOXOXOXOXOXOXOXOXOXOX) ! ` R R R / I.{.r.e.*.&.+.y.j.a.s.b.b.b.b.N.M.Z._.C.N.b.P.x.K.,.D.B OXOXOXOXOXOXOXOXOXOXOXOXOXOXOXOXOXOXOX",
"OXOXOXOXOXOXOXOXOXOXOXOXOXOXOXOXOXOXOXT W ! Y Y R Y.{.w.w.*.&.+.g g g  .#.#.i.i.j.i.j.d.d.b.b.M.M.b.b.N.$.x.x.D.B OXOXOXOXOXOXOXOXOXOXOXOXOXOXOXOXOXOX",
"OXOXOXOXOXOXOXOXOXOXOXOXOXOXOXOXOXOXB Q V Y R Y.{.r.r.*.{ [ 2 w w w 0 r t g j t j v v y.i.u.d.f.f.b.i.b.N.C.].V.D.m OXOXOXOXOXOXOXOXOXOXOXOXOXOXOXOXOX",
"OXOXOXOXOXOXOXOXOXOXOXOXOXOXOXOXOXB N V Y D.}.r.2.%.[ r  .g w w w 0 r g | | | r t | j j v ....d.d.d.s.j.s.~.~.`.I.~ OXOXOXOXOXOXOXOXOXOXOXOXOXOXOXOXOX",
"OXOXOXOXOXOXOXOXOXOXOXOXOXOXOXOXm N V ^ K.{.2.%.[ 8 g p.p.p.p.s.s.u.g |  .y.y.........f f j j ..d.d.d.d.@.i.C.`.].{.Y OXOXOXOXOXOXOXOXOXOXOXOXOXOXOXOX",
"OXOXOXOXOXOXOXOXOXOXOXOXOXOXOXm B V ] }.I.2.X.[ g p.b.b.M.b.s.u.u.u.u.u.u.j.i.i.u.y.@...j v j | j u.d.u.y.z.i._.`.I.e.N OXOXOXOXOXOXOXOXOXOXOXOXOXOXOX",
"OXOXOXOXOXOXOXOXOXOXOXOXOXOXM B Q ^ }.}.C.a.X.#.b.b.b.s.u.y.y.o.o.u.d.d.d.d.j.j.j.j.i.i.....v | j j i.i...n A.u.`.].].K.B OXOXOXOXOXOXOXOXOXOXOXOXOXOX",
"OXOXOXOXOXOXOXOXOXOXOXOXOXM N Q ^ P.].].C.s.s.s.p.u.u.y.g t | | ..i.i.j.j.c.N.V.c.c.c.z.c.g.y.c f f j @.g.v U A.b.`.`.`.,.M OXOXOXOXOXOXOXOXOXOXOXOXOX",
"OXOXOXOXOXOXOXOXOXOXOXOXOXm W ` K.].]._.C.s.s.s.u.o.g t ..+.-.-.-.J -.-.h.h.z.c.V.V.c.c.c.z.z...f e h v g.@.A.A.l.Z.`.`.].N OXOXOXOXOXOXOXOXOXOXOXOXOX",
"OXOXOXOXOXOXOXOXOXOXOXOXM T ) D.].].].C.b.s.d. .8 8 0 d h b J k.l.z.z.g.-.g.g.h.N._.V.B.B.c.z.;.n h h c h.@.U J.A.i._._._.L T OXOXOXOXOXOXOXOXOXOXOXOX",
"OXOXOXOXOXOXOXOXOXOXOXOXE W ] }.]._.C.b.a. .4 4 8 0 e f @.h.z.k.-.n c c c c c c v s.g.c.N.B.c.B.;.n c b >.-.k.G.A.G.s._._./.D M OXOXOXOXOXOXOXOXOXOXOX",
"OXOXOXOXOXOXOXOXOXOXOXOXB ^ P.I._./.n.o.r 4 4 4 0 f @.h.-.=.=.+.+.t r 0 8 9 9 9 r g j c -.B.V.B.~.;.n J J J n A.J.A.l.b.M.m.L B C OXOXOXOXOXOXOXOXOXOX",
"OXOXOXOXOXOXOXOXOXOXOXM ` 6.Y.].{.m.} w 1 4 4 e j c x +.=.=.+.f r 0 9 9 4 9 4 4 4 8 9 0 f J z.~.L.S.g.-.H b =.J G.G.J.B.s.v.m.D u u OXOXOXOXOXOXOXOXOX",
"OXOXOXOXOXOXOXOXOXOXOXW ^ Y.P.{.e.{ 9 4 4 4 0 t h x =.F F x s e e f | ....h h e 0 8 4 4 4 r c z.R.|.S.h.k.b >.-.G..XH.F.@.s.&.A u Z OXOXOXOXOXOXOXOXOX",
"OXOXOXOXOXOXOXOXOXOXm ! S.K.]./.&.w 4 4 < 6 0 d F =.S d s e f | u.f.Z.Z.).Z.Z.f.y.c f 4 1 , 6 j >.~. XS.k.z.H S.k.J.E.J.k.b.a.l Z k u OXOXOXOXOXOXOXOX",
"OXOXOXOXOXOXOXOXOXOXW ] D.].].&.w 4 4 4 6 0 d F F S d s j j ..d.Z.oXoXoXoX).).f.f.f.@.f 0 , , 0 c k.R.R.L.L.b l.n G..XJ.A.i.s.c k x Z OXOXOXOXOXOXOXOX",
"OXOXOXOXOXOXOXOXOXE ! ] D.].m.{ 8 4 4 4 9 e S S l d h | | u.Z.oXoXoXoX).f.d.o.o.o.o.d.u.j 0 > > 0 c U R.XX!.J >.k.A.^.J.9.h.b.t d L D OXOXOXOXOXOXOXOX",
"OXOXOXOXOXOXOXOXOXB 3.^ ]./.%.w 4 4 4 8 e l S d s c @...s.).oXoX_.M.a.{ [ 8 8 1 1 1 8 [ g s < = > r z S. XR.S.-.z.J W.J.H.h.s.r i L G OXOXOXOXOXOXOXOX",
"OXOXOXOXOXOXOXOXM ) ` ] ].2.{ r 4 4 9 9 d S d e n @.i.s.Z.).`.C.a.g 8 , ; - - - ; - - , 8 r e < & 4 s H  XR.L.k.z.-.W.W.H.-.y.e z I L C OXOXOXOXOXOXOX",
"OXOXOXOXOXOXOXOXm ^ ! }./.&.{ 0 4 9 0 d S i s v @.h.s.Z.`._.M. .w 1 = & & % % # % & & & = 4 7 0 & > e x A.E.L.A.k.h.A.!.^.>.g.j z I ,.) OXOXOXOXOXOXOX",
"OXOXOXOXOXOXOXOXT ! ` I.(.*.w 4 0 e d S l s b i.c.n.M.)._.).d.r , * $ # @ # @ @ + + @ @ % ; 4 7 8 & 5 s U E.L.G.A.h.J  X XS.n j I K ,.D E OXOXOXOXOXOX",
"OXOXOXOXOXOXOXOX) Q K.[.w.&.8 0 e 7 i i s x h.V.v.m.Z.).).d.8 : * $ % @ @ + O O O O + @ @ & , 8 < - ; e z E.F.E.J.-.n ^. XA.+.@.I H ,.D ) OXOXOXOXOXOX",
"OXOXOXOXOXOXOXM W Q K.I.w.{ 0 0 3 7 p i h J V.S.M.Z.M.).p.2 : - $ $ # @ O o o X X X o O + @ - 1 3 ; = 7 x 9.L.!.!.b J W. XA.k.@.J K >.G ) OXOXOXOXOXOX",
"OXOXOXOXOXOXOXT W ` 0.[.w.w 0 4 3 i i s n c.S.P.n.n.).b.w : : * $ # @ O X . . . . . X o O + % ; 4 ; & 3 j 4.A.!. Xg.n J. XF.l.g.l.S J G ` OXOXOXOXOXOX",
"OXOXOXOXOXOXOXE B U.K.e.*.0 6 4 3 i y b g.c.<.v.b.N.).a 4 : : $ $ @ O X X . .     . . . X O + - 1 , % < j I G. X.Xc.g.G..XE.L.J S.P =.:.3.OXOXOXOXOXOX",
"OXOXOXOXOXOXOXE B U.K.e.%.9 4 3 y i d b z.k.P.z.j.).a 2 2 : * $ # + o X .           . . . X O % , 1 % < r I E.XXXXR.n W.W.W.l.b V.>.=.:.3.OXOXOXOXOXOX",
"OXOXOXOXOXOXOXM T 3.K.2.{ w 4 3 d 7 b n g.F.5.h.M.+.h 2 2 : * # # @ o . .             . . X o @ = 8 & 8 r U !. X XW.c W. X!.H J S.l.=.:.3.OXOXOXOXOXOX",
"OXOXOXOXOXOXOXM ) 3.K.&.{ g 4 7 d d b y.k.F.U h.Z.d a a 2 * * $ @ O o . .             . . X o @ - 8 & > j A.T.E.E.R.b ^.^.!.c >.S.>.=.:.,.M OXOXOXOXOX",
"OXOXOXOXOXOXOXOX8.3.(.&.{ t < i 5 b f @.<.F.>.j.g.+.a 2 2 * * $ @ o O X . . . .       . . X X + - 8 & > c L.G.J.J.V.-..X.XL.v c.K F $.x.3.M OXOXOXOXOX",
"OXOXOXOXOXOXOXOX8.` (.*.%.r 3 7 y h j g.<.9.H N.F =.a a : : * $ @ o O X . . . . . . . . . X X + = ; % > @.U 7.G.G.z.n .X.X<.H k.S x $.P.` M OXOXOXOXOX",
"OXOXOXOXOXOXOXOXT D (.*.%.t 7 5 s e v -.4.P H c.J ;.F a : : * # @ O O o . . . . . . . . . X o @ , ; & > f.H 7.7.G.S.l..X!.>.J I F +.&.(.! M OXOXOXOXOX",
"OXOXOXOXOXOXOXOXT ` (.*.%.0 3 7 d 0 u.-.7.K >.h.c.P ;.2 2 : $ # # o O o . . . . . . . . . X o % , & & < N.z P 7.7.V.W..XE.k.>.=.;.r &.e.Q OXOXOXOXOXOX",
"OXOXOXOXOXOXOXOXE ` x.w.X.5 < 7 h r d.>.9.P >.b c.<.x.a 2 : * # # O O o         . . . . . X O % = % - r V.i L 7.J.L.^..XF.H h.>.h X.2.e.N OXOXOXOXOXOX",
"OXOXOXOXOXOXOXOXE ` x.w.{ 4 < y h r y.U H.K U H >.S.x.F a : $ # # + O o       . .   . . . X O & & % = | z.i P 7.4.W.^.!.<.J =.;.@.X.(.[.N M OXOXOXOXOX",
"OXOXOXOXOXOXOXOXE 8.x.&.g 4 < y s j @.U / K l.b >.B.<.<.x 2 * # # @ O o           . . . . o % & % & < @.i L P 7.J.^..XT.>.-.g.x v &.e.^ B M OXOXOXOXOX",
"OXOXOXOXOXOXOXOXE D ,.2.{ 4 5 d s f g.S U K L.d =.P.S.5.=.: : * $ % @ o .             . X @ & @ @ = e J p L / 7.^. X^.5.b k.P x X.w.e.Y N m OXOXOXOXOX",
"OXOXOXOXOXOXOXOXOX) ,.2.X.w 7 d e j n z U S ~.x >.~.Y.9.<.2 : : * = % O X             X O @ O O % > h I L / / G.^..XT.P @.;.H n &.e.{.Y B M OXOXOXOXOX",
"OXOXOXOXOXOXOXOXOXu ,.(.$.w y l e | v i U S L.n k.I.F.5.5.x y < * > = @ o . . . . X o o O X X + $ 7 c.L P / 4.^.^.J.F.n J <.F u.*.e.~ N B OXOXOXOXOXOX",
"OXOXOXOXOXOXOXOXOXC ] (.v.{ y l e | v d U K L.g.S.~.5.H.9.z.+.e 7 > > = @ X . . X X X X X X O & < @.p P / / W.^. XT.H @.;.k.c &.w.e.R Q B OXOXOXOXOXOX",
"OXOXOXOXOXOXOXOXOXE 3.(.v.[ 7 l s j v d I S L.h.S.I.5.H.F.V.b b @.e 3 < = @ o X X X X X o + & 9 h p P / / J..X^.E.P @.;.>.x | &.w.Y.V V m OXOXOXOXOXOX",
"OXOXOXOXOXOXOXOXOXOX` P.:.q y l s e j h S H J.J ~.P.5.T.H.A.J J h.i.h 3 5 = % @ + O O + % = 5 y L P 4.U J.XX.XE.<.n J k.+.| f.*.w.~ ! N OXOXOXOXOXOXOX",
"OXOXOXOXOXOXOXOXOXOX8.x.,.q q d s r r c l S U b ~.~.L.T.H.9.l.h.-.c.j.+.h y > > = = > > 3 2 p L P P 9.W.XX.XE.<.b g.k.+.| ..X.*.Y.Y V B OXOXOXOXOXOXOX",
"OXOXOXOXOXOXOXOXOXOX' ] L k q 7 s r 0 c i H U I B.|.5.F.H.Q./ c.J B.z.j.-.n d y y y y i p p L U P L.XXXX.XE.4.b g.;.F c t g X.w.( R V M OXOXOXOXOXOXOX",
"OXOXOXOXOXOXOXOXOXOX_ ^ ,.k q 6 s 6 9 h s z I A.H XXL.F.T.T.!.I k.k.l.z.z.c.h.h.J -.>.k.B.S.U R.|.XXXX!.E.9.J @.;.+.c g r } *.<.Y Y N OXOXOXOXOXOXOXOX",
"OXOXOXOXOXOXOXOXOXOXOXQ ,.k q 4 d 7 6 e s x z A.H V.~.5.F.Q.T./ H -.l.I k.S.V.N.N.N.V.~.~.~.|.|.|..X X!.9.-.g.+.F j g t } &.e.R R Y E OXOXOXOXOXOXOXOX",
"OXOXOXOXOXOXOXOXOXOXOXT ,.A q 8 d s 5 7 s x d U l.b |.~.F.Q.T.T./ b k.b b S B.~.`.`.`.|.|.XX|. XE.H.T.K g.-.x x t | |  .%.*.<.( Y N OXOXOXOXOXOXOXOXOX",
"OXOXOXOXOXOXOXOXOXOXOXOX^ A k q q x < 4 e s s I J.H l.^.L.F.Q.T.T.7.z n J b S H U A.R.R.E.E.J.G.H.P n n +.x d t j |  .o.&.<.~ Y V OXOXOXOXOXOXOXOXOXOX",
"OXOXOXOXOXOXOXOXOXOXOXOXN ,.D D q x 7 4 0 0 7 x U l.d S.R.F.T.Q.T.T.E.K v @.v g.J H U A.U H I b @.n b x l 3 0 c j o.p.#.x.~ R ^ ) OXOXOXOXOXOXOXOXOXOX",
"OXOXOXOXOXOXOXOXOXOXOXOXE ^ Z Z O.k q 4 0 0 5 s U G.>.f L.R.F.T.T.T.H.T.4.P >.g.c.N.N.N.g.c x S F h y 7 7 e b | u.s.a.$.U ~ ~ ) OXOXOXOXOXOXOXOXOXOXOX",
"OXOXOXOXOXOXOXOXOXOXOXOXOXV A Z D q q 6 t t r 6 z I A.H s L.R.4.!.Q.T.H.H.9.U U K S S l d d d l p 7 7 e h h  .s.M.n.v.P / ( 3.OXOXOXOXOXOXOXOXOXOXOXOX",
"OXOXOXOXOXOXOXOXOXOXOXOXOXm Y Z u O.D q r } g 9 7 K U U b d U L.A.T.Q.T.5.<.5.F.F.P K K S K S l d 7 7 e g o.s.M.m.P.5.( ( 0.OXOXOXOXOXOXOXOXOXOXOXOXOX",
"OXOXOXOXOXOXOXOXOXOXOXOXOXOXQ A B C O.O.} }  .} 0 s x l.I x s P A.4.G.9.Q.5.P <.F.5.5.<.P F l y e e f | p.s.Z.m.P.{./ 4.K.E OXOXOXOXOXOXOXOXOXOXOXOXOX",
"OXOXOXOXOXOXOXOXOXOXOXOXOXOXM Q m OXOX1.O.%.o.#.g 0 f s >.H b y i z S l L 4.4.<.P F l d y y e e d c o.p.s.f./.I.{.F.9.K.T OXOXOXOXOXOXOXOXOXOXOXOXOXOX",
"OXOXOXOXOXOXOXOXOXOXOXOXOXOXOXB B OXOXOX1.%.#.#.#.} r 0 e >.H >.5 7 7 7 7 5 y y 7 7 7 7 7 e f j } o.p.s.M./.{.Y.}.Q.0.E OXOXOXOXOXOXOXOXOXOXOXOXOXOXOX",
"OXOXOXOXOXOXOXOXOXOXOXOXOXOXOXOXT OXOXOXOX1.:.a.a.p.} t r 0 H U I 7 6 6 0 0 0 r h t t g }  .o.#.#.a.n.M.C.].].}.{.3.E OXOXOXOXOXOXOXOXOXOXOXOXOXOXOXOX",
"OXOXOXOXOXOXOXOXOXOXOXOXOXOXOXOXM m OXOXOXOXO.a.v.n.p. .} } r h l.z s 0 0 0 r r r t t g }  .#.p.s.M.M.C.{.r.{.[.) E OXOXOXOXOXOXOXOXOXOXOXOXOXOXOXOXOX",
"OXOXOXOXOXOXOXOXOXOXOXOXOXOXOXOXOXM OXOXOXOXOX'.:.m.n.a.#.o.o. .r k.z s 0 r t g g }  .o.#.p.a.n./.e.r.{.r.{.3.W _ q.OXOXOXOXOXOXOXOXOXOXOXOXOXOXOXOXOX",
"OXOXOXOXOXOXOXOXOXOXOXOXOXOXOXOXOXOXOXOXOXOXOXOX'.n.m.m.v.a.#.&.#.o. .| | |  ...p.a.n.n.n.m.m.e.r.r.r.}.] ) 8.'.OXOXOXOXOXOXOXOXOXOXOXOXOXOXOXOXOXOXOX",
"OXOXOXOXOXOXOXOXOXOXOXOXOXOXOXOXOXOXOXOXOXOXOXOXOX'.K./.C.m.v.a.v.a.#.#.p.a.a.a.a.a.n./.e.e.r.r.{.D.] 3.'.'._ OXOXOXOXOXOXOXOXOXOXOXOXOXOXOXOXOXOXOXOX",
"OXOXOXOXOXOXOXOXOXOXOXOXOXOXOXOXOXOXOXOXOXOXOXOXOXOXU.( I.{.I.P.x.x.v.2.2.m.n.n.n.n.C.{.[.P.K.K.[.t.t.'.OXOXOXOXOXOXOXOXOXOXOXOXOXOXOXOXOXOXOXOXOXOXOX",
"OXOXOXOXOXOXOXOXOXOXOXOXOXOXOXOXOXOXOXOXOXOXOXOXOXOXOX8.^ ] [.K.0.K.x.R R ( P.(.e.e.e.t.t.t.'.'.' OXOXOXOXOXOXOXOXOXOXOXOXOXOXOXOXOXOXOXOXOXOXOXOXOXOX",
"OXOXOXOXOXOXOXOXOXOXOXOXOXOXOXOXOXOXOXOXOXOXOXOXOXOXOXOX' 8.E ' '.U.3.] ^ ` ! ! V N B OXOXOXOXOXOXOXOXOXOXOXOXOXOXOXOXOXOXOXOXOXOXOXOXOXOXOXOXOXOXOXOX",
"OXOXOXOXOXOXOXOXOXOXOXOXOXOXOXOXOXOXOXOXOXOXOXOXOXOXOXOXOXOXOXOXOXOX' q.' ) ) T W T M OXOXOXOXOXOXOXOXOXOXOXOXOXOXOXOXOXOXOXOXOXOXOXOXOXOXOXOXOXOXOXOX",
"OXOXOXOXOXOXOXOXOXOXOXOXOXOXOXOXOXOXOXOXOXOXOXOXOXOXOXOXOXOXOXOXOXOXOXOXOXOXOXOXOXOXOXOXOXOXOXOXOXOXOXOXOXOXOXOXOXOXOXOXOXOXOXOXOXOXOXOXOXOXOXOXOXOXOX",
"OXOXOXOXOXOXOXOXOXOXOXOXOXOXOXOXOXOXOXOXOXOXOXOXOXOXOXOXOXOXOXOXOXOXOXOXOXOXOXOXOXOXOXOXOXOXOXOXOXOXOXOXOXOXOXOXOXOXOXOXOXOXOXOXOXOXOXOXOXOXOXOXOXOXOX",
"OXOXOXOXOXOXOXOXOXOXOXOXOXOXOXOXOXOXOXOXOXOXOXOXOXOXOXOXOXOXOXOXOXOXOXOXOXOXOXOXOXOXOXOXOXOXOXOXOXOXOXOXOXOXOXOXOXOXOXOXOXOXOXOXOXOXOXOXOXOXOXOXOXOXOX",
"OXOXOXOXOXOXOXOXOXOXOXOXOXOXOXOXOXOXOXOXOXOXOXOXOXOXOXOXOXOXOXOXOXOXOXOXOXOXOXOXOXOXOXOXOXOXOXOXOXOXOXOXOXOXOXOXOXOXOXOXOXOXOXOXOXOXOXOXOXOXOXOXOXOXOX"
};
