/* XPM */
static char *result[] = {
/* columns rows colors chars-per-pixel */
"75 75 189 2 ",
"   c #010107",
".  c #03030F",
"X  c #060715",
"o  c #0B0D1E",
"O  c #101326",
"+  c #131A30",
"@  c #18213A",
"#  c #16224C",
"$  c #172C59",
"%  c #252D43",
"&  c #2D354E",
"*  c #1E3469",
"=  c #373E64",
"-  c #344057",
";  c #3C4C63",
":  c #28437C",
">  c #3E4374",
",  c #42556D",
"<  c #494E7F",
"1  c #485D76",
"2  c #3D5C9A",
"3  c #4F4F8B",
"4  c #4D5D83",
"5  c #54578C",
"6  c #575E8B",
"7  c #595996",
"8  c #516685",
"9  c #59678A",
"0  c #5E6792",
"q  c #5A689C",
"w  c #577391",
"e  c #61679F",
"r  c #637198",
"t  c #67779D",
"y  c #5C5BA1",
"u  c #5E51BA",
"i  c #625EAF",
"p  c #605FBE",
"a  c #5671B2",
"s  c #6462A5",
"d  c #6367AD",
"f  c #6970A6",
"g  c #6A7EA1",
"h  c #6B70AE",
"j  c #7077A8",
"k  c #6263B5",
"l  c #6567B8",
"z  c #6D69BF",
"x  c #6970B8",
"c  c #7177B2",
"v  c #797FB3",
"b  c #7376BC",
"n  c #7A7FBE",
"m  c #6324EF",
"M  c #6226EF",
"N  c #652DEE",
"B  c #6330EF",
"V  c #6635EC",
"C  c #5B46C2",
"Z  c #6054C1",
"A  c #654FD0",
"S  c #6A6DC6",
"D  c #676AC8",
"F  c #6C7AC7",
"G  c #6F7CC4",
"H  c #7676C6",
"J  c #7C7FC6",
"K  c #7071CF",
"L  c #6967D1",
"P  c #6F74DA",
"I  c #7878D2",
"U  c #7B7FDE",
"Y  c #6841ED",
"T  c #6556EE",
"R  c #6C56EE",
"E  c #6040F0",
"W  c #6345F1",
"Q  c #6448F1",
"!  c #6856F0",
"~  c #6F68ED",
"^  c #6C69EE",
"/  c #7274EC",
"(  c #747AEE",
")  c #6863F0",
"_  c #6966F2",
"`  c #6C6FF1",
"'  c #6D75F1",
"]  c #717AF2",
"[  c #5B8099",
"{  c #5D8EA0",
"}  c #6E87A3",
"|  c #7480A9",
" . c #758CAA",
".. c #7B88AF",
"X. c #6794AB",
"o. c #7B95AC",
"O. c #6B87B4",
"+. c #6D80B9",
"@. c #7F86BC",
"#. c #7A9DB4",
"$. c #729EBF",
"%. c #62A0A8",
"&. c #6BAEB7",
"*. c #66BEB8",
"=. c #7284CA",
"-. c #7E85CA",
";. c #7D8DCC",
":. c #7A9CC6",
">. c #7B82D2",
",. c #7180DC",
"<. c #778CDF",
"1. c #7BA9C9",
"2. c #79BDCB",
"3. c #7487EF",
"4. c #7C84EC",
"5. c #7D96E8",
"6. c #7889F3",
"7. c #7C81FA",
"8. c #7892F2",
"9. c #7E90F3",
"0. c #7F99F0",
"q. c #7E99F5",
"w. c #6CCAC5",
"e. c #76D9D4",
"r. c #7BE6E3",
"t. c #7FE7E7",
"y. c #8290B4",
"u. c #8898B4",
"i. c #8895BE",
"p. c #849FB9",
"a. c #82A6BE",
"s. c #8DA7BF",
"d. c #93A0B6",
"f. c #A0B2BB",
"g. c #8389C4",
"h. c #878FCA",
"j. c #8E9DC6",
"k. c #838AD3",
"l. c #868CDF",
"z. c #8A93D2",
"x. c #809DD7",
"c. c #929ED2",
"v. c #82ACC8",
"b. c #92ACC6",
"n. c #89B2C8",
"m. c #89BDCD",
"M. c #95B5C8",
"N. c #9AABD2",
"B. c #95A2DE",
"V. c #9EACDE",
"C. c #97BED4",
"Z. c #A2BBCA",
"A. c #898EED",
"S. c #8B97E1",
"D. c #8095EF",
"F. c #839EEF",
"G. c #8D93FA",
"H. c #849EFA",
"J. c #949FFC",
"K. c #88ABED",
"L. c #91A0EF",
"P. c #8BB2E2",
"I. c #94BDE4",
"U. c #81A3F0",
"Y. c #89ACF0",
"T. c #88ABF9",
"R. c #9CAEF0",
"E. c #93AEFD",
"W. c #9FAEFD",
"Q. c #8FBAF5",
"!. c #9DBBFE",
"~. c #A7BBE6",
"^. c #AABCFE",
"/. c #8DC8D6",
"(. c #83C4DD",
"). c #B3C2CA",
"_. c #A5C4D5",
"`. c #AFCDDE",
"'. c #8CC6EF",
"]. c #9DC9E0",
"[. c #90C5EC",
"{. c #8CD6E7",
"}. c #94CBF0",
"|. c #BDD0EC",
" X c #A6C6FD",
".X c #B2C8FE",
"XX c #BDD9FB",
"oX c #C3CED3",
"OX c None",
/* pixels */
"OXOXOXOXOXOXOXOXOXOXOXOXOXOXOXOXOXOXOXOXOXOXOXOXOXOXOXOXOXOXOXOXOXOXOXOXOXOXOXOXOXOXOXOXOXOXOXOXOXOXOXOXOXOXOXOXOXOXOXOXOXOXOXOXOXOXOXOXOXOXOXOXOXOXOX",
"OXOXOXOXOXOXOXOXOXOXOXOXOXOXOXOXOXOXOXOXOXOXOXOXOXOXOXOXOXOXOXOXOXOXOXOXOXOXOXOXOXOXOXOXOXOXOXOXOXOXOXOXOXOXOXOXOXOXOXOXOXOXOXOXOXOXOXOXOXOXOXOXOXOXOX",
"OXOXOXOXOXOXOXOXOXOXOXOXOXOXOXOXOXOXOXOXOXOXOXOXOXOXOXOXOXOXOXOXOXOXOXOXOXOXOXOXOXOXOXOXOXOXOXOXOXOXOXOXOXOXOXOXOXOXOXOXOXOXOXOXOXOXOXOXOXOXOXOXOXOXOX",
"OXOXOXOXOXOXOXOXOXOXOXOXOXOXOXOXOXOXOXOXOXOXOXOXOXOXOXOXOXOXOXOXOXOXOXOXOXOXOXOXOXOXOXOXOXOXOXOXOXOXOXOXOXOXOXOXOXOXOXOXOXOXOXOXOXOXOXOXOXOXOXOXOXOXOX",
"OXOXOXOXOXOXOXOXOXOXOXOXOXOXOXOXOXOXOXOXOXOXOXOXOXOXOXOXOXOXOXOXOXOXOXOXOXOXOXOXOXOXOXOXOXOXOXOXOXOXOXOXOXOXOXOXOXOXOXOXOXOXOXOXOXOXOXOXOXOXOXOXOXOXOX",
"OXOXOXOXOXOXOXOXOXOXOXOXOXOXOXOXOXOXOXOXOXOXOXOXOXOXOXOXOXOXOXOXOXOXOXM M M M OXOXM M m M OXOXOXOXOXOXOXOXOXOXOXOXOXOXOXOXOXOXOXOXOXOXOXOXOXOXOXOXOXOX",
"OXOXOXOXOXOXOXOXOXOXOXOXOXOXOXOXOXOXOXOXOXOXOXOXOXOXOXOXE ) ) ` 3.3.3.,.3.` ! Q N N B N B B B m OXOXOXOXOXOXOXOXOXOXOXOXOXOXOXOXOXOXOXOXOXOXOXOXOXOXOX",
"OXOXOXOXOXOXOXOXOXOXOXOXOXOXOXOXOXOXOXOXOXOXOXOXOXOXC ) D D G G :.:.:.:.x.P.(.e.e.[.^ Y Y N Q V N B M OXOXOXOXOXOXOXOXOXOXOXOXOXOXOXOXOXOXOXOXOXOXOXOX",
"OXOXOXOXOXOXOXOXOXOXOXOXOXOXOXOXOXOXOXOXOXOXu Z D G L ,.,.,.>.J =.=.=.=.$.$.&.&.2.(.e.e.{.~ R V ! V V N E OXOXOXOXOXOXOXOXOXOXOXOXOXOXOXOXOXOXOXOXOXOX",
"OXOXOXOXOXOXOXOXOXOXOXOXOXOXOXOXOXOXOXOXu Z k x L L I I K H K S P >.l.>.F x +.r X.X.&.w.e.e.e.Y.~ Y R Y Y N OXOXOXOXOXOXOXOXOXOXOXOXOXOXOXOXOXOXOXOXOX",
"OXOXOXOXOXOXOXOXOXOXOXOXOXOXOXOXOXOXOXC u u Z k d i z z I I J l.S.V.S.S.K S F ;.h @.v X.&.*.w.w.w.Y.( Y R Y V ) OXOXOXOXOXOXOXOXOXOXOXOXOXOXOXOXOXOXOX",
"OXOXOXOXOXOXOXOXOXOXOXOXOXOXOXOXOXOXM B D A l c t r e j j @.@.g.J b J >.c.k.I =.>.;.x x n u.&.&.*.*.w.<.R ( Y ^ ) OXOXOXOXOXOXOXOXOXOXOXOXOXOXOXOXOXOX",
"OXOXOXOXOXOXOXOXOXOXOXOXOXOXOXOXOXT D L m.&.a.s.b.s.y.g.n +.k.l.L.l.H c v H J >.h.=.g.P H F c | f.X.X.*.e.<.~ R ~ 3.OXOXOXOXOXOXOXOXOXOXOXOXOXOXOXOXOX",
"OXOXOXOXOXOXOXOXOXOXOXOXOXOXOXM N L /.m.v.s.b.i.h.h.-.>.S.A.A.F.E.W.!.!.L.<.>.k.H J -.k.;.<.k.x | ..g } &.*.<.~ ~ ( 0.E OXOXOXOXOXOXOXOXOXOXOXOXOXOXOX",
"OXOXOXOXOXOXOXOXOXOXOXOXOXOXB ,.]._._.M.s.@.k.A.9.H.H.^. X X X X.XW. X^..X.X!.E.F.<.>.b @.J ;.>.+.| t r } %.&.x.U / ( K.T OXOXOXOXOXOXOXOXOXOXOXOXOXOX",
"OXOXOXOXOXOXOXOXOXOXOXOXOXN K.`.`._._.b.B.F.J.J.J.J.W.!. X^.W.J.G.W.W.^..X.X.X.X.X!.T.5.P n @.;.k.+.c g t  .o.#.$.P ( 4.K.E OXOXOXOXOXOXOXOXOXOXOXOXOX",
"OXOXOXOXOXOXOXOXOXOXOXOXY e.].`.`._.s.l.J.H.E..X^.W.W.A.J n J n g.n c b -.n l.W.^.^..X^.T.F.H @.J k.F c g |  .p.a.v.5./ 9.0.E OXOXOXOXOXOXOXOXOXOXOXOX",
"OXOXOXOXOXOXOXOXOXOXm ~ {.I.].`.Z.i.G.A.G..XJ.G.A.J -.h.h.-.b g.c.R.W.R.V.z.S.V.L.W.^. X.XJ.T.P n g.;.+.j | | o.s.n.P.{.F.Q.3.E q.OXOXOXOXOXOXOXOXOXOX",
"OXOXOXOXOXOXOXOXOXB D.I.].`.`.b.l.A.A.J.G.G.k.n k.z.z.k.A.J.!. X.XXX XE.J.G.G.7.J.4.J.^.^.^. XE.<.b g.;.F t j j u.M.m.P.{.}.{.) _ OXOXOXOXOXOXOXOXOXOX",
"OXOXOXOXOXOXOXOXB D.V.`.`._.u.A.A.J.G.A.J -.S.l.>.-.k.A.G.E.!.!. XXX XE.J.G.7.7.7.7.7.7.G.^.^.^.E.<.b @.+.x t c | s.M.m.I.Y.}.[.W '.OXOXOXOXOXOXOXOXOX",
"OXOXOXOXOXOXOXm D.x.].~.C.i.A.U A.U k.n =.>.H b J S.L.L.L.F.L.A.G.E.!.T.G.7.7.P L P P / / 4.W..X.XE.4.J g.x d 0 b  .s.Z./.{.].{.3.8._ OXOXOXOXOXOXOXOX",
"OXOXOXOXOXOXOX3.,.x.C.~.i.z.n v @.@.-.J b b z.L.!.R.R.E.E.E.9.4.I I U A.L.U H z i i L L / / / J.XX.XE.9.-.-.x 3 e h o.s.f./.].r.{.) '.OXOXOXOXOXOXOXOX",
"OXOXOXOXOXOX) ` K.$.N.s.@.y...g.g.h.>.J H k.k.L.XX X XA.U z x j j r r j c @.f.N.V.z.i p L P / / J.XX.XE.9.g.+.l 7 h g p.s.M.C.{.r.] '.OXOXOXOXOXOXOXOX",
"OXOXOXOXOXE ` 6.x.N.b.j.d.u.i.@.v c b J -.h.S.R.R.S.H x s e 7 3 < < 8 > > > > < r | @.J I L P / U W.XX!.!.K n x 7 e e | p.s.M.C.{.}.3.'.OXOXOXOXOXOXOX",
"OXOXOXOXOX) ` D.P.b.i.s.d.d.i.j h h c n g.S. XR.U z s e 5 ; = & % % & & & % & & - = < e h c.p P 4.9.XXXX XT.n b y 7 7 f o.p.n.M.r.r.] t.OXOXOXOXOXOXOX",
"OXOXOXOXOXW 0.K.b.b.b.d.d.u.j f e h n ;.S.|.~.k.c r 4 > & - ; ; , 1 8 8 8 ; ; & % % & = > 7 @.p P P L.XX.XH.P n h 7 7 e c o.a.M.e.r.D.t.OXOXOXOXOXOXOX",
"OXOXOXOXOX` ( S.N.M.f.d.d.j j f f n ;.~.L.R.>.c 0 > & & 8 < 3 4 1 , = - - = , , = & % @ % $ < h L P P |.|.E.H.@.F p d e d } #.s./.r.{.[.' OXOXOXOXOXOX",
"OXOXOXOXE ^ D.C.C.M.f.d...| | c ..;.B.B.~.z.j 0 > = < 0 7 8 1 ; - % @ @ + + @ % % & & @ O + & 9 y L U R.|. XG.b S l l y e j #.p.n.e.r.K.'.OXOXOXOXOXOX",
"OXOXOXOX) ] S._._.b.d...j j v y.z.z.c.V.z.c 6 , > < e 7 4 , - % + O o o X X o o O O % & O X O & 5 p L U |.|.J.I x d S l e f o.#.a.m.r.K.'.OXOXOXOXOXOX",
"OXOXOXOX) ( ]._.Z.b.u...j v ..g.z.c.B.B.J r , , 0 s r 4 ; & @ + O X X X X X X X X X o @ @ X X + = 2 p S.~.XXE.H c d K F y e  . .p.m.e.P.t.OXOXOXOXOXOX",
"OXOXOXOX! 6.].~.M.d.i.v f j ..c.c.B.N.-.f 4 1 0 j g 8 = % @ + O X . . . . . . . . . . X O O X o % 3 p B.~.|.E.U g.d S P y 7 } } #.n.e.[.t.OXOXOXOXOXOX",
"OXOXOXB ^ K.]._.N.d.y.j f ..i.z.c.B.c.c 0 4 4 f u.[ , & @ @ O o . . . . . . . . . . . . X o X X + > i k.~.|.R.A.N.l K <.d 7 g g o.n./.{.t.OXOXOXOXOXOX",
"OXOXOXW Y I.]._.b.j.v j ..@.i.c.c.V.g.j 9 4 f @.d.8 - & @ + o X . .       . . . . . .     o X X O > y >.V.`.R.U N.S K 5.l 7 t t  .n.n.C.e.B M OXOXOXOX",
"OXOXOXQ Y }.].M.b.i.v | ..y.j.c.V._.s.g 8 8 c f.o.1 - & + O X . .         . . . .   .     X X X O = y -.N.`.A.H N.S P 5.F 7 t t } a.a.n.e.N T OXOXOXOX",
"OXOXOXQ ^ }.].M.b.j.j t ..u.j.c.V.N.v r 4 0 y.f.o.1 ; % + O X .           . . . . .       . X X + = y J N.`.U J c.K F.F.P 7 h r g p.a.n.e.V W OXOXOXOX",
"OXOXOXN 6.].C.M.b.i.t r ..i.j.V.c.h.c 9 4 e f.f.o.1 - # @ O X .         . . . .   .       . . X @ > y h.N.~.H g.g.U F.<.<.y r r g ..a.n.(.! T OXOXOXOX",
"OXOXOXN K.I.C.M.s.i.j | y.i.j.N.z.g.c 9 4 h Z.).o.8 - % @ O o . .       . . . .           . . o % > d h.V.B.S v >.U 5.P 4.y 0 r t  .a.n.P.! ) OXOXOXOX",
"OXOXOXN 0.P.M.M.a.#.g | y.j.d.c.h.g.c 9 9 h Z.).d.8 - % # + o . .       . . . .           . X @ = y n c.S.S b @.P 9.<.5.4.5 0 0 r | a.m.( ` ) OXOXOXOX",
"OXOXOXW 0.K.C.M.j.#.t |  .u.d.j.h.-.c 8 4 ..).oXf.[ ; & @ @ O X X . . . . . . .       . X o @ = 5 h -.z.k.b J v 4.H.5.Q.L 7 0 0 0 | p.2.R ^ ' OXOXOXOX",
"OXOXOXW U.D.m.b.y. .r g | u.d.j.-.g.c 0 9 ..Z.oX).{ , & # @ @ O X X . . X X o o o o o o O @ = < 3 +.j.z.I b n K T.H.T.9.l 7 6 0 s | #.2.R ] q.OXOXOXOX",
"OXOXOXW U.6.{.n.+.g 0 r g u.d.i.-.z.c r 9 | Z.oXoXa.8 = $ % # @ O o o o O O O O O O O @ % = > 3 h j.z.l.l.k.z E.H.T.Q.G.S 7 6 s z  .#.v.x.3.' OXOXOXOX",
"OXOXOXB 8.] {.Q.&.g w 0 u.u.u.i.J z.n t 0 f f.oXoXM.g 1 * $ $ # @ + @ O o o O o O + @ % = > > e i.c.B.k.-.b 7.T.T.Q.T.4.z 7 7 z k.o.a.x.K.U.OXOXOXOXOX",
"OXOXOXE 8.^ }.F.*.g w w s.u.o...-.l.-.+.r e u.Z.oX_.a.w , * $ $ $ # # @ @ @ @ # # # # $ * * 7 @.h.-.J k.H / T.T.T.!.A.A.i 5 I l.r #.v.x.0.'.OXOXOXOXOX",
"OXOXOXE ) ^ }.4.e.+.w w s.u.o.| -.k.k.+.f e | d.oXoXC. .r : - * $ $ # $ $ $ # # # # # * : < e b J h.c.I / T.T.Q.T.4.L.P y >.U h  .&.a.P.K.' OXOXOXOXOX",
"OXOXOXOX' ! Y./ r.&.2 w p.s.y.| -.J z.=.+.s f ..Z.oX`.M.d.8 : : : * * * * * * $ * $ * : : y +.b J l./ !.T.T.Q.T.F.R.U s b H H r o.#.v.I.[.E OXOXOXOXOX",
"OXOXOXOX_ ) D.( {.*.[ g p.b.y.t +.b h.=.=.x e j u.).)._.).d.2 : : : : * * : : : : : 2 : 2 x z.V.A.9.Q.T.Q.Q.F.F.R.L.d x H >.0 } o.a.m.{.] 8.OXOXOXOXOX",
"OXOXOXOXOX) 6.( I.w.{  .p.M.u.g ..h @.-.=.F s j | s.Z.`._.).p.w 4 2 2 2 2 : : 2 2 a x =.<.5.9.F.H.H.H.T.F.F.L.R.L.s b I >.e r } #.v.C.I.^ ' OXOXOXOXOX",
"OXOXOXOXOX' ] 6./ w.*.r p.b.s.y.t d f h.+.F d s | ..s.Z.).).).b.a 2 2 a 2 a a 2 a F <.5.9.5.H.H.T.T.F.F.5.~.^.S.f H U l.s 0 t  .a.m./.( 8.OXOXOXOXOXOX",
"OXOXOXOXOX_ ) 6.R {.r.[ g b.b.u.g 0 e @.x =.S d h @.i.s.M.Z.M.).).a h a a a F ;.x.x.<.S.Y.F.5.5.5.L.5.L.~.|.l.d >.A.U x f r } p.n.m.K.U.OXOXOXOXOXOXOX",
"OXOXOXOXOXOXB ^ R Y.r.%.8 p.b.u.o.8 0 f c x =.S d c @.h.n.m.Z.n.N.).+.d +.=.;.P <.S.B.P.~.I.~.I.P.~.|.XXV.b H l.G.I K s 0 } p.n.m.n.'.OXOXOXOXOXOXOXOX",
"OXOXOXOXOXOXOX` R R {.2.[ g b.p.u.8 8 0 j h F F l s n @.c.v.M.n.b.j.M.Z.g.F J c.c.>.>.=.>.k.S.S.~.~.B.H H l.J.U U z 7 0 g #.a.v.:.'.OXOXOXOXOXOXOXOXOX",
"OXOXOXOXOXOXOXW ` Y Y.r.%.[ #.s.s. .4 4 e t d F S d e v i.V.S.P.v.z.h.h.j.N.c.h.b H b d x n g.h.J b I A.A.U I x s 6 9 } #.#.a.a.'.OXOXOXOXOXOXOXOXOXOX",
"OXOXOXOXOXOXOXOX! Y R }.2.X.X.s.s.d.4 4 4 0 0 d S S d s b h.V.S.<.P.5.U >.H H >.>.U l.L.~.L.L.L.J.U U I z d s 7 5 r g  .o.#.:.O.OXOXOXOXOXOXOXOXOXOXOX",
"OXOXOXOXOXOXOXOX) ! Y D.{.2.a.s.s.s. .4 4 4 6 0 e l S i s x J c.c.k.F.F.F.9.P K P K K K S S K S H S H z x x s 0 0 t } } %.%.1.OXOXOXOXOXOXOXOXOXOXOXOX",
"OXOXOXOXOXOXOXOXOXW V Y K.I.C.C.C.b.a.r 1 4 < 6 9 e d S l s h n g.z.g.k.<.<.4.7.9.H./ U U U U I S l i s s s e 0 0 t r } O.1.OXOXOXOXOXOXOXOXOXOXOXOXOX",
"OXOXOXOXOXOXOXOXOXT Q V ^ }.}.]._.C.b.o.w 4 4 4 4 8 9 d S i i s b b n y.@.g.-.-.>.U U S z i d d h c c h e 7 4 4 4 6 q O.1.OXOXOXOXOXOXOXOXOXOXOXOXOXOX",
"OXOXOXOXOXOXOXOXOXOXB N V ] }.].].].C.n.} 9 4 4 4 4 9 0 d i p i y d b b f j v u.d.y.@.g.n v v v j r 0 9 6 5 < 7 q q D O.OXOXOXOXOXOXOXOXOXOXOXOXOXOXOX",
"OXOXOXOXOXOXOXOXOXOXOXB N V ^ P.].]._./.m.{ w 4 4 4 4 9 e 7 7 i i i 7 d b h e 0 r r j f j | | j e r r 6 7 s x x k q O.C OXOXOXm M OXOXOXOXOXOXOXOXOXOX",
"OXOXOXOXOXOXOXOXOXOXOXOXm B Q ^ K.].]._.{.e.&.w 8 4 4 4 0 e 3 3 3 y d d 5 y s d h h s s e e e s s s s s d d q q O.D u B m B T M OXOXOXOXOXOXOXOXOXOXOX",
"OXOXOXOXOXOXOXOXOXOXOXOXOXm B Q ` D.}.I.].{./.&.{ w r 0 4 0 0 4 4 3 3 7 i 7 5 7 7 y y d d l l l l d 7 6 4 8 q D Z Z Z A Q B OXOXOXOXOXOXOXOXOXOXOXOXOX",
"OXOXOXOXOXOXOXOXOXOXOXOXOXOXM N W ) ] P.Y.P.].].m.%.{ { w 8 0 0 6 4 4 4 < 3 7 3 < < < 5 7 y y 7 y q q q q q k D Z A Y Q M OXOXOXOXOXOXOXOXOXOXOXOXOXOX",
"OXOXOXOXOXOXOXOXOXOXOXOXOXOXOXM m T W ^ 6.Y.K.].]./.2.&.*.&.{ w 0 9 w g t r t 0 5 4 4 4 w w { [ q q k k k A A ,.^ V m OXOXOXOXOXOXOXOXOXOXOXOXOXOXOXOX",
"OXOXOXOXOXOXOXOXOXOXOXOXOXOXOXOXOXM E B ` ^ S.D.D.].]./.(.w.w.w.*.%.{ { { %.%.%.X.{ g { X.$.v.v.:.,.L ,.,.,.^ N E OXOXOXOXOXOXOXOXOXOXOXOXOXOXOXOXOXOX",
"OXOXOXOXOXOXOXOXOXOXOXOXOXOXOXOXOXOXOXOXM W ! ] ] ^ ] }.I.[.I.[.e.e.2.&.&.*.*.*.w.w.&.2.2.(.(.(.P.x.] ^ Q T OXOXOXOXOXOXOXOXOXOXOXOXOXOXOXOXOXOXOXOXOX",
"OXOXOXOXOXOXOXOXOXOXOXOXOXOXOXOXOXOXOXOXOXOXm W ! 3.` ! ` K.K.0.K.K.K.K.(.(.(.(.x.x.x.,.,.,.] 3.` 8.' _ OXOXOXOXOXOXOXOXOXOXOXOXOXOXOXOXOXOXOXOXOXOXOX",
"OXOXOXOXOXOXOXOXOXOXOXOXOXOXOXOXOXOXOXOXOXOXOXOXE B ) ^ ! Q Q ` U.U.3.3.3.` D ` ` ` 8.D ) u C E OXOXOXOXOXOXOXOXOXOXOXOXOXOXOXOXOXOXOXOXOXOXOXOXOXOXOX",
"OXOXOXOXOXOXOXOXOXOXOXOXOXOXOXOXOXOXOXOXOXOXOXOXOXOXM m T ) W W B B T ) 8.8.T T E E E E OXOXOXOXOXOXOXOXOXOXOXOXOXOXOXOXOXOXOXOXOXOXOXOXOXOXOXOXOXOXOX",
"OXOXOXOXOXOXOXOXOXOXOXOXOXOXOXOXOXOXOXOXOXOXOXOXOXOXOXOXOXOXM T E E M M OXOXOXOXOXOXOXOXOXOXOXOXOXOXOXOXOXOXOXOXOXOXOXOXOXOXOXOXOXOXOXOXOXOXOXOXOXOXOX",
"OXOXOXOXOXOXOXOXOXOXOXOXOXOXOXOXOXOXOXOXOXOXOXOXOXOXOXOXOXOXOXOXOXOXOXOXOXOXOXOXOXOXOXOXOXOXOXOXOXOXOXOXOXOXOXOXOXOXOXOXOXOXOXOXOXOXOXOXOXOXOXOXOXOXOX",
"OXOXOXOXOXOXOXOXOXOXOXOXOXOXOXOXOXOXOXOXOXOXOXOXOXOXOXOXOXOXOXOXOXOXOXOXOXOXOXOXOXOXOXOXOXOXOXOXOXOXOXOXOXOXOXOXOXOXOXOXOXOXOXOXOXOXOXOXOXOXOXOXOXOXOX",
"OXOXOXOXOXOXOXOXOXOXOXOXOXOXOXOXOXOXOXOXOXOXOXOXOXOXOXOXOXOXOXOXOXOXOXOXOXOXOXOXOXOXOXOXOXOXOXOXOXOXOXOXOXOXOXOXOXOXOXOXOXOXOXOXOXOXOXOXOXOXOXOXOXOXOX",
"OXOXOXOXOXOXOXOXOXOXOXOXOXOXOXOXOXOXOXOXOXOXOXOXOXOXOXOXOXOXOXOXOXOXOXOXOXOXOXOXOXOXOXOXOXOXOXOXOXOXOXOXOXOXOXOXOXOXOXOXOXOXOXOXOXOXOXOXOXOXOXOXOXOXOX",
"OXOXOXOXOXOXOXOXOXOXOXOXOXOXOXOXOXOXOXOXOXOXOXOXOXOXOXOXOXOXOXOXOXOXOXOXOXOXOXOXOXOXOXOXOXOXOXOXOXOXOXOXOXOXOXOXOXOXOXOXOXOXOXOXOXOXOXOXOXOXOXOXOXOXOX",
"OXOXOXOXOXOXOXOXOXOXOXOXOXOXOXOXOXOXOXOXOXOXOXOXOXOXOXOXOXOXOXOXOXOXOXOXOXOXOXOXOXOXOXOXOXOXOXOXOXOXOXOXOXOXOXOXOXOXOXOXOXOXOXOXOXOXOXOXOXOXOXOXOXOXOX",
"OXOXOXOXOXOXOXOXOXOXOXOXOXOXOXOXOXOXOXOXOXOXOXOXOXOXOXOXOXOXOXOXOXOXOXOXOXOXOXOXOXOXOXOXOXOXOXOXOXOXOXOXOXOXOXOXOXOXOXOXOXOXOXOXOXOXOXOXOXOXOXOXOXOXOX"
};
