/* XPM */
static char *result[] = {
/* columns rows colors chars-per-pixel */
"75 75 189 2 ",
"   c #010107",
".  c #03030F",
"X  c #060715",
"o  c #0B0D1E",
"O  c #101326",
"+  c #131A30",
"@  c #18213A",
"#  c #16224C",
"$  c #172C59",
"%  c #252D43",
"&  c #2D354E",
"*  c #1E3469",
"=  c #373E64",
"-  c #344057",
";  c #3C4C63",
":  c #28437C",
">  c #3E4374",
",  c #42556D",
"<  c #494E7F",
"1  c #485D76",
"2  c #3D5C9A",
"3  c #4F4F8B",
"4  c #4D5D83",
"5  c #54578C",
"6  c #575E8B",
"7  c #595996",
"8  c #516685",
"9  c #59678A",
"0  c #5E6792",
"q  c #5A689C",
"w  c #577391",
"e  c #61679F",
"r  c #637198",
"t  c #67779D",
"y  c #5C5BA1",
"u  c #5E51BA",
"i  c #625EAF",
"p  c #605FBE",
"a  c #5671B2",
"s  c #6462A5",
"d  c #6367AD",
"f  c #6970A6",
"g  c #6A7EA1",
"h  c #6B70AE",
"j  c #7077A8",
"k  c #6263B5",
"l  c #6567B8",
"z  c #6D69BF",
"x  c #6970B8",
"c  c #7177B2",
"v  c #797FB3",
"b  c #7376BC",
"n  c #7A7FBE",
"m  c #6324EF",
"M  c #6226EF",
"N  c #652DEE",
"B  c #6330EF",
"V  c #6635EC",
"C  c #5B46C2",
"Z  c #6054C1",
"A  c #654FD0",
"S  c #6A6DC6",
"D  c #676AC8",
"F  c #6C7AC7",
"G  c #6F7CC4",
"H  c #7676C6",
"J  c #7C7FC6",
"K  c #7071CF",
"L  c #6967D1",
"P  c #6F74DA",
"I  c #7878D2",
"U  c #7B7FDE",
"Y  c #6841ED",
"T  c #6556EE",
"R  c #6C56EE",
"E  c #6040F0",
"W  c #6345F1",
"Q  c #6448F1",
"!  c #6856F0",
"~  c #6F68ED",
"^  c #6C69EE",
"/  c #7274EC",
"(  c #747AEE",
")  c #6863F0",
"_  c #6966F2",
"`  c #6C6FF1",
"'  c #6D75F1",
"]  c #717AF2",
"[  c #5B8099",
"{  c #5D8EA0",
"}  c #6E87A3",
"|  c #7480A9",
" . c #758CAA",
".. c #7B88AF",
"X. c #6794AB",
"o. c #7B95AC",
"O. c #6B87B4",
"+. c #6D80B9",
"@. c #7F86BC",
"#. c #7A9DB4",
"$. c #729EBF",
"%. c #62A0A8",
"&. c #6BAEB7",
"*. c #66BEB8",
"=. c #7284CA",
"-. c #7E85CA",
";. c #7D8DCC",
":. c #7A9CC6",
">. c #7B82D2",
",. c #7180DC",
"<. c #778CDF",
"1. c #7BA9C9",
"2. c #79BDCB",
"3. c #7487EF",
"4. c #7C84EC",
"5. c #7D96E8",
"6. c #7889F3",
"7. c #7C81FA",
"8. c #7892F2",
"9. c #7E90F3",
"0. c #7F99F0",
"q. c #7E99F5",
"w. c #6CCAC5",
"e. c #76D9D4",
"r. c #7BE6E3",
"t. c #7FE7E7",
"y. c #8290B4",
"u. c #8898B4",
"i. c #8895BE",
"p. c #849FB9",
"a. c #82A6BE",
"s. c #8DA7BF",
"d. c #93A0B6",
"f. c #A0B2BB",
"g. c #8389C4",
"h. c #878FCA",
"j. c #8E9DC6",
"k. c #838AD3",
"l. c #868CDF",
"z. c #8A93D2",
"x. c #809DD7",
"c. c #929ED2",
"v. c #82ACC8",
"b. c #92ACC6",
"n. c #89B2C8",
"m. c #89BDCD",
"M. c #95B5C8",
"N. c #9AABD2",
"B. c #95A2DE",
"V. c #9EACDE",
"C. c #97BED4",
"Z. c #A2BBCA",
"A. c #898EED",
"S. c #8B97E1",
"D. c #8095EF",
"F. c #839EEF",
"G. c #8D93FA",
"H. c #849EFA",
"J. c #949FFC",
"K. c #88ABED",
"L. c #91A0EF",
"P. c #8BB2E2",
"I. c #94BDE4",
"U. c #81A3F0",
"Y. c #89ACF0",
"T. c #88ABF9",
"R. c #9CAEF0",
"E. c #93AEFD",
"W. c #9FAEFD",
"Q. c #8FBAF5",
"!. c #9DBBFE",
"~. c #A7BBE6",
"^. c #AABCFE",
"/. c #8DC8D6",
"(. c #83C4DD",
"). c #B3C2CA",
"_. c #A5C4D5",
"`. c #AFCDDE",
"'. c #8CC6EF",
"]. c #9DC9E0",
"[. c #90C5EC",
"{. c #8CD6E7",
"}. c #94CBF0",
"|. c #BDD0EC",
" X c #A6C6FD",
".X c #B2C8FE",
"XX c #BDD9FB",
"oX c #C3CED3",
"OX c None",
/* pixels */
"OXOXOXOXOXOXOXOXOXOXOXOXOXOXOXOXOXOXOXOXOXOXOXOXOXOXOXOXOXOXOXOXOXOXOXOXOXOXOXOXOXOXOXOXOXOXOXOXOXOXOXOXOXOXOXOXOXOXOXOXOXOXOXOXOXOXOXOXOXOXOXOXOXOXOX",
"OXOXOXOXOXOXOXOXOXOXOXOXOXOXOXOXOXOXOXOXOXOXOXOXOXOXOXOXOXOXOXOXOXOXOXOXOXOXOXOXOXOXOXOXOXOXOXOXOXOXOXOXOXOXOXOXOXOXOXOXOXOXOXOXOXOXOXOXOXOXOXOXOXOXOX",
"OXOXOXOXOXOXOXOXOXOXOXOXOXOXOXOXOXOXOXOXOXOXOXOXOXOXOXOXOXOXOXOXOXOXOXOXOXOXOXOXOXOXOXOXOXOXOXOXOXOXOXOXOXOXOXOXOXOXOXOXOXOXOXOXOXOXOXOXOXOXOXOXOXOXOX",
"OXOXOXOXOXOXOXOXOXOXOXOXOXOXOXOXOXOXOXOXOXOXOXOXOXOXOXOXOXOXOXOXOXOXOXOXOXOXOXOXOXOXOXOXOXOXOXOXOXOXOXOXOXOXOXOXOXOXOXOXOXOXOXOXOXOXOXOXOXOXOXOXOXOXOX",
"OXOXOXOXOXOXOXOXOXOXOXOXOXOXOXOXOXOXOXOXOXOXOXOXOXOXOXOXOXOXOXOXM T W T ) ) ' q.' OXOXOXOXOXOXOXOXOXOXOXOXOXOXOXOXOXOXOXOXOXOXOXOXOXOXOXOXOXOXOXOXOXOX",
"OXOXOXOXOXOXOXOXOXOXOXOXOXOXOXOXOXOXOXOXOXOXOXOXOXOXOXOXOXOXOXOXB N V ! ! ` ^ ] 3.U.'.' E 8.' OXOXOXOXOXOXOXOXOXOXOXOXOXOXOXOXOXOXOXOXOXOXOXOXOXOXOXOX",
"OXOXOXOXOXOXOXOXOXOXOXOXOXOXOXOXOXOXOXOXOXOXOXOXOXOX' '.'.t.t.t.e.e.e.(.P.( R R x.K.0.K.[.] ^ 8.OXOXOXOXOXOXOXOXOXOXOXOXOXOXOXOXOXOXOXOXOXOXOXOXOXOXOX",
"OXOXOXOXOXOXOXOXOXOXOXOXOXOXOXOXOXOXOXOXOXOXOX'.t.t.[.K.K.P.[.{.C.n.n.n.n.m.2.2.v.x.x.P.I.{.I.( U.OXOXOXOXOXOXOXOXOXOXOXOXOXOXOXOXOXOXOXOXOXOXOXOXOXOX",
"OXOXOXOXOXOXOXOXOXOXOXOXOXOXOXOXOXOXOXOX_ '.'.3.] D.{.r.r.e.e./.n.a.a.a.a.a.p.#.#.a.v.a.v.m.C./.K.'.OXOXOXOXOXOXOXOXOXOXOXOXOXOXOXOXOXOXOXOXOXOXOXOXOX",
"OXOXOXOXOXOXOXOXOXOXOXOXOXOXOXOXOXOXOX'.8.) ] }.r.r.r.e.m.m.n.n.n.a.p... .| | |  .o.#.&.#.a.v.m.m.n.'.OXOXOXOXOXOXOXOXOXOXOXOXOXOXOXOXOXOXOXOXOXOXOXOX",
"OXOXOXOXOXOXOXOXOXOXOXOXOXOXOXOXOXq._ W 3.{.r.{.r.e./.n.a.p.#.o. .} g g t r 0 s z k.r  .o.o.#.a.n.m.:.'.OXOXOXOXOXM OXOXOXOXOXOXOXOXOXOXOXOXOXOXOXOXOX",
"OXOXOXOXOXOXOXOXOXOXOXOXOXOXOXOXOXE ) [.{.r.{.C.M.M.s.p.#. .} g t t r r r 0 0 0 s z l.h r } }  .p.n.v.a.O.OXOXOXOXm M OXOXOXOXOXOXOXOXOXOXOXOXOXOXOXOX",
"OXOXOXOXOXOXOXOXOXOXOXOXOXOXOXOXE 3.{.}.].].C.M.n.a.#.#.o. .} g t t h r 0 0 0 6 6 7 I U H 0 r t } p.a.a.:.1.OXOXOXOXT OXOXOXOXOXOXOXOXOXOXOXOXOXOXOXOX",
"OXOXOXOXOXOXOXOXOXOXOXOXOXOXOXE 0.Q.}.Y.{./.M.s.p.o.} j f e 7 7 7 7 7 y y 5 7 7 7 7 5 >.H >.e 0 r } #.#.#.%.1.OXOXOXB B OXOXOXOXOXOXOXOXOXOXOXOXOXOXOX",
"OXOXOXOXOXOXOXOXOXOXOXOXOXOXT K.9.F.{.I./.f.s.p.o.c d e e y y d l F P <.4.4.L l S z i y b H >.s f 0 g #.o.%.O.1.OXOXm Q M OXOXOXOXOXOXOXOXOXOXOXOXOXOX",
"OXOXOXOXOXOXOXOXOXOXOXOXOXE K.4./ {.P.m.Z.s.p.| f e e y l F P <.5.5.F.<.P 5.Q.9.G.4.A.P s x I l.x s 0 }  .} } O.O.C B A Q OXOXOXOXOXOXOXOXOXOXOXOXOXOX",
"OXOXOXOXOXOXOXOXOXOXOXOXOX0.( ( 5.P.m.M.s.o.g e 7 7 d l S K S K K P F.F.5.<.5.T.Q.T.A.L.U d b U U K 7 9 g } r q D O.u Z Y m OXOXOXOXOXOXOXOXOXOXOXOXOX",
"OXOXOXOXOXOXOXOXOXOXOXOX3.( / P v.n.M.s. .h h e 7 7 p l d d d l S S K U U 9.H.H.T.Q.!.4.R.L.s H A.I z 6 r t t 6 q q D Z A V OXOXOXOXOXOXOXOXOXOXOXOXOX",
"OXOXOXOXOXOXOXOXOXOXOX) ~ ~ U $.a.s.u.| b e 7 7 y h F S x c g.N.N.N.c.g.>.P 4.T.H.T.T.T.F.R.L.f >.G.U s 5 0 0 4 q k O.Z Z ^ E OXOXOXOXOXOXOXOXOXOXOXOX",
"OXOXOXOXOXOXOXOXOXOX) ^ R ~ x.#.p.o.j c 0 3 l x b n @.b I H U A.U H J g.v @.v K E.T.T.Q.T.F.R.S.d l.U x 7 0 0 4 7 x q D D ,.N OXOXOXOXOXOXOXOXOXOXOXOX",
"OXOXOXOXOXOXOXOXOXOXV Y ~ <.&.o. .| j t d x +.n n P H.G.J.E.E.R.R.A.U H S b J n z 7.T.T.Q.F.L.^.l.H J.I s s e 4 < x q q k A ^ OXOXOXOXOXOXOXOXOXOXOXOX",
"OXOXOXOXOXOXOXOXOXN Y ( <.*.%. .| | t x x -.g.K T.H.E. X|.XX|.|.`.`.`.~.B.S b b k.b / T.T.Q.F.~.|.b l.U d x s 7 5 s d 8 q A ,.T OXOXOXOXOXOXOXOXOXOXOX",
"OXOXOXOXOXOXOXOXE Y R R e.&.} t g j F +.g.-.9.!. X.X|.|.|.~.~.~.V.N.N.N.V.S.k.I l.-.H / T.Q.F.5.~.V.H A.z x s e 6 7 d 4 q k ,.Q OXOXOXOXOXOXOXOXOXOXOX",
"OXOXOXOXOXOXOXOXN Y Y <.*.} r g c +.;.@.J 9.E.!.XXXX|.R.U S.B.k.>.-.J h.h.c.z.z.l.k.k.I !.T.T.F.L.XXH A.I z s h 9 6 s 6 q k ,.^ _ OXOXOXOXOXOXOXOXOXOX",
"OXOXOXOXOXOXOXM V R ( w.X.g t c F ;.g.b 4.E..XXXXXL.P U L p p i y y y y d n -.j.z.B.J c./ Q.H.F.5.|.B.I U H i c 0 r s 7 q k L ] ' OXOXOXOXOXOXOXOXOXOX",
"OXOXOXOXOXOXOXB V Y Y.*.X...| +.k.g.b <.E..XXXW.9.P P L p 2 3 > > = = > > y h +.j.c.-.h.l.9.H.T.L.~.~.b U S l c r r s d q q ,.x.8.OXOXOXOXOXOXOXOXOXOX",
"OXOXOXOXOXOXOXN ! ~ w.*.f.| +.k.J n <.E..XXXJ.U 4.P L y 5 = % + O O + @ % = 5 3 h i.h.J J A.H.T.5.P.~.J J.H S h j e s l y q :.P.` OXOXOXOXOXOXOXOXOXOX",
"OXOXOXOXOXOXm V V Y.w.&.| x >.;.@.P E.^..XJ./ / P p h 9 & + o X X X X X o @ = < 3 e @.b b V.F.H.5.I.S.h.L.S I d v j s l 7 [ v.(.3.E OXOXOXOXOXOXOXOXOX",
"OXOXOXOXOXOXB Q R e.w.&.c k.;.@.H T. X^.W./ / P p @.< & O X X X X X X . . X @ = > > 7 e +.z.9.H.5.~.S.g.L.K U d v | e l y { v.(.] C OXOXOXOXOXOXOXOXOX",
"OXOXOXOXOXOXB N ~ e.*.u.F <.J n F.J.^.^.4./ P L c.7 $ + X X O o o X . . . . o @ = > * < y x 5.5.F.I.k.n L.S U i v | e l y w $.(.,.u OXOXOXOXOXOXOXOXOX",
"OXOXOXOXOXM B Y {.e.&.n H ;.@.P T..X^.G./ / L I h > % O O @ O X             X O % = * : : 2 <.9.Y.~.>.x ~.S U z n j e d 7 w X.2.,.) OXOXOXOXOXOXOXOXOX",
"OXOXOXOXOXm N Y e.w.X.x P k.b 5.^. X^.7./ L p J e = @ @ & @ X .             . o @ % $ * : : =.5.S.P.=.d L.K U S g.f s d 5 4 { 2.,.D E OXOXOXOXOXOXOXOX",
"OXOXOXOXOXM B ^ e.&.v x g.-.>.T..X^.J.7.P L i @.< & % & % o . . . .           o O @ # # * 2 x <.<.B.>.b l.K / U @.j s y < 4 g &.x.8.E OXOXOXOXOXOXOXOX",
"OXOXOXOXOXM N [.(.X.@.;.=.J <.!.^.W.4.7.P i z.| = % & & O X . . .   . .       o O + # # $ : a F x.S.>.H U K H.U y.r h y < 4 { w.x.` E OXOXOXOXOXOXOXOX",
"OXOXOXOXOXOXN e.2.X.h >.h.H F..X^.L.J.7.L i V.r - % = % O X . . . . .         o O O # # * : 2 a x.<.c.b >.P 9.>.d.r h 7 < 5 X.w.x.` E OXOXOXOXOXOXOXOX",
"OXOXOXOXOXOXQ e.&.r ;.=.>.k.E..XW.V.7.7.P z N.< & & , % o X . . . . . . . . . o O o # # $ : 2 2 ;.P c.h.>.K 7.-.u.0 d 7 3 0 %.*.(.` T OXOXOXOXOXOXOXOX",
"OXOXOXOXOXM ! (.&.+.F I J >.!..Xl.S.G.7.7.H f.> & ; , @ o X . . . . . . . . . o O O @ # * : : a F ;.J c.H P 4.-.v e s 5 7 t %.*.(.D T OXOXOXOXOXOXOXOX",
"OXOXOXOXOXM ` P.$.x S k.H <..X.Xn z.G.G.7.U @.> % ; = + X X . . . . . . . . . X O o @ $ * : : a a =.F N.H 9.<.g.j h y 7 3 r %.*.(.` 8.OXOXOXOXOXOXOXOX",
"OXOXOXOXOXM 3.x.$.F K c.v L..X.X-.V.J.J.G.L.c > & 8 - + X X . .       . . . . X O o @ $ * * 2 2 a +.g.j.>.F.<.@.f b 5 i < t { &.(.3.8.OXOXOXOXOXOXOXOX",
"OXOXOXOXOXM ,.:.=.>.S.>.c !.^.^.b R.E.E.T.A.j > & 8 - @ o X . .             . . o O @ $ * * 2 a a d Z.h.U F.k.y.b d d 7 4 g { &.K.3.) M OXOXOXOXOXOXOX",
"OXOXOXOXOXOX3.:.=.l.S.J H !. XW.c W. X X!.U r 8 & 8 = @ o X . .             . . o @ # # * : 2 2 h +.M.h.5.F.g.n b 7 d 3 4 w { 2.K.3.T M OXOXOXOXOXOXOX",
"OXOXOXOXOXOX3.:.=.>.V.b l.W.W.W.n R.XXXXE.I r < % 1 , % O X . . .           . X o + # $ * : 2 2 a ).j.z.P.k.z.b d i y 3 4 9 %.e.K.U.B E OXOXOXOXOXOXOX",
"OXOXOXOXOXOX3.:.=.P S.J L.E..XG.g.c..X XG.I j < % , 1 - + O X . . .     . . X X O @ $ $ : : 4 a ).N.b.v.<.c.g.b y i 3 4 6 0 *.e.K.U.B E OXOXOXOXOXOXOX",
"OXOXOXOXOXOX` G J S l.g.l.F. XJ.n g. X!.A.4.j 3 & ; 4 ; % + O o X . . . . . X O @ # $ * : : w b.).n.n.P.S.c.n s i i 3 4 0 w w.[.0.` W T OXOXOXOXOXOXOX",
"OXOXOXOXOXOX) G >.K J @.k.A. XW.J b !.!.L.9.x 7 = ; 3 1 - @ + O o X X X o o O @ # $ $ - : 2 p.).M.Z.M.S.V.J h i p 7 3 0 0 { w.I.K.Q W M OXOXOXOXOXOXOX",
"OXOXOXOXOXOX) D ,.H I @.+.A. X^.n -.J.E.F.E.z e ; - < 8 , & @ @ + O O O O + @ @ % $ * : 8 d.).).Z.m.v.V.h.x s i i 7 e 0 8 &.w.[.K.Q ) OXOXOXOXOXOXOXOX",
"OXOXOXOXOXOXE D ,.K I j n S. X XJ h.A.G.L.E.U s 5 & 8 7 4 ; % @ @ + + @ @ # @ # $ * , r d.)._.).M.n.c.i.b s l S d e 0 4 w *.(.I.` ! T OXOXOXOXOXOXOXOX",
"OXOXOXOXOXOXOX) ,.I z j g.>.^.!.A.h.k.A.L.E.A.x e > & 0 7 4 = & & & % # % % & & = 1 w  .M._.`.Z.s.h.@.v s i S d 0 9 4 0 { &./.}.! ^ m OXOXOXOXOXOXOXOX",
"OXOXOXOXOXOXOXC L I z e y.-.H.W.W.-.z.k.L.R. XH s 4 & < e r 8 , - - ; - - - ; , 8 g a.C.`.).Z.s.i.@.n e d S d 9 9 4 4 r { 2.].] ` ) M OXOXOXOXOXOXOXOX",
"OXOXOXOXOXOXOXOXG L i r s.h.H.J.W.J z.-.S.R. XS.z r > = < s g [ 8 1 1 1 8 8 [ { a.M._.oXoX).s...@.c s d S l e 8 4 4 4 w %./.].^ 3.B OXOXOXOXOXOXOXOXOX",
"OXOXOXOXOXOXOXOXD L d t b.h.9.J.^.A.k.>.J !.XXR.U c 0 > > 0 j u.d.o.o.o.o.d.f.).oXoXoXoXZ.u.| | h d l S S e 9 4 4 4 8 { m.].D.] ! E OXOXOXOXOXOXOXOXOX",
"OXOXOXOXOXOXOXOXZ x k c s.i.A.J..XG.n l.b L.L.R.R.k.c 0 , , 0 f @.f.f.f.).).oXoXoXoXZ.d...j j s d S F F d 0 6 4 4 4 w &.].].D.] W OXOXOXOXOXOXOXOXOXOX",
"OXOXOXOXOXOXOXOXu k Z l a.b.k.J.E.J.k.S.H z.k.S. X~.>.j 6 , 1 4 f c y.f.Z.Z.).Z.Z.f.u.| f e s d S =.F d 0 6 < 4 4 w &./.].K.S.! m OXOXOXOXOXOXOXOXOXOX",
"OXOXOXOXOXOXOXOXOXZ u A &.s.@.F.H..XG.-.>.b k.h.S.|.R.z.c r 4 4 4 8 0 e h h ....| f e e s x F F =.x h t 0 4 4 4 9 { e.{.P.Y.^ W OXOXOXOXOXOXOXOXOXOXOX",
"OXOXOXOXOXOXOXOXOXu u D m.v.s.B.J.G.G.J =.b H -.g.S.L.~.z.J f 0 9 8 4 4 4 9 4 9 9 0 r f +.=.=.+.x c j e 4 4 1 w } m.{.].Y.6.` M OXOXOXOXOXOXOXOXOXOXOX",
"OXOXOXOXOXOXOXOXOXOXC B L m.M.b.l.A.J.A.n J J J n ;.~.B.V.B.-.c j g r 9 9 9 8 0 r t +.+.=.=.-.h.@.f 0 4 4 4 r o.n./._.I.P.^ B OXOXOXOXOXOXOXOXOXOXOXOX",
"OXOXOXOXOXOXOXOXOXOXOXM D /._._.s.G.A.G.k.-.>.b c n ;.B.c.B.N.c.g.s.v c c c c c c n -.k.z.h.@.f e 0 8 4 4  .a.b.C._.].}.] W E OXOXOXOXOXOXOXOXOXOXOXOX",
"OXOXOXOXOXOXOXOXOXOXOXOXT L _._._.i.A.J.U @.h.c h h n ;.z.c.B.B.V._.N.h.g.g.-.g.z.z.l.k.J b h d 0 8 8  .d.s.b.C.].].].D.) T M OXOXOXOXOXOXOXOXOXOXOXOX",
"OXOXOXOXOXOXOXOXOXOXOXOXOXN ].`.`.Z.l.A.A.@.g.v h e f ..z.z.c.c.c.V.V.c.z.h.h.-.-.J -.-.-.+...t g o.u.s.s.s.C._.].].K.` W m OXOXOXOXOXOXOXOXOXOXOXOXOX",
"OXOXOXOXOXOXOXOXOXOXOXOXOXM ,.`.`.`.b.A.U v g.@.j f f c y.g.c.z.c.c.c.V.N.c.j.j.i.i...| | t g y.u.u.p.s.s.s.C.].].P.^ Q N M OXOXOXOXOXOXOXOXOXOXOXOXOX",
"OXOXOXOXOXOXOXOXOXOXOXOXOXOXB K.].].`.u.A.n ..i.i.j j | v ....i.i.j.j.j.j.d.d.d.d.u.o.o.y.y.u.s.b.b.b.#.X.a.C.}.}.^ Q B M OXOXOXOXOXOXOXOXOXOXOXOXOXOX",
"OXOXOXOXOXOXOXOXOXOXOXOXOXOXOXN e.I.`._.i.z.y.u.d.u.j | j v j ..@.y.u.i.i.j.u.u.u.u.u.u.s.b.M.b.b.p.g [ X.2.I.}.] V B m OXOXOXOXOXOXOXOXOXOXOXOXOXOXOX",
"OXOXOXOXOXOXOXOXOXOXOXOXOXOXOXOXY {.].`.C.i.@.d.d.d.d...j j f f ........y.y. .| g u.s.s.p.p.p.p.g 8 [ %.2.{.K.^ V N m OXOXOXOXOXOXOXOXOXOXOXOXOXOXOXOX",
"OXOXOXOXOXOXOXOXOXOXOXOXOXOXOXOXOX~ I.`.~.~.s.j.s.d.d.d.....v j j | t r | | | g r 0 w w w g  .r [ %.2.r.}.D.Y V N B OXOXOXOXOXOXOXOXOXOXOXOXOXOXOXOXOX",
"OXOXOXOXOXOXOXOXOXOXOXOXOXOXOXOXOXm D.V.].C.N.b.i.b.f.f.d.u.i.y.v v j t j g t r 0 w w w 2 [ { *.r.r.{.Y.R Y V Q B OXOXOXOXOXOXOXOXOXOXOXOXOXOXOXOXOXOX",
"OXOXOXOXOXOXOXOXOXOXOXOXOXOXOXOXOXOXB D.x.x.$.N.b.b.M.M.b.b.d.d.j.i.j.i.i.#.#. .g g g +.&.*.w.w.{.Y.R Y Y ! W T OXOXOXOXOXOXOXOXOXOXOXOXOXOXOXOXOXOXOX",
"OXOXOXOXOXOXOXOXOXOXOXOXOXOXOXOXOXOXOXB D.,.K.x.P.b.N.C._.Z.M.N.b.b.b.b.s.a.j.y.+.&.*.e.r.{.I./ R R R ` ! ) OXOXOXOXOXOXOXOXOXOXOXOXOXOXOXOXOXOXOXOXOX",
"OXOXOXOXOXOXOXOXOXOXOXOXOXOXOXOXOXOXOXOXm 3.` 6.D.K.S.C._._.~._._.M.M.M.M.M.M.b.n.Q.F.4./ ( ( 6.6.^ ` W OXOXOXOXOXOXOXOXOXOXOXOXOXOXOXOXOXOXOXOXOXOXOX",
"OXOXOXOXOXOXOXOXOXOXOXOXOXOXOXOXOXOXOXOXOXOX) ` ` 0.( D.S.].].].].].].C.C.M.C.m.{.{.}.}.Y.D.6.] ) B OXOXOXOXOXOXOXOXOXOXOXOXOXOXOXOXOXOXOXOXOXOXOXOXOX",
"OXOXOXOXOXOXOXOXOXOXOXOXOXOXOXOXOXOXOXOXOXOXOXE ) W ` ^ ] ( 6.K.I.}.}.].I.P.K.D.6.] ^ ^ ! ) ) ' _ OXOXOXOXOXOXOXOXOXOXOXOXOXOXOXOXOXOXOXOXOXOXOXOXOXOX",
"OXOXOXOXOXOXOXOXOXOXOXOXOXOXOXOXOXOXOXOXOXOXOXOXOXOXOXE ) ) ! ^ Y Y ^ 6.K.0.0.U.U.8.8.) ' _ OXOXOXOXOXOXOXOXOXOXOXOXOXOXOXOXOXOXOXOXOXOXOXOXOXOXOXOXOX",
"OXOXOXOXOXOXOXOXOXOXOXOXOXOXOXOXOXOXOXOXOXOXOXOXOXOXOXOXOXOXOXB W Q Q N N N W W W B E E OXOXOXOXOXOXOXOXOXOXOXOXOXOXOXOXOXOXOXOXOXOXOXOXOXOXOXOXOXOXOX",
"OXOXOXOXOXOXOXOXOXOXOXOXOXOXOXOXOXOXOXOXOXOXOXOXOXOXOXOXOXOXOXOXOXOXOXOXOXOXOXOXOXOXOXOXOXOXOXOXOXOXOXOXOXOXOXOXOXOXOXOXOXOXOXOXOXOXOXOXOXOXOXOXOXOXOX",
"OXOXOXOXOXOXOXOXOXOXOXOXOXOXOXOXOXOXOXOXOXOXOXOXOXOXOXOXOXOXOXOXOXOXOXOXOXOXOXOXOXOXOXOXOXOXOXOXOXOXOXOXOXOXOXOXOXOXOXOXOXOXOXOXOXOXOXOXOXOXOXOXOXOXOX",
"OXOXOXOXOXOXOXOXOXOXOXOXOXOXOXOXOXOXOXOXOXOXOXOXOXOXOXOXOXOXOXOXOXOXOXOXOXOXOXOXOXOXOXOXOXOXOXOXOXOXOXOXOXOXOXOXOXOXOXOXOXOXOXOXOXOXOXOXOXOXOXOXOXOXOX"
};
