/* XPM */
static char *result[] = {
/* columns rows colors chars-per-pixel */
"75 75 17 1 ",
"  c black",
". c #1F1311",
"X c #3E2723",
"o c #263238",
"O c #4E342E",
"+ c #5D4037",
"@ c #37474F",
"# c #6D4C41",
"$ c #795548",
"% c #455A64",
"& c #546E7A",
"* c #8D6E63",
"= c #607D8B",
"- c #78909C",
"; c #FFCC80",
": c #B0BEC5",
"> c None",
/* pixels */
">>>>>>>>>>>>>>>>>>>>>>>>>>>>>>>>>>>>>>>>>>>>>>>>>>>>>>>>>>>>>>>>>>>>>>>>>>>",
">>>>>>>>>>>>>>>>>>>>>>>>>>>>>>>>>>>>>>>>>>>>>>>>>>>>>>>>>>>>>>>>>>>>>>>>>>>",
">>>>>>>>>>>>>>>>>>>>>>>>>>>>>>>>>>>>>>>>>>>>>>>>>>>>>>>>>>>>>>>>>>>>>>>>>>>",
">>>>>>>>>>>>>>>>>>>>>>>>>>>>>>>>>>>>>>>>>>>>>>>>>>>>>>>>>>>>>>>>>>>>>>>>>>>",
">>>>>>>>>>>>>>>>>>>>>>>>>>>>>>>>>>>>>>>>>>>>>>>>>>>>>>>>>>>>>>>>>>>>>>>>>>>",
">>>>>>>>>>>>>>>>>>>>>>>>>>>>>>;;;;;;;;>>;;;;;;;;>>>>>>>>>>>>>>>>>>>>>>>>>>>",
">>>>>>>>>>>>>>>>>>>>>>>>>>>>>>;;;;;;;;>>;;;;;;;;>>>>>>>>>>>>>>>>>>>>>>>>>>>",
">>>>>>>>>>>>>>>>>>>>>>>>;;;;;;..OOOO..;;OOOOOO..;;;;>>>>>>>>>>>>>>>>>>>>>>>",
">>>>>>>>>>>>>>>>>>>>>>>>;;;;;;..OOOO..;;OOOOOO..;;;;>>>>>>>>>>>>>>>>>>>>>>>",
">>>>>>>>>>>>>>>>>>>>>>;;++XXXX..++OO##..$$$$++....$$;;>>>>>>>>>>>>>>>>>>>>>",
">>>>>>>>>>>>>>>>>>>>;;####$$$$......XX....++XX..++++$$;;>>>>>>>>>>>>>>>>>>>",
">>>>>>>>>>>>>>>>>>>>;;####$$$$......XX....++XX..++++$$;;>>>>>>>>>>>>>>>>>>>",
">>>>>>>>>>>>>>>>>>>;##$$$$....XXXX++OO++$$OOOO..XX++....;>>>>>>>>>>>>>>>>>>",
">>>>>>>>>>>>>>>>>>>;##$$$$....XXXX++OO++$$OOOO..XX++....;>>>>>>>>>>>>>>>>>>",
">>>>>>>>>>>>>>>>>>>;++$$....XXXXXX**OO****OO****$$....$$;>>>>>>>>>>>>>>>>>>",
">>>>>>>>>>>>>>>>>>>;++$$....XXXXXX**OO****OO****$$....$$;>>>>>>>>>>>>>>>>>>",
">>>>>>>>>>>>>>>>>;;#......XXXXOO****OO****++****$$XX$$$$X;;>>>>>>>>>>>>>>>>",
">>>>>>>>>>>>>>>>>;;#......XXXXOO****OO****++****$$XX$$$$X;;>>>>>>>>>>>>>>>>",
">>>>>>>>>>>>>>>>>;;.$$$$..XX++OO****OO****++****OO....$$O;;>>>>>>>>>>>>>>>>",
">>>>>>>>>>>>>>>>>;;.$$$$..XX++OO****OO****++****OO....$$O;;>>>>>>>>>>>>>>>>",
">>>>>>>>>>>>>>>>>;;$OO$$XXXX##OO****OO****++****XX$$$$..X;;>>>>>>>>>>>>>>>>",
">>>>>>>>>>>>>>>>>;;$OO$$XXXX##OO****OO****++****XX$$$$..X;;>>>>>>>>>>>>>>>>",
">>>>>>>>>>>>>>>>>;;+++OO....XXXX++..XX**OO$$....$$$$XX..X;;>>>>>>>>>>>>>>>>",
">>>>>>>>>>>>>>>>>;;+++OO....XXXX++..XX**OO$$....$$$$XX..X;;>>>>>>>>>>>>>>>>",
">>>>>>>>>>>>>>>>>;;+$$++..**$$$$++....XX$$$$XX..XXXXXX..X;;>>>>>>>>>>>>>>>>",
">>>>>>>>>>>>>>>>>;;+$$++..**$$$$++....XX$$$$XX..XXXXXX..X;;>>>>>>>>>>>>>>>>",
">>>>>>>>>>>>>>>>>;;+**$$..******$$$$..XX####XX....OOXX..X  ;;>>>>>>>>>>>>>>",
">>>>>>>>>>>>>>>>>;;+**$$..******$$$$..XX####XX....OOXX..X  ;;>>>>>>>>>>>>>>",
">>>>>>>>>>>>>>>>>;;+****..********$$..XX##XXXXOO..OOXX..   ;;>>>>>>>>>>>>>>",
">>>>>>>>>>>>>>>>>;;+****..********$$..XX##XXXXOO..OOXX..   ;;>>>>>>>>>>>>>>",
">>>>>>>>>>>>>>>;;   ++**..******$$$$..XX##XXXXXX..OOXX     ;;>>>>>>>>>>>>>>",
">>>>>>>>>>>>>>>;;   ++**..******$$$$..XX##XXXXXX..OOXX     ;;>>>>>>>>>>>>>>",
">>>>>>>>>>>>>>>;;   @@%%&&****$$$$$$..XXXXXXXXOO..@@oooo ++;;>>>>>>>>>>>>>>",
">>>>>>>>>>>>>>>;;   @@%%&&****$$$$$$..XXXXXXXXOO..@@oooo ++;;>>>>>>>>>>>>>>",
">>>>>>>>>>>>>>>;;++ oo--::&&&&%%oo        oo@@@@@@@@ooooX++;;>>>>>>>>>>>>>>",
">>>>>>>>>>>>>>>;;++ oo--::&&&&%%oo        oo@@@@@@@@ooooX++;;>>>>>>>>>>>>>>",
">>>>>>>>>>>>>>>;;**#++%%--&&%%oo          @@@@oooo  XX..X++;;>>>>>>>>>>>>>>",
">>>>>>>>>>>>>>>;;**#++%%--&&%%oo          @@@@oooo  XX..X++;;>>>>>>>>>>>>>>",
">>>>>>>>>>>>>>>;;##***....&&@@            oooo    ##XX..X++;;>>>>>>>>>>>>>>",
">>>>>>>>>>>>>>>;;##***....&&@@            oooo    ##XX..X++;;>>>>>>>>>>>>>>",
">>>>>>>>>>>>>>>;;##$**..**$$$$++$$..XX$$XXXXXXXX..##XX...++;;>>>>>>>>>>>>>>",
">>>>>>>>>>>>>>>;;##$**..**$$$$++$$..XX$$XXXXXXXX..##XX...++;;>>>>>>>>>>>>>>",
">>>>>>>>>>>>>>>;;##$**..**##$$++$$..XX$$XXXXXXXX..##XXXX.++;;>>>>>>>>>>>>>>",
">>>>>>>>>>>>>>>;;##$**..**##$$++$$..XX$$XXXXXXXX..##XXXX.++;;>>>>>>>>>>>>>>",
">>>>>>>>>>>>>>>;;###$$..****$$$$++..XX$$XXXXXX....XXXX...++;;>>>>>>>>>>>>>>",
">>>>>>>>>>>>>>>;;###$$..****$$$$++..XX$$XXXXXX....XXXX...++;;>>>>>>>>>>>>>>",
">>>>>>>>>>>>>>>;;##$**..OO**$$$$++..$$$$XXXXXX..OOXXXX..X  ;;>>>>>>>>>>>>>>",
">>>>>>>>>>>>>>>;;$$*XX..++++++$$++..$$$$XXXXXX..OOXXXXooo  ;;>>>>>>>>>>>>>>",
">>>>>>>>>>>>>>>;;$$*XX..++++++$$++..$$$$XXXXXX..OOXXXXooo  ;;>>>>>>>>>>>>>>",
">>>>>>>>>>>>>>>;;  o....XX++$$$$++..OO$$XXXXXX..OOOO@@@@o  ;;>>>>>>>>>>>>>>",
">>>>>>>>>>>>>>>;;  o....XX++$$$$++..OO$$XXXXXX..OOOO@@@@o  ;;>>>>>>>>>>>>>>",
">>>>>>>>>>>>>>>;;  oooooXX++$$++++..OO$$XXXXXX..  oo--@@ XX;;>>>>>>>>>>>>>>",
">>>>>>>>>>>>>>>;;  oooooXX++$$++++..OO$$XXXXXX..  oo--@@ XX;;>>>>>>>>>>>>>>",
">>>>>>>>>>>>>>>>>;;ooo@@oo++++++++..OO++XXXX    @@----ooO;;>>>>>>>>>>>>>>>>",
">>>>>>>>>>>>>>>>>;;ooo@@oo++++++++..OO++XXXX    @@----ooO;;>>>>>>>>>>>>>>>>",
">>>>>>>>>>>>>>>>>;; %%==--@@@@@@oooo        oooo@@@@ooXX;>>>>>>>>>>>>>>>>>>",
">>>>>>>>>>>>>>>>>;; %%==--@@@@@@oooo        oooo@@@@ooXX;>>>>>>>>>>>>>>>>>>",
">>>>>>>>>>>>>>>>>>>;++%%====@@@@oo        oooooo@@ooXXXX;>>>>>>>>>>>>>>>>>>",
">>>>>>>>>>>>>>>>>>>;++%%====@@@@oo        oooooo@@ooXXXX;>>>>>>>>>>>>>>>>>>",
">>>>>>>>>>>>>>>>>>>;++..oo%%              oooo..XXXXXXXX;>>>>>>>>>>>>>>>>>>",
">>>>>>>>>>>>>>>>>>>;++..oo%%              oooo..XXXXXXXX;>>>>>>>>>>>>>>>>>>",
">>>>>>>>>>>>>>>>>>>;XX....XX++++++..XX++++XXXX..XXOOXX;;>>>>>>>>>>>>>>>>>>>",
">>>>>>>>>>>>>>>>>>>;XX....XX++++++..XX++++XXXX..XXOOXX;;>>>>>>>>>>>>>>>>>>>",
">>>>>>>>>>>>>>>>>>>>;;XX..XXXXXX++....++XXXXXX..XXXX;;>>>>>>>>>>>>>>>>>>>>>",
">>>>>>>>>>>>>>>>>>>>;;XX..XXXXXX++....++XXXXXX..XXXX;;>>>>>>>>>>>>>>>>>>>>>",
">>>>>>>>>>>>>>>>>>>>>>;;;;;;;;XXXXXX..XXOOOOXX;;;;;;>>>>>>>>>>>>>>>>>>>>>>>",
">>>>>>>>>>>>>>>>>>>>>>;;;;;;;;XXXXXX..XXOOOOXX;;;;;;>>>>>>>>>>>>>>>>>>>>>>>",
">>>>>>>>>>>>>>>>>>>>>>>>>>>>>>;;;;;;;;;;;;;;;;>>>>>>>>>>>>>>>>>>>>>>>>>>>>>",
">>>>>>>>>>>>>>>>>>>>>>>>>>>>>>;;;;;;;;;;;;;;;;>>>>>>>>>>>>>>>>>>>>>>>>>>>>>",
">>>>>>>>>>>>>>>>>>>>>>>>>>>>>>>>>>>>>>>>>>>>>>>>>>>>>>>>>>>>>>>>>>>>>>>>>>>",
">>>>>>>>>>>>>>>>>>>>>>>>>>>>>>>>>>>>>>>>>>>>>>>>>>>>>>>>>>>>>>>>>>>>>>>>>>>",
">>>>>>>>>>>>>>>>>>>>>>>>>>>>>>>>>>>>>>>>>>>>>>>>>>>>>>>>>>>>>>>>>>>>>>>>>>>",
">>>>>>>>>>>>>>>>>>>>>>>>>>>>>>>>>>>>>>>>>>>>>>>>>>>>>>>>>>>>>>>>>>>>>>>>>>>",
">>>>>>>>>>>>>>>>>>>>>>>>>>>>>>>>>>>>>>>>>>>>>>>>>>>>>>>>>>>>>>>>>>>>>>>>>>>",
">>>>>>>>>>>>>>>>>>>>>>>>>>>>>>>>>>>>>>>>>>>>>>>>>>>>>>>>>>>>>>>>>>>>>>>>>>>"
};
