/* XPM */
static char *abb398ca1e8c4556cd3ffcb76395b31d22PJA9dVI8tcwlY1[] = {
/* columns rows colors chars-per-pixel */
"75 75 149 2 ",
"   c None",
".  c #010101",
"X  c #0A0502",
"o  c #0D0804",
"O  c #140D02",
"+  c #180E01",
"@  c #1D1301",
"#  c #210F02",
"$  c #231501",
"%  c #2D1501",
"&  c #221801",
"*  c #2C1A03",
"=  c #2F1E0C",
"-  c #301601",
";  c #321902",
":  c #301C15",
">  c #3F2206",
",  c #32220B",
"<  c #392419",
"1  c #3E3F3E",
"2  c #422407",
"3  c #552A01",
"4  c #592B01",
"5  c #5C3002",
"6  c #4B2E1F",
"7  c #573615",
"8  c #5D3817",
"9  c #5E351C",
"0  c #593D1E",
"q  c #672E15",
"w  c #692F15",
"e  c #673015",
"r  c #693016",
"t  c #60341F",
"y  c #6F3118",
"u  c #713219",
"i  c #4A3723",
"p  c #4B3824",
"a  c #5E3622",
"s  c #623825",
"d  c #564936",
"f  c #584936",
"g  c #564939",
"h  c #584B39",
"j  c #714627",
"k  c #724628",
"l  c #764531",
"z  c #784633",
"x  c #7A4B35",
"c  c #7C4E38",
"v  c gray25",
"b  c #726151",
"n  c #766558",
"m  c #606160",
"M  c #676768",
"N  c #6F6D6B",
"B  c #6B6C6D",
"V  c #6F6F70",
"C  c #706F70",
"Z  c #6F7171",
"A  c #804F39",
"S  c #804E39",
"D  c #82503A",
"F  c #83503A",
"G  c #83513A",
"H  c #85553D",
"J  c #86543D",
"K  c #86553D",
"L  c #87573C",
"P  c #87573D",
"I  c #86553E",
"U  c #85563E",
"Y  c #85563F",
"T  c #86563E",
"R  c #86573E",
"E  c #87563F",
"W  c #86553E",
"Q  c #88573C",
"!  c #88563D",
"~  c #89563D",
"^  c #88573D",
"/  c #88563E",
"(  c #88573E",
")  c #89573E",
"_  c #88563F",
"`  c #88573F",
"'  c #89563F",
"]  c #86583F",
"[  c #89593C",
"{  c #89583E",
"}  c #975C35",
"|  c #975E35",
" . c #975D36",
".. c #975C37",
"X. c #975E36",
"o. c #975E37",
"O. c #985D36",
"+. c #985D37",
"@. c #985E36",
"#. c #985E37",
"$. c #985D38",
"%. c #985D39",
"&. c #985E38",
"*. c #875740",
"=. c #875741",
"-. c #875641",
";. c #885740",
":. c #885741",
">. c #885742",
",. c #885641",
"<. c #875840",
"1. c #865840",
"2. c #885840",
"3. c #895940",
"4. c #895842",
"5. c #8F6647",
"6. c #916146",
"7. c #926146",
"8. c #936543",
"9. c #966A47",
"0. c #926849",
"q. c #9F6F4D",
"w. c #9F6F4D",
"e. c #9E6F4E",
"r. c #9F6F4E",
"t. c #9F6F4F",
"y. c #9D6E4C",
"u. c #9F704D",
"i. c #9F704C",
"p. c #9F704E",
"a. c #9F704F",
"s. c #9F704C",
"d. c #A06F4C",
"f. c #A16F4D",
"g. c #A06F4D",
"h. c #A16F4E",
"j. c #A06F4F",
"k. c #A0704A",
"l. c #A0704B",
"z. c #A0704C",
"x. c #A0704D",
"c. c #A1704D",
"v. c #A1714D",
"b. c #A0704E",
"n. c #A1704F",
"m. c #A0714F",
"M. c #A2704D",
"N. c #857B71",
"B. c #857B70",
/* pixels */
"                                                                                                                                                      ",
"                                                                                                                                                      ",
"                                                                                                                                                      ",
"                                                                                                                                                      ",
"                                                                                                                                                      ",
"                                                                                                                                                      ",
"                                                                                                                                                      ",
"                                                                                                                                                      ",
"                                                                                                                                                      ",
"                                                                                                                                                      ",
"                                                                                                                                                      ",
"                                                                                                                                                      ",
"                                                                                                                                                      ",
"                                                                                                                                                      ",
"                                                                                                                                                      ",
"                                                                                                                                                      ",
"                                                                                                                                                      ",
"                                                                                                                                                      ",
"                                                                                                                                                      ",
"                                                                                                                                                      ",
"                                                                                                                                                      ",
"                                                                                                                                                      ",
"                                                                                                                                                      ",
"                                                                                                                                                      ",
"                                                                                                                                                      ",
"                                                                                                                                                      ",
"                                                                                                                                                      ",
"                                                                                                                                                      ",
"                                                                                                                                                      ",
"                                                                                                                                                      ",
"                                                                                                                                                      ",
"                                                                                                                                                      ",
"                                                                                                                                                      ",
"                                                                                                                                                      ",
"                                                                                                                                                      ",
"                                                                                                                                                      ",
"                                                                                                                                                      ",
"                                                                                                                                                      ",
"                                                                                                                                                      ",
"                                                                                                                                                      ",
"                                                                                                                                                      ",
"                                                                                                                                                      ",
"                                                                                                                                                      ",
"                                                                                                                                                      ",
"                                                                                                                                                      ",
"                                                                                                                                                      ",
"                                                                                                                                                      ",
"                                                                                                                                                      ",
"                                                                                                                                                      ",
"                                                                                                                                                      ",
"                                                                                                                                                      ",
"                                                                                                                                                      ",
"                                      . X % % % % . .                                     . . . . . . . . .                                           ",
"                                      . X % % - - . .                                     . . . . . . . . .                                           ",
"                                      . X - - % % . .                                     . . . . . . . . .                                           ",
"  b % % % . . . . . % % - % % % % - ; - - - % - - % - # . . . . . . . . . . . ; ; $ . . . 8 8 k k > ; ; % % . . . . . . . . . . . . .                 ",
"  n % % % . . . . . % % % % % % % - - % - - - % % - - # . . . . . . . . . . . ; * @ . . . 8 9 j j 2 ; % % % . . . . . . . . . . . . .                 ",
"  N X X @ * = t.t.t.i.i.m.i.a.a.t.j.j.3 4 % % % % % % % % - - . . . . . >.1.1.>.3.3.=.. . . . % % 5 5 1.=.6.j.n.J J 1.% $ * . . . . .                 ",
"  N X X @ % = t.t.n.i.n.i.i.a.n.j.j.t.3 4 % % % % % % % % - % . . . . . 4.4.1.1.3.3.1.. . . . $ % 5 5 4.4.6.t.j.J J 1.$ * $ . . . . .                 ",
". m                 . . . + & & & & , ) ) ) | | @.+.&.@.&.&.| ) 4.4.. . . . . & @ * y u y e w & @ & & + + + + O . . .                 . . . . . . . . ",
". M                 . . . @ @ & & & , ) { ) | @.+.@.| | &.| @.) { { . . . . . & & * y y u r q & @ & & + + O + + . . .                 . . . . . . . . ",
". B                 . . . @ & & & & , ) J ] @.@.@.+...+.| X.| ) { { . . . . . & @ * y y u e q & & & & + + O + + . . .                 . . . . . . . . ",
"  N.* % $ % $ . . . F F D       & & & & & & & & $ & & & & & & & & & & & t t t n.i.n.l.l.n.l.n.s.l.l.w.O O O . . . . . & & & & J J % ;                 ",
"  N.% $ % $ % . . . F A c       & & & & & & & & $ $ & & & & & & & & & & 9 9 t s.l.l.j.n.n.j.n.n.l.l.s.o o O . . . . . & & & & ;.=.% %                 ",
"  N.* % $ $ * . . . A A c       & @ & & & @ & & & $ & & & @ & @ & @ & @ 9 t 9 w.d.j.l.n.n.n.M.M.l.M.M.O O o . . . . . $ & & & ,.-.% %                 ",
"  Z . . . . . 3 3 3       . . . >.>.-.=.,.-.=.,.;.- - s z w.s.s.w.w.w.w.t.t.w.x x < . . . . . . . . . . . . 3 3 =.J ;.;.;.;.;.=.-.-.;.                ",
"  V . . . . . 3 3 3       . . . -.-.=.=.-.-.;.=.=.- - a z 9.w.w.w.w.e.t.w.t.w.x x : . . . . . . . . . . . . 3 3 =.=.;.;.;.=.-.,.-.,.-.                ",
"  C . . . . . 3 3 3       . . . x c c c c c c x x % - a k 5.0.8.8.8.5.9.9.y.e.x S 6 . . . . . . . . . . . . 3 3 =.=.=.;.;.;.;.=.-.-.J                 ",
"                    . . . . . . * * = * * - - - - - - p f f f 3 3 3 . . . . . . . . . . . O o 4 4 0 d d g d g d 4 3 3 * % % * % * % - % % - - % -     ",
"                    . . . . . . . . . . . - - % ; - - i f d g 3 3 3 . . . . . . . . . . . X o 4 4 0 d d d g g d 4 4 4 X X X . X X . X % - - - - ;     ",
"                    . . . . . . . . . . . ; - ; - ; ; p f d f 3 3 3 . . . . . . . . . . . . . 4 4 7 f d f f g d 4 3 4 . . . . . . . % - - - - - -     ",
"                                              v . . . . . $ % g h h                                 . . . . $ & g g g                                 ",
"                                              v . . . . . $ # % % %                                 . . . . $ $ % % %                                 ",
"                                              p . . . . . $ # # # =                                 . . . . @ + % % *                                 ",
"                                                                                                                                                      "
};
