/* XPM */
static char *_5a42ff51f6b42ebe847a58a4493b635e9zzOOyzLvUyYWfN[] = {
/* columns rows colors chars-per-pixel */
"75 75 5 1 ",
"  c None",
". c #2E2C35",
"X c #654949",
"o c #4E5D76",
"O c #D55910",
/* pixels */
"                                                                           ",
"                                                                           ",
"                                                    X                      ",
"                              .                     X                      ",
"                                                                           ",
"                                  .XX...XOXXX.                             ",
"                           X     .OXXOX.XXXXXOXXX                          ",
"                                .XXOXX.......XXXOX                         ",
"                         ..     XXXX.XX.X.....XXX.                         ",
"                        .XX.   .XX.X. ... ..   ..X  X.                     ",
"                         ..X...XXX.            XXX.XXX                     ",
"                          XXXXXXO.  X          ....XXXO.                   ",
"                        ..XXXXX..              .  . ...   .                ",
"                      ..XX.X..    .      .    .       .X..                 ",
"                       ......X    .  .    .   .       XXX.                 ",
"                        .XX...    ..          X    .. . .X                 ",
"                       ..XX   .  ..   .       .          .X.               ",
"                         .XX.    .  X              ..    ..X               ",
"                        .....       .                   .XX.               ",
"                         .....    .                .     X.                ",
"                     X  .X.X.X.                         .O.                ",
"X                    X  XX .X..                          .                .",
"    X                    . ..X                           ..                ",
"                           ...                           .                 ",
"                           . .                                             ",
"  X                .                                                    X  ",
"                  X.        .                                           .  ",
"   X              .          .                                             ",
"    X                 X             .                  .        X.    XX   ",
"   XX.              ..                           .     .              X.   ",
"                    .X.                                .X.      XX   XX.   ",
"   .XX              XX              .                   .         X   .X   ",
"   XOX               .              .          .        .            ..    ",
"    ..              .                   .                                  ",
"    .X.            ..                   o.                 .               ",
"      ..           .X                   ..   .                             ",
"      X..           .                    .   .             .      .        ",
"       ..    .  .   .                                      .     X.        ",
"       .     X  X                        .           O  X       XX.        ",
"            .X. X.                                    .OX       XX         ",
"          X. .  .        ..             X     .       ..        X..        ",
"          .X   . .      .XX  .                        ..     .   X         ",
"           .  .          ..  .          ..      .     XX     OX            ",
"           XX .        . .  ..          .                   XXX            ",
"            . .oX.     .    XO                               XX            ",
"             X..X           XX     .    .                                  ",
"               .            X.    .            X.X..                       ",
"                .O          X.    .              o..                       ",
"               .OXX         X                                XXX           ",
"               .X..X        .                               .XXXXX         ",
"               ....X                                        .XX.XX.        ",
"                                                            .X.XXXX        ",
"            .. ...                                           ....X         ",
"             X.X.o                                                         ",
"              ..XX..                                         ...           ",
"                XX.                                          ..XXX         ",
"                 .                                           XX..X         ",
"                 X.                                         .XX...         ",
"                X...                                        XXX.           ",
"               .X...                                        ..X            ",
"               ..XX                                          .             ",
"               .XXXX                                        .O.            ",
"                .XX..                                       .X.            ",
"                .XXXXX.                                   ...              ",
"                 ..XXXXX                                ..X                ",
"                   .XX..  ..                        X. XXOX                ",
"                     X.  .XOX.                    XXXXXXOX.                ",
"                         ..X.XX.                 XXXOXXXX.                 ",
"                           XXXXX               .X.XXXX.XX                  ",
"                            .X..     .        .XXO.XX                      ",
"                             .XX     XO       ..XX...                      ",
"                              .      ..         XX.                        ",
"                                                ..                         ",
"                                                                           ",
"                                                                           "
};
