/* XPM */
static char *_0ff2e3ff13e46a1eb9d700e93efb7c2xtk7eveB8mVsEQgp[] = {
/* columns rows colors chars-per-pixel */
"75 75 229 2 ",
"   c None",
".  c #341D10",
"X  c #2D2C1C",
"o  c #2D252A",
"O  c #282F2A",
"+  c #362726",
"@  c #3F2D2E",
"#  c #272833",
"$  c #2E2C32",
"%  c #252D3D",
"&  c #2D2D38",
"*  c #342930",
"=  c #302D36",
"-  c #352E37",
";  c #3E3334",
":  c #393339",
">  c #3E3439",
",  c #4E200A",
"<  c #43241C",
"1  c #7F3B1C",
"2  c #573629",
"3  c #4A383A",
"4  c #553E3C",
"5  c #743E25",
"6  c #673F31",
"7  c #76420C",
"8  c #5A4D38",
"9  c #674B37",
"0  c #63433F",
"q  c #6D443D",
"w  c #714434",
"e  c #784033",
"r  c #7D4A35",
"t  c #704A39",
"y  c #7B5238",
"u  c #2F2F42",
"i  c #403B44",
"p  c #763F47",
"a  c #4F4140",
"s  c #4E4046",
"d  c #5A4545",
"f  c #564B4C",
"g  c #5E484A",
"h  c #5F4C4F",
"j  c #444452",
"k  c #574A55",
"l  c #5C5056",
"z  c #52505F",
"x  c #614C43",
"c  c #654847",
"v  c #694843",
"b  c #6B454A",
"n  c #644A4C",
"m  c #6B4F4A",
"M  c #734A40",
"N  c #644556",
"B  c #714855",
"V  c #655054",
"C  c #545D73",
"Z  c #625563",
"A  c #8A3C0C",
"S  c #8E411E",
"D  c #9A4615",
"F  c #85551D",
"G  c #A94C1B",
"H  c #B85612",
"J  c #91671A",
"K  c #BD6206",
"L  c #B1670D",
"P  c #AB681F",
"I  c #814229",
"U  c #8D482A",
"Y  c #994F2A",
"T  c #8B4D37",
"R  c #9A5A39",
"E  c #A5542F",
"W  c #B35728",
"Q  c #BB6029",
"!  c #AC7728",
"~  c #AD6034",
"^  c #BA6339",
"/  c #C35604",
"(  c #CB5603",
")  c #CB5E04",
"_  c #D45407",
"`  c #D15C05",
"'  c #DA5D05",
"]  c #DC560B",
"[  c #D65A0C",
"{  c #CE5613",
"}  c #C95D19",
"|  c #D55912",
" . c #DB5F17",
".. c #D85618",
"X. c #D15D18",
"o. c #E45608",
"O. c #E1561C",
"+. c #C56003",
"@. c #CB6B05",
"#. c #D36505",
"$. c #DB6908",
"%. c #C67D0C",
"&. c #D67406",
"*. c #E1720B",
"=. c #E27E0B",
"-. c #C35921",
";. c #D55823",
":. c #C56721",
">. c #CE6028",
",. c #C56130",
"<. c #C76B3E",
"1. c #815045",
"2. c #935A46",
"3. c #A76245",
"4. c #B46B48",
"5. c #BC8F3C",
"6. c #C9911B",
"7. c #EB870C",
"8. c #EC9F03",
"9. c #E09C0F",
"0. c #F49E03",
"q. c #FC9C07",
"w. c #F0920B",
"e. c #EF881C",
"r. c #F79B13",
"t. c #F9901B",
"y. c #D8AA07",
"u. c #ECA601",
"i. c #E4A802",
"p. c #EBAE01",
"a. c #F3A501",
"s. c #F6A701",
"d. c #F8A302",
"f. c #FDA204",
"g. c #F1AA01",
"h. c #F7AF03",
"j. c #FCA903",
"k. c #F6A40F",
"l. c #FEA90F",
"z. c #E3B705",
"x. c #EFB704",
"c. c #F9BD06",
"v. c #EDA916",
"b. c #FEA112",
"n. c #F9B119",
"m. c #CA8B2B",
"M. c #DD8F34",
"N. c #EE9E25",
"B. c #FE9B20",
"V. c #CBA62A",
"C. c #CDA12E",
"Z. c #DFA722",
"A. c #DEA73A",
"S. c #DCBA3B",
"D. c #FEA520",
"F. c #EBB029",
"G. c #FDA431",
"H. c #F1C406",
"J. c #F9CC06",
"K. c #FDD506",
"L. c #FFDC04",
"P. c #F5DC0A",
"I. c #FAC615",
"U. c #E5DE1F",
"Y. c #FDD214",
"T. c #FFDB14",
"R. c #EBE10B",
"E. c #F4E706",
"W. c #FAE003",
"Q. c #FFE101",
"!. c #FAE501",
"~. c #FEE401",
"^. c #FEE905",
"/. c #FFE00C",
"(. c #F3E21F",
"). c #FEE419",
"_. c #FDDA24",
"`. c #F1D929",
"'. c #FAD73C",
"]. c #ECE038",
"[. c #FAE83B",
"{. c #CEA94F",
"}. c #EEAC49",
"|. c #DBB866",
" X c #E2DA44",
".X c #EBC85D",
"XX c #F1E350",
"oX c #F9ED5A",
"OX c #E6E060",
"+X c #EFE570",
"@X c #FAF370",
"#X c #DCBA92",
"$X c #EBD888",
"%X c #F8EF80",
"&X c #F0EC8C",
"*X c #FCF990",
"=X c #F5EDA0",
"-X c #FDFBA2",
";X c #F7F2B6",
":X c #FEFDB2",
">X c #EEDFC3",
",X c #FEFDC0",
"<X c #FBF0CD",
"1X c #FEFDCB",
"2X c #F2FED5",
"3X c #FEFDD6",
"4X c #ECFDE6",
"5X c #FCF5E2",
"6X c #F5FEE0",
"7X c #F4FEE7",
"8X c #FEFEE1",
"9X c #FDF7EF",
"0X c #F4FEED",
"qX c #FCFDE9",
"wX c #F8FDEF",
"eX c #EFFEF0",
"rX c #EAFCF7",
"tX c #EFFDFE",
"yX c #F5F7F2",
"uX c #F3FEF2",
"iX c #F6FCF4",
"pX c #FDFBF4",
"aX c #FDF5FD",
"sX c #F7FBF9",
"dX c #F2FDF8",
"fX c #F3F9FF",
"gX c #F5FCFD",
"hX c #F8F9FE",
"jX c #FDFEFD",
/* pixels */
"                                                                                                                                                      ",
"                                                                                                                                                      ",
"                                                                                                                                                      ",
"                                                                                                                                                      ",
"                                                                                                                                                      ",
"                                                                                                                                                      ",
"                                                                                                                                                      ",
"                                                                    Z.g.g.g.a.i.      s.r.r.N.                                                        ",
"                                                                  w.s.g.g.T.g.f.v.u.s.I.Q.Q.Q.T.S.                                                    ",
"                                                          d.q.| ' p.Q.Q.Q.L.Q.p.~.a.T.Q.Q.Q.Q.L.W.                                                    ",
"                                              A.u.a.d.l.l.#.| | j./.(.iXiX0X3X8X).^.Q.~.W.W.Q.Q.Q.K [ }.F.                                            ",
"                                              A.u.a.d.l.l.#.| | j./.(.iXiX0X3X8X).^.Q.~.W.W.Q.Q.Q.K [ }.F.                                            ",
"                                    ] ] =.p.v.a.a.g.s.a.a.s.s.B.b.Q.rXiXiX3XdX7X6XQ.Q.W./././.Q.Q.b.[ [ d.b.b.                                        ",
"                              a y ` f.f.s.a.~.Q./.~.Q.T.T.Q.I.f.s.W.hX4X4X3X0X1XE.E.!.!.L.L.Q.~.K.s.s.a.8.a.a.{.                                      ",
"                            g v & ] ).).g.~.L.`.fXhXeXdXdXV.Q.u.T.Q.U.pXpXsX7X9XsXiX X&X0X0XaXQ.s.~./.Q.~.L.L._.P                                     ",
"                            c h # ( s.s.J.Q.E.dXiXfXsXuXuX3X/./.Q.f.Q.3X3XgXiXiXiXiX0XuXiXiXsX~.u.W.,X,X,X~.~.~.g.                                    ",
"                            + ,.X...f.f.I.Q.,XgX6X(.8X7X7XuX/.!.R.v./.^.^.4XiXiXiXiXiXiXiXiXiX[.T.sXiX,XL././.s.d.`                                   ",
"                          H q.i.J.j.+.+.s.L.,XsXdXsXiXiXiXuX%XdXaX9XU.fXfXwXiXiXiXiXiXiXiXiXiXpXhX7XhXE.rXuXuX*XW.K.( `                               ",
"                        >.b./.8.a.z.Q.Q.T.i.W.uXuXfXiXiXiXiXiXiXiXiXiXiXiXuXiXuXiXuXiXuXiXiXuXiXiX7X-XiXuXiXiXiX3X!./.(                               ",
"                        >.b./.8.a.z.Q.Q.T.i.W.uXuXfXiXiXiXiXiXiXiXiXiXiXiXuXiXuXiXuXiXuXiXiXuXiXiX7X-XiXuXiXiXiX3X!./.(                               ",
"                      :.k.d.L.K.(.rX].].x.L.g.p._.jXiXiXiXiXiXiXiXiXiXiXiXdXiXiXiXiXiXiXuXuXiXuXiXiX7XuX,XiXiXiXiX!.Q.d.                              ",
"                      / j.K.Q.Q.aXT.l.l.E.9XiX0XfXuXiXuXuXiXiXiXiXiXiXuXuXiXiXiXiXiXuXiXiXiXiXiXiXdXiX0X3XiXiXiXjX~.L.b._.XXXX                        ",
"                  m.m.y./.Q.Q.).*Xk.E.E.pXsXuXiXsXuXiXiXiXiXiXuXiXiXiXiXiXiXdXiXdXuXiXiXiXiXiXiXiXiXiXiX7XiXiXiXaX*Xg.~.Q.i.i.qX                      ",
"                  6.6.d.!.Q.Q.~.I.Q.1X1XiXuXiXiXiXiXiXiXiXuXiXiXiXiXuXiXiXiXiXiXiXiXiXuXiXiXiXuXiXU.(.P.Q.s.s./.*X*X).9.s.i.i.f.                      ",
"                  e.e.) !.Q.Q.!.J./.0X0XiXiXiXiXiXiXiXiXiXiXiXiXiXiXdXiXiXuXiXiXiXiXiXuXiXiXiXiXiXsXwXiXiXqXqXa.T.~.Q.b.s./ / Q.a.                    ",
"                  _ _  .p.W.Q.uX~.Q.gXgXuXiXiXuXiXiXiXdXdXiXiXiXiXiXiXiXiXiXiXiXiXiXiXiXiXiXiXiXiXU.0XiXiXdXdXU.8.Y.~.+.s.d.d.Y.w.                    ",
"                  o.o.[ #.p.u.U.=XQ.-X-XuXsXiXiXiXiXiXuXuXiX4XqXqXwX0XuXuXiXiXiXiXiXiXuXuXuXdXiXiXiXiXiXiXiXiX-Xi.k.a.0.a.d.d.B.k.{                   ",
"                  o.o.[ #.p.u.U.=XQ.-X-XuXsXiXiXiXiXiXuXuXiX4XqXqXwX0XuXuXiXiXiXiXiXiXuXuXuXdXiXiXiXiXiXiXiXiX-Xi.k.a.0.a.d.d.B.k.{                   ",
"                  3.3.[ ) J.K.W.W.qXP.P.pX0XuXiXiXiXiXiXiX0XyXE.~.=X7XiXiXiXiXiXiXuX0XyXR.R.-XiXiXuXiXuXuX7X7X*XZ.=Xl.s.f.p.p.K H ` P                 ",
"                  n n -.) a.L.!.oXfX5X5X%XfXiXhX7XaXgXgXgXiXiX0X Xx.(.eXeXsXiXiX8XhXqXW.E.E.1XiXuXiXuXiXiXwXwX:X~.~.( 8.$.D.D.i.Y.! e                 ",
"                      5 } | l._.!.hXsXsXeXpX].P.L.5XQ.fXfXiXiX6X7XoXd.i.i.*X7XiX4X_.).=XdXdXhXiXiXiXiXiXiXhXhX0X1XP.v.G.g.#.#.d.Q.B.1 :               ",
"                      r ] D g.a.p.'.iXiX7X1Xs.j.l.k.N.X.X.X.9XXX0XgX,XQ.Q.u.i.s.8.L.qXgX7X7XsXgXjX~ } eXeXuXuXwXtX(.rX_ ;.....d.L.u.[ &               ",
"                      h [ v O.Q._.XX4X4XuXE.d.) |  .' #.#.p Y P.eXfXfXqXqX9XR.3X6XpXuX7X9X9XS _ | ..| ;.` 5X5XiXtX^.R.8X......d.p.b.| -               ",
"                  ^ ^ e X.6 q :.d.V.6X6XsX~.j.>.w v r X.X.I c 7 1XdXdXaXaXgXuXuXiXiXiXsXo.o.>.U n -.| | d.*.*.hX0X=X5X8.+.) ) d./._ $             pX  ",
"                  ~ ~ o.8.h 6 q.dXiXiXiXeXE.a.#.| 1 n c c c c q D.d.s.:X:X_.iXiXsX8XL...c c c ~  .M x / a.] ] uXpXsXwXyX0.{ { b.%./ K 5           }   ",
"=     y           E E 1 0.c q d.+XiXiXiX6X:Xa.b._ [ } 0 0 0 c h w w./.P.P.4XiXiXiXuXK E c c n w g h I b.a.*X*X:X,XuX7XU.8.8.8...&.h.L.| Z       /.    ",
"=     y           E E 1 0.c q d.+XiXiXiX6X:Xa.b._ [ } 0 0 0 c h w w./.P.P.4XiXiXiXuXK E c c n w g h I b.a.*X*X:X,XuX7XU.8.8.8...&.h.L.| Z       /.    ",
"        `.        t t l o.M + F.E.eXsXsXtXeXW.a.b.| | | | } g n q w.1XiXiXiXiXiX0X,X~.G b b x h 1  .0.h.'.wXwXE.*X0X8Xs.#.] ] 3Xn.i.x.O.#   z.z.D.    ",
"          n.          ^ n >.& 8 7.(.:X:XaXqX8XL.g.b.| | | } X.3.h w.U.iXiXiXiXiXiX`.~.[ I I <.| X.) k.^.0XsXsX_./.L.T.p.` 6 6 P.H.l.#.l @ }.P.P.X.    ",
"          9XC.          % - h + m m :.:.J.gX0X8XW.).w.| | | ..' ..J.8XiXiXuX6XiXdXk.W.j.d.d.+.7.d.d.z.eX3X7X7XwX5.k.D.` 1./ / L.|.,.@ :.b.j.D D :.l   ",
"          >X@X          * & & # $ ;.:.:.7.].sXiXqXz.s.g.g.8.e.] G./.gXuXuXOXqXiXrX:Xs.a.d.d.d.d.p.E.fX3XhXdXdXiXuXW.K h ^ 9.9.q.4 X {._ d.s.d.d.>.% l ",
"            8XQ.        V | K ,X4X. ....` ) ).;XdXeXrXdXdXx.j.l.f.>XwX3X3X{ K 3XiXiXL.s.u.u.Q.;XuXeX1X*X!.~.~./.^.&.g.B.0.k.k.w * O Z.{ Q ] ,.,.M * $ ",
"            H.:Xf.    * + ` / fX7X7Xd.d.{ B.L.;X,X(.(.`.`.tX$XF.3XgXwXG G M e /.fXiXL.Q.L.L.1X4X3Xy.0.f.a.a.a.B.6 %._ ~.v h h & ^ - G.7.o g x x $ &   ",
"            I.^.i.%.%.x $ I B.,XsXqXK K [ g.K d.T.#.@.u.u.T.@X4XwX7XgX] ] o.` l.pXiXqXQ.`.`.3X[.g.O.W w M x x c F.i.P.g.` D.D...( F.q.q.r 0 * * $ #   ",
"            I.^.i.%.%.x $ I B.,XsXqXK K [ g.K d.T.#.@.u.u.T.@X4XwX7XgX] ] o.` l.pXiXqXQ.`.`.3X[.g.O.W w M x x c F.i.P.g.` D.D...( F.q.q.r 0 * * $ #   ",
"        #   a.0.y.x.x.l.< ,.. 8.`.R.....S a./ Y.K.( | ( ( @.L.].7XuX3Xj.j.` X.u.+XpXrXoX0X0X].h.) G.B.[ ;.9 9 F d.L.Q.i.( [ [ q ] ,.a.0.h >.- -       ",
"          *  .A.i.g.g.| w | h h p _ O O 4 ' h.).1XL.j. . .( u.L.0XhX2XQ.Q.OX1X!.[.-X,XsXpXpXL.&.b.T._.` ` &.&.u.0.7./.0.} m m g } j.$.v k ,.h h       ",
"          r.B.[ ) { { +.;.v % C Z q & & s ] a.,XuX[.K.X.X.| a.Q.6XiX0XiXiXiX0XU.L.qX/.gXy.y.^.%.p.y.a.y.:XoXoX,X3Xx.+.u.k g g <.o.| | R I [ Q Q       ",
"        + 4.=.;.[ 8.8.W.k.V C C > v v v s <.a.,XuXhX*Xh.h.( g.!.T.qXhXuXuXiX0X2XaXfX8X7Xb.b.f.K.T.( S.uXgXJ.J. X<X+Xd.[ 5 . . ` :.| | | | D.0.0.-.    ",
"          * p ,.W _ _ / { b # # - * g g * e r.;XhX Xg.L.L.i.J.~._.J.fX X XfX0XsXgX1Xf.6X;X;X{ L.Q.) p.aX].I.I.u.sX6XT.} } @ @ 1 w W }.;.X. .] ] ,     ",
"            2 g n n n c $ . ' $ > c - - % 4.D.g.).u.g.hXhXu..X^.a.w.1Xi.i.:XtXV.5X0X#.#X2X2Xd.r.!.g.0.g.s.T.T.G.v.x.X.c o # # w T ) v.*.g @ 2 2 u     ",
"            v 6 & & & $ $ M b.S $ L B B i v s.Q.!.+.g._ _ B.&XL.K M.8Xq.q.1XiX#.}.aXA e.-X-Xh.[ x.u.V ) G.[ [ [ X.D < h $ c c O./ f.a.a.:.n % %       ",
"            v 6 & & & $ $ M b.S $ L B B i v s.Q.!.+.g._ _ B.&XL.K M.8Xq.q.1XiX#.}.aXA e.-X-Xh.[ x.u.V ) G.[ [ [ X.D < h $ c c O./ f.a.a.:.n % %       ",
"              v 3.-.-.Z * $ n + v L 8 8 g w b.a.d.b._ +.+.J.qXj.1 -.3Xf f ].L.,.J !.i.2.a.a.L.&.+.) I w d } } 4.B *.c v + g g ..a.a.) } ^ g & &       ",
"                  ; ; C V n * q v [ 3X3X8 n 4.l.b.) <.' ' L.4Xb.7 G ;XV V / +.M T l.a.c.`.`.fXz.` D.+.[ v n n 6 D.V * h g e e ` D.0.b.| w @ % %       ",
"                        - 0 + ;.O.f b b 5Xp - m x ,.* [ [ T.oXY.I x./.Y Y F.Q.5 (  XZ.( u.u.*Xz.{ X.Y.D.G.R R 8 + X * c x n n 6 >.| X.T d $           ",
"                        ; u $ + l + - - F.U.6 o O M $ t.t.j.oX/.z.L./.3X3XpX3Xq b.L.u.L.~ ~ l.L.p.b.~.b.f.0.0.;.e u g q $ V V o n h m - &             ",
"                            # & $ $ $ $ I U./.U M x % ) ) a.c.L.u.9.o.qXqX3Xv.>.x _ 8.W.3.3.N.W.T._.p.( G.L L Z.. 0 w . @ @ @ & & - & #               ",
"                            c n = # & & X +.).v.,.h r N N }.x.` | q ` ).).i.:.:.O O >.w p.p.u.f.a.r.( ' 0 0 0 B l f 5 f.f.d.d. .V.$                   ",
"                            n o ;       * S /.8.g.v.k l l { D q.' } d 0 0 N o & @ m * T d.d.L.x.u.s.s.' 8 3 3 > C o h  .0.#.#.>.h &                   ",
"                            n o ;       * S /.8.g.v.k l l { D q.' } d 0 0 N o & @ m * T d.d.L.x.u.s.s.' 8 3 3 > C o h  .0.#.#.>.h &                   ",
"                              %         4  .B.a.P.r.U c c | ` $ 7 @ h g g f O N { ;.B.4 | | g.g.j.a.$.5 & @ @ k &   $ q } ,.,.h & a                   ",
"                                    % % j { ` d.n.c D h h A.O.& & - $ { { m M k 6.V 0 O >.>.8  .X.m @ G./.c.c.m -     * # * * u                       ",
"                                        3 / a.b.) :.0 + + J.4 - c g d h h n 8 {.m c q > w w ~ v Q / p.k.T.p.p.Q                                       ",
"                                        i d u.!.F.u @ z.z.x.o $ g b ^ b b @ u u O # l & O O b d Q w k.d./.c.c.n                                       ",
"                                          h ( 5 n 0 p @ @ c h V * $ & & & x $ h n z o j j j $ g e ] x >.9 @ @ O                                       ",
"                                            V } h.) E     - T e - & & - - ~ M + +  .*         % o v + l                                               ",
"                                                o           - 1 { v * + + r v.} } >.@                                                                 ",
"                                                                  # % V V 0 9 ,.R k                                                                   ",
"                                                                  # % V V 0 9 ,.R k                                                                   ",
"                                                                          # m g                                                                       ",
"                                                                                                                                                      ",
"                                                                                                                                                      ",
"                                                                                                                                                      ",
"                                                                                                                                                      "
};
