/* XPM */
static char *_c6426161a39471cb71b444fb7e8426clNqCGLuJmHBe1mBt[] = {
/* columns rows colors chars-per-pixel */
"75 75 228 2 ",
"   c None",
".  c #3E1F0C",
"X  c #2D2223",
"o  c #292F25",
"O  c #26262C",
"+  c #2E272C",
"@  c #3B2520",
"#  c #342629",
"$  c #302B2F",
"%  c #3C2B2D",
"&  c #232936",
"*  c #2A2932",
"=  c #2C2A33",
"-  c #2A2E33",
";  c #2E2C33",
":  c #2E2C37",
">  c #2A2D38",
",  c #2E2E3B",
"<  c #352930",
"1  c #312D33",
"2  c #322D33",
"3  c #312B34",
"4  c #312C34",
"5  c #302F36",
"6  c #362E34",
"7  c #3A2E30",
"8  c #34273E",
"9  c #3E3030",
"0  c #3D3136",
"q  c #33313A",
"w  c #3F363B",
"e  c #3E363D",
"r  c #54210A",
"t  c #4C2A1E",
"y  c #6A3313",
"u  c #47362E",
"i  c #463030",
"p  c #463639",
"a  c #4E3B3C",
"s  c #5D3D32",
"d  c #783D23",
"f  c #754B11",
"g  c #5D4D3D",
"h  c #62432A",
"j  c #6E402A",
"k  c #7B432D",
"l  c #6C4237",
"z  c #664B32",
"x  c #65443C",
"c  c #6F473D",
"v  c #6C4F39",
"b  c #744334",
"n  c #7A4A3B",
"m  c #252E40",
"M  c #303444",
"N  c #3A3E4E",
"B  c #463B41",
"V  c #4C4046",
"C  c #554143",
"Z  c #5E4543",
"A  c #52464B",
"S  c #5B4749",
"D  c #5A4D4B",
"F  c #5E4A4E",
"G  c #434859",
"H  c #584B53",
"J  c #5F4F53",
"K  c #5B4F5B",
"L  c #4C505F",
"P  c #634544",
"I  c #6A4642",
"U  c #664942",
"Y  c #624A46",
"T  c #664847",
"R  c #6D4B45",
"E  c #6C444D",
"W  c #60494A",
"Q  c #64484A",
"!  c #65494F",
"~  c #624E4E",
"^  c #684C4B",
"/  c #764045",
"(  c #754F4E",
")  c #674F53",
"_  c #614854",
"`  c #68465D",
"'  c #645559",
"]  c #4F5060",
"[  c #823A12",
"{  c #943F11",
"}  c #843F22",
"|  c #905D19",
" . c #AE4E16",
".. c #A04A1E",
"X. c #BF571C",
"o. c #B96105",
"O. c #904723",
"+. c #9E5B21",
"@. c #854731",
"#. c #914E33",
"$. c #86503F",
"%. c #9D5230",
"&. c #A95429",
"*. c #B55824",
"=. c #AA5C35",
"-. c #B55D33",
";. c #A56724",
":. c #BE602C",
">. c #BC663A",
",. c #CB5703",
"<. c #C25804",
"1. c #DA5707",
"2. c #D25D05",
"3. c #D25408",
"4. c #D65A0E",
"5. c #DC5F0A",
"6. c #CB5912",
"7. c #CF5D19",
"8. c #DA5713",
"9. c #D35914",
"0. c #D6571F",
"q. c #E25608",
"w. c #E1581C",
"e. c #CA6004",
"r. c #C86C04",
"t. c #D36706",
"y. c #DE6C09",
"u. c #C87E0E",
"i. c #D67307",
"p. c #C36419",
"a. c #D9601A",
"s. c #E4780D",
"d. c #C95B20",
"f. c #D05C2E",
"g. c #C46B20",
"h. c #C66128",
"j. c #D06423",
"k. c #C66535",
"l. c #945941",
"z. c #A15E40",
"x. c #B06442",
"c. c #B96B4D",
"v. c #A26953",
"b. c #BC8638",
"n. c #DB810B",
"m. c #DF8C1B",
"M. c #CF9B1B",
"N. c #E8850C",
"B. c #F18E0F",
"V. c #E3940C",
"C. c #F19E03",
"Z. c #F8980C",
"A. c #E58219",
"S. c #FD9D19",
"D. c #DEA703",
"F. c #EAA402",
"G. c #E7AC02",
"H. c #EFAC02",
"J. c #F1A602",
"K. c #F6A501",
"L. c #F8A104",
"P. c #FDA007",
"I. c #F7AC02",
"U. c #FDA805",
"Y. c #E3B703",
"T. c #EEB703",
"R. c #F9B506",
"E. c #E3A51D",
"W. c #F4A412",
"Q. c #FEA616",
"!. c #EE9F2E",
"~. c #F99222",
"^. c #DAA43B",
"/. c #FEA12A",
"(. c #E8B725",
"). c #F9B022",
"_. c #F4C006",
"`. c #FCC70E",
"'. c #FEDA04",
"]. c #FDD209",
"[. c #F3DB09",
"{. c #FFDF0C",
"}. c #FDCC13",
"|. c #FCCE14",
" X c #FED915",
".X c #EBE40B",
"XX c #F7E603",
"oX c #FAE103",
"OX c #FEE301",
"+X c #FFE002",
"@X c #FEE804",
"#X c #FEE316",
"$X c #F3E01B",
"%X c #E9DC28",
"&X c #FBD028",
"*X c #FDDF29",
"=X c #F3E334",
"-X c #DABA4F",
";X c #F0AF46",
":X c #E5DC40",
">X c #F4D745",
",X c #F8EB4C",
"<X c #EAE15B",
"1X c #FAF265",
"2X c #EFE672",
"3X c #E9DB86",
"4X c #F9F380",
"5X c #F2EA97",
"6X c #FDFB96",
"7X c #F8F2A8",
"8X c #FEFDAC",
"9X c #FEFDBD",
"0X c #FEFDCC",
"qX c #FAF1D1",
"wX c #F2FEDF",
"eX c #FDFDDB",
"rX c #ECFEED",
"tX c #FDFBE6",
"yX c #F4FEE8",
"uX c #F3FEEF",
"iX c #F9FCEE",
"pX c #EDFDFC",
"aX c #F2FEF6",
"sX c #F6FCF5",
"dX c #FDF9F3",
"fX c #FBF6FE",
"gX c #F4FBFD",
"hX c #FAFBFB",
/* pixels */
"                                                                                                                                                      ",
"                                                              d.6.W.W.    m.A.A.m.                                                                    ",
"                                                        i 8.a.L.H.oX@XK.OXOXOXOX].P.6.t.U.Q.                                                          ",
"                                                  & & d Q } Q._.G.R.K.#XXXeXeXXX'.OXR.`.XXoXT.2.                                                      ",
"                                                  & & d Q } Q._.G.R.K.#XXXeXeXXXoXOXR.`.XXoXT.2.                                                      ",
"                                          : + T + + 6.S { H.P.3.,.H.$X%XF. X0X X'.%X%X%XF.OX XK.J.K.).1.e.r.,.A.                                      ",
"                                        < b :.x.x 3 l ! F.OXOX'.@XhXsXuXrXtX9X XeXgXsXfXyXD.OXoXG.6.5.d.Q.J.K.L.9.                                    ",
"                                      * k 1.K.Q.1.R T a.t.J.].iXfXyXaXuXuXsXyX=XwXsXsXsX7X9XgXyXgXE.2.Q.{.oXXXJ.)._                                   ",
"                                      ; k 0.2.1.x W b f.G.tXgXuXsXgXsXsXiXaXfXgXsXuXsXsXaXgXuXgXiXsXiXy.2.J.OX'.E.8.+                                 ",
"                                  u ` U.I k.0.z y.I.L.*XiXsXrXyX.XOX{.OX@X0XeXuXaXaXgX9XOXI.@XOX.XsXfX.X XJ.{.oXK.J...                                ",
"                                  + Z [ U.@.N.2.w.C.@X X$X9XD.qXsX0X'.oX'.K.J.*X[.[. XK.I.,.<.1.*XwXsXpX1XXXW.2.9.K.t.&                               ",
"                      ;.        > W ^ a.K.L.K.P.&XuXXXG.Q.>.g `     ` O.).wXaXaXuX XC.C.=.P     E $.6.G.eX%X[.2XQ.9.k.$                               ",
"                  ].'.OX Xk.    F Z # X.U.L.B.L.9X<X{.,.b E ^ ) ' ! | ).8XyXgXiXsXiXeX@X XU.7.!.6.=.j 0.2XhXuXgX*X0.>.$                               ",
"                }.          k h.C.-.^ $.7.:.N.K.'.=X2.b c o.D.oX<XaXuXuXiXuXpX^.j.D.hXfXyX=X%X{.U.U.8.1.1XfXtXtX XR c o                               ",
"                            n m :.q.# Z b k.N.K.OX>X1.p.&XOX8XaXsXsXsXsXdXaXE.3.h.f F.aXsXrXsXsXeX6XK.*X0XyX<XOXU.x + K                               ",
"          U.                  . 1 I T Q c k.N.K.'.=XQ.,.W.uXhXsXsXsXsXuXuXeXR.&X5XU.U.hXsXsXsXsXrXiXwXyXsXdXgXT.#X8 q 3 >.M                           ",
"          U.                  . 3 I T Q c k.N.K.OX=XQ.,.W.uXhXsXsXsXsXuXuXeXR.&X5XU.I.hXsXsXsXsXrXiXwXwXsXdXgXT.#X8 q 3 >.M                           ",
"                            9 ; ; Q T %.4.9.K.H.XXwXsXdXhXpXdXsXsXsXsXuXiXiX9XsXtXhXwXhXsXuXsXsXaXaXsXaXaXsX<X'.J.).1 + L h                           ",
"                            9 J 6 Q P a.} /.oXH.0XiXaXaXeXOXXX0XaXsXgX0XaXuXaXpX-XpXpX2XsXuXaXaXrX0X2X( XXOXXXOX Xe.) : >                             ",
"                            w F T T >.R d.J.XXOX$XuXgXgXOX<.,._.eXyXuXXX0XdXrXsXi.hXyX(.3XsXsXhX:X,.4 Q N.T.OXOXOX<.F ^ ,                             ",
"                              1 7 T ! 8.8./.OXOXoXOX'.*Xe.h.0.C.=XrXfX{.*XsXfX/.| oX,XM.=XaXsX&X>X:.: 6 P T 7.Z.P.z T j.H m                           ",
"                                3 $ # q.,.0.I.OX'.#Xa.d.` k 5.8.>XpXsXQ./.8XoX6.z '.OXn.T.oXOXG.'.-.: < B p >.2.h.c l 1.2.D                           ",
"                                5 _ P j W.K.U.<.9.} K - @ . 9...OX8X{.).;X+XoX@ 0 r.F.% D.OXOXJ.oX*., < , : x 0.o.e.b <.S.T                           ",
"                                  S 6.P.C.K.K.Q.d u + k c ^ % #.'.'.[.d.x.OX*X# : : ~ > n.XXOXw.oX&.O ) , : 4 C > / c D.P.Z                           ",
"                              7   = :.J.W.J.L.2.-.W I ^ 7.F $ u G.'.oXh.) k.c.- : : ; * o 6.r s | K # W 4 ) $ P c } U./.d R                           ",
"                              7   X n 0.U.t.6.k.I q > ^ K # - 5 r.J.F.q 6 Q + * : : - ~ & % , , 1 > W ~ : U > C Q W c P <.M.j                 |.      ",
"                              u   : < Y 2.4...H Q A d 9.S ; A 4 o 6.y m , ; $ = : : # j.; 3 < 3 ' Q F , w Y q C Q W -.4.e.K._                 OX      ",
"        [.                      q > H 0.w.` P # 5 H U j R : 1 V ; ; > : ; ; : 3 e T :.B - < T + ; ; > W ^ $ > C n 0.R P.K.~.x.@               /.      ",
"        [.                      q > H 0.w.` P # 5 H U j R : $ V ; ; : 4 ; ; : : e T :.B - < T + ; ; > Q ^ $ > C $.d.R P.K.~.x.@               /.      ",
"        &X                      J : Y y.x.k.b T + 4 T T C : ; Q $ : : < * ; : : : 3 $ > - ; ; : < F ^ ) - + # 5 b K.G.2.6.7.) &                       ",
"        &XXX    m.  ;.        h ! : ) 0.9.9.O.W 6 C F # ; # Y Y C , ; ) # ; : : : : ; - ; ; : $ : q 6 0 a ~ * + z Z.).h.d.=.3 +     h.      9X        ",
"        ].gX'.1.Q.J.2.x.        Q ; # ! W W T Z : Y T # ; + 4 3 S Y T Y ; ; : : : : * ; ; * ~ Q : : W T T S 2 6.r P.<._ 7.l 4 % h.4./.]. X0X6XR.      ",
"        7.%X=XZ.G.K.K.x.        x.E + : 3 F ) - ; : : : 4 W T P $ 1 6 * ; ; : ; ; O % p ; 5 # - ; ; : # Y F J ~ >.1.6.} T F K X.8.,.#X'..XiXgX XC.    ",
"      ).].oXaXoXG.'.U.;X<.+.    8.c.= W c I S ~ $ + : : , 3 * W ^ 6 ; ; 4 * J J : ~ T B ; J ^   ; % + 4 : * ; l 7.9.7.k W q o 9.Q.'.OXOXdXsX8XOXJ.B.  ",
"    A.Q.[.oX0X@XoXoX_.J.J.9.    l + l y C.P.#.Q Q ; ; 1 : : ; : W 3 : , : : ; ; ; W D B - ; 9   ; * F F V - ; & ^ W k H       !.J.{.OX$XsXsX.XoXJ.K.  ",
"    1.Z.#X+X'.XXOX'.OXOXJ.a.  v =.r 7.P t.1.x R d x.k ) : : : S + : : 4 : : ; ; q Q Y l.F ,     & $ - : 4 1 # W R c h.) F R D x.J. XF.8XuXfX@XOXQ.L.  ",
"    6.L.K.oXoXOXeXsX1X X,.O.  p.d.k 4.w.6.k h.4.k H c j F : ; ; : q >   : : ; ; e T T a.&       = -   ; ; : : - ) U j.j.o.j c Y &.J.OXOXoXXXOXF.<.P.  ",
"    z w.U.'.oXn.eXgX1XI.,.@.> R X.Q 2.y.J.8.9.4.Q Q Y ^ 3 & 0 * + ,     ; ; : 6 C : J 5 1         1     = : : : : T d.^ 6 W # k 4.Q. XOXOXoXOXQ.# b.  ",
"    + y.4.Q.K.C.3.Q._.I.9.4.l * x.F >.4.9.p.3.j Q P F , ;   &   W #     7 9     6 ' : *         7       4 , : : ' T :.> $ S X -.2.7.e.F.J.G.C.k.> ;.  ",
"      c.S.C.#XOX#XP.s.~.@.B.f.* ! T T #.j.O.~ ) T Q ) : : :     w                 : q w         7     9 N   H ~ Q W F ; 5 Z R T 9.=.! h.k.>.K # l     ",
"      c.S.C.#XOX#XP.s.~.@.B.f.& ! T T #.j.O.~ ) T Q ) : : :     w                 : q w         7     9 N   H ) Q Q F ; 5 Z R ^ 9.=.! h.k.>.K # l     ",
"        -.,.2.2.S.4.N.:.b | 7.1 $ ' 5 # ; * V Q ~ X W ; : q                           1         1 4 w 7 N Y 4.P Q Q 0 : ; ; + T #.U ; c :.D ) d ~     ",
"        s f.Q.Z.-.f.c @.2.b.` 8 ~ ~ ) ^ W S Y ~ + * + 3 m                   6 T                 9 S *     < ~ W k l P + : : q S Q Q X - ^ x.k.~ :     ",
"        v S !.C.1.[ %.0.7.-X#XD Q ~ + W ^ ) 5 ; S P 6 : M                   % $               + ~ 6 W       * Q R 6.T $ : : ; J Q W + - ; : $         ",
"          3 $ ) k S.n.t.@./ gXy < h.T 3 > F Q Q ~ 6 ' - ,                                     # D M       % P ~ W F _ 5 , - > S  .^ ! , ; ;           ",
"          3 T A 3 ~ l z S & D.6.% [ b c [ 7.8.7.} Y $ E A         > S R >.                  1 F ; + 4 : N J ) d.q.x T 5 2 ^ H c c T S T * ;           ",
"          > 7 P Q : 6 J 4 , $ q.@ T T c 6.Z.Z.9.1.Q J 6 3         : 4 8 U 2               S Q ; ; ; , : 4 < T h.1.0.I T F T I I 0.b # ; ; ;           ",
"            : : J P F P ) R ` @.=.: U R Q.3.L.Z.1.Y ~ ; :         * 4 ~ Q ;             q Q 0 - : : : : p W 7.,.X.7.! U $ ~ Y Y W W ) 4 ; :           ",
"            > i Z 7.1.c.x ^.>.3 V.D T F O.,.8.4.:.T % ; :   , ; ; J 0 4 ; :             : - ; ; : : : : p @.2.K.F.d b F X = ) T Q Q # ; ;             ",
"          > - D -.v.z g l Q k.Y k &XQ R z Y ..g x Q T $ : ; : : > T : > - - *         N M > ; ; : : : : 8 8 k B.o.>.Q.,.>.H ; + ; 8 : : L             ",
"          : $ D _ x.Q Q I - m R 6 yXtX@.p.J.s.>.P Q T P S 3 : : : Z : + Q ; $ >     3 *       * * : : : i } } E H ;XoX#Xq.P 6 6 l.=.! $ 1             ",
"          9 H Y Q Q Q Q Q > F + $ sXsXT _ g ~ h.:.I H >.W F : 4 ; J A T O : 3 ; 4 q ; F M       > - : : M F *.3.P d.H.P.1.T J i _ l 7.k :             ",
"          9 H Y Q Q Q Q Q > F + < uXsXP ! g ) h.:.I H >.Q F , 8 ; J A T O : 3 ; 5 q : F M       m > : : 8 F 6.3.P h.H.P.1.T J i _ l 7.k :             ",
"            : # Q Q T ! $ 3 H c.F.gXpX7X'.@X3.j.9.W p.K 6.2.d * ; : A $ : ; : : 4 > 1 ; 3 = ] & ; > : ; a.F.o.x.b d.Q.,.7.Y X W F ! c S #             ",
"              O + $ e ; : : P I.OXiXhXsX*XuXY./ >.P q.I L.J.y.8 : : 1 ; ; ,     G ;     : : : : : : + 6 4.Q.C.p.T U.`.OXC.x._ { x T $ ; &             ",
"              % W 3 : : : : e.XXoXaXsXsX[.wX2Xp.F O.4.x L.K.J.Q : : : ;   M : :     M ; : : : : 1 K - t J.e./.i.! k.K.K.'.7.F b ..l c.O.$             ",
"                = 6 : : : : 0.OXoXaXsXsXuXiXOX$X7.h.7.4.S.K.H.a : : : : ; 3 : : ; ; $ 5 , : : X # > M e.2X'.e.i./ G.6.<.L.4.T Q &.T I 7.O.O           ",
"                  6 B ; : ; . P.*XtXfXeXsX=XOXF.S.Q.5.9.t.J.t.%.g , ; : : : : * S ) # 4 ; + ~ Y # ; . oX1XOX<.O.d / W.I.a./ T T j T F 8.3.&           ",
"                    p Q % , % b e.K.XXgXgX=X[.4.j.9.4.3.S.-.*.K.P.H 5 : : : : ! C : , 4 S T F } ,.6.d  XoXoXI.b.F.3.7.R Y z W ~ U Q y 9.>.1           ",
"                    4 % X 4 , b r.K.{.,XtX'.G.j.c *.4.4.P.h.U._.=X<./ I.).o - E | (.t 8 f eXo.OX0X7X6.OXoXOXP.'.#XU.{ j Y < # x p c d.Y )             ",
"                  : S U T ; , K l 4.I.C.P.I.6.6.1.1.4.9.P./.J.$XpX&Xp.rXrXC.9.#XOXwX@XE.gXuX,XC.aX9XI.OXOX].o.oX'.P.( 7.T W K 6.! i 4 +               ",
"                  3 Y A $ ; 3 1 & v.R 7.4./.J.I.H.t.9.4.,.C.F.OXeXiXs.yXuX=XU.*XiXuXgXOXsXaX:XOX8XoX'.'.L.h.c.].F.4.Q f.- ; & A %.q >                 ",
"                  & P ) ) Y Y + q 6 k.9.9./.`.'.C.5.7.c 1.5.I.T.<XgX-XpXsXsX#X0XgXsXgX5XwXgXfXtX XOX'.L._. Xa.y.e.).U ) : 3 < >.U 3                   ",
"                    3 ' $ S W # 1 3 $ 1.7.1.6.,.8.9.1.l 7.b Z.C.C..X-XrXsXgX0XeXaX.X@X2XfX9XyXwXL.'.OXeX1X@Xe.0.I./ x : + Q D P B 7                   ",
"                    3 ' $ S W # : ; $ 1.7.1.6.,.8.9.1.l 7.b Z.J.C..X-XrXsXsX0XeXaX.XXX4XfX9XyXwXC.'.OXeX1XOXe.0.I./ x ; + ^ D P B 7                   ",
"                      7 5 4 5 5 0 O h.@.3.O.%.5.9.8.l b 9.P -.J.<.L.I.#X9XhXaXiXuXsXeX#X].E.G.W.4.I.#X[.OXF.1.~.C q.r q 3 W Q e 4                     ",
"                                  $ h.l Z S U l h.U ` ~ n c.z 7.L.P.).XXoXwX.XXXiXuXuXoX@XH.x.P F t.G.'.J.e.j 6.6.d.q ^ 3 > w                         ",
"                                    $ ~ ~ ' a ^ W Q % ! + S ( @ z.-Xi.U.{.XXD.t.{.fX:XM.U.1.j.Q + j 3.1.6.) : ~ ; @ # X 6                             ",
"                                        , = V T 6 H # Q Q + Y D + o , D :.o.X./ Z.F.F...T U * $ ; ; 4 8 Z 3 ~ S Y Q * >                               ",
"                                              $ W 4 Y ~ T P $ > # < ; < $ 6 T + j 9.[ e 5 4 : 1 $ > , 4 p = ) Q T + q                                 ",
"                                                  6 k [ Q I I ( + ; ; Q ) T T b D c I Q ^ 1 # @ U ) W % Y P P S ; ,                                   ",
"                                                  * H 1.d U W W ) : ; ; : 6 Q Q #.7.k.Q S 4         % 0 $ 1 : 4                                       ",
"                                                    4 ) #.c Q ~ 4 4   < + ; F Y Y Q Q T F q                                                           ",
"                                                      4 p S 0 ,         < : * # S Z Y p M                                                             ",
"                                                                                  7                                                                   "
};
