/* XPM */
static char *result[] = {
/* columns rows colors chars-per-pixel */
"75 75 4 1 ",
"  c #007808",
". c #4CAF50",
"X c #57CF5F",
"o c #8AFF92",
/* pixels */
"...........................................................................",
"...........................................................................",
"............oo.............................................................",
"........... ...............................................................",
"........... ...............................................................",
"...........................................................................",
".............................................................oXXXX.........",
".............................................................oXXXX.........",
"..........................................oo.........oo....ooXXX...........",
"......................................... ...........XXo...XXX  ...........",
"......................................... ...........XXo...XXX  ...........",
".....................................................XXXXX.  XXXXXXoo......",
".....................................................  X  .XXXXXXXX  ......",
".....................................................  X  .XXXXXXXX  ......",
"..............oo...........................................   .............",
"..............oo...........................................   .............",
"......oooXXX..XXX  ........................................................",
".....   .XXXXX..X..XXX ....................................................",
".....   .XXXXX..X..XXX ....................................................",
"......XXX..XXX...XXX..XXXXXX...............................................",
"........XXX......XX.XXXXXXXX...............................................",
"........XXX......XX.XXXXXXXX...............................................",
"...................XXXXXX   ...............................................",
"...................XXXX    ................................................",
"...................XXXX    ................................................",
"...................XXX.....................................................",
"...................XXX.....................................................",
"...........................................................................",
"...........................................................................",
"...........................................................................",
"....................................................o......................",
"........o......................................o..XXo...oo.................",
"........o......................................o..XXo...oo.................",
".........  ....................................oXXXXX..XXX.................",
"............................................   XXXXXXXXX...................",
"............................................   XXXXXXXXX...................",
"..........................................ooX  XXX  XXX XXo................",
"............................................XXX XX  X  XXX.................",
"............................................XXX XX  X  XXX.................",
".............................................XXX       X...................",
".............................................XXX       X...................",
"...............................................   .........................",
"...........................................................................",
"...........................................................................",
"...........................................................................",
"...........................................................................",
"...........................................................................",
".........................................o.................................",
"..........................................  ...............................",
"..........................................  ...............................",
".................ooX.....ooX...............................................",
".................ooX.....ooX...............................................",
"...................Xoo.ooXX................................................",
"................oXX XXXXX  Xoo.............................oo..............",
"................oXX XXXXX  Xoo.............................oo..............",
".................XXX  X  XXX..............................XXX..............",
".................  X       ...............................X..XXX...........",
".................  X       ...............................X..XXX...........",
"....................   .............................ooo....XXXXX...........",
".....................................................ooX..XXX   ...........",
".....................................................ooX..XXX   ...........",
".......................................................X..X   .............",
"...........................................................................",
"...........................................................................",
"...........................................................................",
"...........................................................................",
"...........................................................................",
".....o.....................................................................",
".....o.....................................................................",
"...  ........................................oo............................",
"............................................... ...........................",
"............................................... ...........................",
"...........................................................................",
"...........................................................................",
"..........................................................................."
};
