/* XPM */
static char *result[] = {
/* columns rows colors chars-per-pixel */
"75 75 41 1 ",
"  c #07161F",
". c #09151F",
"X c #04181D",
"o c #09181E",
"O c #051624",
"+ c #0A1521",
"@ c #041824",
"# c #0A1924",
"$ c #041629",
"% c #0E1728",
"& c #0B1C2A",
"* c #0F212D",
"= c #0D2233",
"- c #0F2A3E",
"; c #142535",
": c #1A2737",
"> c #152836",
", c #15273A",
"< c #122A3D",
"1 c #0E2A41",
"2 c #0F2A48",
"3 c #122B42",
"4 c #153046",
"5 c #183044",
"6 c #1B354B",
"7 c #1E3A4E",
"8 c #1D3750",
"9 c #1D3A53",
"0 c #1E3A58",
"q c #253746",
"w c #243847",
"e c #24374B",
"r c #203A4F",
"t c #243751",
"y c #213A51",
"u c #315068",
"i c #3D5C75",
"p c #3C5D7A",
"a c #465B6A",
"s c #415B74",
"d c #405B79",
/* pixels */
"+<--O.-<--<--O+<---------<-1O3<rrr9pp$.-rrryrrrrrpptO--6yrrr7ppp+--1-- -<<-",
"+ OOO+.+.+O+...O&@O@+.++OO$O .O9rre9pO,<rrr7rrrrrr9dOO-6rrrryrpp+OO+@+.+OOO",
"ppppippp7ypppppp9rppppepppyyO+.-r7rppO--rrrrrrrrryypO+-rrrrr97ppdpppy9pppp9",
"pppp=ippp9ppppppppppppppppppO.--rryppO--rrrrrr7yrrrpO--7yrrr7ipp=ippiyppppp",
"97pp$-9y9p7rrr79999rr9p9y9ppO,-7r9ippOO1<79rrrrrrrpp@OO3rrrr7p99&<rryp9r7rp",
"79pp@-<ryryrrrrrrr9ryr7r7yypO<-rryyipO. -rrrrrrrrrppOO<-rrrrrppy+-<yr7yrrrr",
"ripp*<<9yrrrrrrr7rrr73rrr9rp 1-rrry7pOO<7rrry7rrrrypO--rrrrrripp=1-7<9rrr7r",
"O11p%O-------3O----3O<---<31 O-3<-<32O--rrrrrrrrrr7p#--r7rrrr9pp#<<--<---,-",
". <-+..>-.,O....---O..---+,1O..<-+o<<O<-yrrrrrr7rr7pO--ryrrrryppO.<, .--oo-",
".+..o..o...+... ......  .  .+...o+....--rry7rrrrrrppO+-rrrrrrrpp.+.....o..@",
".ipppppie..,,<............+......,99p@O--7rr9-r7-7pp#+-7rrr97ip9=ppp7pppppr",
".<yp9ryppr.i9<--.r++<-........+. -7r6O.-ryr-<---<67pO.----r<7ip9<-7ipp9yipp",
".-rypr7ippsprrrr9rrO-<-7r-  o+....31y$<3,---- 1<-<<1O,-<--,--,-d=<7rpyrrrip",
"o,r7rrrrppp9rrrr<<re-rrrrr7rr+....O$&+@O+o.OO+OO+.OO+.OOOO .@@@@ --rryrrypy",
"o,-yrrr7ppprrrrrrrrr9-rrrry7y7...ppppppppppipp7r7ppp9ppppppy97+#. .rrrrryp9",
".--rrr97pppp7rrrrrrry.rrrrrrr7...-pppppppppppppppppppppppppprpp++,3wrrrrrpp",
".--7rrysppp979rrrry@ew<r@<7rrr<+.-3r9p99yp.9y9799p9977r99ppp99pp&@#rrrrrr9p",
" ;--rrr9ppi7rrrrrr7e9r-r7r7ry7r.+--r7yyry7<ryr7r97r7ryryr9py7rpp=-+y.yrrrrp",
"..--rrrrppipry7rryryrrr7rry-rry.. -r7r7rrreyrrryyrrrrrrrrrrrr9pp44.@..ry79p",
".;--r7<rppsp9yryriyip7yris9yrr<$..-rryyrrpO-rrrrrrr77rrrrrrrypp9w-;>..wy7pp",
".1------1pd9ryypppp9ppppipppppp@..-9rrrrri<9<yrrrrrrrrrrrr7rrdpye---- errpp",
"++oo31@11<ipppppp997pppprpyppppp..-rrrrri+7rr.rrrryyrrrrrrrrrrpye----,erppy",
".iiiiisiXiirryipiiiaidpppdpppiii.--<r7rrrrrrryrrrryi6yr-7yrrrr9p4<---,er9pi",
"oi9ypp7s.1pppippppp=pp9rpy7p9pyp.----rrrrrrrrrrr7ry64-ryrrrrrr9p1-----&r9ip",
".<77rrrp+<6pppyripr,-9rrr7yrrrrp..<37rrr7yrrrrrrrrrryy1erryrrrrpy-----Or9pp",
".-<-r-yp++<7yyrr7irO--rrr<-rrrri.<<-9rr-------7yr3--yp.-3<7---1p6-----O.@pp",
"+,--<--p..,7rr7r7pr.<--<----<--i+ -------.----------r.---<---<3per----< .+p",
".+--+-O1.+-ryrrr7pp.11 .1<11..@-..11 .1- . ,-1O+11 -r+-11X+.1$3+qty7--7--oX",
"iyeepiii.orrrrrrippapieqeiieaiiyqiiisOsiiidwedipidwwesiiipOidiiwsisssi5ipir",
"piypppyp+<17rrrrip9=pip9pppp=ppppppppO1ppppppppyyppyipppppO1ppppppyippppppp",
"7ppp9yrp.---r7rr9py,-pppp6pp=-rdpprrp@-17rpppp9yrdpppppeppO--9pipy7rppirrip",
"ry9y777p.O---rr-rppO-389yypp%-<y9y79pOO<yrryryrrry99yyyspp@.@779yrr7e79rrrr",
"ry797y7p..<----<<-i.--ryypi9X -rrr7ypO.+<yr7r77yrrrryrripp@.-7rrrrrrrrrrrr7",
"7rrerrp9...<--..;11.O-rrrpp7.-rrrr9pp@ --rrrryrrrrrrrrr7ppO.-7rr77rryryrrrr",
"rrr-rr9i.,iiisddywiX<-rrr9pp.-yrr-ip9O.-ryr3rrrrrry7rrrrpi@--rrr4-7y77rrrrr",
"-r---ryp.-7pr9rrppp,-r7rrrypX,77<9ipp@ -rrr7-rrrrrrr7rry9p@<-rr---<-<y---ry",
"-<-+,<-i..rr7--ryyp,-ryrrrrp*-9OrrrppO.-7rrrp-77rrrrrrrr7p@+----O-<<-1-<---",
"O.+ .OOO..OO@@OO@@O+-rrrrspp&<peryryp#.O3r-re9iO6yrrrr7yppO +OO$...++OO+++@",
"py7ppp....+....+....-rrrrpp7..o<<78ppO.+3---9r<+-rrrr<---pOppppprr9pppppppp",
"pypppp+2-.....-o....--rrrippX--7y-eipO..------@.X---------O1ppppppypppppppp",
"0p97pp.p7rrwwyrrr ..--<--13po$<<<3<41O++O@@.+oo..@ O@...O@+--y898pi99r7rr9p",
"8yrrip.prrrrrrrr-3....@O..-1...-- >-<&++... ............  ..-yrr7ry7rrrrrr7",
"errrpp.dp77--r7r, ......+....o......++p<<+..oo.o......o+  ...rrrrr79rrrrrrr",
"8yrype,sp7rrrryre@.@pppppippppidppppsypi6rr7rw3ew9rry>,w,+...rrrrryerrrrrr7",
"-ryyp7-irrrr77rr<<...rrpipp97ppprrppp9peryrrrrrr7--ry7rr6...--yr--8-<97rrrr",
"--<6ip-pr9rpppp99<..o7r97dyrrrpryrrpp$ppr7rrrryrrr--rrrrr-..----------<7rr-",
".OOO-$-p9866yp9ppps...rrryrrrrrrr7rrp9pppdipidppidiyriiiipO-,@OO OOX@---<O@",
"+.O+.++..+3--.<1&<O...rrrrrrrrrrrrrrp@9Oqryr@++++.....oqyy.  .O+++ .. +.+..",
"pyyppppypp@ppp7yppp ..rrrrrryrrrrrr7p#pppppryyOpppppyyypppppry.pipp9rrppppp",
"ppp8yypp0pO<1ppp9i9,..r7rrrr7rrrrrrppO11ppppipO-19ypdpp090ppiy.3yr9ipp0y79p",
"epy7rr99ypO-<ryy9pr-..erryrrrrrr7reppO--yrpipp$--ryyppyryrrrpp.<7rrpprrrrr7",
"8rrrrry7yp$33ryyipy--.&rt7rrrrrryr8pyO--rrrrypO -rrrrrrryrrrpp+-rrryyrrrrr7",
"---9r--y7p@--y7r9pp=--&* OO77rryrrrpp @-rrrr9pO.@rrrrr7rrrrr7po.,-77r9--rry",
"O----<--<-O -<r-<-pq--<--@..yrrrrrrrpO --rrr6p$+orrryrryrr7r7p..>---<<1----",
". -<3..,-1+o+,<3.<3w--1---..errrrrrrpO.--rrrppO.-rrr7rrrrrrrri.....,--O-4@.",
".............o+o.. w9---, .eyrrrrr7ipO.>-rrrppO---y7rrrrrrrr9i... ...o..X..",
"+++o.+.............w7----Orr7reyrrrppO.-rrrr7pO1<7rrrrrrrrrrp9Xp++Xo+.o...+",
"<@.+Or----@.+O--@..e----- rrrr98ryipyO<-rrr77pO--rrrrrry7y7pp9rp1<++..q<<.@",
"yrrwyyrr7ryrwy7r$.or-----,O7r@OOOO99pO--rrryiiOO-9rrr77rrrry9prppyr<,rrrr-;",
"rrrrrrrryrrryrrrO..w7----&.-@.--+ +.+O--7rr7ipO+<rrrryrrrrrryp77ppr7rrrr777",
"r9rryrr--rrrrryrO+.w7y-<-O-.>----<3+..<-rrrrrpO.--rryrrrrrrrrpyrdpyrrrr7err",
"r$rrrr-7rryrrrr7O..&,--> :.. iiiieewsO+OrrrrrpOO+-yrr7-rry7rp9Oyp7yyrry3-7r",
"rr.rr-7rrr7ryrrrO+.s--y--r-O.1pppp9iiOO.-yr7ppO+-r7-9-7rrrrrp9 i977@rrrrrrr",
"r77,r-ryrrrrrrrrr..ip7y7rr7,.<36pppppO.--rrippO<-yr1Oeyrrrry79 p9-rerrrrrrr",
"ipdiupdiip9r9iyyr+Xiprrrrrr-#@-779ypp@-<---5-p@---4pe5--y73-9pwpps7ppi999ii",
"p9pppppppppppppppi+ipp9rp0rp*XXrrryypOO--<1O-3O.--p.-- ---<--p7rppr9ppipppp",
"yrrpryyryr9pp9rypy<rpppppppp$.oyrrryp#.+,<<+.....,p+-+ ,<<O+-1r90prr7pppp9e",
"ewdpp+.sirreidipyspddeesiiisX.>yrrrrp@iseiieewppiyeeOii7rwewdiiwaidi99sidpp",
"rdppp+#ppp9pppppppppppppppppO.--rr7pp@-pippp7ppppppyO-pppydipppr<pppppppppp",
"ppprp++rrppppr7pppp7pppp7rrpO<--rr9pp@--67ppppyr7ippO.1yppprrypr>3ripppppp9",
"09ryp+<<yryrrrry99rrrrrrrr9pO---yrppp@X,3rr99yyrr9pp@.-y797ryyppo+-r9999yrr",
"yyryp.O-7ryrrrrryyrrrrrrrr7pO---779ppO..<9rr97rrrrppO.-77rrr7ippo+-rr977rrr",
"yrrpp+.>r97rry7rrryr7yrrrrpp@ -7ryr7p@..rrr7rr7rrrppO++rryrrrpyyo--rrrrrrr7",
"6yipp+.,-errrrrrrr7rrrrrrrpi@ -rrrrii@,-yrrrrrryrrrpO:>-rrr7rppp=<-rrrrrrrr",
"y7ppp+.--yrrrrr7rrrrrrrrrpp7O.-rrr7p7O--rrrrryrrryppO.-rrrrry9ppO--rrrrrryr"
};
