/* XPM */
static char *result[] = {
/* columns rows colors chars-per-pixel */
"75 75 22 1 ",
"  c #301C19",
". c #4B2F25",
"X c #633724",
"o c #673D31",
"O c #5A440D",
"+ c #524238",
"@ c #53535A",
"# c #766A55",
"$ c #8B6B1C",
"% c #8F4F34",
"& c #4CB528",
"* c #BC8356",
"= c #AB9A6E",
"- c #F1C146",
"; c #007DFF",
": c #8A8A8F",
"> c #B6B6B6",
", c #C8BCB4",
"< c #EFC193",
"1 c #DBDBE2",
"2 c #F1F1F1",
"3 c None",
/* pixels */
"333333333333333333333333333333333333333333333333333333332333333333333333333",
"333333333333333333333333333333333333333333333333333333332233333333333333333",
"333333333333333333333333333333333333333333333333333333333223333333333333333",
"333333333333333333333333333333333333333333333333333333333222233333333333333",
"333333333333333333333333333333333333333333333333333333333332222333333333333",
"333333333333333333333333333333333333333333333333333333333332222333333333333",
"333333333333333333333333333333333333333333333333333333333333222233333333333",
"333333333333333333333333333333333333333333333333333333333333222223333333333",
"333333333333333333333333333333333333333333333333333333333333222223333333333",
"333333333333333333333333333333333333333333333333333333333333322222233333333",
"333333333333333333333333333333333333333333333333333333333333322222233333333",
"333333333333333333333333333333333333333333333333333333333333322222223333333",
"333333333333333333333333333333333333333333333333333333333333322222222333333",
"333333333333333333333333333333333333331111111111:33333333333333222222233333",
"333333333333333333333333333333333333331111111111:33333333333333222222233333",
"3333333333333333333333333333333333333111111111:::33333333333333222222233333",
"333333333333333333333333333333333331111111111:::111133333333333222222223333",
"3333333333333333333333333333333333>11111111>>111111113333333333322222223333",
"3333333333333333333333333333333333>11111111>>111111113333333333322222223333",
"333333333333333333333333333333333@>>>>111111111111>>::333333333322222222233",
"333333333333333333333333333333333@@>>>>>>11111111111>:333333333322222222333",
"333333333333333333333333333333333@@>>>>>>11111111111>:333333333322222222323",
"3333333333333333333333333333333333@>>>>>>>11111111111:333333333322222222323",
"3333333333333333333333333333333333@>>>>:::<<<<<<11111:333333333332222222323",
"333333333333333333333333333333333 :::<:::*XXX<<<X:@@@@333333333332222222223",
"333333333333333333333333333333333 :::<:::*XXX<<<X:@@@@333333333332222222223",
"333333333333333333333333333333333 :  ::::<1XX<<<1@@@33333333333332222222223",
"333333333333333333333333333333333      <<<1&&<<<1@3333333333333332222222223",
"33333333333333333333333333333333333    **<<<<<<<<@3333333333333332222222223",
"33333333333333333333333333333333333    **<<<<<<<<@3333333333333332222222223",
"3333333333333333333333333333333333333 XXX*<<<<<<333333333333333332222222222",
"3333333333333333333333333333333###++++   ****X33333333333333333332222222223",
"3333333333333333333333333333333###++++   ****X33333333333333333332222222223",
"333333333333333333333333333####==========<<<<=++333333333333333332222222223",
"33333333333333333333333333$$$$=##=========<<<<==+33333333333333332222222223",
"3333333333333333333%%%%%%%--$$===#===+=====###===+3333333333333332222222223",
"3333333333333333333%%%%%%%--$$===#===+=====###===+3333333333333332222222223",
"3333333333333333333%<<<<<<<-$$<===###+===========+3333333333333322222222223",
"333333333333333$$$$$<<<<<<<$***%%%#   #==========+3333333333333322222222223",
"333333333333333$---$OOO<<<%%%%33333    ##========+3333333333333322222222223",
"333333333333333$---$OOO<<<%%%%33333    ##========+3333333333333322222222223",
"333333333333333$$---$$OO<<333333333    +++####  +33333333333333222222222223",
"33333333333333332$$;;;$O%%333333333    ++#####  333333333333333222222222233",
"3333333333333332222;;;-$$$33333333333..ooo,,,o  333333333333333222222222223",
"3333333333333332222;;;-$$$33333333333..ooo,,,o  333333333333333222222222233",
"3333333333333222222222--$$33333333333..ooo,ooo  333333333333322222222222233",
"3333333333332222222222$-$$333333333  ..ooo,,,o++ 33333333333322222222222223",
"3333333333332222222222$-$$333333333  ..ooo,,,o++ 33333333333322222222222233",
"3333333333322222222222$$$$333333333  ++#########+ 3333333333222222222222233",
"3333333332222222222222233333333333    +#########+   33333333222222222222233",
"3333333322222222222222223333333333 oo  #########     3333332222222222222233",
"3333333322222222222222223333333333 oo  #########     3333332222222222222233",
"333333222222222222222222223333333 ooo  ###+++    .... 333222222222222222333",
"3333332222222222222222222223333  ooooo           .....  2222222222222222333",
"3333322222222222222222222222223  ooooo 333333   ......222222222222222222333",
"3333222222222222222222222222223  ooooo 333333   ......222222222222222223333",
"3333222222222222222222222222222oooooo 3333333333  ..22222222222222222233333",
"3233222222222222222222222222222222o  33333333333322222222222222222222233333",
"3333222222222222222222222222222222o  33333333333322222222222222222322333333",
"333222222222222222222222222222222222223333333222222222222222222222333333333",
"333222222222222222222222222222222222222222222222222222222222222222333333333",
"333222222222222222222222222222222222222222222222222222222222222223333333333",
"333322222222222222222222222222222222222222222222222222222222222233333333333",
"333322222222222222222222222222222222222222222222222222222222222333333333333",
"333322222222222222222222222222222222222222222222222222222222223333333333333",
"333332222222222222222222222222222222222222222222222222222222233333333333333",
"333332222222222222222222222222222222222222222222222222222222233333333333333",
"333333222222222222222222222222222222222222222222222222222222333333333333333",
"333333322222222222222222222222222222222222222222222222222223333333333333333",
"333333332222222222222222222222222222222222222222222222222233333333333333333",
"333333323222222222222222222222222222222222222222222222223233333333333333333",
"333333333222222222222222222222222222222222222222222222333333333333333333333",
"333333333333332222222222222222222222222222222222233233323333333333333333333",
"333333333333333333222222222222222222222222222333333333333333333333333333333",
"233333333333333333333333322222222233333333333333333333333333233333333333333"
};
