/* XPM */
static char *result[] = {
/* columns rows colors chars-per-pixel */
"75 75 21 1 ",
"  c #301C19",
". c #34343A",
"X c #4B2F25",
"o c #633724",
"O c #673D31",
"+ c #524238",
"@ c #53535A",
"# c #766A55",
"$ c #8B6B1C",
"% c #9C604C",
"& c #4CB528",
"* c #BC8356",
"= c #AB9A6E",
"- c #F1C146",
"; c #8A8A8F",
": c #B6B6B6",
"> c #C8BCB4",
", c #EFC193",
"< c #DBDBE2",
"1 c #F1F1F1",
"2 c None",
/* pixels */
"222222222222222222222222222222222222222222222222222222222222222222222222222",
"222222222222222222222222222222222222222222222222222222222222222222222222222",
"222222222222222222222222222222222222222222222222222222222222222222222222222",
"222222222222222222222222222222222222222222222222222222222222222222222222222",
"2222222222222222@...........22222222222222222222222222222222222222222222222",
"2222222222222222@...........22222222222222222222222222222222222222222222222",
"22222222222222@@11;;;;;@@@@@.........2222<<<<<<<<<<;22222222222222222222222",
"22222222222222@@@1111111@@@@@@@@@@@@@.2<<<<<<<<<<;;;22222222222222222222222",
"22222222222222@@@1111111@@@@@@@@@@@@@.2<<<<<<<<<<;;;22222222222222222222222",
"2222222222222222@@111111111:@@@@@@@@@@<<<<<<<<<<;;;<<<<22222222222222222222",
"222222222222222222@@@@@@111:::::::::::<<<<<<<<::<<<<<<<<2222222222222222222",
"222222222222222222222222@@@@@@:::::::::::<<<<<<<<<<<<::;;;22222222222222222",
"222222222222222222222222@@@@@@:::::::::::<<<<<<<<<<<<::;;;22222222222222222",
"222222222222222222222222222222@@@@@@@@::::::<<<<<<<<<<<:;;22222222222222222",
"2222222222222222222222222222222222222@::::;;;,,,,,,<<<<<;; 2222222222222222",
"2222222222222222222222222222222222222@::::;;;,,,,,,<<<<<;; 2222222222222222",
"22222222222222222222222222222222222  ;;,,;;;,,,,,,,,;@@<;; $$$2222222222222",
"22222222222222222222222222222222222  ;;,,;;;*,ooo,,,;@@@@@ -$$2222222222222",
"22222222222222222222222222222222222  ; ;;;;;,,<<o,,,@@@,,, ---$222222222222",
"22222222222222222222222222222222222  ; ;;;;;,,<<o,,,@@@,,, ---$222222222222",
"22222222222222222222222222222222222       ,,,,<<&,,,@,,,,, $$$2222222222222",
"22222222222222222222222222222222222222    **,,,,,,,,@  ,,, 2222222222222222",
"22222222222222222222222222222222222222    **,,,,,,,,@  ,,, 2222222222222222",
"222222222222222222222222222222222222222  ooo*,,,,,,        2222222222222222",
"222222222222222222222222222222222222222   oo**oo   #===    2222222222222222",
"22222222222222222222222222222222222222222       ====#===++22222222222222222",
"22222222222222222222222222222222222222222       ====#===++22222222222222222",
"222222222222222222222222222222222222222  #===========##=++22222222222222222",
"22222222222222222222222222222222222222 ##===========++++++22222222222222222",
"22222222222222222222222222222222222222 ##===========++++++22222222222222222",
"2222222222222222222222222222222222222  =========#===+2222222222222222222222",
"22222222222222222222222222222222222    =========###+22222222222222222222222",
"2222222222222222222222222222222222     =======#####+22222222222222222222222",
"2222222222222222222222222222222222     =======#####+22222222222222222222222",
"22222222222222222222222222222222       ======######+22222222222222222222222",
"22222222222222222222222222222222       ++===#####++222222222222222222222222",
"22222222222222222222222222222222       ++===#####++222222222222222222222222",
"2222222222222222222222222222222      22  +++#### 22222222222222222222222222",
"2222222222222222222222222222222    2222  +++#### 22222222222222222222222222",
"2222222222222222222222222222222      22XXXOOOO>>>  222222222222222222222222",
"2222222222222222222222222222222      22XXXOOOO>>>  222222222222222222222222",
"2222222222222222222222222222222      22XXXOOOO>>O  222222222222222222222222",
"2222222222222222222222222222222   2  2 XXXOOOO>>>  222222222222222222222222",
"2222222222222222222222222222222   2  2 XXXOOOO>>>  222222222222222222222222",
"22222222222222222222222222222222222222 +++######### 22222222222222222222222",
"2222222222222222222222222222222222222  +++########## 2222222222222222222222",
"2222222222222222222222222222222222222 ++++########## 2222222222222222222222",
"2222222222222222222222222222222222222 ++++########## 2222222222222222222222",
"22222222222222222222222222222222222   ++++#######++XX  22222222222222222222",
"22222222222222222222222222222222222    +++###+++ XXXX   2222222222222222222",
"22222222222222222222222222222222222    +++###+++ XXXX   2222222222222222222",
"2222222222222222222222222222222222 XXO       2   XXXXXX 2222222222222222222",
"22222222222222222222222222222222  OOOOO   222222   XXXXX  22222222222222222",
"2222222222222222222222222222222 OOOOOOO  22222222   XXXXXX 2222222222222222",
"2222222222222222222222222222222 OOOOOOO  22222222   XXXXXX 2222222222222222",
"222222222222222222222222222222 OOOOOOO 222222222222 XXXXXX 2222222222222222",
"2222222222222222222222222222  XOOOOOO 22222222222222 XXXXX 2222222222222222",
"2222222222222222222222222222  XOOOOOO 22222222222222 XXXXX 2222222222222222",
"2222222222222222222222222222  OOOOO  222222222222222 XXXXX 2222222222222222",
"222222222222222222222222222 XXOOOO 222222222222222222  XXX 2222222222222222",
"222222222222222222222222222 OOOOXX 222222222222222222  XXXX2222222222222222",
"222222222222222222222222222 OOOOXX 222222222222222222  XXXX2222222222222222",
"2222222222222222222222222  XOOOO  2222222222222222222  XXXX2222222222222222",
"2222222222222222222222222  OOOO 222222222222222222222  XXXX2222222222222222",
"2222222222222222222222222  OOOO 222222222222222222222  XXXX2222222222222222",
"222222222222222222222222 OOOOO 2222222222222222222222  XXX22222222222222222",
"22222222222222222222222  OOO  22222222222222222222222  XXX22222222222222222",
"22222222222222222222222 %%%O  22222222222222222222222  XXX 2222222222222222",
"22222222222222222222222 %%%O  22222222222222222222222  XXX 2222222222222222",
"222222222222222222222  %%%%%OO22222222222222222222222OOOOOO 222222222222222",
"22222222222222222222 %%%%%%%OO22222222222222222222222OOOOOOO  2222222222222",
"22222222222222222222 %%%%%%%OO22222222222222222222222OOOOOOO  2222222222222",
"222222222222222222222222222222222222222222222222222222222222222222222222222",
"222222222222222222222222222222222222222222222222222222222222222222222222222",
"222222222222222222222222222222222222222222222222222222222222222222222222222"
};
