/* XPM */
static char *result[] = {
/* columns rows colors chars-per-pixel */
"75 75 22 1 ",
"  c #301C19",
". c #4B2F25",
"X c #633724",
"o c #673D31",
"O c #5A440D",
"+ c #524238",
"@ c #53535A",
"# c #766A55",
"$ c #8B6B1C",
"% c #8F4F34",
"& c #4CB528",
"* c #BC8356",
"= c #AB9A6E",
"- c #F1C146",
"; c #007DFF",
": c #8A8A8F",
"> c #B6B6B6",
", c #C8BCB4",
"< c #EFC193",
"1 c #DBDBE2",
"2 c #F1F1F1",
"3 c None",
/* pixels */
"333333333333333333333333333333333333333333333333333333333333333333333333333",
"333333333333333333333333333333333333333333333333333333333333333333333333333",
"333333333333333333333333333333333333333333333333333333333333333333333333333",
"333333333333333333333333333333333333333333333333333333333333333333333333333",
"333333333333333333333333333333333333333333333333333333333333333333333333333",
"333333333333333333333333333333333333333333333333333333333333333333333333333",
"333333333333333333333333333333333333333333333333333333333333333333333333333",
"333333333333333333333333333333333333333333333333333333333333333333333333333",
"333333333333333333333333333333333333333333333333333333333333333333333333333",
"333333333333333333333333333333333333333333333333333333333333333333333333333",
"333333333333333333333333333333333333333331111111111:33333333333333333333333",
"333333333333333333333333333333333333333331111111111:33333333333333333333333",
"3333333333333333333333333333333333333333111111111:::33333333333333333333333",
"333333333333333333333333333333333333331111111111:::111133333333333333333333",
"3333333333333333333333333333333333333>111111111>111111113333333333333333333",
"3333333333333333333333333333333333333>111111111>111111113333333333333333333",
"33333333333333333333333333333333333@@>>>>1111111111111>:::33333333333333333",
"33333333333333333333333333333333333@@@>>>>>>11111111111>::33333333333333333",
"33333333333333333333333333333333333@@@>>>>>>11111111111>::33333333333333333",
"3333333333333333333333333333333333333@>>>>>>>11111111111::33333333333333333",
"3333333333333333333333333333333333333@>>>>:::<<<<<<11111::33333333333333333",
"33333333333333333333333333333333333  :::<:::*<<<<<<<::@@@@33333333333333333",
"33333333333333333333333333333333333  :::<:::*<<<<<<<::@@@@33333333333333333",
"33333333333333333333333333333333333  :  ::::<XXX<<<X@@@33333333333333333333",
"33333333333333333333333333333333333  :  ::::<11X<<<1@@@33333333333333333333",
"33333333333333333333333333333333333       <<<11&<<<1@@333333333333333333333",
"33333333333333333333333333333333333       <<<11&<<<1@@333333333333333333333",
"33333333333333333333333333333333333333    **<<<<<<<<@@333333333333333333333",
"3333333333333333333333333333333333333333 XXX*<<<<<<333333333333333333333333",
"3333333333333333333333333333333333333333 XXX*<<<<<<333333333333333333333333",
"3333333333333333333333333333333333###++++   ****X33333333333333333333333333",
"333333333333333333333333333333####==========<<<<=++333333333333333333333333",
"3333333333333333333333333333%%%===#==========<<<<==+33333333333333333333333",
"3333333333333333333333333333%%%===#==========<<<<==+33333333333333333333333",
"3333333333333333333333%%%%%%<<<<<==##===+======##===++333333333333333333333",
"3333333333333333333$$$%<<<<<$$$<<<===###+===========++333333333333333333333",
"3333333333333333333$$$%<<<<<$$$<<<===###+===========++333333333333333333333",
"3333333333333333333$--$<<<<<---$$*%%%#   #==========++333333333333333333333",
"3333333333333333333$---$<<<<--$%%33333    ##========++333333333333333333333",
"33333333333333333322---O<<<<$$$3333333    +++####  +33333333333333333333333",
"33333333333333333222---O<<<<$$$3333333    +++####  +33333333333333333333333",
"33333333333333222222;;;OOO%%3333333333    ++#####  333333333333333333333333",
"3333333333322222222222;OOO33333333333333..ooo,,,o  333333333333333333333333",
"3333333333222222222222;OOO33333333333333..ooo,,,o  333333333333333333333333",
"33333333322222222222222-$$33333333333333..ooo,,oo  333333333333333333333333",
"33333333222222222222222-$$333333333333  ..ooo,,,o++ 33333333333333333333333",
"333333322222222222222222$$333333333333  ++#########+  333333333333333333333",
"333333222222222222222222$$333333333333  ++#########+  333333333333333333333",
"333332222222222222222222$$33333333333    +#########+   33333333333333333333",
"3333322222222222222222222233333333333 ..  #########     3333333333333333333",
"3333222222222222222222222233333333333 ..  #########     3333333333333333333",
"33332222222222222222222222333333333  ooo  ###+++    ....  33333333333333333",
"3333222222222222222222222223333333 ooooo.           ...... 3333333333333333",
"3333222222222222222222222223333333 oooooo   3333   ........ 333333333333333",
"3333322222222222222222222223333333 oooooo   3333   ........ 333333333333333",
"333332222222222222222222222233333 ooooooo 333333333   ..... 333333333333333",
"3333322222222222222222222222223  .oooooo 3333333333333 .... 333333333333333",
"3333322222222222222222222222222  ooooo  33333333333333 .... 333333333333333",
"3333322222222222222222222222222  ooooo  33333333333333 .... 333333333333333",
"3333332222222222222222222222222222ooo 3333333333333333 .... 333333333333333",
"333333322222222222222222222222222222233333333333333333....  333333333333333",
"333333332222222222222222222222222222233333333333333333....  333333333333333",
"333333333222222222222222222222222222223333333333333333.... 3333333333333333",
"333333333332222222222222222222222222222223333333333333.... 3333333333333333",
"333333333333222222222222222222222222222222223333333333..  33333333333333333",
"333333333333332222222222222222222222222222223333333333..  33333333333333333",
"3333333333333332222222222222222222222222222222222333  ..  33333333333333333",
"3333333333333333332222222222222222222222222222222222  ..  33333333333333333",
"3333333333333333333322222222222222222222222222222222  ..  33333333333333333",
"3333333333333333333333332222222222222222222222222333  oooo 3333333333333333",
"3333333333333333333333333333333333333322222223333333  ooooo 333333333333333",
"333333333333333333333333333333333333333333333333333333333333333333333333333",
"333333333333333333333333333333333333333333333333333333333333333333333333333",
"333333333333333333333333333333333333333333333333333333333333333333333333333",
"333333333333333333333333333333333333333333333333333333333333333333333333333"
};
