/* XPM */
static char *result[] = {
/* columns rows colors chars-per-pixel */
"75 75 23 1 ",
"  c #301C19",
". c #34343A",
"X c #4B2F25",
"o c #633724",
"O c #673D31",
"+ c #5A440D",
"@ c #524238",
"# c #53535A",
"$ c #766A55",
"% c #8B6B1C",
"& c #8F4F34",
"* c #4CB528",
"= c #BC8356",
"- c #AB9A6E",
"; c #F1C146",
": c #007DFF",
"> c #8A8A8F",
", c #B6B6B6",
"< c #C8BCB4",
"1 c #EFC193",
"2 c #DBDBE2",
"3 c #F1F1F1",
"4 c None",
/* pixels */
"444444444444444444444444444444444444444444444444444444444444444444444444444",
"444444444444444444444444444444444444444444444444444444444444444444444444444",
"444444444444444444444444444444444444444444444444444444444444444444444444444",
"444444444444444444444444444444444444444444444444444444444444444444444444444",
"444444444444444444444444444444444444444444444444444444444444444444444444444",
"444444444444444444444444444444444444444444444444444444444444444444444444444",
"444444444444444444444444444444444444444444444444444444444444444444444444444",
"444444444444444444444444444444444444444444444444444444444444444444444444444",
"444444444444444444444444444444444444444444444444444444444444444444444444444",
"444444444444444444444444444444444444444444444444444444444444444444444444444",
"444444444444444444444444444444444444444444444444444444444444444444444444444",
"444444444444444444444444444444444444444444444444444444444444444444444444444",
"444444444444444444444444444444444444444444444444444444444444444444444444444",
"4444444444444444444444444444444222222222>4444444444444444444444444444444444",
"44444444444444444444444444444422222222>>>2244444444444444444444444444444444",
"4444444444444444444444444444222222222>>>22222444444444444444444444444444444",
"4444444444444444444444444444222222222>>>22222444444444444444444444444444444",
"444444444444444444444444444,22222222,22222222444444444444444444444444444444",
"44444444444444444444444444#,,,,22222222222,22>44444444444444444444444444444",
"44444444444444444444444444##,,,,,2222222222,,>44444444444444444444444444444",
"444444444444444444444444444#,,,,,,,2222222222>44444444444444444444444444444",
"444444444444444444444444444#,,,,,,,2222222222>44444444444444444444444444444",
"444444444444444444444444444#,,,,>>>1121122222>44444444444444444444444444444",
"44444444444444444444444444 >>>1>>11111111>#22>44444444444444444444444444444",
"44444444444444444444444444 >>>1>>==oo111o>####44444444444444444444444444444",
"44444444444444444444444444 >  >>>112*111*##44444444444444444444444444444444",
"44444444444444444444444444 >  >>>112*111*##44444444444444444444444444444444",
"44444444444444444444444444      111211111#444444444444444444444444444444444",
"4444444444444444444444444444    =11111111#444444444444444444444444444444444",
"444444444444444444444444444444 oo==1111144444444444444444444444444444444444",
"4444444444444444444444444444444  ====o4444444444444444444444444444444444444",
"4444444444444444444444444444444  ====o4444444444444444444444444444444444444",
"444444444444444444444444444444  -1111-@@44444444444444444444444444444444444",
"4444444444444444444444444444@@-----111--@4444444444444444444444444444444444",
"444444444444444444444444444@--------$$---@444444444444444444444444444444444",
"4444444444444444444444444$$--------------@ 44444444444444444444444444444444",
"4444444444444444444444444$$--------------@ 44444444444444444444444444444444",
"44444444444444444444444$$--$$$-$---------@ 44444444444444444444444444444444",
"44444444444444444444444$$$--$$$ $--------@   444444444444444444444444444444",
"4444444444444444444444&==11---@  $$------     44444444444444444444444444444",
"444444444444444444444&11111&@@   @@@@$$$          4444444444444444444444444",
"444444444444444444444&11111&@@   @@@@$$$          4444444444444444444444444",
"44444444444444444444&=1111=444   @@@$$$$ 4        4444444444444444444444444",
"444444444444444444&&11111=44444XXOOOO<<<O4444     4444444444444444444444444",
"444444444444444444&&111==444444XXOOOO<OOO4444444444444444444444444444444444",
"444444444444444444&&111&&444444XXOOOO<<<O 444444444444444444444444444444444",
"444444444444444444&&111&&444444XXOOOO<<<O 444444444444444444444444444444444",
"44444444444444444444&&&&&444444 @$$$$$$$$ 444444444444444444444444444444444",
"444444444444444444444444444444  @$$$$$$$$ 444444444444444444444444444444444",
"444444444444444444444444444444   $$$$$@@@ 444444444444444444444444444444444",
"444444444444444444444444444444   $$$$$@@@ 444444444444444444444444444444444",
"4444444444444444444444444444  OOOXX       444444444444444444444444444444444",
"4444444444444444444444444444XXOOOXX  XXXX 444444444444444444444444444444444",
"4444444444444444444444444444XXOOOXX4 XXXX 444444444444444444444444444444444",
"4444444444444444444444444444XXOOO  4 XXXX 444444444444444444444444444444444",
"4444444444444444444444444444XXOOO  4 XXXX 444444444444444444444444444444444",
"444444444444444444444444444 XXOOO  4 XXX 4444444444444444444444444444444444",
"444444444444444444444444444 OOOOOXX XXXX 4444444444444444444444444444444444",
"44444444444444444444%%4444X OOOOX44 XXXX 4444444444444444444444444444444444",
"444444444444444444%%;;%444XOOOOX444XXX  44444444444444444444444444444444444",
"444444444444444444%%;;%444XOOOOX444XXX  44444444444444444444444444444444444",
"444444444444444444%%;%.........###########>>>>>>>##444444444444444444444444",
"444444444444%%%%%+++;%.>>>>>>>>>>,,,,,,,,333333333##44444444444444444444444",
"44444444444%;;;;;+%%::>>>>>,,,,,,,,,,,,,,3333333333#44444444444444444444444",
"4444444444%%;;;;;+%%::########################>>>>.#44444444444444444444444",
"4444444444%%;;;;;+%%::########################>>>>.#44444444444444444444444",
"44444444444%%%%%%+++;%.#######################>>>..444444444444444444444444",
"444444444444444444%%;%............................4444444444444444444444444",
"444444444444444444%%;;%4444444444444444444444444444444444444444444444444444",
"44444444444444444444%%44444444444444444444444444444444444444444444444444444",
"44444444444444444444%%44444444444444444444444444444444444444444444444444444",
"444444444444444444444444444444444444444444444444444444444444444444444444444",
"444444444444444444444444444444444444444444444444444444444444444444444444444",
"444444444444444444444444444444444444444444444444444444444444444444444444444",
"444444444444444444444444444444444444444444444444444444444444444444444444444"
};
