/* XPM */
static char *result[] = {
/* columns rows colors chars-per-pixel */
"75 75 21 1 ",
"  c #301C19",
". c #34343A",
"X c #4B2F25",
"o c #633724",
"O c #673D31",
"+ c #5A440D",
"@ c #524238",
"# c #53535A",
"$ c #766A55",
"% c #8B6B1C",
"& c #8F4F34",
"* c #BC8356",
"= c #AB9A6E",
"- c #F1C146",
"; c #8A8A8F",
": c #B6B6B6",
"> c #C8BCB4",
", c #EFC193",
"< c #DBDBE2",
"1 c #F1F1F1",
"2 c None",
/* pixels */
"222222222222222222222222222222222222222222222222222222222222222222222222222",
"222222222222222222222222222222222222222222222222222222222222222222222222222",
"222222222222222222222222222222222222222222222222222222222222222222222222222",
"222222222222222222222222222222222222222222222222222222222222222222222222222",
"222222222222222222222222222222222222222222222222222222222222222222222222222",
"222222222222222222222222222222222222222222222222222222222222222222222222222",
"222222222222222222222222222222222222222222222222222222222222222222222222222",
"222222222222222222222222222222222222222222222222222222222222222222222222222",
"222222222222222222222222222222222222222222222222222222222222222222222222222",
"222222222222222222222222222222222222222222222222222222222222222222222222222",
"222222222222222222222222222222222222222222222222222222222222222222222222222",
"222222222222222222222222222222222222222222222222222222222222222222222222222",
"222222222222222222222222222222222222222222222222222222222222222222222222222",
"222222222222222222222222222222222222222222222222222222222222222222222222222",
"22222222222222222222222222222222222222<<<<<<<<<;222222222222222222222222222",
"2222222222222222222222222222222222222<<<<<<<<<;;<<<222222222222222222222222",
"2222222222222222222222222222222222222<<<<<<<<<;;<<<222222222222222222222222",
"222222222222222222222222222222222222<<<<<<<<<;;<<<<<22222222222222222222222",
"2222222222222222222222222222222222::<<<<<<<<:<<<<<<<22222222222222222222222",
"222222222222222222222222222222222#::::<<<<<<<<<<<::<;2222222222222222222222",
"222222222222222222222222222222222#::::<<<<<<<<<<<::<;2222222222222222222222",
"222222222222222222222222222222222###:::::<<<<<<<<<<:;2222222222222222222222",
"2222222222222222222222222222222222##::::::<<<<<<<<<<;2222222222222222222222",
"2222222222222222222222222222222222##::::;;,,,<,<<<<<;2222222222222222222222",
"2222222222222222222222222222222222##::::;;,,,<,<<<<<;2222222222222222222222",
"222222222222222222222222222222222 ;;;,;;;,,,,,,,;##<;2222222222222222222222",
"222222222222222222222222222222222 ;;;,;;;*ooo,,o;####2222222222222222222222",
"222222222222222222222222222222222 ;; ;;;;,,,,,,,###222222222222222222222222",
"222222222222222222222222222222222       ,,,,,,,,#22222222222222222222222222",
"222222222222222222222222222222222222    *,,,,,,,#22222222222222222222222222",
"222222222222222222222222222222222222  ooo*,,,,,2222222222222222222222222222",
"222222222222222222222222222222222222  ooo*,,,,,2222222222222222222222222222",
"2222222222222222222222222222222222   $,,,,==@222222222222222222222222222222",
"2222222222222222222222222222222222$$$===,,,,=@22222222222222222222222222222",
"222222222222222222222222222222222@$$=====$$$==@2222222222222222222222222222",
"222222222222222222222222222222222@$$=====$$$==@2222222222222222222222222222",
"22222222222222222222222222222222@===$=========@2222222222222222222222222222",
"222222222222222222222222222222@@$$===$========@2222222222222222222222222222",
"222222222222222222222222222222&&,,,, @@@======22222222222222222222222222222",
"222222222222222222222222222222&&,,,, @@@======22222222222222222222222222222",
"22222222222222222222222222222&**,,** @@@$$$$  22222222222222222222222222222",
"22222222222222222222222222222&,,,,&&XOOOO>>>O 22222222222222222222222222222",
"2222222222222222222222222222&,,,,*XXXOOOO>OOO222222222222222222222222222222",
"2222222222222222222222222222&,,,,*XXXOOOO>OOO222222222222222222222222222222",
"2222222222222222222222222222&,,,,&XXXOOOO>>>O222222222222222222222222222222",
"222222222222222222222222222&,,,,& @@$$$$$$$$$222222222222222222222222222222",
"222222222222222222222222222&,,,,  XX$$$$$$$$$222222222222222222222222222222",
"222222222222222222222222222&&&&&  XXXXXX    2222222222222222222222222222222",
"22222222222222222222222222222222 XOOOOXX XXX2222222222222222222222222222222",
"222222222222222222222222222222  XOOOOX  XXXX2222222222222222222222222222222",
"222222222222222222222222222222  XOOOOX  XXXX2222222222222222222222222222222",
"222222222222222222222222222222  OOOOO   XX  2222222222222222222222222222222",
"2222222222222222222222%%%%%2 XOOOOOO  XXXX222222222222222222222222222222222",
"2222222222222222222222%---........############;;;;;;###22222222222222222222",
"2222222222222222222222%---........############;;;;;;###22222222222222222222",
"22222222222222-------++---.;;;;;;;;;;::::::::11111111###2222222222222222222",
"2222222222222%%%%%%%%+%%%%%#############################2222222222222222222",
"222222222222222222222222222222222222222222222222222222222222222222222222222",
"222222222222222222222222222222222222222222222222222222222222222222222222222",
"222222222222222222222222222222222222222222222222222222222222222222222222222",
"222222222222222222222222222222222222222222222222222222222222222222222222222",
"222222222222222222222222222222222222222222222222222222222222222222222222222",
"222222222222222222222222222222222222222222222222222222222222222222222222222",
"222222222222222222222222222222222222222222222222222222222222222222222222222",
"222222222222222222222222222222222222222222222222222222222222222222222222222",
"222222222222222222222222222222222222222222222222222222222222222222222222222",
"222222222222222222222222222222222222222222222222222222222222222222222222222",
"222222222222222222222222222222222222222222222222222222222222222222222222222",
"222222222222222222222222222222222222222222222222222222222222222222222222222",
"222222222222222222222222222222222222222222222222222222222222222222222222222",
"222222222222222222222222222222222222222222222222222222222222222222222222222",
"222222222222222222222222222222222222222222222222222222222222222222222222222",
"222222222222222222222222222222222222222222222222222222222222222222222222222",
"222222222222222222222222222222222222222222222222222222222222222222222222222",
"222222222222222222222222222222222222222222222222222222222222222222222222222"
};
