/* XPM */
static char *result[] = {
/* columns rows colors chars-per-pixel */
"75 75 25 1 ",
"  c #301C19",
". c #34343A",
"X c #4B2F25",
"o c #633724",
"O c #673D31",
"+ c #5A440D",
"@ c #524238",
"# c #53535A",
"$ c #766A55",
"% c #7F7873",
"& c #8B6B1C",
"* c #8F4F34",
"= c #9C604C",
"- c #4CB528",
"; c #BC8356",
": c #AB9A6E",
"> c #F1C146",
", c #007DFF",
"< c #8A8A8F",
"1 c #B6B6B6",
"2 c #C8BCB4",
"3 c #EFC193",
"4 c #DBDBE2",
"5 c #F1F1F1",
"6 c None",
/* pixels */
"666666666666666666666666666666666666666666666666666666666666666666666666666",
"666666666666666666666666666666666666666666666666666666666666666666666666666",
"666666666666666666666666666666666666666666666666666666666666666666666666666",
"666666666666666666666666666666666666666666666666666666666666666666666666666",
"6666666666666666666666666666666664444444444<6666666666666666666666666666666",
"66666666666666666666666666666664444444444<<<6666666666666666666666666666666",
"6666666666666666666666666666664444444444<<<44446666666666666666666666666666",
"6666666666666666666666666666664444444444<<<44446666666666666666666666666666",
"666666666666666666666666666611444444441144444444666666666666666666666666666",
"666666666666666666666666666#1111144444444444441<<<6666666666666666666666666",
"666666666666666666666666666#1111144444444444441<<<6666666666666666666666666",
"666666666666666666666666666###111111444444444441<<6666666666666666666666666",
"6666666666666666666666666666##111111144444444444<<6666666666666666666666666",
"6666666666666666666666666666##111111144444444444<<6666666666666666666666666",
"6666666666666666666666666666##1111<<<33333344444<<6666666666666666666666666",
"666666666666666666666666666 <<<33<<<33333333<<#4<<6666666666666666666666666",
"666666666666666666666666666 <<<33<<<;ooo333o<<####6666666666666666666666666",
"666666666666666666666666666 <<<33<<<;ooo333o<<####6666666666666666666666666",
"666666666666666666666666666 << <<<<<34oo3334###6666666666666666666666666666",
"666666666666666666666666666       3334--3334##66666666666666666666666666666",
"666666666666666666666666666       3334--3334##66666666666666666666666666666",
"666666666666666666666666666666    ;;33333333##66666666666666666666666666666",
"6666666666666666666666666666666  ooo;33333366666666666666666666666666666666",
"6666666666666666666666666666666  ooo;33333366666666666666666666666666666666",
"6666666666666666666666666666666@@::::;;;;::@6666666666666666666666666666666",
"666666666666666666666666666666@:::::::333;;:@@66666666666666666666666666666",
"666666666666666666666666666666@:::::::333;;:@@66666666666666666666666666666",
"6666666666666666666666666666@@::::::::::$$$:::@6666666666666666666666666666",
"666666666666666666666666666$::::::@@::::::::::@6666666666666666666666666666",
"666666666666666666666666@@@$$$::::@@$:::::::::@6666666666666666666666666666",
"666666666666666666666666@@@$$$::::@@$:::::::::@6666666666666666666666666666",
"666666666666666666666666@@::::$::@   $:::::::: 6666666666666666666666666666",
"666666666666666666666666@@@::::@@    @@@@@@@   6666666666666666666666666666",
"666666666666666666666666@@@::::@@    @@@@@@@   6666666666666666666666666666",
"666666666666666666666666@@;333*66    @@@$$$$    666666666666666666666666666",
"666666666666666666666666**3333*66    @@@$$$$    666666666666666666666666666",
"666666666666666666666666**3333*66    @@@$$$$    666666666666666666666666666",
"666666666666666666666666**33;;*666XXXOOOO222OO    6666666666666666666666666",
"666666666666666666666666**33**6666&&&OOOO22OOO    6666666666666666666666666",
"66666666666666666666666&&&33**666&>>&OOOO222OO@    666666666666666666666666",
"66666666666666666666666&&&33**666&>>&OOOO222OO@    666666666666666666666666",
"666666666666666666666&&>>>33333&&>>>&$$$$$$$$$$    666666666666666666666666",
"66666666666666666666666&>>33333++>>>..$$$$$$$$$    666666666666666666666666",
"66666666666666666666666&>>33333++>>>..$$$$$$$$$    666666666666666666666666",
"66666666666666666666666&&&3333+++,,,<<.....$$$$    666666666666666666666666",
"66666666666666666666666666****+++,,,<<<<<<<.... 666666666666666666666666666",
"66666666666666666666666666****+++,,,<<<<<<<.... 666666666666666666666666666",
"666666666666666666666666666666&>>>&&####<<<<<<<....666666666666666666666666",
"666666666666666666666666666666&>>>&&########<<<<111#####6666666666666666666",
"666666666666666666666666666666&>>&&&....########11111111####666666666666666",
"666666666666666666666666666666&>>&&&....########11111111####666666666666666",
"666666666666666666666666666666&&&&OOO   ....#######<<1111555<<<<66666666666",
"666666666666666666666666666666 OOOOOO   XXXX....########<5555555<<<66666666",
"666666666666666666666666666666 OOOOOO   XXXX....########<5555555<<<66666666",
"666666666666666666666666666666XOOOOO 6  XXXX  66.....#######<555555<<<66666",
"6666666666666666666666666666  XOOOOO 6  XXXX  6666666....#######<<555<<6666",
"6666666666666666666666666666  XOOOOO 6  XXXX  6666666....#######<<555<<6666",
"6666666666666666666666666666  OOOO  66  XXXX  66666666666....#####<555<6666",
"6666666666666666666666666666  OOOO  66  XXX 66666666666666666........<66666",
"6666666666666666666666666666  OOOO  66  XXX 66666666666666666........<66666",
"6666666666666666666666666666  OOOX  66XXXXX 6666666666666666666666666666666",
"6666666666666666666666666666  OOO 666 XXXXX 6666666666666666666666666666666",
"666666666666666666666666666 XXOOO 666 XXX  66666666666666666666666666666666",
"666666666666666666666666666 XXOOO 666 XXX  66666666666666666666666666666666",
"666666666666666666666666666 XXOOO 666 XXX  66666666666666666666666666666666",
"666666666666666666666666666 OOOXX 666 XXX  66666666666666666666666666666666",
"666666666666666666666666666 OOOXX 666 XXX  66666666666666666666666666666666",
"666666666666666666666666666 OOO  6666 XXX  66666666666666666666666666666666",
"66666666666666666666666666X222O  6666 XX%%% 6666666666666666666666666666666",
"66666666666666666666666666X222O  6666 XX%%% 6666666666666666666666666666666",
"666666666666666666666666OO=====OO6666 OOOOOO  66666666666666666666666666666",
"66666666666666666666666O=======OO6666 OOOOOOOO 6666666666666666666666666666",
"666666666666666666666666666666666666666666666666666666666666666666666666666",
"666666666666666666666666666666666666666666666666666666666666666666666666666",
"666666666666666666666666666666666666666666666666666666666666666666666666666"
};
