/* XPM */
static char *result[] = {
/* columns rows colors chars-per-pixel */
"75 75 24 1 ",
"  c #301C19",
". c #4B2F25",
"X c #633724",
"o c #673D31",
"O c #5A440D",
"+ c #524238",
"@ c #53535A",
"# c #766A55",
"$ c #8B6B1C",
"% c #8F4F34",
"& c #4CB528",
"* c #BC8356",
"= c #AB9A6E",
"- c #F1C146",
"; c #007DFF",
": c #8A8A8F",
"> c #B6B6B6",
", c #C8BCB4",
"< c #EFC193",
"1 c #DBDBE2",
"2 c gray94",
"3 c #F1F1F1",
"4 c gray95",
"5 c None",
/* pixels */
"555555555555555555355555555555555555555555555555555555555555555555555555555",
"555555555555555553355555555555555555555555555555555555555555555555555555555",
"555555555555555523555555555555555555555555555555555555555555555555555555555",
"555555555555553333555555555555555555555555555555555555555555555555555555555",
"555555555555333355555555555555555555555555555555555555555555555555555555555",
"555555555555333355555555555555555555555555555555555555555555555555555555555",
"555555555553333555555555555555555555555555555555555555555555555555555555555",
"555555555523333555555555555555555555555555555555555555555555555555555555555",
"555555555533333555555555555555555555555555555555555555555555555555555555555",
"555555554333335555555555555555555555555555555555555555555555555555555555555",
"555555553333335555555555555555555555555555555555555555555555555555555555555",
"555555543333335555555555555555555555555555555555555555555555555555555555555",
"555555333333335555555555555555555555555555555555555555555555555555555555555",
"55555333333355555555555555:111111111155555555555555555555555555555555555555",
"55555333333355555555555555:111111111155555555555555555555555555555555555555",
"55555333333355555555555555:::1111111115555555555555555555555555555555555555",
"555533333333555555555551111:::111111111155555555555555555555555555555555555",
"555533333335555555555511111111>>11111111>5555555555555555555555555555555555",
"555533333335555555555511111111>>11111111>5555555555555555555555555555555555",
"553233333335555555555::>>111111111111>>>>@555555555555555555555555555555555",
"555333333335555555555:>11111111111>>>>>>@@555555555555555555555555555555555",
"535333333335555555555:>11111111111>>>>>>@@555555555555555555555555555555555",
"535333333335555555555:11111111111>>>>>>>@5555555555555555555555555555555555",
"535333333355555555555:11111<<<<<<:::>>>>@5555555555555555555555555555555555",
"533333333355555555555@@@@:X<<<XXX*:::<::: 555555555555555555555555555555555",
"533333333355555555555@@@@:X<<<XXX*:::<::: 555555555555555555555555555555555",
"53333333335555555555555@@@1<<<XX1<::::  : 555555555555555555555555555555555",
"5333333333555555555555555@1<<<&&1<<<      555555555555555555555555555555555",
"5333333333555555555555555@<<<<<<<<**    55555555555555555555555555555555555",
"5333333333555555555555555@<<<<<<<<**    55555555555555555555555555555555555",
"333333333355555555555555555<<<<<<*XXX 5555555555555555555555555555555555555",
"53333333335555555555555555555X****   ++++###5555555555555555555555555555555",
"53333333335555555555555555555X****   ++++###5555555555555555555555555555555",
"533333333355555555555555555++=<<<<==========####555555555555555555555555555",
"53333333335555555555555555+==<<<<=========##=$$$$55555555555555555555555555",
"5333333333555555555555555+===###=====+===#===$$--%%%%%%%5555555555555555555",
"5333333333555555555555555+===###=====+===#===$$--%%%%%%%5555555555555555555",
"5333333333355555555555555+===========+###===<$$-<<<<<<<%5555555555555555555",
"5333333333355555555555555+==========#   #%%%***$<<<<<<<$$$$$555555555555555",
"5233333333355555555555555+========##    55555%%%%<<<OOO$---$555555555555555",
"5233333333355555555555555+========##    55555%%%%<<<OOO$---$555555555555555",
"54333333333355555555555555+  ####+++    555555555<<OO$$---$$555555555555555",
"553333333333555555555555555  #####++    555555555%%O$;;;$$35555555555555555",
"532333333333555555555555555  o,,,ooo..55555555555$$$-;;;3333555555555555555",
"552333333333555555555555555  o,,,ooo..55555555555$$$-;;;3333555555555555555",
"553333333333335555555555555  ooo,ooo..55555555555$$--3333333335555555555555",
"52333333333333555555555555 ++o,,,ooo..  555555555$$-$3333333333555555555555",
"55333333333333555555555555 ++o,,,ooo..  555555555$$-$3333333333555555555555",
"5522333333333335555555555 +#########++  555555555$$$$3333333333355555555555",
"55333333333333355555555   +#########+    5555555555533333333333333555555555",
"5523333333333333555555     #########  oo 5555555555333333333333333355555555",
"5533333333333333555555     #########  oo 5555555555333333333333333355555555",
"555343333333333333555 ....    +++###  ooo 555555533333333333333333333555555",
"5553333333333333333  .....           ooooo  5555333333333333333333333555555",
"555233233333333333333......   555555 ooooo  5333333333333333333333333355555",
"555533233333333333333......   555555 ooooo  5333333333333333333333333335555",
"55555333333333333333333..  5555555555 oooooo3333333333333333333333333345555",
"55555233333333333333333333555555555555  o3333333333333333333333333333335525",
"55555533533333333333333333555555555555  o3333333333333333333333333333345555",
"555555555333333333333333333333555555533333333333333333333333333333333333555",
"555555555333333333333333333333333333333333333333333333333333333333333334555",
"555555555533333333333333333333333333333333333333333333333333333333333333555",
"555555555553333333333333333333333333333333333333333333333333333333333335555",
"555555555555333333333333333333333333333333333333333333333333333333333335555",
"555555555555533333333333333333333333333333333333333333333333333333333335555",
"555555555555553333333333333333333333333333333333333333333333333333333355555",
"555555555555553333333333333333333333333333333333333333333333333333333355555",
"555555555555555333333333333333333333333333333333333333333333333333333555555",
"555555555555555533333333333333333333333333333333333333333333333333335555555",
"555555555555555553433322333333333333333333333333333333333333333333455555555",
"555555555555555553534333333333333333333322333333333333333333333333535555555",
"555555555555555555555333333333333333333322223333223333233333333343555555555",
"555555555555555555545553553332333333333333223333333323233333355555555555555",
"555555555555555555555555555555333333433233333322332323333555555555555555555",
"555555555555553555555555555555555555555553333333325555555555555555555555552"
};
