/* XPM */
static char *result[] = {
/* columns rows colors chars-per-pixel */
"75 75 24 1 ",
"  c #301C19",
". c #4B2F25",
"X c #633724",
"o c #673D31",
"O c #5A440D",
"+ c #524238",
"@ c #53535A",
"# c #766A55",
"$ c #8B6B1C",
"% c #8F4F34",
"& c #4CB528",
"* c #BC8356",
"= c #AB9A6E",
"- c #F1C146",
"; c #007DFF",
": c #8A8A8F",
"> c #B6B6B6",
", c #C8BCB4",
"< c #EFC193",
"1 c #DBDBE2",
"2 c gray94",
"3 c #F1F1F1",
"4 c gray95",
"5 c None",
/* pixels */
"555555555555555555555555555555555555555555555555555555555555555555555555555",
"555555555555555555555555555555555555555555555555555555555555555555555555555",
"555555555555555555555555555555555555555555555555555555555555555555555555555",
"555555555555555555555555555555555555555555555555555555555555555555555555555",
"555555555555555555555555555555555555555555555555555555555555555555555555555",
"555555555555555555555555555555555555555555555555555555555555555555555555555",
"555555555555555555555555555555555555555555555555555555555555555555555555555",
"555555555555555555555555555555555555555555555555555555555555555555555555555",
"555555555555555555555555555555555555555555555555555555555555555555555555555",
"555555555555555555555555555555555555555555555555555555555555555555555555555",
"55555555555555555555555:111111111155555555555555555555555555555555555555555",
"55555555555555555555555:111111111155555555555555555555555555555555555555555",
"55555555555555555555555:::1111111115555555555555555555555555555555555555555",
"555555555555555555551111:::111111111155555555555555555555555555555555555555",
"555555555555555555511111111>111111111>5555555555555555555555555555555555555",
"555555555555555555511111111>111111111>5555555555555555555555555555555555555",
"55555555555555555:::>1111111111111>>>>@@55555555555555555555555555555555555",
"55555555555555555::>11111111111>>>>>>@@@55555555555555555555555555555555555",
"55555555555555555::>11111111111>>>>>>@@@55555555555555555555555555555555555",
"55555555555555555::11111111111>>>>>>>@5555555555555555555555555555555555555",
"55555555555555555::11111<<<<<<:::>>>>@5555555555555555555555555555555555555",
"55555555555555555@@@@::<<<<<<<*:::<:::  55555555555555555555555555555555555",
"55555555555555555@@@@::<<<<<<<*:::<:::  55555555555555555555555555555555555",
"55555555555555555555@@@X<<<XXX<::::  :  55555555555555555555555555555555555",
"55555555555555555555@@@1<<<X11<::::  :  55555555555555555555555555555555555",
"555555555555555555555@@1<<<&11<<<       55555555555555555555555555555555555",
"555555555555555555555@@1<<<&11<<<       55555555555555555555555555555555555",
"555555555555555555555@@<<<<<<<<**    55555555555555555555555555555555555555",
"555555555555555555555555<<<<<<*XXX 5555555555555555555555555555555555555555",
"555555555555555555555555<<<<<<*XXX 5555555555555555555555555555555555555555",
"55555555555555555555555555X****   ++++###5555555555555555555555555555555555",
"555555555555555555555555++=<<<<==========####555555555555555555555555555555",
"55555555555555555555555+==<<<<==========#===%%%5555555555555555555555555555",
"55555555555555555555555+==<<<<==========#===%%%5555555555555555555555555555",
"555555555555555555555++===##======+===##==<<<<<%%%%%%5555555555555555555555",
"555555555555555555555++===========+###===<<<$$$<<<<<%$$$5555555555555555555",
"555555555555555555555++===========+###===<<<$$$<<<<<%$$$5555555555555555555",
"555555555555555555555++==========#   #%%%*$$---<<<<<$--$5555555555555555555",
"555555555555555555555++========##    55555%%$--<<<<$---$5555555555555555555",
"55555555555555555555555+  ####+++    5555555$$$<<<<O---33555555555555555555",
"55555555555555555555555+  ####+++    5555555$$$<<<<O---33355555555555555555",
"555555555555555555555555  #####++    5555555555%%OOO;;;33333355555555555555",
"555555555555555555555555  o,,,ooo..55555555555555OOO;3333333333355555555555",
"555555555555555555555555  o,,,ooo..55555555555555OOO;3333333333335555555555",
"555555555555555555555555  oo,,ooo..55555555555555$$-33333333333333555555555",
"55555555555555555555555 ++o,,,ooo..  555555555555$$-33333333333333355555555",
"555555555555555555555  +#########++  555555555555$$333333333333333335555555",
"555555555555555555555  +#########++  555555555555$$333333333333333333555555",
"55555555555555555555   +#########+    55555555555$$333333333333333333355555",
"5555555555555555555     #########  .. 5555555555533333333333333333333355555",
"5555555555555555555     #########  .. 5555555555533333333333333333333335555",
"55555555555555555  ....    +++###  ooo  55555555533333333333333333333335555",
"5555555555555555 ......           .ooooo 5555555333333333333333333333335555",
"555555555555555 ........   5555   oooooo 5555555333333333333333333333335555",
"555555555555555 ........   5555   oooooo 5555555333333333333333333333255555",
"555555555555555 .....   555555555 ooooooo 555553333333333333333333333355555",
"555555555555555 .... 5555555555555 oooooo.  5333333333333333333333333355555",
"555555555555555 .... 55555555555555  ooooo  3333333333333333333333333355555",
"555555555555555 .... 55555555555555  ooooo  3333333333333333333333333355555",
"555555555555555 .... 5555555555555555 ooo3333333333333333333333333332555555",
"555555555555555  ....555555555555555553333333333333333333333333333335555555",
"555555555555555  ....555555555555555553333333333333333333333333333255555555",
"5555555555555555 ....555555555555555533333333333333333333333333332555555555",
"5555555555555555 ....555555555555533333333333333333333333333333355555555555",
"55555555555555555  ..555555555533333333333333333333333333333334555555555555",
"55555555555555555  ..555555555533333333333333333333333333333355555555555555",
"55555555555555555  ..  5553333333333333333333333333333333333555555555555555",
"55555555555555555  ..  3333333333333333333333333333333322555555555555555555",
"55555555555555555  ..  3333333333333333333333333333333255555555555555555555",
"5555555555555555 oooo  5553333333333333333333333333555555555555555555555555",
"555555555555555 ooooo  5555555333333355555555555555555555555555555555555555",
"555555555555555555555555555555555555555555555555555555555555555555555555555",
"555555555555555555555555555555555555555555555555555555555555555555555555555",
"555555555555555555555555555555555555555555555555555555555555555555555555555",
"555555555555555555555555555555555555555555555555555555555555555555555555555"
};
