/* XPM */
static char *result[] = {
/* columns rows colors chars-per-pixel */
"75 75 21 1 ",
"  c #301C19",
". c #34343A",
"X c #4B2F25",
"o c #633724",
"O c #673D31",
"+ c #524238",
"@ c #53535A",
"# c #766A55",
"$ c #8B6B1C",
"% c #9C604C",
"& c #4CB528",
"* c #BC8356",
"= c #AB9A6E",
"- c #F1C146",
"; c #8A8A8F",
": c #B6B6B6",
"> c #C8BCB4",
", c #EFC193",
"< c #DBDBE2",
"1 c #F1F1F1",
"2 c None",
/* pixels */
"222222222222222222222222222222222222222222222222222222222222222222222222222",
"222222222222222222222222222222222222222222222222222222222222222222222222222",
"222222222222222222222222222222222222222222222222222222222222222222222222222",
"222222222222222222222222222222222222222222222222222222222222222222222222222",
"22222222222222222222222222222222222222222222222...........@2222222222222222",
"22222222222222222222222222222222222222222222222...........@2222222222222222",
"22222222222222222222222;<<<<<<<<<<2222.........@@@@@;;;;;11@@22222222222222",
"22222222222222222222222;;;<<<<<<<<<<2.@@@@@@@@@@@@@1111111@@@22222222222222",
"22222222222222222222222;;;<<<<<<<<<<2.@@@@@@@@@@@@@1111111@@@22222222222222",
"22222222222222222222<<<<;;;<<<<<<<<<<@@@@@@@@@@:111111111@@2222222222222222",
"2222222222222222222<<<<<<<<::<<<<<<<<:::::::::::111@@@@@@222222222222222222",
"22222222222222222;;;::<<<<<<<<<<<<:::::::::::@@@@@@222222222222222222222222",
"22222222222222222;;;::<<<<<<<<<<<<:::::::::::@@@@@@222222222222222222222222",
"22222222222222222;;:<<<<<<<<<<<::::::@@@@@@@@222222222222222222222222222222",
"2222222222222222 ;;<<<<<,,,,,,;;;::::@2222222222222222222222222222222222222",
"2222222222222222 ;;<<<<<,,,,,,;;;::::@2222222222222222222222222222222222222",
"2222222222222$$$ ;;<@@;,,,,,,,,;;;,,;;  22222222222222222222222222222222222",
"2222222222222$$- @@@@@;,,,ooo,*;;;,,;;  22222222222222222222222222222222222",
"222222222222$--- ,,,@@@,,,o<<,,;;;;; ;  22222222222222222222222222222222222",
"222222222222$--- ,,,@@@,,,o<<,,;;;;; ;  22222222222222222222222222222222222",
"2222222222222$$$ ,,,,,@,,,&<<,,,,       22222222222222222222222222222222222",
"2222222222222222 ,,,  @,,,,,,,,**    22222222222222222222222222222222222222",
"2222222222222222 ,,,  @,,,,,,,,**    22222222222222222222222222222222222222",
"2222222222222222        ,,,,,,*ooo  222222222222222222222222222222222222222",
"2222222222222222    ===#   oo**oo   222222222222222222222222222222222222222",
"22222222222222222++===#====       22222222222222222222222222222222222222222",
"22222222222222222++===#====       22222222222222222222222222222222222222222",
"22222222222222222++=##===========#  222222222222222222222222222222222222222",
"22222222222222222++++++===========## 22222222222222222222222222222222222222",
"22222222222222222++++++===========## 22222222222222222222222222222222222222",
"2222222222222222222222+===#=========  2222222222222222222222222222222222222",
"22222222222222222222222+###=========    22222222222222222222222222222222222",
"22222222222222222222222+#####=======     2222222222222222222222222222222222",
"22222222222222222222222+#####=======     2222222222222222222222222222222222",
"22222222222222222222222+######======       22222222222222222222222222222222",
"222222222222222222222222++#####===++       22222222222222222222222222222222",
"222222222222222222222222++#####===++       22222222222222222222222222222222",
"22222222222222222222222222 ####+++  22      2222222222222222222222222222222",
"22222222222222222222222222 ####+++  2222    2222222222222222222222222222222",
"222222222222222222222222  >>>OOOOXXX22      2222222222222222222222222222222",
"222222222222222222222222  >>>OOOOXXX22      2222222222222222222222222222222",
"222222222222222222222222  O>>OOOOXXX22      2222222222222222222222222222222",
"222222222222222222222222  >>>OOOOXXX 2  2   2222222222222222222222222222222",
"222222222222222222222222  >>>OOOOXXX 2  2   2222222222222222222222222222222",
"22222222222222222222222 #########+++ 22222222222222222222222222222222222222",
"2222222222222222222222 ##########+++  2222222222222222222222222222222222222",
"2222222222222222222222 ##########++++ 2222222222222222222222222222222222222",
"2222222222222222222222 ##########++++ 2222222222222222222222222222222222222",
"22222222222222222222  XX++#######++++   22222222222222222222222222222222222",
"2222222222222222222   XXXX +++###+++    22222222222222222222222222222222222",
"2222222222222222222   XXXX +++###+++    22222222222222222222222222222222222",
"2222222222222222222 XXXXXX   2       OXX 2222222222222222222222222222222222",
"22222222222222222  XXXXX   222222   OOOOO  22222222222222222222222222222222",
"2222222222222222 XXXXXX   22222222  OOOOOOO 2222222222222222222222222222222",
"2222222222222222 XXXXXX   22222222  OOOOOOO 2222222222222222222222222222222",
"2222222222222222 XXXXXX 222222222222 OOOOOOO 222222222222222222222222222222",
"2222222222222222 XXXXX 22222222222222 OOOOOOX  2222222222222222222222222222",
"2222222222222222 XXXXX 22222222222222 OOOOOOX  2222222222222222222222222222",
"2222222222222222 XXXXX 222222222222222  OOOOO  2222222222222222222222222222",
"2222222222222222 XXX  222222222222222222 OOOOXX 222222222222222222222222222",
"2222222222222222XXXX  222222222222222222 XXOOOO 222222222222222222222222222",
"2222222222222222XXXX  222222222222222222 XXOOOO 222222222222222222222222222",
"2222222222222222XXXX  2222222222222222222  OOOOX  2222222222222222222222222",
"2222222222222222XXXX  222222222222222222222 OOOO  2222222222222222222222222",
"2222222222222222XXXX  222222222222222222222 OOOO  2222222222222222222222222",
"22222222222222222XXX  2222222222222222222222 OOOOO 222222222222222222222222",
"22222222222222222XXX  22222222222222222222222  OOO  22222222222222222222222",
"2222222222222222 XXX  22222222222222222222222  O%%% 22222222222222222222222",
"2222222222222222 XXX  22222222222222222222222  O%%% 22222222222222222222222",
"222222222222222 OOOOOO22222222222222222222222OO%%%%%  222222222222222222222",
"2222222222222  OOOOOOO22222222222222222222222OO%%%%%%% 22222222222222222222",
"2222222222222  OOOOOOO22222222222222222222222OO%%%%%%% 22222222222222222222",
"222222222222222222222222222222222222222222222222222222222222222222222222222",
"222222222222222222222222222222222222222222222222222222222222222222222222222",
"222222222222222222222222222222222222222222222222222222222222222222222222222"
};
