/* XPM */
static char *result[] = {
/* columns rows colors chars-per-pixel */
"75 75 23 1 ",
"  c #301C19",
". c #34343A",
"X c #4B2F25",
"o c #633724",
"O c #673D31",
"+ c #5A440D",
"@ c #524238",
"# c #53535A",
"$ c #766A55",
"% c #8B6B1C",
"& c #8F4F34",
"* c #4CB528",
"= c #BC8356",
"- c #AB9A6E",
"; c #F1C146",
": c #007DFF",
"> c #8A8A8F",
", c #B6B6B6",
"< c #C8BCB4",
"1 c #EFC193",
"2 c #DBDBE2",
"3 c #F1F1F1",
"4 c None",
/* pixels */
"444444444444444444444444444444444444444444444444444444444444444444444444444",
"444444444444444444444444444444444444444444444444444444444444444444444444444",
"444444444444444444444444444444444444444444444444444444444444444444444444444",
"444444444444444444444444444444444444444444444444444444444444444444444444444",
"444444444444444444444444444444444444444444444444444444444444444444444444444",
"444444444444444444444444444444444444444444444444444444444444444444444444444",
"444444444444444444444444444444444444444444444444444444444444444444444444444",
"444444444444444444444444444444444444444444444444444444444444444444444444444",
"444444444444444444444444444444444444444444444444444444444444444444444444444",
"444444444444444444444444444444444444444444444444444444444444444444444444444",
"444444444444444444444444444444444444444444444444444444444444444444444444444",
"444444444444444444444444444444444444444444444444444444444444444444444444444",
"444444444444444444444444444444444444444444444444444444444444444444444444444",
"4444444444444444444444444444444444>2222222224444444444444444444444444444444",
"4444444444444444444444444444444422>>>22222222444444444444444444444444444444",
"44444444444444444444444444444422222>>>2222222224444444444444444444444444444",
"44444444444444444444444444444422222>>>2222222224444444444444444444444444444",
"44444444444444444444444444444422222222,22222222,444444444444444444444444444",
"44444444444444444444444444444>22,22222222222,,,,#44444444444444444444444444",
"44444444444444444444444444444>,,2222222222,,,,,##44444444444444444444444444",
"44444444444444444444444444444>2222222222,,,,,,,#444444444444444444444444444",
"44444444444444444444444444444>2222222222,,,,,,,#444444444444444444444444444",
"44444444444444444444444444444>2222211211>>>,,,,#444444444444444444444444444",
"44444444444444444444444444444>22#>11111111>>1>>> 44444444444444444444444444",
"44444444444444444444444444444####>o111oo==>>1>>> 44444444444444444444444444",
"44444444444444444444444444444444##*111*211>>>  > 44444444444444444444444444",
"44444444444444444444444444444444##*111*211>>>  > 44444444444444444444444444",
"444444444444444444444444444444444#111112111      44444444444444444444444444",
"444444444444444444444444444444444#11111111=    4444444444444444444444444444",
"4444444444444444444444444444444444411111==oo 444444444444444444444444444444",
"4444444444444444444444444444444444444o====  4444444444444444444444444444444",
"4444444444444444444444444444444444444o====  4444444444444444444444444444444",
"44444444444444444444444444444444444@@-1111-  444444444444444444444444444444",
"4444444444444444444444444444444444@--111-----@@4444444444444444444444444444",
"444444444444444444444444444444444@---$$--------@444444444444444444444444444",
"44444444444444444444444444444444 @--------------$$4444444444444444444444444",
"44444444444444444444444444444444 @--------------$$4444444444444444444444444",
"44444444444444444444444444444444 @---------$-$$$--$$44444444444444444444444",
"444444444444444444444444444444   @--------$ $$$--$$$44444444444444444444444",
"44444444444444444444444444444     ------$$  @---11==&4444444444444444444444",
"4444444444444444444444444          $$$@@@@   @@&11111&444444444444444444444",
"4444444444444444444444444          $$$@@@@   @@&11111&444444444444444444444",
"4444444444444444444444444        4 $$$$@@@   444=1111=&44444444444444444444",
"4444444444444444444444444     4444O<<<OOOOXX44444=11111&&444444444444444444",
"4444444444444444444444444444444444OOO<OOOOXX444444==111&&444444444444444444",
"444444444444444444444444444444444 O<<<OOOOXX444444&&111&&444444444444444444",
"444444444444444444444444444444444 O<<<OOOOXX444444&&111&&444444444444444444",
"444444444444444444444444444444444 $$$$$$$$@ 444444&&&&&44444444444444444444",
"444444444444444444444444444444444 $$$$$$$$@  444444444444444444444444444444",
"444444444444444444444444444444444 @@@$$$$$   444444444444444444444444444444",
"444444444444444444444444444444444 @@@$$$$$   444444444444444444444444444444",
"444444444444444444444444444444444       XXOOO  4444444444444444444444444444",
"444444444444444444444444444444444 XXXX  XXOOOXX4444444444444444444444444444",
"444444444444444444444444444444444 XXXX 4XXOOOXX4444444444444444444444444444",
"444444444444444444444444444444444 XXXX 4  OOOXX4444444444444444444444444444",
"444444444444444444444444444444444 XXXX 4  OOOXX4444444444444444444444444444",
"4444444444444444444444444444444444 XXX 4  OOOXX 444444444444444444444444444",
"4444444444444444444444444444444444 XXXX XXOOOOO 444444444444444444444444444",
"4444444444444444444444444444444444 XXXX 44XOOOO X4444%%44444444444444444444",
"44444444444444444444444444444444444  XXX444XOOOOX444%;;%%444444444444444444",
"44444444444444444444444444444444444  XXX444XOOOOX444%;;%%444444444444444444",
"444444444444444444444444##>>>>>>>###########.........%;%%444444444444444444",
"44444444444444444444444##333333333,,,,,,,,>>>>>>>>>>.%;+++%%%%%444444444444",
"44444444444444444444444#3333333333,,,,,,,,,,,,,,>>>>>::%%+;;;;;%44444444444",
"44444444444444444444444#.>>>>########################::%%+;;;;;%%4444444444",
"44444444444444444444444#.>>>>########################::%%+;;;;;%%4444444444",
"444444444444444444444444..>>>#######################.%;+++%%%%%%44444444444",
"4444444444444444444444444............................%;%%444444444444444444",
"4444444444444444444444444444444444444444444444444444%;;%%444444444444444444",
"44444444444444444444444444444444444444444444444444444%%44444444444444444444",
"44444444444444444444444444444444444444444444444444444%%44444444444444444444",
"444444444444444444444444444444444444444444444444444444444444444444444444444",
"444444444444444444444444444444444444444444444444444444444444444444444444444",
"444444444444444444444444444444444444444444444444444444444444444444444444444",
"444444444444444444444444444444444444444444444444444444444444444444444444444"
};
