/* XPM */
static char *result[] = {
/* columns rows colors chars-per-pixel */
"75 75 25 1 ",
"  c #301C19",
". c #34343A",
"X c #4B2F25",
"o c #633724",
"O c #673D31",
"+ c #5A440D",
"@ c #524238",
"# c #53535A",
"$ c #766A55",
"% c #7F7873",
"& c #8B6B1C",
"* c #8F4F34",
"= c #9C604C",
"- c #4CB528",
"; c #BC8356",
": c #AB9A6E",
"> c #F1C146",
", c #007DFF",
"< c #8A8A8F",
"1 c #B6B6B6",
"2 c #C8BCB4",
"3 c #EFC193",
"4 c #DBDBE2",
"5 c #F1F1F1",
"6 c None",
/* pixels */
"666666666666666666666666666666666666666666666666666666666666666666666666666",
"666666666666666666666666666666666666666666666666666666666666666666666666666",
"666666666666666666666666666666666666666666666666666666666666666666666666666",
"666666666666666666666666666666666666666666666666666666666666666666666666666",
"6666666666666666666666666666666<4444444444666666666666666666666666666666666",
"6666666666666666666666666666666<<<44444444446666666666666666666666666666666",
"66666666666666666666666666664444<<<4444444444666666666666666666666666666666",
"66666666666666666666666666664444<<<4444444444666666666666666666666666666666",
"666666666666666666666666666444444441144444444116666666666666666666666666666",
"6666666666666666666666666<<<1444444444444411111#666666666666666666666666666",
"6666666666666666666666666<<<1444444444444411111#666666666666666666666666666",
"6666666666666666666666666<<144444444444111111###666666666666666666666666666",
"6666666666666666666666666<<444444444441111111##6666666666666666666666666666",
"6666666666666666666666666<<444444444441111111##6666666666666666666666666666",
"6666666666666666666666666<<44444333333<<<1111##6666666666666666666666666666",
"6666666666666666666666666<<4#<<33333333<<<33<<< 666666666666666666666666666",
"6666666666666666666666666<<4#<<33333333<<<33<<< 666666666666666666666666666",
"6666666666666666666666666####<<o333ooo;<<<33<<< 666666666666666666666666666",
"6666666666666666666666666666###4333oo43<<<<< << 666666666666666666666666666",
"66666666666666666666666666666##4333--4333       666666666666666666666666666",
"66666666666666666666666666666##4333--4333       666666666666666666666666666",
"66666666666666666666666666666##33333333;;    666666666666666666666666666666",
"66666666666666666666666666666666333333;ooo  6666666666666666666666666666666",
"66666666666666666666666666666666333333;ooo  6666666666666666666666666666666",
"6666666666666666666666666666666666o;;;;   666666666666666666666666666666666",
"6666666666666666666666666666666@::;333::::@@6666666666666666666666666666666",
"6666666666666666666666666666666@::;333::::@@6666666666666666666666666666666",
"66666666666666666666666666666@@:;;333:::::::@666666666666666666666666666666",
"6666666666666666666666666666@:::$$$::::::::::@@6666666666666666666666666666",
"6666666666666666666666666666@::::::::::@@::::::$666666666666666666666666666",
"6666666666666666666666666666@::::::::::@@::::::$666666666666666666666666666",
"6666666666666666666666666666@:::::::::$@@::::$$$@@@666666666666666666666666",
"6666666666666666666666666666 ::::::::$   @::$::::@@666666666666666666666666",
"6666666666666666666666666666 ::::::::$   @::$::::@@666666666666666666666666",
"6666666666666666666666666666   $$$$@@@    @@::::@@@666666666666666666666666",
"666666666666666666666666666    $$$$$$@    66*333;@@666666666666666666666666",
"666666666666666666666666666    $$$$$$@    66*333;@@666666666666666666666666",
"666666666666666666666666666  OO222OOOOXXX666*3333**666666666666666666666666",
"666666666666666666666666666  OOO22OOOOXXX666*;;33**666666666666666666666666",
"6666666666666666666666666   @OO222OOOO&&&6666**33**666666666666666666666666",
"6666666666666666666666666   @OO222OOOO&&&6666**33**666666666666666666666666",
"666666666666666666666666    $$$$$$$$$$&>>&666**33&&&66666666666666666666666",
"666666666666666666666666    $$$$$$$$$$&>>>&&33333>>>&&666666666666666666666",
"666666666666666666666666    $$$$$$$$$$&>>>&&33333>>>&&666666666666666666666",
"666666666666666666666666    $$$$$$$$$..>>>++33333>>&66666666666666666666666",
"666666666666666666666666    @@@@.....<<,,,+++3333&&&66666666666666666666666",
"666666666666666666666666    @@@@.....<<,,,+++3333&&&66666666666666666666666",
"666666666666666666666666666 ....<<<<<<<,,,+++****66666666666666666666666666",
"666666666666666666666666....<<<<<<<####&&>>>&666666666666666666666666666666",
"6666666666666666666#####111<<<<########&&>>>&666666666666666666666666666666",
"6666666666666666666#####111<<<<########&&>>>&666666666666666666666666666666",
"666666666666666####11111111########....&&&>>&666666666666666666666666666666",
"66666666666<<<<5551111<<#######....   OOO&&&&666666666666666666666666666666",
"66666666666<<<<5551111<<#######....   OOO&&&&666666666666666666666666666666",
"66666666<<<5555555<########....XXXX  6 OOOOO 666666666666666666666666666666",
"66666<<<555555<#######.....66  XXXX  6 OOOOOX  6666666666666666666666666666",
"66666<<<555555<#######.....66  XXXX  6 OOOOOX  6666666666666666666666666666",
"6666<<555<<#######....6666666  XXXX  66  OOOO  6666666666666666666666666666",
"6666<555<#####....6666666666666 XXX  66  OOOO  6666666666666666666666666666",
"66666<........66666666666666666 XXXXX66  XOOO  6666666666666666666666666666",
"66666<........66666666666666666 XXXXX66  XOOO  6666666666666666666666666666",
"6666666666666666666666666666666 XXXXX 666 OOO  6666666666666666666666666666",
"66666666666666666666666666666666  XXX 666 OOOXX 666666666666666666666666666",
"66666666666666666666666666666666  XXX 666 OOOXX 666666666666666666666666666",
"66666666666666666666666666666666  XXX 666 OOOXX 666666666666666666666666666",
"66666666666666666666666666666666  XXX 666 XXOOO 666666666666666666666666666",
"66666666666666666666666666666666  XXX 666 XXOOO 666666666666666666666666666",
"66666666666666666666666666666666  XXX 6666  OOO 666666666666666666666666666",
"6666666666666666666666666666666 %%%XX 6666  O222X66666666666666666666666666",
"6666666666666666666666666666666 %%%XX 6666  O222X66666666666666666666666666",
"66666666666666666666666666666  OOOOOO 6666OO=====OO666666666666666666666666",
"6666666666666666666666666666 OOOOOOOO 6666OO=======O66666666666666666666666",
"666666666666666666666666666666666666666666666666666666666666666666666666666",
"666666666666666666666666666666666666666666666666666666666666666666666666666",
"666666666666666666666666666666666666666666666666666666666666666666666666666"
};
