/* XPM */
static char *result[] = {
/* columns rows colors chars-per-pixel */
"75 75 24 1 ",
"  c #301C19",
". c #34343A",
"X c #4B2F25",
"o c #633724",
"O c #673D31",
"+ c #5A440D",
"@ c #524238",
"# c #53535A",
"$ c #766A55",
"% c #8B6B1C",
"& c #8F4F34",
"* c #9C604C",
"= c #4CB528",
"- c #BC8356",
"; c #AB9A6E",
": c #F1C146",
"> c #007DFF",
", c #8A8A8F",
"< c #B6B6B6",
"1 c #C8BCB4",
"2 c #EFC193",
"3 c #DBDBE2",
"4 c #F1F1F1",
"5 c None",
/* pixels */
"555555555555555555555555555555555555555555555555555555555555555555555555555",
"555555555555555555555555555555555555555555555555555555555555555555555555555",
"555555555555555555555555555555555555555555555555555555555555555555555555555",
"555555555555555555555555555555555555555555555555555555555555555555555555555",
"555555555555555555555555555555555555555555555555555555555555555555555555555",
"555555555555555555555555555555555555555555555555555555555555555555555555555",
"555555555555555555555555555555555555555555555555555555555555555555555555555",
"555555555555555,33333333335555555555555555555555555555555555555555555555555",
"555555555555555,,,333333333555555555555555555555555555555555555555555555555",
"5555555555553333,,,33333333335555555555555555555555555555555555555555555555",
"5555555555553333,,,33333333335555555555555555555555555555555555555555555555",
"5555555555533333333<<33333333<555555555555555555555555555555555555555555555",
"5555555555,,<<333333333333<<<<##5555555555555555555555555555555555555555555",
"5555555555,<33333333333<<<<<<###5555555555555555555555555555555555555555555",
"5555555555,<33333333333<<<<<<###5555555555555555555555555555555555555555555",
"5555555555,33333333333<<<<<<<#555555555555555555555555555555555555555555555",
"5555555555,33333222222,,,<<<<#555555555555555555555555555555555555555555555",
"5555555555,3##,22222222,,,2,,,  5555555555555555555555555555555555555555555",
"5555555555,3##,22222222,,,2,,,  5555555555555555555555555555555555555555555",
"5555555555####,o222ooo-,,,2,,,  5555555555555555555555555555555555555555555",
"555555555555###3222oo32,,,,  ,  5555555555555555555555555555555555555555555",
"555555555555###3222oo32,,,,  ,  5555555555555555555555555555555555555555555",
"55555555555555#3222==3222       5555555555555555555555555555555555555555555",
"55555555555555#22222222--    5555555555555555555555555555555555555555555555",
"5555555555555555222222---- @@@555555555555555555555555555555555555555555555",
"5555555555555555222222---- @@@555555555555555555555555555555555555555555555",
"555555555555555555555oo---;;;@@@5555555555555555555555555555555555555555555",
"5555555555555555555555@22;;;;;@@@555555555555555555555555555555555555555555",
"555555555555555555555@2;;;;;;;;;@ 55555555555555555555555555555555555555555",
"555555555555555555555@2;;;;;;;;;@ 55555555555555555555555555555555555555555",
"555555555555555555555@;;;;;;;;;;;@  555555555555555555555555555555555555555",
"555555555555555555555@;;;;;$$;;;;;$$555555555555555555555555555555555555555",
"555555555555555555555@;;;;;$$;;;;;$$555555555555555555555555555555555555555",
"5555555555555555555555@;;;$@@;;;;$$$@@5555555555555555555555555555555555555",
"55555555555555555555555@@@$@@@;;$;;;;@5555555555555555555555555555555555555",
"55555555555555555555555      1@@;;;;2-&&55555555555555555555555555555555555",
"55555555555555555555555      1@@;;;;2-&&55555555555555555555555555555555555",
"55555555555555555555555      1@@@-222222&5555555555555555555555555555555555",
"55555555555555555555555555   1OOOO--22222&55%%%%555555555555555555555555555",
"55555555555555555555555555 @@$$$$$$$--2222&&:::%555555555555555555555555555",
"55555555555555555555555555 @@$$$$$$$--2222&&:::%555555555555555555555555555",
"55555555555555555555555555 $$$$$$$$$@@--2222&::%555555555555555555555555555",
"55555555555555555555555    $$$$$$%%%%@--2222&%%5555555555555555555555555555",
"555555555555555555555  XXXXXX $$$%:::++++222-555555555555555555555555555555",
"555555555555555555555  XXXXXX $$$%:::++++222-555555555555555555555555555555",
"555555555555555555   XXXXXXXXX  O%%%::%%++---555555555555555555555555555555",
"555555555555555555 XXXXXXXXXXXXX O..%>>>%+555555555555555555555555555555555",
"555555555555555555 XXXXXXXXXXXXX O..%>>>%+555555555555555555555555555555555",
"555555555555555555 XXXXXXXX      .,,,>>>:%%%5555555555555555555555555555555",
"5555555555555555555  XXXXX   555.,,,<#%%::%% 555555555555555555555555555555",
"555555555555555555555 XXXXX  5..,,<<##..%:%% 555555555555555555555555555555",
"555555555555555555555 XXXXX  5..,,<<##..%:%% 555555555555555555555555555555",
"5555555555555555555555 XXXXXX.,,,<###.OO%%%%X  5555555555555555555555555555",
"5555555555555555555555555XX..,,,<###. XXOOOOO  5555555555555555555555555555",
"55555555555555555555555555.,,,<<##..5555XOOOOOO 555555555555555555555555555",
"55555555555555555555555555.,,,<<##..5555XOOOOOO 555555555555555555555555555",
"5555555555555555555555555#<,,<###.5555555XOOOOOX555555555555555555555555555",
"55555555555555555555555##<<<<###.555555555  OOOOX55555555555555555555555555",
"55555555555555555555555##<<<<###.555555555  OOOOX55555555555555555555555555",
"5555555555555555555555#<<<<###..555555555555 OOOOXX555555555555555555555555",
"555555555555555555555#<<<<###.555555555555555  OOXX555555555555555555555555",
"5555555555555555555,,4<<<##..5555555555555555   OOOX55555555555555555555555",
"5555555555555555555,,4<<<##..5555555555555555   OOOX55555555555555555555555",
"555555555555555555,4444###.55555555555555555555 OOOOO5555555555555555555555",
"5555555555555555,,4444###.5555555555555555555555 OOOO5555555555555555555555",
"555555555555555,44444##..555555555555555555555555  OO5555555555555555555555",
"555555555555555,44444##..555555555555555555555555  OO5555555555555555555555",
"55555555555555,4444###.5555555555555555555555555 111*5555555555555555555555",
"55555555555555,444###.5555555555555555555555555 *****5555555555555555555555",
"555555555555,,44###..555555555555555555555555  *****55555555555555555555555",
"555555555555,,44###..555555555555555555555555  *****55555555555555555555555",
"555555555555,,4#...55555555555555555555555555555555555555555555555555555555",
"555555555555,,..55555555555555555555555555555555555555555555555555555555555",
"555555555555,,..55555555555555555555555555555555555555555555555555555555555",
"555555555555555555555555555555555555555555555555555555555555555555555555555"
};
