/* XPM */
static char *result[] = {
/* columns rows colors chars-per-pixel */
"75 75 25 1 ",
"  c #301C19",
". c #34343A",
"X c #4B2F25",
"o c #633724",
"O c #673D31",
"+ c #5A440D",
"@ c #524238",
"# c #53535A",
"$ c #766A55",
"% c #7F7873",
"& c #8B6B1C",
"* c #8F4F34",
"= c #9C604C",
"- c #4CB528",
"; c #BC8356",
": c #AB9A6E",
"> c #F1C146",
", c #007DFF",
"< c #8A8A8F",
"1 c #B6B6B6",
"2 c #C8BCB4",
"3 c #EFC193",
"4 c #DBDBE2",
"5 c #F1F1F1",
"6 c None",
/* pixels */
"666666666666666666666666666666666666666666666666666666666666666666666666666",
"666666666666666666666666666666666666666666666666666666666666666666666666666",
"666666666666666666666666666666666666666666666666666666666666666666666666666",
"666666666666666666666666666666666666666666666666666666666666666666666666666",
"666666666666666666666666666666666666666666666666666666666666666666666666666",
"666666666666666666666666666666666666666666666666666666666666666666666666666",
"666666666666666666666666666666666666666666666666666666666666666666666666666",
"666666666666666<44444444446666666666666666666666666666666666666666666666666",
"666666666666666<<<444444444666666666666666666666666666666666666666666666666",
"666666666666666<<<444444444666666666666666666666666666666666666666666666666",
"6666666666664444<<<44444444446666666666666666666666666666666666666666666666",
"666666666664444444414444444441666666666666666666666666666666666666666666666",
"666666666664444444414444444441666666666666666666666666666666666666666666666",
"666666666<<<114444444444441111#66666666666666666666666666666666666666666666",
"666666666<<144444444444111111##66666666666666666666666666666666666666666666",
"666666666<<444444444441111111#666666666666666666666666666666666666666666666",
"666666666<<444444444441111111#666666666666666666666666666666666666666666666",
"666666666<<44444333333<<<1111#666666666666666666666666666666666666666666666",
"666666666<<4##<33333333<<<3<<< 66666666666666666666666666666666666666666666",
"666666666#####<o333ooo;<<<3<<< 66666666666666666666666666666666666666666666",
"666666666#####<o333ooo;<<<3<<< 66666666666666666666666666666666666666666666",
"666666666666###4333o443<<<<  < 66666666666666666666666666666666666666666666",
"66666666666666#4333-44333      66666666666666666666666666666666666666666666",
"66666666666666#4333-44333      66666666666666666666666666666666666666666666",
"66666666666666#33333333;;    6666666666666666666666666666666666666666666666",
"6666666666666666333333;;;; @@@666666666666666666666666666666666666666666666",
"66666666666666666666ooo;;;:::@@66666666666666666666666666666666666666666666",
"66666666666666666666ooo;;;:::@@66666666666666666666666666666666666666666666",
"6666666666666666666666@33:::::@  666666666666666666666666666666666666666666",
"66666666666666666666@@3::::::::@@ 66666666666666666666666666666666666666666",
"66666666666666666666@@:::::::::::@  666666666666666666666666666666666666666",
"66666666666666666666@@:::::::::::@  666666666666666666666666666666666666666",
"66666666666666666666@@:::::$$:::::$$666666666666666666666666666666666666666",
"6666666666666666666666@:::$@@::::$$$@@6666666666666666666666666666666666666",
"6666666666666666666666@:::$@@::::$$$@@6666666666666666666666666666666666666",
"66666666666666666666666@@@$@@@:$$::::@6666666666666666666666666666666666666",
"66666666666666666666666666   2@:::::3;**66666666666666666666666666666666666",
"666666666666666666666666666  2@@@;333333*6666666666666666666666666666666666",
"666666666666666666666666666  2@@@;333333*6666666666666666666666666666666666",
"666666666666666666666666666  2OOOO;;33333**6&&&&666666666666666666666666666",
"66666666666666666666666666 @@$$$$$@@;;33333*>>>&666666666666666666666666666",
"66666666666666666666666666 @@$$$$$@@;;33333*>>>&666666666666666666666666666",
"66666666666666666666666666 @@$$$$$$$@ ;;3333*>>&666666666666666666666666666",
"6666666666666666666666666  @@$$$$&&&& ;;3333*&&6666666666666666666666666666",
"66666666666666666666666      $$$$&>>>++++333;666666666666666666666666666666",
"66666666666666666666666      $$$$&>>>++++333;666666666666666666666666666666",
"6666666666666666666666        OOO&&&>>&&+++;;666666666666666666666666666666",
"6666666666666666666666 XXX    OOOO..&,,,&++66666666666666666666666666666666",
"66666666666666666666  XXXXX   OOO.<<<,,,>&&&6666666666666666666666666666666",
"66666666666666666666  XXXXX   OOO.<<<,,,>&&&6666666666666666666666666666666",
"6666666666666666666 XXXXXXX   O..<<<1#&&>>>&6666666666666666666666666666666",
"6666666666666666666 XXXXXXX   .<<<11##..&>>&6666666666666666666666666666666",
"6666666666666666666 XXXXXXX   .<<<11##..&>>&6666666666666666666666666666666",
"666666666666666666 XXXXXXX 66.<<<1###.XX&&&&X666666666666666666666666666666",
"666666666666666666 XXXXXX 6..<<11###.OOOOOO==XX6666666666666666666666666666",
"6666666666666666   XXXX  6.<<<1###..OOOOOOO2===6666666666666666666666666666",
"6666666666666666   XXXX  6.<<<1###..OOOOOOO2===6666666666666666666666666666",
"666666666666666   XXXX 66#1<<1###.XXX      2===6666666666666666666666666666",
"666666666666666 XXXXXX6##1111##..6666666666 ===6666666666666666666666666666",
"66666666666666 XXXXX66#1111###.6666666666666 ==6666666666666666666666666666",
"66666666666666 XXXXX66#1111###.6666666666666 ==6666666666666666666666666666",
"666666666666   XXXX6##1111###.666666666666666  6666666666666666666666666666",
"66666666   6  XXXX <55111##..6666666666666666666666666666666666666666666666",
"66666666   6  XXXX <55111##..6666666666666666666666666666666666666666666666",
"66666666 OO %%XX  <5555###.666666666666666666666666666666666666666666666666",
"66666666 OOO%%X <<5555###.6666666666666666666666666666666666666666666666666",
"666666666OOOOO <5555###..66666666666666666666666666666666666666666666666666",
"666666666OOOOO <5555###..66666666666666666666666666666666666666666666666666",
"666666666  OOO<5555###.6666666666666666666666666666666666666666666666666666",
"66666666666666<555##..66666666666666666666666666666666666666666666666666666",
"666666666666<<55###.6666666666666666666666666666666666666666666666666666666",
"666666666666<<55###.6666666666666666666666666666666666666666666666666666666",
"666666666666<<5#...66666666666666666666666666666666666666666666666666666666",
"666666666666<<..66666666666666666666666666666666666666666666666666666666666",
"666666666666<<..66666666666666666666666666666666666666666666666666666666666"
};
