/* XPM */
static char *result[] = {
/* columns rows colors chars-per-pixel */
"75 75 25 1 ",
"  c #301C19",
". c #34343A",
"X c #4B2F25",
"o c #633724",
"O c #673D31",
"+ c #5A440D",
"@ c #524238",
"# c #53535A",
"$ c #766A55",
"% c #7F7873",
"& c #8B6B1C",
"* c #8F4F34",
"= c #9C604C",
"- c #4CB528",
"; c #BC8356",
": c #AB9A6E",
"> c #F1C146",
", c #007DFF",
"< c #8A8A8F",
"1 c #B6B6B6",
"2 c #C8BCB4",
"3 c #EFC193",
"4 c #DBDBE2",
"5 c #F1F1F1",
"6 c None",
/* pixels */
"666666666666666666666666666666666666666666666666666666666666666666666666666",
"666666666666666666666666666666666666666666666666666666666666666666666666666",
"666666666666666666666666666666666666666666666666666666666666666666666666666",
"666666666666666666666666666666666666666666666666666666666666666666666666666",
"666666666666666666666666666666666666666666666666666666666666666666666666666",
"666666666666666666666666666666666666666666666666666666666666666666666666666",
"666666666666666666666666666666666666666666666666666666666666666666666666666",
"666666666666666666666666666666666666666666666666666666666666666666666666666",
"666666666666666<<4444444446666666666666666666666666666666666666666666666666",
"666666666666666<<4444444446666666666666666666666666666666666666666666666666",
"666666666666666<<<444444444666666666666666666666666666666666666666666666666",
"66666666666644444<<44444444446666666666666666666666666666666666666666666666",
"666666666664444444411444444441666666666666666666666666666666666666666666666",
"666666666664444444411444444441666666666666666666666666666666666666666666666",
"6666666666<<114444444444441111##6666666666666666666666666666666666666666666",
"6666666666<144444444444111111###6666666666666666666666666666666666666666666",
"6666666666<444444444441111111#666666666666666666666666666666666666666666666",
"6666666666<444444444441111111#666666666666666666666666666666666666666666666",
"6666666666<44444433333<<<1111#666666666666666666666666666666666666666666666",
"6666666666<4##<33333333<<<3<<<  6666666666666666666666666666666666666666666",
"6666666666<4##<33333333<<<3<<<  6666666666666666666666666666666666666666666",
"6666666666####<oo33ooo;<<<3<<<  6666666666666666666666666666666666666666666",
"666666666666###4433oo43<<<<  <  6666666666666666666666666666666666666666666",
"66666666666666#4433--4333       6666666666666666666666666666666666666666666",
"66666666666666#4433--4333       6666666666666666666666666666666666666666666",
"66666666666666#33333333;;    6666666666666666666666666666666666666666666666",
"6666666666666666633333;;;; @@@666666666666666666666666666666666666666666666",
"666666666666666666666oo;;;:::@@@6666666666666666666666666666666666666666666",
"666666666666666666666oo;;;:::@@@6666666666666666666666666666666666666666666",
"6666666666666666666666@333::::::@666666666666666666666666666666666666666666",
"666666666666666666666@333::::::::@66666666666666666666666666666666666666666",
"666666666666666666666@$:::::::::::@@666666666666666666666666666666666666666",
"666666666666666666666@$:::::::::::@@666666666666666666666666666666666666666",
"666666666666666666   @:::::::$::::::$66666666666666666666666666666666666666",
"66666666666666666     @$$::$$@::::$$$@@@66666666666666666666666666666666666",
"66666666666666666     @$$::$$@::::$$$@@@66666666666666666666666666666666666",
"66666666666666666      @@@$$$$@@:$::::@@66666666666666666666666666666666666",
"66666666666666666            222@::::3;;*6666666666666666666666666666666666",
"6666666666666666666          O22@@;;33333**66666666666666666666666666666666",
"6666666666666666666          O22@@;;33333**66666666666666666666666666666666",
"66666666666666666666666      222OOXX;333333*6&&&&66666666666666666666666666",
"66666666666666666666666666 $$$$$$$@@@;;;3333*>>>&66666666666666666666666666",
"66666666666666666666666666 $$$$$$$@@@   ;3333**>&66666666666666666666666666",
"66666666666666666666666666 $$$$$$$@@@   ;3333**>&66666666666666666666666666",
"66666666666666666666666666 @@$$$$$&&&&  ;3333**&666666666666666666666666666",
"6666666666666666666666666  OOO@@@@&&>>+++++33;;6666666666666666666666666666",
"6666666666666666666666666  OOO@@@@&&>>+++++33;;6666666666666666666666666666",
"6666666666666666666666666 OOOOOOOX&&&>>>&+++;;;6666666666666666666666666666",
"6666666666666666666666666XOOOOOOO   .&,,,&&+6666666666666666666666666666666",
"66666666666666666666666  OOOOOOO  ..<<,,,>>&&666666666666666666666666666666",
"66666666666666666666666  OOOOOOO  ..<<,,,>>&&666666666666666666666666666666",
"66666666666666666666666XXOOOOO   .<<<1##&>>>&666666666666666666666666666666",
"6666666666666666666666 OOOOOO   .<<<1###.&&>&666666666666666666666666666666",
"6666666666666666666666 OOOOXX ..<<11##..X&&&&  XX66666666666666666666666666",
"6666666666666666666666 OOOOXX ..<<11##..X&&&&  XX66666666666666666666666666",
"666666666666666666666 OOOOO  .<<<1###.XXXXXXXXXOOXX666666666666666666666666",
"666666666666666666666 OOOOO..<<<1###.XXXXXXXXXX%OOO666666666666666666666666",
"6666666666666666666  OOOOO#11<11##..66666      %OOO666666666666666666666666",
"6666666666666666666  OOOOO#11<11##..66666      %OOO666666666666666666666666",
"6666666666666666666OOOOOO#1111###.6666666666666 OOO666666666666666666666666",
"666666666666666666 OOOX##1111###.666666666666666 OO666666666666666666666666",
"666666666666666666 OOOX##1111###.666666666666666 OO666666666666666666666666",
"666666666666XXXXX OOOX#1111###..66666666666666666  666666666666666666666666",
"666666666666XX=XX2OOO<5111###.666666666666666666666666666666666666666666666",
"666666666666XX===2O<<5555##..6666666666666666666666666666666666666666666666",
"666666666666XX===2O<<5555##..6666666666666666666666666666666666666666666666",
"666666666666XX====<5555###.666666666666666666666666666666666666666666666666",
"66666666666666===<5555###.6666666666666666666666666666666666666666666666666",
"66666666666666X<<5555##..66666666666666666666666666666666666666666666666666",
"66666666666666X<<5555##..66666666666666666666666666666666666666666666666666",
"666666666666666<<55###.6666666666666666666666666666666666666666666666666666",
"66666666666666<555###.66666666666666666666666666666666666666666666666666666",
"66666666666666<555###.66666666666666666666666666666666666666666666666666666",
"66666666666666<55#...666666666666666666666666666666666666666666666666666666",
"66666666666666<...666666666666666666666666666666666666666666666666666666666"
};
