/* XPM */
static char *result[] = {
/* columns rows colors chars-per-pixel */
"75 75 25 1 ",
"  c #301C19",
". c #34343A",
"X c #4B2F25",
"o c #633724",
"O c #673D31",
"+ c #5A440D",
"@ c #524238",
"# c #53535A",
"$ c #766A55",
"% c #7F7873",
"& c #8B6B1C",
"* c #8F4F34",
"= c #9C604C",
"- c #4CB528",
"; c #BC8356",
": c #AB9A6E",
"> c #F1C146",
", c #007DFF",
"< c #8A8A8F",
"1 c #B6B6B6",
"2 c #C8BCB4",
"3 c #EFC193",
"4 c #DBDBE2",
"5 c #F1F1F1",
"6 c None",
/* pixels */
"666666666666666666666666666666666666666666666666666666666666666666666666666",
"666666666666666666666666666666666666666666666666666666666666666666666666666",
"666666666666666666666666666666666666666666666666666666666666666666666666666",
"666666666666666666666666666666666666666666666666666666666666666666666666666",
"666666666666666666666666666666666666666666666666666666666666666666666666666",
"666666666666666666666666666666666666666666666666666666666666666666666666666",
"666666666666666666666666666666666666666666666666666666666666666666666666666",
"666666666666666666666666666666666666666666666666666666666666666666666666666",
"66666666666666666666666666666666666666666666666664444444444<666666666666666",
"666666666666666666666666666666666666666666666666444444444<<<666666666666666",
"66666666666666666666666666666666666666666666664444444444<<<4444666666666666",
"66666666666666666666666666666666666666666666664444444444<<<4444666666666666",
"666666666666666666666666666666666666666666666144444444414444444466666666666",
"66666666666666666666666666666666666666666666#111144444444444411<<<666666666",
"66666666666666666666666666666666666666666666#111144444444444411<<<666666666",
"66666666666666666666666666666666666666666666##111111444444444441<<666666666",
"666666666666666666666666666666666666666666666#111111144444444444<<666666666",
"666666666666666666666666666666666666666666666#1111<<<33333344444<<666666666",
"666666666666666666666666666666666666666666666#1111<<<33333344444<<666666666",
"66666666666666666666666666666666666666666666 <<<3<<<33333333<##4<<666666666",
"66666666666666666666666666666666666666666666 <<<3<<<;ooo333o<#####666666666",
"66666666666666666666666666666666666666666666 <  <<<<344o3334###666666666666",
"66666666666666666666666666666666666666666666 <  <<<<344o3334###666666666666",
"66666666666666666666666666666666666666666666      33344-3334#66666666666666",
"6666666666666666666666666666666666666666666666    ;;33333333#66666666666666",
"6666666666666666666666666666666666666666666666    ;;33333333#66666666666666",
"666666666666666666666666666666666666666666666@   ;;;;3333336666666666666666",
"66666666666666666666666666666666666666666666@::::;;;ooo66666666666666666666",
"666666666666666666666666666666666666666666@@:::::333@6666666666666666666666",
"666666666666666666666666666666666666666666@@:::::333@6666666666666666666666",
"66666666666666666666666666666666666666666@::::::::333@@66666666666666666666",
"666666666666666666666666666666666666666@@:::::::::::$@@66666666666666666666",
"66666666666666666666666666666666666666$::::::$:::::::@@66666666666666666666",
"66666666666666666666666666666666666666$::::::$:::::::@@66666666666666666666",
"66666666666666666666666666666666666@@@$$$::::@$$::$$@  66666666666666666666",
"66666666666666666666666666666666666@@::::$::@$$$$@@@    6666666666666666666",
"66666666666666666666666666666666666@@::::$::@$$$$@@@    6666666666666666666",
"6666666666666666666666666666666666*;;3::::@@22          6666666666666666666",
"66666666666666666666666666666666**33333;;@@@2O          6666666666666666666",
"66666666666666666666666666&&&&6*333333;XXOOO22       6666666666666666666666",
"66666666666666666666666666&&&&6*333333;XXOOO22       6666666666666666666666",
"66666666666666666666666666&>>>*3333;;;@@@$$$$$@@ 66666666666666666666666666",
"66666666666666666666666666&>**3333;   @@@$$$$$$$ 66666666666666666666666666",
"66666666666666666666666666&>**3333;   @@@$$$$$$$ 66666666666666666666666666",
"666666666666666666666666666&**3333;  &&@@$$$$$$$ 66666666666666666666666666",
"6666666666666666666666666666;;33+++++>>&&$$$@OOOX   66666666666666666666666",
"6666666666666666666666666666;;;+++&>>>&  OOOOOOOOOXX   66666666666666666666",
"6666666666666666666666666666;;;+++&>>>&  OOOOOOOOOXX   66666666666666666666",
"6666666666666666666666666666666+&&,,,&.   XXOOOOOOOOOXX 6666666666666666666",
"6666666666666666666666666666666&>>,,,<<..    XOOOOOOOOO 6666666666666666666",
"666666666666666666666666666666&>>>&##1<<<.66    XOOOOOO 6666666666666666666",
"666666666666666666666666666666&>>>&##1<<<.66    XOOOOOO 6666666666666666666",
"666666666666666666666666666666&>&&.###1<<<..6 OOOOOOX  66666666666666666666",
"6666666666666666666666666666666&XXX..##11<<<.OOOOO   6666666666666666666666",
"6666666666666666666666666666666&XXX..##11<<<.OOOOO   6666666666666666666666",
"666666666666666666666666666666 XXXXXX.###1<<<.OO  6666666666666666666666666",
"6666666666666666666666666666  XXXXX  6.###11<<..666666666666666666666666666",
"666666666666666666666666666 XXXXXX 6666..###1<11#66666666666666666666666666",
"666666666666666666666666666 XXXXXX 6666..###1<11#66666666666666666666666666",
"666666666666666666666666666 XXXX  66666==.###1111#6666666666666666666666666",
"66666666666666666666666666 XXXX 6666666== ..##1111##66666666666666666666666",
"66666666666666666666666666 XXX 66666666  666.###1111#6666666666666666666666",
"66666666666666666666666666 XXX 66666666  666.###1111#6666666666666666666666",
"666666666666666666666666  XX  666666666666666.###1115<<66666666666666666666",
"66666666666666666666666 XXX 666666666666666666..##55555<6666666666666666666",
"66666666666666666666666 XXX 666666666666666666..##55555<6666666666666666666",
"666666666666666666666OOXXX  66666666666666666666.###5555<666666666666666666",
"666666666666666666666OOO%%% 666666666666666666666.###5555<<6666666666666666",
"666666666666666666666OOOOO 66666666666666666666666..###5555<666666666666666",
"666666666666666666666OOOOO 66666666666666666666666..###5555<666666666666666",
"66666666666666666666666OOOO 666666666666666666666666.###555<666666666666666",
"66666666666666666666666666666666666666666666666666666..##555<66666666666666",
"6666666666666666666666666666666666666666666666666666666..##5<66666666666666",
"6666666666666666666666666666666666666666666666666666666..##5<66666666666666",
"666666666666666666666666666666666666666666666666666666666...<66666666666666"
};
