/* XPM */
static char *result[] = {
/* columns rows colors chars-per-pixel */
"75 75 25 1 ",
"  c #301C19",
". c #34343A",
"X c #4B2F25",
"o c #633724",
"O c #673D31",
"+ c #5A440D",
"@ c #524238",
"# c #53535A",
"$ c #766A55",
"% c #7F7873",
"& c #8B6B1C",
"* c #8F4F34",
"= c #9C604C",
"- c #4CB528",
"; c #BC8356",
": c #AB9A6E",
"> c #F1C146",
", c #007DFF",
"< c #8A8A8F",
"1 c #B6B6B6",
"2 c #C8BCB4",
"3 c #EFC193",
"4 c #DBDBE2",
"5 c #F1F1F1",
"6 c None",
/* pixels */
"666666666666666666666666666666666666666666666666666666666666666666666666666",
"666666666666666666666666666666666666666666666666666666666666666666666666666",
"666666666666666666666666666666666666666666666666666666666666666666666666666",
"666666666666666666666666666666666666666666666666666666666666666666666666666",
"666666666666666666666666666666666666666666666666666666666666666666666666666",
"666666666666666666666666666666666666666666666666666666666666666666666666666",
"666666666666666666666666666666666666666666666666666666666666666666666666666",
"666666666666666666666666666666666666666666666666666666666666666666666666666",
"6666666666666666666666666666666666666666666666666444444444<<666666666666666",
"6666666666666666666666666666666666666666666666666444444444<<666666666666666",
"666666666666666666666666666666666666666666666666444444444<<<666666666666666",
"66666666666666666666666666666666666666666666664444444444<<44444666666666666",
"666666666666666666666666666666666666666666666144444444114444444466666666666",
"666666666666666666666666666666666666666666666144444444114444444466666666666",
"6666666666666666666666666666666666666666666##111144444444444411<<6666666666",
"6666666666666666666666666666666666666666666###111111444444444441<6666666666",
"666666666666666666666666666666666666666666666#111111144444444444<6666666666",
"666666666666666666666666666666666666666666666#111111144444444444<6666666666",
"666666666666666666666666666666666666666666666#1111<<<33333444444<6666666666",
"6666666666666666666666666666666666666666666  <<<3<<<33333333<##4<6666666666",
"6666666666666666666666666666666666666666666  <<<3<<<33333333<##4<6666666666",
"6666666666666666666666666666666666666666666  <<<3<<<;ooo33oo<####6666666666",
"6666666666666666666666666666666666666666666  <  <<<<34oo3344###666666666666",
"6666666666666666666666666666666666666666666       3334--3344#66666666666666",
"6666666666666666666666666666666666666666666       3334--3344#66666666666666",
"6666666666666666666666666666666666666666666666    ;;33333333#66666666666666",
"666666666666666666666666666666666666666666666@@@ ;;;;3333366666666666666666",
"6666666666666666666666666666666666666666666@@@:::;;;oo666666666666666666666",
"6666666666666666666666666666666666666666666@@@:::;;;oo666666666666666666666",
"666666666666666666666666666666666666666666@::::::333@6666666666666666666666",
"66666666666666666666666666666666666666666@::::::::333@666666666666666666666",
"666666666666666666666666666666666666666@@:::::::::::$@666666666666666666666",
"666666666666666666666666666666666666666@@:::::::::::$@666666666666666666666",
"66666666666666666666666666666666666666$::::::$:::::::@   666666666666666666",
"66666666666666666666666666666666666@@@$$$::::@$$::$$@     66666666666666666",
"66666666666666666666666666666666666@@@$$$::::@$$::$$@     66666666666666666",
"66666666666666666666666666666666666@@::::$:@@$$$$@@@      66666666666666666",
"6666666666666666666666666666666666*;;3::::@222            66666666666666666",
"66666666666666666666666666666666**33333;;@@22O          6666666666666666666",
"66666666666666666666666666666666**33333;;@@22O          6666666666666666666",
"66666666666666666666666666&&&&6*333333;XXOO222      66666666666666666666666",
"66666666666666666666666666&>>>*3333;;;@@@$$$$$$$ 66666666666666666666666666",
"66666666666666666666666666&>**3333;   @@@$$$$$$$ 66666666666666666666666666",
"66666666666666666666666666&>**3333;   @@@$$$$$$$ 66666666666666666666666666",
"666666666666666666666666666&**3333;  &&&&$$$$$@@ 66666666666666666666666666",
"6666666666666666666666666666;;33+++++>>&&@@@@OOO  6666666666666666666666666",
"6666666666666666666666666666;;33+++++>>&&@@@@OOO  6666666666666666666666666",
"6666666666666666666666666666;;;+++&>>>&&&XOOOOOOO 6666666666666666666666666",
"6666666666666666666666666666666+&&,,,&.   OOOOOOOX6666666666666666666666666",
"666666666666666666666666666666&&>>,,,<<..  OOOOOOO  66666666666666666666666",
"666666666666666666666666666666&&>>,,,<<..  OOOOOOO  66666666666666666666666",
"666666666666666666666666666666&>>>&##1<<<.   OOOOOXX66666666666666666666666",
"666666666666666666666666666666&>&&.###1<<<.   OOOOOO 6666666666666666666666",
"66666666666666666666666666XX  &&&&X..##11<<.. XXOOOO 6666666666666666666666",
"66666666666666666666666666XX  &&&&X..##11<<.. XXOOOO 6666666666666666666666",
"666666666666666666666666XXOOXXXXXXXXX.###1<<<.  OOOOO 666666666666666666666",
"666666666666666666666666OOO%XXXXXXXXXX.###1<<<..OOOOO 666666666666666666666",
"666666666666666666666666OOO%      66666..##11<11#OOOOO  6666666666666666666",
"666666666666666666666666OOO%      66666..##11<11#OOOOO  6666666666666666666",
"666666666666666666666666OOO 6666666666666.###1111#OOOOOO6666666666666666666",
"666666666666666666666666OO 666666666666666.###1111##XOOO 666666666666666666",
"666666666666666666666666OO 666666666666666.###1111##XOOO 666666666666666666",
"666666666666666666666666  66666666666666666..###1111#XOOO XXXXX666666666666",
"666666666666666666666666666666666666666666666.###1115<OOO2XX=XX666666666666",
"6666666666666666666666666666666666666666666666..##5555<<O2===XX666666666666",
"6666666666666666666666666666666666666666666666..##5555<<O2===XX666666666666",
"666666666666666666666666666666666666666666666666.###5555<====XX666666666666",
"6666666666666666666666666666666666666666666666666.###5555<===66666666666666",
"66666666666666666666666666666666666666666666666666..##5555<<X66666666666666",
"66666666666666666666666666666666666666666666666666..##5555<<X66666666666666",
"6666666666666666666666666666666666666666666666666666.###55<<666666666666666",
"66666666666666666666666666666666666666666666666666666.###555<66666666666666",
"66666666666666666666666666666666666666666666666666666.###555<66666666666666",
"666666666666666666666666666666666666666666666666666666...#55<66666666666666",
"666666666666666666666666666666666666666666666666666666666...<66666666666666"
};
