/* XPM */
static char *result[] = {
/* columns rows colors chars-per-pixel */
"75 75 24 1 ",
"  c #301C19",
". c #34343A",
"X c #4B2F25",
"o c #633724",
"O c #673D31",
"+ c #5A440D",
"@ c #524238",
"# c #53535A",
"$ c #766A55",
"% c #8B6B1C",
"& c #8F4F34",
"* c #9C604C",
"= c #4CB528",
"- c #BC8356",
"; c #AB9A6E",
": c #F1C146",
"> c #007DFF",
", c #8A8A8F",
"< c #B6B6B6",
"1 c #C8BCB4",
"2 c #EFC193",
"3 c #DBDBE2",
"4 c #F1F1F1",
"5 c None",
/* pixels */
"555555555555555555555555555555555555555555555555555555555555555555555555555",
"555555555555555555555555555555555555555555555555555555555555555555555555555",
"555555555555555555555555555555555555555555555555555555555555555555555555555",
"555555555555555555555555555555555555555555555555555555555555555555555555555",
"555555555555555555555555555555555555555555555555555555555555555555555555555",
"555555555555555555555555555555555555555555555555555555555555555555555555555",
"555555555555555555555555555555555555555555555555555555555555555555555555555",
"55555555555555555555555555555555555555555555555553333333333,555555555555555",
"555555555555555555555555555555555555555555555555333333333,,,555555555555555",
"55555555555555555555555555555555555555555555553333333333,,,3333555555555555",
"55555555555555555555555555555555555555555555553333333333,,,3333555555555555",
"555555555555555555555555555555555555555555555<33333333<<3333333355555555555",
"5555555555555555555555555555555555555555555##<<<<333333333333<<,,5555555555",
"5555555555555555555555555555555555555555555###<<<<<<33333333333<,5555555555",
"5555555555555555555555555555555555555555555###<<<<<<33333333333<,5555555555",
"555555555555555555555555555555555555555555555#<<<<<<<33333333333,5555555555",
"555555555555555555555555555555555555555555555#<<<<,,,22222233333,5555555555",
"5555555555555555555555555555555555555555555  ,,,2,,,22222222,##3,5555555555",
"5555555555555555555555555555555555555555555  ,,,2,,,22222222,##3,5555555555",
"5555555555555555555555555555555555555555555  ,,,2,,,-ooo222o,####5555555555",
"5555555555555555555555555555555555555555555  ,  ,,,,23oo2223###555555555555",
"5555555555555555555555555555555555555555555  ,  ,,,,23oo2223###555555555555",
"5555555555555555555555555555555555555555555       2223==2223#55555555555555",
"5555555555555555555555555555555555555555555555    --22222222#55555555555555",
"555555555555555555555555555555555555555555555@@@ ----2222225555555555555555",
"555555555555555555555555555555555555555555555@@@ ----2222225555555555555555",
"5555555555555555555555555555555555555555555@@@;;;---oo555555555555555555555",
"555555555555555555555555555555555555555555@@@;;;;;22@5555555555555555555555",
"55555555555555555555555555555555555555555 @;;;;;;;;;2@555555555555555555555",
"55555555555555555555555555555555555555555 @;;;;;;;;;2@555555555555555555555",
"555555555555555555555555555555555555555  @;;;;;;;;;;;@555555555555555555555",
"555555555555555555555555555555555555555$$;;;;;$$;;;;;@555555555555555555555",
"555555555555555555555555555555555555555$$;;;;;$$;;;;;@555555555555555555555",
"5555555555555555555555555555555555555@@$$$;;;;@@$;;;@5555555555555555555555",
"5555555555555555555555555555555555555@;;;;$;;@@@$@@@55555555555555555555555",
"55555555555555555555555555555555555&&-2;;;;@@1      55555555555555555555555",
"55555555555555555555555555555555555&&-2;;;;@@1      55555555555555555555555",
"5555555555555555555555555555555555&222222-@@@1      55555555555555555555555",
"555555555555555555555555555%%%%55&22222--OOOO1   55555555555555555555555555",
"555555555555555555555555555%:::&&2222--$$$$$$$@@ 55555555555555555555555555",
"555555555555555555555555555%:::&&2222--$$$$$$$@@ 55555555555555555555555555",
"555555555555555555555555555%::&2222--@@$$$$$$$$$ 55555555555555555555555555",
"5555555555555555555555555555%%&2222--@%%%%$$$$$$    55555555555555555555555",
"555555555555555555555555555555-222++++:::%$$$ XXXXXX  555555555555555555555",
"555555555555555555555555555555-222++++:::%$$$ XXXXXX  555555555555555555555",
"555555555555555555555555555555---++%%::%%%O  XXXXXXXXX   555555555555555555",
"555555555555555555555555555555555+%>>>%..O XXXXXXXXXXXXX 555555555555555555",
"555555555555555555555555555555555+%>>>%..O XXXXXXXXXXXXX 555555555555555555",
"5555555555555555555555555555555%%%:>>>,,,.      XXXXXXXX 555555555555555555",
"555555555555555555555555555555 %%::%%#<,,,.555   XXXXX  5555555555555555555",
"555555555555555555555555555555 %%:%..##<<,,..5  XXXXX 555555555555555555555",
"555555555555555555555555555555 %%:%..##<<,,..5  XXXXX 555555555555555555555",
"5555555555555555555555555555  X%%%%OO.###<,,,.XXXXXX 5555555555555555555555",
"5555555555555555555555555555  OOOOOXX .###<,,,..XX5555555555555555555555555",
"555555555555555555555555555 OOOOOOX5555..##<<,,,.55555555555555555555555555",
"555555555555555555555555555 OOOOOOX5555..##<<,,,.55555555555555555555555555",
"555555555555555555555555555XOOOOOX5555555.###<,,<#5555555555555555555555555",
"55555555555555555555555555XOOOO  555555555.###<<<<##55555555555555555555555",
"55555555555555555555555555XOOOO  555555555.###<<<<##55555555555555555555555",
"555555555555555555555555XXOOOO 555555555555..###<<<<#5555555555555555555555",
"555555555555555555555555XXOO  555555555555555.###<<<<#555555555555555555555",
"55555555555555555555555XOOO   5555555555555555..##<<<4,,5555555555555555555",
"55555555555555555555555XOOO   5555555555555555..##<<<4,,5555555555555555555",
"5555555555555555555555OOOOO 55555555555555555555.###4444,555555555555555555",
"5555555555555555555555OOOO 5555555555555555555555.###4444,,5555555555555555",
"5555555555555555555555OO  555555555555555555555555..##44444,555555555555555",
"5555555555555555555555OO  555555555555555555555555..##44444,555555555555555",
"5555555555555555555555*111 5555555555555555555555555.###4444,55555555555555",
"5555555555555555555555***** 5555555555555555555555555.###444,55555555555555",
"55555555555555555555555*****  555555555555555555555555..###44,,555555555555",
"55555555555555555555555*****  555555555555555555555555..###44,,555555555555",
"55555555555555555555555555555555555555555555555555555555...#4,,555555555555",
"55555555555555555555555555555555555555555555555555555555555..,,555555555555",
"55555555555555555555555555555555555555555555555555555555555..,,555555555555",
"555555555555555555555555555555555555555555555555555555555555555555555555555"
};
