/* XPM */
static char *result[] = {
/* columns rows colors chars-per-pixel */
"75 75 25 1 ",
"  c #301C19",
". c #34343A",
"X c #4B2F25",
"o c #633724",
"O c #673D31",
"+ c #5A440D",
"@ c #524238",
"# c #53535A",
"$ c #766A55",
"% c #7F7873",
"& c #8B6B1C",
"* c #8F4F34",
"= c #9C604C",
"- c #4CB528",
"; c #BC8356",
": c #AB9A6E",
"> c #F1C146",
", c #007DFF",
"< c #8A8A8F",
"1 c #B6B6B6",
"2 c #C8BCB4",
"3 c #EFC193",
"4 c #DBDBE2",
"5 c #F1F1F1",
"6 c None",
/* pixels */
"666666666666666666666666666666666666666666666666666666666666666666666666666",
"666666666666666666666666666666666666666666666666666666666666666666666666666",
"666666666666666666666666666666666666666666666666666666666666666666666666666",
"666666666666666666666666666666666666666666666666666666666666666666666666666",
"666666666666666666666666666666666666666666666666666666666666666666666666666",
"666666666666666666666666666666666666666666666666666666666666666666666666666",
"666666666666666666666666666666666666666666666666666666666666666666666666666",
"66666666666666666666666666666666666666666666666664444444444<666666666666666",
"666666666666666666666666666666666666666666666666444444444<<<666666666666666",
"666666666666666666666666666666666666666666666666444444444<<<666666666666666",
"66666666666666666666666666666666666666666666664444444444<<<4444666666666666",
"666666666666666666666666666666666666666666666144444444414444444466666666666",
"666666666666666666666666666666666666666666666144444444414444444466666666666",
"66666666666666666666666666666666666666666666#111144444444444411<<<666666666",
"66666666666666666666666666666666666666666666##111111444444444441<<666666666",
"666666666666666666666666666666666666666666666#111111144444444444<<666666666",
"666666666666666666666666666666666666666666666#111111144444444444<<666666666",
"666666666666666666666666666666666666666666666#1111<<<33333344444<<666666666",
"66666666666666666666666666666666666666666666 <<<3<<<33333333<##4<<666666666",
"66666666666666666666666666666666666666666666 <<<3<<<;ooo333o<#####666666666",
"66666666666666666666666666666666666666666666 <<<3<<<;ooo333o<#####666666666",
"66666666666666666666666666666666666666666666 <  <<<<344o3334###666666666666",
"66666666666666666666666666666666666666666666      33344-3334#66666666666666",
"66666666666666666666666666666666666666666666      33344-3334#66666666666666",
"6666666666666666666666666666666666666666666666    ;;33333333#66666666666666",
"666666666666666666666666666666666666666666666@@@ ;;;;3333336666666666666666",
"66666666666666666666666666666666666666666666@@:::;;;ooo66666666666666666666",
"66666666666666666666666666666666666666666666@@:::;;;ooo66666666666666666666",
"666666666666666666666666666666666666666666  @:::::33@6666666666666666666666",
"66666666666666666666666666666666666666666 @@::::::::3@@66666666666666666666",
"666666666666666666666666666666666666666  @:::::::::::@@66666666666666666666",
"666666666666666666666666666666666666666  @:::::::::::@@66666666666666666666",
"666666666666666666666666666666666666666$$:::::$$:::::@@66666666666666666666",
"6666666666666666666666666666666666666@@$$$::::@@$:::@6666666666666666666666",
"6666666666666666666666666666666666666@@$$$::::@@$:::@6666666666666666666666",
"6666666666666666666666666666666666666@::::$$:@@@$@@@66666666666666666666666",
"66666666666666666666666666666666666**;3:::::@2   66666666666666666666666666",
"6666666666666666666666666666666666*333333;@@@2  666666666666666666666666666",
"6666666666666666666666666666666666*333333;@@@2  666666666666666666666666666",
"666666666666666666666666666&&&&6**33333;;OOOO2  666666666666666666666666666",
"666666666666666666666666666&>>>*33333;;@@$$$$$@@ 66666666666666666666666666",
"666666666666666666666666666&>>>*33333;;@@$$$$$@@ 66666666666666666666666666",
"666666666666666666666666666&>>*3333;; @$$$$$$$@@ 66666666666666666666666666",
"6666666666666666666666666666&&*3333;; &&&&$$$$@@  6666666666666666666666666",
"666666666666666666666666666666;333++++>>>&$$$$      66666666666666666666666",
"666666666666666666666666666666;333++++>>>&$$$$      66666666666666666666666",
"666666666666666666666666666666;;+++&&>>&&&OOO        6666666666666666666666",
"66666666666666666666666666666666++&,,,&..OOOO    XXX 6666666666666666666666",
"6666666666666666666666666666666&&&>,,,<<<.OOO   XXXXX  66666666666666666666",
"6666666666666666666666666666666&&&>,,,<<<.OOO   XXXXX  66666666666666666666",
"6666666666666666666666666666666&>>>&&#1<<<..O   XXXXXXX 6666666666666666666",
"6666666666666666666666666666666&>>&..##11<<<.   XXXXXXX 6666666666666666666",
"6666666666666666666666666666666&>>&..##11<<<.   XXXXXXX 6666666666666666666",
"666666666666666666666666666666X&&&&XX.###1<<<.66 XXXXXXX 666666666666666666",
"6666666666666666666666666666XX==OOOOOO.###11<<..6 XXXXXX 666666666666666666",
"6666666666666666666666666666===2OOOOOOO..###1<<<.6  XXXX   6666666666666666",
"6666666666666666666666666666===2OOOOOOO..###1<<<.6  XXXX   6666666666666666",
"6666666666666666666666666666===2      XXX.###1<<1#66 XXXX   666666666666666",
"6666666666666666666666666666=== 6666666666..##1111##6XXXXXX 666666666666666",
"6666666666666666666666666666== 6666666666666.###1111#66XXXXX 66666666666666",
"6666666666666666666666666666== 6666666666666.###1111#66XXXXX 66666666666666",
"6666666666666666666666666666  666666666666666.###1111##6XXXX   666666666666",
"6666666666666666666666666666666666666666666666..##11155< XXXX  6   66666666",
"6666666666666666666666666666666666666666666666..##11155< XXXX  6   66666666",
"666666666666666666666666666666666666666666666666.###5555<  XX%% OO 66666666",
"6666666666666666666666666666666666666666666666666.###5555<< X%%OOO 66666666",
"66666666666666666666666666666666666666666666666666..###5555< OOOOO666666666",
"66666666666666666666666666666666666666666666666666..###5555< OOOOO666666666",
"6666666666666666666666666666666666666666666666666666.###5555<OOO  666666666",
"66666666666666666666666666666666666666666666666666666..##555<66666666666666",
"6666666666666666666666666666666666666666666666666666666.###55<<666666666666",
"6666666666666666666666666666666666666666666666666666666.###55<<666666666666",
"66666666666666666666666666666666666666666666666666666666...#5<<666666666666",
"66666666666666666666666666666666666666666666666666666666666..<<666666666666",
"66666666666666666666666666666666666666666666666666666666666..<<666666666666"
};
