/* XPM */
static char *result[] = {
/* columns rows colors chars-per-pixel */
"75 75 12 1 ",
"  c #280916",
". c #3B0E20",
"X c #3B0F21",
"o c #3E2530",
"O c #312841",
"+ c #3F3A57",
"@ c #5A4772",
"# c #BA5D22",
"$ c #CD7A26",
"% c #875368",
"& c #D1A22A",
"* c None",
/* pixels */
"***************************************************************************",
"***************************************************************************",
"***************************************************************************",
"***************************************************************************",
"***************************************************************************",
"***************************************************************************",
"***************************************************************************",
"***************************************************************************",
"***************************************************************************",
"***************************************************************************",
"***************************************************************************",
"***************************************************************************",
"***************************************************************************",
"***************************************************************************",
"***************************************************************************",
"***************************************************************************",
"***************************************************************************",
"***************************************************************************",
"***************************************************************************",
"***************************************************************************",
"***************************************************************************",
"***************************************************************************",
"***************************************************************************",
"***************************************************************************",
"***************************************************************************",
"***************************************************************************",
"***************************************************************************",
"***************************************************************************",
"***************************************************************************",
"***************************************************************************",
"***************************************************************************",
"***************************************************************************",
"***************************************************************************",
"***************************************************************************",
"***************************************************************************",
"***************************************************************************",
"***************************************************************************",
"***************************************************************************",
"***************************************************************************",
"***************************************************************************",
"***************************************************************************",
"***************************************************************************",
"***************************************************************************",
"***************************************************************************",
"***************************************************************************",
"***************************************************************************",
"***************************************************************************",
"***************************************************************************",
"***************************************************************************",
"***************************************************************************",
"***************************************************************************",
"***************************************************************************",
"***************************************************************************",
"***************************************************************************",
"***************************************************************************",
"***************************************************************************",
"****************************************$&*********************************",
"**************************************++++@+++*****************************",
"*************************$$$*OO++++++++++#$OO++****************oooXXXXXXXXX",
"*************************#$$$OO+++++++++++#OO++@@*************ooXXXXXXXXXXX",
"************++++++OOOOO####$$$OOOO+++++OOO#$O++++@@********* *XXXXXXX     X",
"***********++++++++OOOO#######O$OO++++OOOO#$$O++++@********  XXXXXX        ",
"**********+++++++++OOOO#######OOOOOO+OO%O.. ........... ...           oo*oo",
"**********OOOOOOOOOOOOO######OO.... .....                             ooooo",
"***************************************************************************",
"***************************************************************************",
"***************************************************************************",
"***************************************************************************",
"***************************************************************************",
"***************************************************************************",
"***************************************************************************",
"***************************************************************************",
"***************************************************************************",
"***************************************************************************",
"***************************************************************************"
};
