/* XPM */
static char *result[] = {
/* columns rows colors chars-per-pixel */
"75 75 18 1 ",
"  c #280916",
". c #20121C",
"X c #29072F",
"o c #3B0E20",
"O c #3B0F21",
"+ c #3E2530",
"@ c #4A2B38",
"# c #312841",
"$ c #3F3A57",
"% c #4D0C4F",
"& c #5A4772",
"* c #F22525",
"= c #BA5D22",
"- c #CD7A26",
"; c #875368",
": c #D1A22A",
"> c #A16891",
", c None",
/* pixels */
",,,,,,,,,,,,,,,,,,,,,,,,,,,,,,,,,,,,,,,,,,,,,,,,,,,,,,,,,,,,,,,,,,,,,,,,,,,",
",,,,,,,,,,,,,,,,,,,,,,,,,,,,,,,,,,,,,,,,,,,,,,,,,,,,,,,,,,,,,,,,,,,,,,,,,,,",
",,,,,,,,,,,,,,,,,,,,,,,,,,,,,,,,,,,,,,,,,,,,,,,,,,,,,,,,,,,,,,,,,,,,,,,,,,,",
",,,,,,,,,,,,,,,,,,,,,,,,,,,,,,,,,,,,,,,,,,,,,,,,,,,,,,,,,,,,,,,,,,,,,,,,,,,",
",,,,,,,,,,,,,,,,,,,,,,,,,,,,,,,,,,,,,,,,,,,,,,,,,,,,,,,,,,,,,,,,,,,,,,,,,,,",
",,,,,,,,,,,,,,,,,,,,,,,,,,,,,,,,,,,,,,,,,,,,,,,,,,,,,,,,,,,,,,,,,,,,,,,,,,,",
",,,,,,,,,,,,,,,,,,,,,,,,,,,,,,,,,,,,,,,,,,,,,,,,,,,,,,,,,,,,,,,,,,,,,,,,,,,",
",,,,,,,,,,,,,,,,,,,,,,,,,,,,,,,,,,,,,,,,,,,,,,,,,,,,,,,,,,,,,,,,,,,,,,,,,,,",
",,,,,,,,,,,,,,,,,,,,,,,,,,,,,,,,,,,,,,,,,,,,,,,,,,,,,,,,,,,,,,,,,,,,,,,,,,,",
",,,,,,,,,,,,,,,,,,,XXXX,,,,,,,,,,,,,,,,,,,,,,,,,,,,,,,,,,,,,,,,,,,,,,,,,,,,",
",,,,,,,,,,,,,,,,,,XXXXXXX,,,,,,,,,,,,,,,,,,,,,,,,,,,,,,,,,,,,,,,,,,,,,,,,,,",
",,,,,,,,,,,,,,,,,,X,,,,,,,,,,,,,,,,,,,,,,,,,,,,,,,,,,,,,,,,,,,,,,,,,,,,,,,,",
",,,,,,,,,,,,,,,,,,,,,,,,,,,,,,,,,,,,,,,,,,,,,,,,,,,,,,,,,,,,,,,,,,,,,,,,,,,",
",,,,,,,,,,,,,,,,,,,,,,,,,,,,,,,,,,,,,,,,,,,,,,,,,,,,,,,,,,,,,,,,,,,,,,,,,,,",
",,,,,,,X%,,,,,,,,,,,,,,,,,,,,,,,,,,,,,,,,,,,,,,,,,,,,,,,,,,,,,,,,,,,,,,,,,,",
",,,,,,,%,,,,,,,,%%,,,,,,,XXXXX,,,,,,,,,,,,,,,,,,,,,,,,,,,,,,,,,,,,,,,,,,,,,",
",,,,,,%,,,,,,,,%%%%,,,,,XXXXXX,,,,,,,,,,,,,,,,,,,,,,,,,,,,,,,,,,,,,,,,,,,,,",
",,,,,%%,,,,,,,%%%%%%,,,X%XX,,,%,,,,,,,,,,,,,,,,,&&&&,,,,,,,,,,,,,,,,,,,,,,,",
",,,,,%%,,,,,,%%XX%%%,,,%XX,,,%%XXXXXX,,,,,,,,,,&&&&&&,,,,,,,,,,,,,,,,,,,,,,",
",,,,,%%,,,,,%%%XX%%%%,,,XX,,%%%XXXXXXX,,,,,,,,&&&$$$$&,,,,,,,,,,,,,,,,,,,,,",
",,,,,%%,,,,,%%XX,X%%%,,,,X%%%%%%%%%%XX%,,,,,,,&&$$$$$$,,,,,,,,,,,,,,,,,,,,,",
",,,,,X%,,,,X%%X,,XX%%%,,,%%%%%%%%%%%%X%%,,,,,,&$$$==.$,,,,,,,,,,,,,,,,,,,,,",
",,,,,,%X,,X%X%,,,,X%%%%,%%%%%%%%%%%%%%X%%X,,,&&$$===.$,,,,,,,,,,,,,,,,,,,,,",
",,,,,,X%XXXXX,,,,,XX%%%%%%%%%%%%%%%%%%X%%%X,,&&$$-==..$,,,,,,,,,,,,,,,,,,,,",
",,,,,,X%%%XX,,,,,,,XXX%%%%%%%%%%%%%%%%%X%%XXXX$$$---..&,,,,,,,,,,,,,,,,,,,,",
",,,,,,,X%X,,,,,,%,,,XXX%%%%%%%%%%%%%%%@+XXX%XXX$..--..$,,,,,,,,,,,,,,,,,,,,",
",,,,,,,,,,,,,,,%XX,,,XX%%%%%%%%%%%%%%+++XX%%%XXXX;....$:,,,,,,,,,,,,,,,,,,,",
",,,,,,,,,,,,,,,%XX,,,,XXXX%%%%%%%% @@++++%%%%%XXX>$...:-,,,,,,,,,,,,,,,,,,,",
",,,,,,,,,,,,,,%%X,,,,,,,XX%%%%%%%% @+%X+++OOo %XXX$$$-:-,,,,,,,,,,,,,,,,,,,",
",,,,,,,,,,,,,,%X,,,,,,,,,X%%%%%%%%O@%%%%+O     XXX$$$$-:,,,,,,,,,,,,,,,,,,,",
",,,,,,,,,,,,,,,X,,,,,,,,,X%%%%%%%@O  %%%OO     XXX--::--,,,,,,,,,,,,,,,,,,,",
",,,,,,,,,,,,,,,,X,,,,,,,,X%%%%%%@ OO O%OO       XX--==-=,,,,,,,,,,,,,,,,,,,",
",,,,,,,,,,,,,,,,,,,,,,,,,,X%%%%%@+OOOOOO    o   XX====-#$,,,,,,,,,,,,,,,,,,",
",,,,,,,,,,,,,,,,,,,,,,,,,,XX%%%@%%%OOOO  @***o  oX###=-#$$,,,,,,,,,,,,,,,,,",
",,,,,,,,,,,,,,,,,,,,,,,,,,XX%%%%%%%%%O  %@**+   oo#>>>##$$$,,,,,,,,,,,,,,,,",
",,,,,,,,,,,,,,,,,,,,,,,,,,,X%%%%%X%%%O %%@+++    ooo>>###$$$,,,,,,,,,,,,,,,",
",,,,,,,,,,,,,,,,,,,,,,,,,,,XX%%%%X%X%%%%%%%%+%%    o>>>###$$$,,,,,,,,,,,,,,",
",,,,,,,,,,,,,,,,,,,,,,,,,,,,XX%%%X%X%%%%%%%%%%%X#;;>;;>o###$$$,,,,,,,,,,,,,",
",,,,,,,,,,,,,,,,,,,,,,,,,,,,,,X%XXX%X%%%%%%%%%XX#;;;;, ooo##$$$,,,,,,,,,,,,",
",,,,,,,,,,,,,,,,,,,,,,,,,,,,,,,XXX,XXX%%X%%%%%X##;;,,,,  oo>>$$$,,,,,,,,,,,",
",,,,,,,,,,,,,,,,,,,,,,,,,,,,,,,,,,,XXXX%XX%%%X--#,,,,,,,,  >>>$$,,,,,,,,,,,",
",,,,,,,,,,,,,,,,,,,,,,,,,,,,,,,,,,,,,XXXXXX%X#=#,,,,,,,,,,,;;>oo,,,,,,,,,,,",
",,,,,,,,,,,,,,,,,,,,,,,,,,,,,,,,,,,,,,,XXXXX##=#,,,,,,,,,,,;;;>oo,,,,,,,,,,",
",,,,,,,,,,,,,,,,,,,,,,,,,,,,,,,,,,,,,=-$$$###==,,,,,,,,,,,,##;;  oo,,,,,,,,",
",,,,,,,,,,,,,,,,,,,,,,,,,,,,,,,,,,,,,$$=-=$$#=,,,,,,,,,,,,,###$$,  oo,,,,,,",
",,,,,,,,,,,,,,,,,,,,,,,,,,,,,,,,,,,,$$$$$-=$#$,,,,,,,,,,,,,##$$,,,,  oo,,,,",
",,,,,,,,,,,,,,,,,,,,,,,,,,,,,,,,,,##$$$$$$--$$,,,,,,,,,,,,,#$$,,,,,,,  o,,,",
",,,,,,,,,,,,,,,,,,,,,,,,,,,,,,,,,###$$$$$$$=-$,,,,,,,,,,,,,,,,,,,,,,,,  ,,,",
",,,,,,,,,,,,,,,,,,,,,,,,,,,,,,,=-####$$$$$$$=$,,,,,,,,,,,,,,,,,,,,,,,,,,,,,",
",,,,,,,,,,,,,,$$$$$$$,,,,,,,,,,#=-####$$$$$$=-,,,,,,,,,,,,,,,,,,,,,,,,,,,,,",
",,,,,,,,,,,,,,$$$$$$$$,,,,,,,,###=-###$$$$$$$-,,,,,,,,,,,,,,,,,,,,,,,,,,,,,",
",,,,,,,,,,,,,$$$$$###$$$,,,,,#####=-##$$$$$$$-,,,,,,,,,,,,,,,,,,,,,,,,,,,,,",
",,,,,,,,,,,,,#########$$$,,,#######=-#$$$$$$$-,,,,,,,,,,,,,,,,,,,,,,,,,,,,,",
",,,,,,,,,,,,,,#########$$,,#########=-$$$$$$$-,,,,,,,,,,,,,,,,,,,,,,,,,,,,,",
",,,,,,,,,,,,,,#######################=-$$$$$$-,,,,,,,,,,,,,,,,,,,,,,,,,,,,,",
",,,,,,,,,,,,,,######$#################=-$$$$$-,,,,,,,,,,,,,,,,,,,,,,,,,,,,,",
",,,,,,,,,,,,,,#####$$#################$$--$$$-,,,,,,,,,,,,,,,,,,,,,,,,,,,,,",
",,,,,,,,,,,,,,,####$$##$#############$$$===--=,,,,,,,,,,,,,,,,,,,,,,,,,,,,,",
",,,,,,,,,,,,,,,####$$##$###$#########$$$$$===,,,,,,,,,,,,,,,,,,,,,,,,,,,,,,",
",,,,,,,,,,,,,,,,###$####$###$#######$$$$$$$==,,,,,,,,,,,,,,,,,,,,,,,,,,,,,,",
",,,,,,,,,,,,,,,,########$$$##$#####$$$$$$$$==,,,,,,,,,,,,,,,,,,,,,,,,,,,,,,",
",,,,,,,,,,,,,,,,,####$###$$$##$$##$$$$$$$$$,,,,,,,,,,,,,,,,,,,,,,,,,,,,,,,,",
",,,,,,,,,,,,,,,,,####$$###$$$###$$$$$$$$$$,,,,,,,,,,,,,,,,,,,,,,,,,,,,,,,,,",
",,,,,,,,,,,,,,,,,,####$$#####$##$$$$$$$$$,,,,,,,,,,,,,,,,,,,,,,,,,,,,,,,,,,",
",,,,,,,,,,,,,,,,,,,####$$######$$$$$$$$$,,,,,,,,,,,,,,,,,,,,,,,,,,,,,,,,,,,",
",,,,,,,,,,,,,,,,,,,,####$$$$$$$$$$$$$$$,,,,,,,,,,,,,,,,,,,,,,,,,,,,,,,,,,,,",
",,,,,,,,,,,,,,,,,,,,#####$##$$$$$$$$$,,,,,,,,,,,,,,,,,,,,,,,,,,,,,,,,,,,,,,",
",,,,,,,,,,,,,,,,,,,,,####$#$$$$$$$$$$,,,,,,,,,,,,,,,,,,,,,,,,,,,,,,,,,,,,,,",
",,,,,,,,,,,,,,,,,,,,,,#####$$$$$$$$$$$$,,,,,,,,,,,,,,,,,,,,,,,,,,,,,,,,,,,,",
",,,,,,,,,,,,,,,,,,,,,,,#####$$$$$$$$$$,,,,,,,,,,,,,,,,,,,,,,,,,,,,,,,,,,,,,",
",,,,,,,,,,,,,,,,,,,,,,,,,,,,,,,,,,,,,,,,,,,,,,,,,,,,,,,,,,,,,,,,,,,,,,,,,,,",
",,,,,,,,,,,,,,,,,,,,,,,,,,,,,,,,,,,,,,,,,,,,,,,,,,,,,,,,,,,,,,,,,,,,,,,,,,,",
",,,,,,,,,,,,,,,,,,,,,,,,,,,,,,,,,,,,,,,,,,,,,,,,,,,,,,,,,,,,,,,,,,,,,,,,,,,",
",,,,,,,,,,,,,,,,,,,,,,,,,,,,,,,,,,,,,,,,,,,,,,,,,,,,,,,,,,,,,,,,,,,,,,,,,,,",
",,,,,,,,,,,,,,,,,,,,,,,,,,,,,,,,,,,,,,,,,,,,,,,,,,,,,,,,,,,,,,,,,,,,,,,,,,,"
};
