/* XPM */
static char *result[] = {
/* columns rows colors chars-per-pixel */
"75 75 18 1 ",
"  c #280916",
". c #20121C",
"X c #29072F",
"o c #3B0E20",
"O c #3B0F21",
"+ c #3E2530",
"@ c #4A2B38",
"# c #312841",
"$ c #3F3A57",
"% c #4D0C4F",
"& c #5A4772",
"* c #F22525",
"= c #BA5D22",
"- c #CD7A26",
"; c #875368",
": c #D1A22A",
"> c #A16891",
", c None",
/* pixels */
",,,,,,,,,,,,,,,,,,,,,,,,,,,,,,,,,,,,,,,,,,,,,,,,,,,,,,,,,,,,,,,,,,,,,,,,,,,",
",,,,,,,,,,,,,,,,,,,,,,,,,,,,,,,,,,,,,,,,,,,,,,,,,,,,,,,,,,,,,,,,,,,,,,,,,,,",
",,,,,,,,,,,,,,,,,,,,,,,,,,,,,,,,,,,,,,,,,,,,,,,,,,,,,,,,,,,,,,,,,,,,,,,,,,,",
",,,,,,,,,,,,,,,,,,,,,,,,,,,,,,,,,,,,,,,,,,,,,,,,,,,,,,,,,,,,,,,,,,,,,,,,,,,",
",,,,,,,,,,,,,,,,,,,,,,,,,,,,,,,,,,,,,,,,,,,,,,,,,,,,,,,,,,,,,,,,,,,,,,,,,,,",
",,,,,,,,,,,,,,,,,,,,,,,,,,,,,,,,,,,,,,,,,,,,,,,,,,,,,,,,,,,,,,,,,,,,,,,,,,,",
",,,,,,,,,,,,,,,,,,,,,,,,,,,,,,,,,,,,,,,,,,,,,,,,,,,,,,,,,,,,,,,,,,,,,,,,,,,",
",,,,,,,,,,,,,,,,,,,,,,,,,,,,,,,,,,,,,,,,,,,,,,,,,,,,,,,,,,,,,,,,,,,,,,,,,,,",
",,,,,,,,,,,,,,,,,,,,,,,,,,,,,,,,,,,,,,,,,,,,,,,,,,,,,,,,,,,,,,,,,,,,,,,,,,,",
",,,,,,,,,,,,,,,,X,,,,,,,,,,,,,,,,,,,,,,,,,,,,,,,,,,,,,,,,,,,,,,,,,,,,,,,,,,",
",,,,,,,,,,,,,,,XX,,,,,,,,,,,,,,,,,,,,,,,,,,,,,,,,,,,,,,,,,,,,,,,,,,,,,,,,,,",
",,,,,,,,,,,,,,XXXX,,,,,,,,,,,,,,,,,,,,,,,,,,,,,,,,,,,,,,,,,,,,,,,,,,,,,,,,,",
",,,,,,,,,,,,,XXXXX,,,,,,,,,,,,,,,,,,,,,,,,,,,,,,,,,,,,,,,,,,,,,,,,,,,,,,,,,",
",,,,,,,,,,,,,XXXXX,,,,,,,,,,,,,,,,,,,,,,,,,,,,,,,,,,,,,,,,,,,,,,,,,,,,,,,,,",
",,,,,,,,,,,,XXXXX,,,,,,,,%%%%%,,,,,,,,,,,,,,,,,,,,,,,,,,,,,,,,,,,,,,,,,,,,,",
",,,,,,,,,,,,XXXXX,,,,,,,,%%%%%%X,,,,,,,,,,,,,,,,,,,,,,,,,,,,,,,,,,,,,,,,,,,",
",,,,,,,,,,X,XXXX,,,,,,,,%%XXX%XXX,,,,,,,,,,,,,,,,,,,,,,,,,,,,,,,,,,,,,,,,,,",
",,,,,,,,,X,,XXXX,,,,,,,,,XX,,%XXX,,,,,,,,,,,,,,,&&&&,,,,,,,,,,,,,,,,,,,,,,,",
",,,,,,,,X,,,XXXX,,,,,,,,,X,,,XXX%%%%X,,,,,,,,,,&&&&&&,,,,,,,,,,,,,,,,,,,,,,",
",,,,,,,,%,,,,XXXX,,,,,,,,,,,XXXX%%%%%%X,,,,,,,&&&$$$$&,,,,,,,,,,,,,,,,,,,,,",
",,,,,,,X%,,,,,XXXXX,,,,,,,,XXX%%%%%%%%XX,,,,,,&&$$$$$$,,,,,,,,,,,,,,,,,,,,,",
",,,,,,,X%%,,,,,,,,,,,,,,,,XXX%%%%%%%%%%%%,,,,,&$$$==.$,,,,,,,,,,,,,,,,,,,,,",
",,,,,,,X%%%,,,,,,,,,,,,%%%%%X%%%%%%%%%%%%%,,,&&$$===.$,,,,,,,,,,,,,,,,,,,,,",
",,,,,,,XX%%%,,,,,,,,,,%%%%%XX%%%%%%%%%%%%XX,,&&$$-==..$,,,,,,,,,,,,,,,,,,,,",
",,,,,,,XXX%%%%%,,,,,X%%%%%%XXX%%%%%%%%XXXXX,,&$$$---..&,,,,,,,,,,,,,,,,,,,,",
",,,,,,,,XXX%%%%%%%%%%%%X%%%%XX%%%%%%%X@+XXXXX&$$..--..$,,,,,,,,,,,,,,,,,,,,",
",,,,,,,,,XXX%%%%%%%%%XXXX%%%%XX%%%%%X+++XXXXXX#-$;....$:,,,,,,,,,,,,,,,,,,,",
",,,,,,,,,,XXXXX%%%%XXXXXXXX%%XXXX% @@++++%%%XXX;#>$...:-,,,,,,,,,,,,,,,,,,,",
",,,,,,,,,,,XXXXXXXX,,,,,XXXX%%%%%X @+%%+++OOo XX$$$$$-:-,,,,,,,,,,,,,,,,,,,",
",,,,,,,,,,,,,,,,,,,,,,,,,X%%%%%%%%O@%%%%+O     XX-$$$$-:,,,,,,,,,,,,,,,,,,,",
",,,,,,,,,,,,,,,,,,,,,%,,,%%%%%%%%@O  %%%OO     XX:--::--,,,,,,,,,,,,,,,,,,,",
",,,,,,,,,,,,,,,,,,,,%%,,,%%%%%%%@ OO O%OO       X---==-=,,,,,,,,,,,,,,,,,,,",
",,,,,,,,,,,,,,,,,,,,%%X,,X%%%%%%@+OOOOOO    o   X=====-#$,,,,,,,,,,,,,,,,,,",
",,,,,,,,,,,,,,,,,,,,X%X,X,%%%%%@%%%OOOO  @***o  o####=-#$$,,,,,,,,,,,,,,,,,",
",,,,,,,,,,,,,,,,,,,,,%%X,,X%%%%%%%%%%O  %@**+   oo#>>>##$$$,,,,,,,,,,,,,,,,",
",,,,,,,,,,,,,,,,,,,,,X%%X,XXX%%%%%%%%O %%@+++   oooo>>###$$$,,,,,,,,,,,,,,,",
",,,,,,,,,,,,,,,,,,,,,,,%XX,XXX%%%%%%%%%%%XXX+%% X  o>>>###$$$,,,,,,,,,,,,,,",
",,,,,,,,,,,,,,,,,,,,,,,,,,,,XX%%%%X%%%%%%XXX%%XX#;;>;;>o###$$$,,,,,,,,,,,,,",
",,,,,,,,,,,,,,,,,,,,,,,,,,,,,XX%%%XX%%%%%XXX%XX##;;;;, ooo##$$$,,,,,,,,,,,,",
",,,,,,,,,,,,,,,,,,,,,,,,,,,,,,XX%XXXX%%%%%X%%XX##;;,,,,  oo>>$$$,,,,,,,,,,,",
",,,,,,,,,,,,,,,,,,,,,,,,,,,,,,,XXX,XXX%%%%%%XX--#,,,,,,,,  >>>$$,,,,,,,,,,,",
",,,,,,,,,,,,,,,,,,,,,,,,,,,,,,,,,,,,,XXX%%%%X#=#,,,,,,,,,,,;;>oo,,,,,,,,,,,",
",,,,,,,,,,,,,,,,,,,,,,,,,,,,,,,,,,,,,=-XXXXX##=#,,,,,,,,,,,;;;>oo,,,,,,,,,,",
",,,,,,,,,,,,,,,,,,,,,,,,,,,,,,,,,,,$$=----###==,,,,,,,,,,,,##;;  oo,,,,,,,,",
",,,,,,,,,,,,,,,,,,,,,,,,,,,,,,,,,,,$$$=---:-#=,,,,,,,,,,,,,###$$,  oo,,,,,,",
",,,,,,,,,,,,,,,,,,,,,,,,,,,,,,,,,,$$$$$$=---#,,,,,,,,,,,,,,##$$,,,,  oo,,,,",
",,,,,,,,,,,,,,,,,,,,,,,,,,,,,,,,,$$$$$$$===----,,,,,,,,,,,,#$$,,,,,,,  o,,,",
",,,,,,,,,,,,,,,,,,,,,,,,,,,,,,,,$$$$$$$$$===----,,,,,,,,,,,,,,,,,,,,,,  ,,,",
",,,,,,,,,,,,,,,,,,,,$$$$$,,,,,,=----$$$$$=#==----,,,,,,,,,,,,,,,,,,,,,,,,,,",
",,,,,,,,,,,,,,,,,,,,$$$$$$,,,,,=-===-=$$-=###=---,,,,,,,,,,,,,,,,,,,,,,,,,,",
",,,,,,,,,,,,,,,,,,,$$$$$$$$$$$$$$$$$$==-==####===,,,,,,,,,,,,,,,,,,,,,,,,,,",
",,,,,,,,,,,,,,,,,,,$$$$$$$$$$$$$$$$$$$$-==####==#,,,,,,,,,,,,,,,,,,,,,,,,,,",
",,,,,,,,,,,,,,,,,,$$$$$$$$$$$$$$$$$$$$$==#####=##,,,,,,,,,,,,,,,,,,,,,,,,,,",
",,,,,,,,,,,,,,,,,,$$$$$$$$$$$$$$$$$$$$$$=-####=##,,,,,,,,,,,,,,,,,,,,,,,,,,",
",,,,,,,,,,,,,,,,,,$$$$$$$$$$$$$$$$$$$$$#==-###=##,,,,,,,,,,,,,,,,,,,,,,,,,,",
",,,,,,,,,,,,,,,,,,$$$$$$$$$$$$$$$$$$$$$###=-##=##,,,,,,,,,,,,,,,,,,,,,,,,,,",
",,,,,,,,,,,,,,,,,,$$$$$$$$$$$$$$$$$$$$#####=-##=#,,,,,,,,,,,,,,,,,,,,,,,,,,",
",,,,,,,,,,,,,,,,,,##$$$$$$$$$$$$$$$$$###$$$#==#=##,,,,,,,,,,,,,,,,,,,,,,,,,",
",,,,,,,,,,,,,,,,,,####$$$$$$$$$$$$$$####$$$$#===##,,,,,,,,,,,,,,,,,,,,,,,,,",
",,,,,,,,,,,,,,,,,,,#####$$$$$$$$$$$#####$$$$$#====#,,,,,,,,,,,,,,,,,,,,,,,,",
",,,,,,,,,,,,,,,,,,,########$$$$$$$######$$$$$$##===,,,,,,,,,,,,,,,,,,,,,,,,",
",,,,,,,,,,,,,,,,,,,,,###############$$##$$$$$$###,,,,,,,,,,,,,,,,,,,,,,,,,,",
",,,,,,,,,,,,,,,,,,,,,,#############$$$##$$$$$####,,,,,,,,,,,,,,,,,,,,,,,,,,",
",,,,,,,,,,,,,,,,,,,,,,,##########$$$$##$$$$#####,,,,,,,,,,,,,,,,,,,,,,,,,,,",
",,,,,,,,,,,,,,,,,,,,,,,####$$$$$$$$$$##$$$#####,,,,,,,,,,,,,,,,,,,,,,,,,,,,",
",,,,,,,,,,,,,,,,,,,,,,,,####$$$$$$$$##$$######,,,,,,,,,,,,,,,,,,,,,,,,,,,,,",
",,,,,,,,,,,,,,,,,,,,,,,,,,###$$$$$$##$$######,,,,,,,,,,,,,,,,,,,,,,,,,,,,,,",
",,,,,,,,,,,,,,,,,,,,,,,,,,#####$$$###########,,,,,,,,,,,,,,,,,,,,,,,,,,,,,,",
",,,,,,,,,,,,,,,,,,,,,,,,,,,,###############,,,,,,,,,,,,,,,,,,,,,,,,,,,,,,,,",
",,,,,,,,,,,,,,,,,,,,,,,,,,,,,,,,###########,,,,,,,,,,,,,,,,,,,,,,,,,,,,,,,,",
",,,,,,,,,,,,,,,,,,,,,,,,,,,,,,,,,,,,,,,,,,,,,,,,,,,,,,,,,,,,,,,,,,,,,,,,,,,",
",,,,,,,,,,,,,,,,,,,,,,,,,,,,,,,,,,,,,,,,,,,,,,,,,,,,,,,,,,,,,,,,,,,,,,,,,,,",
",,,,,,,,,,,,,,,,,,,,,,,,,,,,,,,,,,,,,,,,,,,,,,,,,,,,,,,,,,,,,,,,,,,,,,,,,,,",
",,,,,,,,,,,,,,,,,,,,,,,,,,,,,,,,,,,,,,,,,,,,,,,,,,,,,,,,,,,,,,,,,,,,,,,,,,,",
",,,,,,,,,,,,,,,,,,,,,,,,,,,,,,,,,,,,,,,,,,,,,,,,,,,,,,,,,,,,,,,,,,,,,,,,,,,"
};
