/* XPM */
static char *result[] = {
/* columns rows colors chars-per-pixel */
"75 75 18 1 ",
"  c #280916",
". c #20121C",
"X c #29072F",
"o c #3B0E20",
"O c #3B0F21",
"+ c #3E2530",
"@ c #4A2B38",
"# c #312841",
"$ c #3F3A57",
"% c #4D0C4F",
"& c #5A4772",
"* c #F22525",
"= c #BA5D22",
"- c #CD7A26",
"; c #875368",
": c #D1A22A",
"> c #A16891",
", c None",
/* pixels */
",,,,,,,,,,,,,,,,,,,,,,,,,,,,,,,,,,,,,,,,,,,,,,,,,,,,,,,,,,,,,,,,,,,,,,,,,,,",
",,,,,,,,,,,,,,,,,,,,,,,,,,,,,,,,,,,,,,,,,,,,,,,,,,,,,,,,,,,,,,,,,,,,,,,,,,,",
",,,,,,,,,,,,,,,,,,,,,,,,,,,,,,,,,,,,,,,,,,,,,,,,,,,,,,,,,,,,,,,,,,,,,,,,,,,",
",,,,,,,,,,,,,,,,,,,,,,,,,,,,,,,,,,,,,,,,,,,,,,,,,,,,,,,,,,,,,,,,,,,,,,,,,,,",
",,,,,,,,,,,,,,,,,,,,,,,,,,,,,,,,,,,,,,,,,,,,,,,,,,,,,,,,,,,,,,,,,,,,,,,,,,,",
",,,,,,,XXX,,,,,,,,,,XX,,,,,,,,,,,,,,,,,,,,,,,,,,,,,,,,,,,,,,,,,,,,,,,,,,,,,",
",,,,,,XXXXX,,,,,,,,XXXXXX,,,,,,,,,,,,,,,,,,,,,,,,,,,,,,,,,,,,,,,,,,,,,,,,,,",
",,,,,,XX,,,,,,,,,,XX,,,,,,,,,,,,,,,,,,,,,,,,,,,,,,,,,,,,,,,,,,,,,,,,,,,,,,,",
",,,,,,X,,,,,,,,,,,X,,,,,,,,,,,,,,,,,,,,,,,,,,,,,,,,,,,,,,,,,,,,,,,,,,,,,,,,",
",,,,,,X,,,,,,,,,,,,,,,,,,,,,,,,,,,,,,,,,,,,,,,,,,,,,,,,,,,,,,,,,,,,,,,,,,,,",
",,,,,,,,,,,,,,,,,,,,,,,,,,,,,,,,,,,,,,,,,,,,,,,,,,,,,,,,,,,,,,,,,,,,,,,,,,,",
",,,,,,,,,,,,,,,,,,,,,,,,,,,,,,,,,,,,,,,,,,,,,,,,,,,,,,,,,,,,,,,,,,,,,,,,,,,",
",,,,,,,,,,,,,,,,,,,,,,,,,,,,,,,,,,,,,,,,,,,,,,,,,,,,,,,,,,,,,,,,,,,,,,,,,,,",
",,,,,,,,,,,,,,,,,,,,,,,,,,,,,,,,,,,,,,,,,,,,,,,,,,,,,,,,,,,,,,,,,,,,,,,,,,,",
",,,,,,,,,,,,,,,,,,,,,,,,,,,,,,,,,,,,,,,,,,,,,,,,,,,,,,,,,,,,,,,,,,,,,,,,,,,",
",,,,,,,,,,,,,,,,%%%X,,,,,,,,,,,XXX,,,,,,,,,,,,,,&&&&,,,,,,,,,,,,,,,,,,,,,,,",
",,,,,,,,,,,,,,%%%%%%X,,,,,,,,X%%%%XXX,,,,,,,,,,&&&&&&,,,,,,,,,,,,,,,,,,,,,,",
",,,,,,,,,,,,,%%%XX%%%X,,,XXX%%%%%%%XXXX,,,,,,,&&&$$$$&,,,,,,,,,,,,,,,,,,,,,",
",,,,,,,,,,,,%%XX,XX%%%,,,XX%%%%%%%%%XXXX,,,,,,&&$$$$$$,,,,,,,,,,,,,,,,,,,,,",
",,,,,,,,,,,%%XX,,,XX%%,,,X%%%%%%%%%%XXXX,,,,,,&$$$==.$,,,,,,,,,,,,,,,,,,,,,",
",,,,,,,,,,,%X,,,,,XX%%XX%%%%%%%%%%%%%XXXXX,,,&&$$===.$,,,,,,,,,,,,,,,,,,,,,",
",,,,,,,,,,%XX,,,,,,XX%%%%%%%%%%%%%%%%XXXXX,,,&&$$-==..$,,,,,,,,,,,,,,,,,,,,",
",,,,,,,,,,%X,,,,,,,XX%%%%%%%%%%%%%%%%XXXXXXXXX$$$---..&,,,,,,,,,,,,,,,,,,,,",
",,,,,,,,,,%,,,,,,,,,XXX%%%%%%%%%%%%%%X@+XXXXXXX$..--..$,,,,,,,,,,,,,,,,,,,,",
",,,,,,,,,XX,,,,,,,,,XXX%%%%%%%%%%%%%X+++%%%XXXX-$;....$:,,,,,,,,,,,,,,,,,,,",
",,,,,X,,,%X,,,,XX,,,,XX%%%%%%%%%%% @@++++%%%XXXX#>$...:-,,,,,,,,,,,,,,,,,,,",
",,,,,,XXXXX,,,%,,,,,,,XX%%%%%%%%%% @+%%+++OOo XXX$$$$-:-,,,,,,,,,,,,,,,,,,,",
",,,,,,,,XX,,,%X,,,,,,,,X%%%%%%%%%%O@%%%%+O     XXX$$$$-:,,,,,,,,,,,,,,,,,,,",
",,,,,,,,,,,,,XX,,,,,,,,,%XX%%%%%%@O  %%%OO     XXX--::--,,,,,,,,,,,,,,,,,,,",
",,,,,,,,,,,,,X,,,,,,,,,,%XXXX%%%@ OO O%OO       XX--==-=,,,,,,,,,,,,,,,,,,,",
",,,,,,,,,,,,,X,,,,,,,,,,,XXXXXXX@+OOOOOO    o   XX====-#$,,,,,,,,,,,,,,,,,,",
",,,,,,,,,,,,,,,,,,,,,,,,,,XXX%X@%%%OOOO  @***o  oX###=-#$$,,,,,,,,,,,,,,,,,",
",,,,,,,,,,,,,,,,,,,,,,,,,,XX%%%%%%%%%O  %@**+   oo#>>>##$$$,,,,,,,,,,,,,,,,",
",,,,,,,,,,,,,,,,,,,,,,,,,,,X%%%%%%%%%O %%@+++   oooo>>###$$$,,,,,,,,,,,,,,,",
",,,,,,,,,,,,,,,,,,,,,,,,,,,XX%%%%%%%%%%%%%%%+%% X  o>>>###$$$,,,,,,,,,,,,,,",
",,,,,,,,,,,,,,,,,,,,,,,,,,,,XXXXX%%%%%%%%%%%%%XXX;;>;;>o###$$$,,,,,,,,,,,,,",
",,,,,,,,,,,,,,,,,,,,,,,,,,,,,XXXXX%%%%%%%%%%%%XX#;;;;, ooo##$$$,,,,,,,,,,,,",
",,,,,,,,,,,,,,,,,,,,,,,,,,,,,,,,,XX%%%%%%%%%%%XX#;;,,,,  oo>>$$$,,,,,,,,,,,",
",,,,,,,,,,,,,,,,,,,,,,,,,,,,,,,,,,XX%%%%%%%%%XX-#,,,,,,,,  >>>$$,,,,,,,,,,,",
",,,,,,,,,,,,,,,,,,,,,,,,,,,,,,,,,,,,XXX%%%%%##=#,,,,,,,,,,,;;>oo,,,,,,,,,,,",
",,,,,,,,,,,,,,,,,,,,,,,,,,,,,,,,,,,$$$$$XX%###=#,,,,,,,,,,,;;;>oo,,,,,,,,,,",
",,,,,,,,,,,,,,,,,,,,,,,,,,,,,,,,,,$$$$$$$####==,,,,,,,,,,,,##;;  oo,,,,,,,,",
",,,,,,,,,,,,,,,,,,,,,,,,,,,,,,,,,=----$$$$###=,,,,,,,,,,,,,###$$,  oo,,,,,,",
",,,,,,,,,,,,,,,,,,,,,,,,,,,,,,,,,$$===--=$$##,,,,,,,,,,,,,,##$$,,,,  oo,,,,",
",,,,,,,,,,,,,,,,,,,,,,,,,,,,,,,,,$$$$$$==--=,,,,,,,,,,,,,,,#$$,,,,,,,  o,,,",
",,,,,,,,,,,,,,,,,,,,,,,,,,,,,,,,#$$$$$$$$$=---,,,,,,,,,,,,,,,,,,,,,,,,  ,,,",
",,,,,,,,,,,,,,,,,,,,,,,,,,,,,,,,#$$$$$$$$$$$$=-,,,,,,,,,,,,,,,,,,,,,,,,,,,,",
",,,,,,,,,,,,,,,,,,,,,,,,,,,,,,,,###$$$$$$$$$-=-=,,,,,,,,,,,,,,,,,,,,,,,,,,,",
",,,,,,,,,,,,,,,,,,,,,,,,,,,,,,,####$$$$$$--====$$,,,,,,,,,,,,,,,,,,,,,,,,,,",
",,,,,,,,,,,,,,,,,,,,,,,,,,,,,,,#####$$--==$$$$$$$,,,,,,,,,,,,,,,,,,,,,,,,,,",
",,,,,,,,,,,,,,,,,,,,,,,,,,,,,,####---==$$$$$$$$$$,,,,,,,,,,,,,,,,,,,,,,,,,,",
",,,,,,,,,,,,,,,,,,,,,,,,,,,,,,=--====$$$$$$$$$$$$,,,,,,,,,,,,,,,,,,,,,,,,,,",
",,,,,,,,,,,,,,,,,,,,,,,,,,,,,#######$$$$$$$$$$$$$,,,,,,,,,,,,,,,,,,,,,,,,,,",
",,,,,,,,,,,,,,,,,,,,,,,,,,,,,######$$$$$$$$$$$$$$,,,,,,,,,,,,,,,,,,,,,,,,,,",
",,,,,,,,,,,,,,,,,,,,,,,,,,,,######$$$$$$$$$$$$$$,,,,,,,,,,,,,,,,,,,,,,,,,,,",
",,,,,,,,,,,,,,,,,,,,,,,,,,,#######$$$$$$$$$$$$$,,,,,,,,,,,,,,,,,,,,,,,,,,,,",
",,,,,,,,,,,,,,,,,,,,,,,,,,,#########$$$$$$$$$$,,,,,,,,,,,,,,,,,,,,,,,,,,,,,",
",,,,,,,,,,,,,,,,,,,,,,,,,,#######$$$$$$$$$$$$,,,,,,,,,,,,,,,,,,,,,,,,,,,,,,",
",,,,,,,,,,,,,,,,,,,,,,,,,,####$###$$$$$$$$$$,,,,,,,,,,,,,,,,,,,,,,,,,,,,,,,",
",,,,,,,,,,,,,,,,,,,,,,,,,######$$$$$$$$$$$$$,,,,,,,,,,,,,,,,,,,,,,,,,,,,,,,",
",,,,,,,,,,,,,,,,,,,,,,,,,####$###$$$$$$$$$$,,,,,,,,,,,,,,,,,,,,,,,,,,,,,,,,",
",,,,,,,,,,,,,,,,,,,,,,,,######$$$$$$$$$$$$,,,,,,,,,,,,,,,,,,,,,,,,,,,,,,,,,",
",,,,,,,,,,,,,,,,,,,,,,,########$$$$$$$$$$,,,,,,,,,,,,,,,,,,,,,,,,,,,,,,,,,,",
",,,,,,,,,,,,,,,,,,,,,,,#####$##$$$$$$$$$,,,,,,,,,,,,,,,,,,,,,,,,,,,,,,,,,,,",
",,,,,,,,,,,,,,,,,,,,,,#######$#$$$$$$$$,,,,,,,,,,,,,,,,,,,,,,,,,,,,,,,,,,,,",
",,,,,,,,,,,,,,,,,,,,,,########$#$$$$$,,,,,,,,,,,,,,,,,,,,,,,,,,,,,,,,,,,,,,",
",,,,,,,,,,,,,,,,,,,,,#####$$######$$,,,,,,,,,,,,,,,,,,,,,,,,,,,,,,,,,,,,,,,",
",,,,,,,,,,,,,,,,,,,,,######$$$$###,,,,,,,,,,,,,,,,,,,,,,,,,,,,,,,,,,,,,,,,,",
",,,,,,,,,,,,,,,,,,,,,#############,,,,,,,,,,,,,,,,,,,,,,,,,,,,,,,,,,,,,,,,,",
",,,,,,,,,,,,,,,,,,,,,,###########,,,,,,,,,,,,,,,,,,,,,,,,,,,,,,,,,,,,,,,,,,",
",,,,,,,,,,,,,,,,,,,,,,,,,,,,,,,,,,,,,,,,,,,,,,,,,,,,,,,,,,,,,,,,,,,,,,,,,,,",
",,,,,,,,,,,,,,,,,,,,,,,,,,,,,,,,,,,,,,,,,,,,,,,,,,,,,,,,,,,,,,,,,,,,,,,,,,,",
",,,,,,,,,,,,,,,,,,,,,,,,,,,,,,,,,,,,,,,,,,,,,,,,,,,,,,,,,,,,,,,,,,,,,,,,,,,",
",,,,,,,,,,,,,,,,,,,,,,,,,,,,,,,,,,,,,,,,,,,,,,,,,,,,,,,,,,,,,,,,,,,,,,,,,,,",
",,,,,,,,,,,,,,,,,,,,,,,,,,,,,,,,,,,,,,,,,,,,,,,,,,,,,,,,,,,,,,,,,,,,,,,,,,,"
};
