/* XPM */
static char *result[] = {
/* columns rows colors chars-per-pixel */
"75 75 12 1 ",
"  c #280916",
". c #3B0E20",
"X c #3B0F21",
"o c #3E2530",
"O c #312841",
"+ c #3F3A57",
"@ c #5A4772",
"# c #BA5D22",
"$ c #CD7A26",
"% c #875368",
"& c #D1A22A",
"* c None",
/* pixels */
"***************************************************************************",
"***************************************************************************",
"***************************************************************************",
"***************************************************************************",
"***************************************************************************",
"***************************************************************************",
"***************************************************************************",
"***************************************************************************",
"***************************************************************************",
"***************************************************************************",
"***************************************************************************",
"***************************************************************************",
"***************************************************************************",
"***************************************************************************",
"***************************************************************************",
"***************************************************************************",
"***************************************************************************",
"***************************************************************************",
"***************************************************************************",
"***************************************************************************",
"***************************************************************************",
"***************************************************************************",
"***************************************************************************",
"***************************************************************************",
"***************************************************************************",
"***************************************************************************",
"***************************************************************************",
"***************************************************************************",
"***************************************************************************",
"***************************************************************************",
"***************************************************************************",
"***************************************************************************",
"***************************************************************************",
"***************************************************************************",
"***************************************************************************",
"***************************************************************************",
"***************************************************************************",
"***************************************************************************",
"***************************************************************************",
"***************************************************************************",
"***************************************************************************",
"***************************************************************************",
"***************************************************************************",
"***************************************************************************",
"***************************************************************************",
"***************************************************************************",
"***************************************************************************",
"***************************************************************************",
"***************************************************************************",
"***************************************************************************",
"***************************************************************************",
"***************************************************************************",
"***************************************************************************",
"***************************************************************************",
"***************************************************************************",
"***************************************************************************",
"*********************************&$****************************************",
"*****************************+++@++++**************************************",
"XXXXXXXXXooo****************++OO$#++++++++++OO*$$$*************************",
"XXXXXXXXXXXoo*************@@++OO#+++++++++++OO$$$#*************************",
"X     XXXXXXX* *********@@++++O$#OOO+++++OOOO$$$####OOOOO++++++************",
"        XXXXXX  ********@++++O$$#OOOO++++OO$O#######OOOO++++++++***********",
"oo*oo           ... ........... ..O%OO+OOOOOO#######OOOO+++++++++**********",
"ooooo                             ..... ....OO######OOOOOOOOOOOOO**********",
"***************************************************************************",
"***************************************************************************",
"***************************************************************************",
"***************************************************************************",
"***************************************************************************",
"***************************************************************************",
"***************************************************************************",
"***************************************************************************",
"***************************************************************************",
"***************************************************************************",
"***************************************************************************"
};
