/* XPM */
static char *result[] = {
/* columns rows colors chars-per-pixel */
"75 75 18 1 ",
"  c #280916",
". c #20121C",
"X c #29072F",
"o c #3B0E20",
"O c #3B0F21",
"+ c #3E2530",
"@ c #4A2B38",
"# c #312841",
"$ c #3F3A57",
"% c #4D0C4F",
"& c #5A4772",
"* c #F22525",
"= c #BA5D22",
"- c #CD7A26",
"; c #875368",
": c #D1A22A",
"> c #A16891",
", c None",
/* pixels */
",,,,,,,,,,,,,,,,,,,,,,,,,,,,,,,,,,,,,,,,,,,,,,,,,,,,,,,,,,,,,,,,,,,,,,,,,,,",
",,,,,,,,,,,,,,,,,,,,,,,,,,,,,,,,,,,,,,,,,,,,,,,,,,,,,,,,,,,,,,,,,,,,,,,,,,,",
",,,,,,,,,,,,,,,,,,,,,,,,,,,,,,,,,,,,,,,,,,,,,,,,,,,,,,,,,,,,,,,,,,,,,,,,,,,",
",,,,,,,,,,,,,,,,,,,,,,,,,,,,,,,,,,,,,,,,,,,,,,,,,,,,,,,,,,,,,,,,,,,,,,,,,,,",
",,,,,,,,,,,,,,,,,,,,,,,,,,,,,,,,,,,,,,,,,,,,,,,,,,,,,,,,,,,,,,,,,,,,,,,,,,,",
",,,,,,,,,,,,,,,,,,,,,,,,,,,,,,,,,,,,,,,,,,,,,,,,,,,,,,,,,,,,,,,,,,,,,,,,,,,",
",,,,,,,,,,,,,,,,,,,,,,,,,,,,,,,,,,,,,,,,,,,,,,,,,,,,,,,,,,,,,,,,,,,,,,,,,,,",
",,,,,,,,,,,,,,,,,,,,,,,,,,,,,,,,,,,,,,,,,,,,,,,,,,,,,,,,,,,,,,,,,,,,,,,,,,,",
",,,,,,,,,,,,,,,,,,,,,,,,,,,,,,,,,,,,,,,,,,,,,,,,,,,,,,,,,,,,,,,,,,,,,,,,,,,",
",,,,,,,,,,,,,,,,,,,,,,,,,,,,,,,,,,,,,,,,,,,,,,,,,,,,XXXX,,,,,,,,,,,,,,,,,,,",
",,,,,,,,,,,,,,,,,,,,,,,,,,,,,,,,,,,,,,,,,,,,,,,,,,XXXXXXX,,,,,,,,,,,,,,,,,,",
",,,,,,,,,,,,,,,,,,,,,,,,,,,,,,,,,,,,,,,,,,,,,,,,,,,,,,,,X,,,,,,,,,,,,,,,,,,",
",,,,,,,,,,,,,,,,,,,,,,,,,,,,,,,,,,,,,,,,,,,,,,,,,,,,,,,,,,,,,,,,,,,,,,,,,,,",
",,,,,,,,,,,,,,,,,,,,,,,,,,,,,,,,,,,,,,,,,,,,,,,,,,,,,,,,,,,,,,,,,,,,,,,,,,,",
",,,,,,,,,,,,,,,,,,,,,,,,,,,,,,,,,,,,,,,,,,,,,,,,,,,,,,,,,,,,,,,,,,%X,,,,,,,",
",,,,,,,,,,,,,,,,,,,,,,,,,,,,,,,,,,,,,,,,,,,,,XXXXX,,,,,,,%%,,,,,,,,%,,,,,,,",
",,,,,,,,,,,,,,,,,,,,,,,,,,,,,,,,,,,,,,,,,,,,,XXXXXX,,,,,%%%%,,,,,,,,%,,,,,,",
",,,,,,,,,,,,,,,,,,,,,,,&&&&,,,,,,,,,,,,,,,,,%,,,XX%X,,,%%%%%%,,,,,,,%%,,,,,",
",,,,,,,,,,,,,,,,,,,,,,&&&&&&,,,,,,,,,,XXXXXX%%,,,XX%,,,%%%XX%%,,,,,,%%,,,,,",
",,,,,,,,,,,,,,,,,,,,,&$$$$&&&,,,,,,,,XXXXXXX%%%,,XX,,,%%%%XX%%%,,,,,%%,,,,,",
",,,,,,,,,,,,,,,,,,,,,$$$$$$&&,,,,,,,%XX%%%%%%%%%%X,,,,%%%X,XX%%,,,,,%%,,,,,",
",,,,,,,,,,,,,,,,,,,,,$.==$$$&,,,,,,%%X%%%%%%%%%%%%,,,%%%XX,,X%%X,,,,%X,,,,,",
",,,,,,,,,,,,,,,,,,,,,$.===$$&&,,,X%%X%%%%%%%%%%%%%%,%%%%X,,,,%X%X,,X%,,,,,,",
",,,,,,,,,,,,,,,,,,,,$..==-$$&&,,X%%%X%%%%%%%%%%%%%%%%%%XX,,,,,XXXXX%X,,,,,,",
",,,,,,,,,,,,,,,,,,,,&..---$$$XXXX%%X%%%%%%%%%%%%%%%%%XXX,,,,,,,XX%%%X,,,,,,",
",,,,,,,,,,,,,,,,,,,,$..--..$XXX%XXX+@%%%%%%%%%%%%%%%XXX,,,%,,,,,,X%X,,,,,,,",
",,,,,,,,,,,,,,,,,,,:$....;XXXX%%%XX+++%%%%%%%%%%%%%%XX,,,XX%,,,,,,,,,,,,,,,",
",,,,,,,,,,,,,,,,,,,-:...$>XXX%%%%%++++@@ %%%%%%%%XXXX,,,,XX%,,,,,,,,,,,,,,,",
",,,,,,,,,,,,,,,,,,,-:-$$$XXX% oOO+++X%+@ %%%%%%%%XX,,,,,,,X%%,,,,,,,,,,,,,,",
",,,,,,,,,,,,,,,,,,,:-$$$$XXX     O+%%%%@O%%%%%%%%X,,,,,,,,,X%,,,,,,,,,,,,,,",
",,,,,,,,,,,,,,,,,,,--::--XXX     OO%%%  O@%%%%%%%X,,,,,,,,,X,,,,,,,,,,,,,,,",
",,,,,,,,,,,,,,,,,,,=-==--XX       OO%O OO @%%%%%%X,,,,,,,,X,,,,,,,,,,,,,,,,",
",,,,,,,,,,,,,,,,,,$#-====XX   o    OOOOOO+@%%%%%X,,,,,,,,,,,,,,,,,,,,,,,,,,",
",,,,,,,,,,,,,,,,,$$#-=###Xo  o***@  OOOO%%%@%%%XX,,,,,,,,,,,,,,,,,,,,,,,,,,",
",,,,,,,,,,,,,,,,$$$##>>>#oo   +**@%  O%%%%%%%%%XX,,,,,,,,,,,,,,,,,,,,,,,,,,",
",,,,,,,,,,,,,,,$$$###>>ooo    +++@%% O%%%X%%%%%X,,,,,,,,,,,,,,,,,,,,,,,,,,,",
",,,,,,,,,,,,,,$$$###>>>o    %%+%%%%%%%%X%X%%%%XX,,,,,,,,,,,,,,,,,,,,,,,,,,,",
",,,,,,,,,,,,,$$$###o>;;>;;#X%%%%%%%%%%%X%X%%%XX,,,,,,,,,,,,,,,,,,,,,,,,,,,,",
",,,,,,,,,,,,$$$##ooo ,;;;;#XX%%%%%%%%%X%XXX%X,,,,,,,,,,,,,,,,,,,,,,,,,,,,,,",
",,,,,,,,,,,$$$>>oo  ,,,,;;##X%%%%%X%%XXX,XXX,,,,,,,,,,,,,,,,,,,,,,,,,,,,,,,",
",,,,,,,,,,,$$>>>  ,,,,,,,,#--X%%%XX%XXXX,,,,,,,,,,,,,,,,,,,,,,,,,,,,,,,,,,,",
",,,,,,,,,,,oo>;;,,,,,,,,,,,#=#X%XXXXXX,,,,,,,,,,,,,,,,,,,,,,,,,,,,,,,,,,,,,",
",,,,,,,,,,oo>;;;,,,,,,,,,,,#=##XXXXX,,,,,,,,,,,,,,,,,,,,,,,,,,,,,,,,,,,,,,,",
",,,,,,,,oo  ;;##,,,,,,,,,,,,==###$$$-=,,,,,,,,,,,,,,,,,,,,,,,,,,,,,,,,,,,,,",
",,,,,,oo  ,$$###,,,,,,,,,,,,,=#$$=-=$$,,,,,,,,,,,,,,,,,,,,,,,,,,,,,,,,,,,,,",
",,,,oo  ,,,,$$##,,,,,,,,,,,,,$#$=-$$$$$,,,,,,,,,,,,,,,,,,,,,,,,,,,,,,,,,,,,",
",,,o  ,,,,,,,$$#,,,,,,,,,,,,,$$--$$$$$$##,,,,,,,,,,,,,,,,,,,,,,,,,,,,,,,,,,",
",,,  ,,,,,,,,,,,,,,,,,,,,,,,,$-=$$$$$$$###,,,,,,,,,,,,,,,,,,,,,,,,,,,,,,,,,",
",,,,,,,,,,,,,,,,,,,,,,,,,,,,,$=$$$$$$$####-=,,,,,,,,,,,,,,,,,,,,,,,,,,,,,,,",
",,,,,,,,,,,,,,,,,,,,,,,,,,,,,-=$$$$$$####-=#,,,,,,,,,,$$$$$$$,,,,,,,,,,,,,,",
",,,,,,,,,,,,,,,,,,,,,,,,,,,,,-$$$$$$$###-=###,,,,,,,,$$$$$$$$,,,,,,,,,,,,,,",
",,,,,,,,,,,,,,,,,,,,,,,,,,,,,-$$$$$$$##-=#####,,,,,$$$###$$$$$,,,,,,,,,,,,,",
",,,,,,,,,,,,,,,,,,,,,,,,,,,,,-$$$$$$$#-=#######,,,$$$#########,,,,,,,,,,,,,",
",,,,,,,,,,,,,,,,,,,,,,,,,,,,,-$$$$$$$-=#########,,$$#########,,,,,,,,,,,,,,",
",,,,,,,,,,,,,,,,,,,,,,,,,,,,,-$$$$$$-=#######################,,,,,,,,,,,,,,",
",,,,,,,,,,,,,,,,,,,,,,,,,,,,,-$$$$$-=#################$######,,,,,,,,,,,,,,",
",,,,,,,,,,,,,,,,,,,,,,,,,,,,,-$$$--$$#################$$#####,,,,,,,,,,,,,,",
",,,,,,,,,,,,,,,,,,,,,,,,,,,,,=--===$$$#############$##$$####,,,,,,,,,,,,,,,",
",,,,,,,,,,,,,,,,,,,,,,,,,,,,,,===$$$$$#########$###$##$$####,,,,,,,,,,,,,,,",
",,,,,,,,,,,,,,,,,,,,,,,,,,,,,,==$$$$$$$#######$###$####$###,,,,,,,,,,,,,,,,",
",,,,,,,,,,,,,,,,,,,,,,,,,,,,,,==$$$$$$$$#####$##$$$########,,,,,,,,,,,,,,,,",
",,,,,,,,,,,,,,,,,,,,,,,,,,,,,,,,$$$$$$$$$##$$##$$$###$####,,,,,,,,,,,,,,,,,",
",,,,,,,,,,,,,,,,,,,,,,,,,,,,,,,,,$$$$$$$$$$###$$$###$$####,,,,,,,,,,,,,,,,,",
",,,,,,,,,,,,,,,,,,,,,,,,,,,,,,,,,,$$$$$$$$$##$#####$$####,,,,,,,,,,,,,,,,,,",
",,,,,,,,,,,,,,,,,,,,,,,,,,,,,,,,,,,$$$$$$$$$######$$####,,,,,,,,,,,,,,,,,,,",
",,,,,,,,,,,,,,,,,,,,,,,,,,,,,,,,,,,,$$$$$$$$$$$$$$$####,,,,,,,,,,,,,,,,,,,,",
",,,,,,,,,,,,,,,,,,,,,,,,,,,,,,,,,,,,,,$$$$$$$$$##$#####,,,,,,,,,,,,,,,,,,,,",
",,,,,,,,,,,,,,,,,,,,,,,,,,,,,,,,,,,,,,$$$$$$$$$$#$####,,,,,,,,,,,,,,,,,,,,,",
",,,,,,,,,,,,,,,,,,,,,,,,,,,,,,,,,,,,$$$$$$$$$$$$#####,,,,,,,,,,,,,,,,,,,,,,",
",,,,,,,,,,,,,,,,,,,,,,,,,,,,,,,,,,,,,$$$$$$$$$$#####,,,,,,,,,,,,,,,,,,,,,,,",
",,,,,,,,,,,,,,,,,,,,,,,,,,,,,,,,,,,,,,,,,,,,,,,,,,,,,,,,,,,,,,,,,,,,,,,,,,,",
",,,,,,,,,,,,,,,,,,,,,,,,,,,,,,,,,,,,,,,,,,,,,,,,,,,,,,,,,,,,,,,,,,,,,,,,,,,",
",,,,,,,,,,,,,,,,,,,,,,,,,,,,,,,,,,,,,,,,,,,,,,,,,,,,,,,,,,,,,,,,,,,,,,,,,,,",
",,,,,,,,,,,,,,,,,,,,,,,,,,,,,,,,,,,,,,,,,,,,,,,,,,,,,,,,,,,,,,,,,,,,,,,,,,,",
",,,,,,,,,,,,,,,,,,,,,,,,,,,,,,,,,,,,,,,,,,,,,,,,,,,,,,,,,,,,,,,,,,,,,,,,,,,"
};
