/* XPM */
static char *result[] = {
/* columns rows colors chars-per-pixel */
"75 75 16 1 ",
"  c #280916",
". c #20121C",
"X c #3B0E20",
"o c #3B0F21",
"O c #3E2530",
"+ c #4A2B38",
"@ c #312841",
"# c #3F3A57",
"$ c #4D0C4F",
"% c #5A4772",
"& c #BA5D22",
"* c #CD7A26",
"= c #875368",
"- c #D1A22A",
"; c #A16891",
": c None",
/* pixels */
"::::::::::::::::$::::::::::::::::::::::::::::::::::::::::::::::::::::::::::",
"::::::::::::::::$$:::::::::::::::::::::::::::::::::::::::::::::::::::::::::",
"::::::::::::::::$$$::::::::::::::::::::::::::::::$$$:::::::::::::::::::::::",
":::::::::::::::::::::::::::::::::::::::::::::::::$$::::::::::::::::::::::::",
":::::::::::::::::::::::::::::::::::::::::::::::::::::::::::::::::::::::::::",
":::::::::::::::::::::::::::::::$:::::::::::::::::::::::::::::::::::::::::::",
":::::::::::::::::::::::::::::::$$::::::::::::::::::::::::::::::::::::::::::",
":::::::::::::::::::::::::::::::$:::::::::::::::::::::::::::::::::::::::::::",
":::::::::::::::::::::::::::::::::::::::$$$:::::::::::::::::::::::::::::::::",
":::::::::::::::::::::::::::::::::::::::$:::::::::::::::::::::::::::::::::::",
":::::::::::::::::::::::::::::::::::::::::::::::::::::::::::::::::::::::::::",
":::::::::::::::::::::::::$$$:::::::::::::::::::::::::::::::::::::::::::::::",
":::::::::::::::::::::::::$$::::::::::::::::::::::::::::::::::::::::::::::::",
":::::::::::::::::::::::::::::::::::::::::::::::::::::::::::::::::::::::::::",
":::+:::::::::::::::::::::::::::::::::::::::::::::$$::::::::::::::::::::::::",
":::+::::::::::::::::::::::::::::::::::::::::::::$$$::::::::::::::::::::::::",
"::ooooo::::::::::::::::::::::::::$$$$::::::::::::::::::::::::::::::::::::::",
":oooooooo::::::::::::::::::::::::$$$:::::::::::::::::::::::::::::::::::::::",
":+O: ooooo:::::::::::::::::::::::::::::::::::::::::::::::::::::::::::::::::",
"++O:: oooo:::::::::::$:::::::::::::::::::::::::::::::::::::::::::::::::::::",
"+OO:: ooooo::::::::$$$:::::::::::::::$$::::::::::::::::::::::::::::::::::::",
"+OO::  oooo::::::::::::::::::::::::::::::::::::::::::::::::::::::::::::::::",
"OOOO:  oooo::::::::::::::::::::::::::::::::::::::::::::::::::::::::::::::::",
":OOOO  oooo::::::::::::::::::::::::::::::::::::::::::::::::::::::::::::::::",
":OOOO  oooo::::::::::::::::::::::::::::::::::::::::::::::::::::::::::::::::",
":::OO  ooooOO::::::::::::::::::::::::::::::::::::::::::::::::::::::::::::::",
":::OO  ooo OO::::::::::::::::::::::::::::::::::::::::::::::::::::::::::::::",
"::::O      OOO:::::::::::::::::::::$:::::::::::::::::::::::::::::::::::::::",
":::::      OOO:::::::::::::::::::::$$::::::::::::::::::::::::::::::::::::::",
":::::      OOO::::::::::::::::::::$::::::::::::::::::::::::::::::::::::::::",
":::::      OOO:::::::::::::::::::::::::::::::::::::::::::::::::::::::::::::",
"::::::     XO::::::::::$$::::::::::::::::::::::::::::::::::::::::::::::::::",
"::::::     X:::::::::::$::::::::::::%%%%:::::::::::::::::::::::::::::::::::",
"::::::     XX::::::::::::::::::::::####%%::::::::::::::::::::::::::::::::::",
"::::::::      :::::::::::::::::::::####%%%:::::::::::::::::::::::::::::::::",
":::::::::   X::::::::::::::::::::::#.&&#%%:::::::::::::::::::::::::::::::::",
":::::::::  XX:X:::::::::::::::::::#.&&&##%%::::::::::::::::::::::::::::::::",
":::::::::::  X::::::::::::::::::::#.***#%%%::::::::::::::::::::::::::::::::",
":::::::::::   ::::::::::::::::::::..***#%%%::::::::::::::::::::::::::::::::",
"::::::::::::: X::::::::::::::::::......##%:::::::::::::::::::::::::::::::::",
":::::::::::::  :::::::::::::::::::..#=#*#%@%*--::::::::::::::::::::::::::::",
":::::::::::::: X:::::::::::::::--::##;@@@#**&*:::::::::::::::::::::::::::::",
":::::::::::::: X::::::::::::::::*--@@@@=***&@::::::::::::::::::::::::::::::",
"::::::::::::::: X::::::::::::::::*####**&&&###:::::::::::::::::::::::::::::",
"::::::::::::::::X::::::::::::::::*--**-&&@@###:::::::::::::::::::::::::::::",
":::::::::::::::: X:::::::::::::::&&&**&@*@@####::::::::::::::::::::::::::::",
":::::::::::::::: XX::::::::::::::&&&&&&*@*@@###::::::::::::::::::::::::::::",
":::::::::::::::::  ::::::::::::::#&@@##*&@@@###::::::::::::::::::::::::::::",
"::::::::::::::::::  :::::::::::::####@@;@@@:@##::::::::::::::::::::::::::::",
"::::::::::::::::::: X::::::::::::@@###@#@@@:@##::::::::::::::::::::::::::::",
"::::::::::::::::::: XX:::::::::::@##@@&#@@::@##@:::::::::::::::::::::::::::",
"::::::::::::::::::::  :::::::::::@#@@&##@--:@##@:::::::::::::::::::::::::::",
"::::::::::::::::::::  :::::::::::#@@*&#@**&:@##@:::::::::::::::::::::::::::",
"::::::::::::::::::::: ::::::::::#&@*&##*@@#:@#@@:::::::::::::::::::::::::::",
"::::::::::::::::::::::X:::::::::#@*&@@&@####@@@@:::::::::::::::::::::::::::",
":::::::::::::::::::::: X:::::::=#@@***&@###;==@::::::::::::::::::::::::::::",
":::::::::::::::::::::: XX::::::;=@**&&&@###;;=:::::::::::::::::::::::::::::",
"::::::::::::::::::::::: X::::::==@*&@@*@###;;=:::::::::::::::::::::::::::::",
":::::::::::::::::::::::  X:::::::@&&#@*@##@;;::::::::::::::::::::::::::::::",
":::::::::::::::::::::::: X:::::::@&&#@*@#@@::::::::::::::::::::::::::::::::",
"::::::::::::::::::::::::  XX:::::#@&##*@@@&::::::::::::::::::::::::::::::::",
"::::::::::::::::::::::::::XX:::::#@&##***&&::::::::::::::::::::::::::::::::",
":::::::::::::::::::::::::: X:::::#&&##@*&&@@@@#::::::::::::::::::::::::::::",
"::::::::::::::::::::::::::  :::::#&&#@@&&&@@@@####:::::::::::::::::::::::::",
"::::::::::::::::::::::::::: :::::@&##@@&&@@@@#######:::::::::::::::::::::::",
":::::::::::::::::::::::::::: X:::@&##@*&&@@@##########:::::::::::::::::::::",
"::::::::::::::::::::::::::::  :::@&@@&&&@@@@###########::::::::::::::::::::",
"::::::::::::::::::::::::::::  X::@&@@*&@@@@@############:::::::::::::::::::",
"::::::::::::::::::::::::::::: X::@&@&&&@@@@@@@@@@@@@@@@@:::::::::::::::::::",
":::::::::::::::::::::::::::::  ::&&&&&&@@@@@@@@@@@@@@@@@:::::::::::::::::::",
":::::::::::::::::::::::::::::::::::::::::::::::::::::::::::::::::::::::::::",
":::::::::::::::::::::::::::::::::::::::::::::::::::::::::::::::::::::::::::",
":::::::::::::::::::::::::::::::::::::::::::::::::::::::::::::::::::::::::::",
":::::::::::::::::::::::::::::::::::::::::::::::::::::::::::::::::::::::::::",
":::::::::::::::::::::::::::::::::::::::::::::::::::::::::::::::::::::::::::"
};
