/* XPM */
static char *result[] = {
/* columns rows colors chars-per-pixel */
"75 75 18 1 ",
"  c #280916",
". c #20121C",
"X c #29072F",
"o c #3B0E20",
"O c #3B0F21",
"+ c #3E2530",
"@ c #4A2B38",
"# c #312841",
"$ c #3F3A57",
"% c #4D0C4F",
"& c #5A4772",
"* c #F22525",
"= c #BA5D22",
"- c #CD7A26",
"; c #875368",
": c #D1A22A",
"> c #A16891",
", c None",
/* pixels */
",,,,,,,,,,,,,,,,,,,,,,,,,,,,,,,,,,,,,,,,,,,,,,,,,,,,,,,,,,,,,,,,,,,,,,,,,,,",
",,,,,,,,,,,,,,,,,,,,,,,,,,,,,,,,,,,,,,,,,,,,,,,,,,,,,,,,,,,,,,,,,,,,,,,,,,,",
",,,,,,,,,,,,,,,,,,,,,,,,,,,,,,,,,,,,,,,,,,,,,,,,,,,,,,,,,,,,,,,,,,,,,,,,,,,",
",,,,,,,,,,,,,,,,,,,,,,,,,,,,,,,,,,,,,,,,,,,,,,,,,,,,,,,,,,,,,,,,,,,,,,,,,,,",
",,,,,,,,,,,,,,,,,,,,,,,,,,,,,,,,,,,,,,,,,,,,,,,,,,,,,,,,,,,,,,,,,,,,,,,,,,,",
",,,,,,,,,,,,,,,,,,,,,,,,,,,,,,,,,,,,,,,,,,,,,,,,,,,,,,,XXX,,,,,,,,,,,,,,,,,",
",,,,,,,,,,,,,,,,,,,,,,,,,,,,,,,,,,,,,,,,,,,,,,,,,,,,,,,,,XX,,,,,,,,,,,,,,,,",
",,,,,,,,,,,,,,,,,,,,,,,,,,,,,,,,,,,,,,,,,,,,,,,,,,,,,,,,,,X,,,,,,,,,,,,,,,,",
",,,,,,,,,,,,,,,,,,,,,,,,,,,,,,,,,,,,,,,,,,,,,,,,,,,,,,,,,,,,,,,,,,,,,,,,,,,",
",,,,,,,,,,,,,,,,,,,,,,,,,,,,,,,,,,,,,,,,,,,,,,,,,,,,,,,,,,,,,,,,,,,,,,,,,,,",
",,,,,,,,,,,,,,,,,,,,,,,,,,,,,,,,,,,,,,,,,,,,,,,,,,,,,,,,,,,,,,,,,,,,,,,,,,,",
",,,,,,,,,,,,,,,,,,,,,,,,,,,,,,,,,,,,,,,,,,,,,,,,,,,,,,,,,,,,,,,,,,,,,,,,,,,",
",,,,,,,,,,,,,,,,,,,,,,,,,,,,,,,,,,,,,,,,,,,,XX,,,,,,,,,,,,,,,,,,,,,,,,,,,,,",
",,,,,,,,,,,,,,,,,,,,,,,,,,,,,,,,,,,,,,,,,,XX%%X,,,,,,,,,,%%,,,,,,,,,,,,,,,,",
",,,,,,,,,,,,,,,,,,,,,,,,,,,,,,,,,,,,,,,,XXXXX%%%,,,,,,,,%%%%%,,,,,,,,,,,,,,",
",,,,,,,,,,,,,,,,,,,,,,,&&&&,,,,,,,,,,,,X%X,,,X%%,,,,,,,X%%X%%%,,,,,,,,,,,,,",
",,,,,,,,,,,,,,,,,,,,,,&&&&&&,,,,,,,,,,X%%%,,,,X,,,,,,,,%%%XX,X%,,,,,,,,,,,,",
",,,,,,,,,,,,,,,,,,,,,&$$$$&&&,,,,,,,XX%%%XX%,X,,,,,,,,%%%X,,,,%,,,,,,,,,,,,",
",,,,,,,,,,,,,,,,,,,,,$$$$$$&&,,,,,,XXX%%%X%%%XX,,,,,,,%%%X,,,,XX,,,,,,,,,,,",
",,,,,,,,,,,,,,,,,,,,,$.==$$$&,,,,,XXXX%%%%X%%%XX,,,,,%%%%X,,,,,%%,,%,,,,,,,",
",,,,,,,,,,,,,,,,,,,,,$.===$$&&,XXXXXX%X%%X%%%%%%%X,,X%%%X,,,,,,,X,,%,,,,,,,",
",,,,,,,,,,,,,,,,,,,,$..==-$$&&XX%%%%XXX%%%%%%%%%%%X%%%%XX,,,,,,,,%%,,,,,,,,",
",,,,,,,,,,,,,,,,,,,,&..---$$$&X%X%%%%%X%%%%%%%%%%%%%%%XX,,,,,,,,,,,,,,,,,,,",
",,,,,,,,,,,,,,,,,,,,$..--..$$XXX%%%+@%%%%%%%%%%%%%%XXXX,,,,,,,,,,,,,,,,,,,,",
",,,,,,,,,,,,,,,,,,,:$....;$-#XX%%%%+++X%X%%%%%%%%%XX,,,,,,,,,,,,,,,,,,,,,,,",
",,,,,,,,,,,,,,,,,,,-:...$>#;X%%%%%++++@@ %%%%%%%%%,,X%%,,,,,,,,,,,,,,,,,,,,",
",,,,,,,,,,,,,,,,,,,-:-$$$$$X% oOO+++%%+@ %%%%%%%%X,,%%%,,,,,,,,,,,,,,,,,,,,",
",,,,,,,,,,,,,,,,,,,:-$$$$-X%     O+%%%%@OXX%X%%%%X,,%%%X,,,,,,,,,,,,,,,,,,,",
",,,,,,,,,,,,,,,,,,,--::--:X%     OO%%%  O@X%%%%%%X,,%%%X,,,,,,,,,,,,,,,,,,,",
",,,,,,,,,,,,,,,,,,,=-==---X       OO%O OO @%%%%%XX,,%%%X,,,,,,,,,,,,,,,,,,,",
",,,,,,,,,,,,,,,,,,$#-====XX   o    OOOOOO+@%%%%%X,,X%%X,,,,,,,,,,,,,,,,,,,,",
",,,,,,,,,,,,,,,,,$$#-=###Xo  o***@  OOOO%%%@%%%%X,X%%X,,,,,,,,,,,,,,,,,,,,,",
",,,,,,,,,,,,,,,,$$$##>>>#oo   +**@%  O%%%%%%%%%%XX%%XX,,,,,,,,,,,,,,,,,,,,,",
",,,,,,,,,,,,,,,$$$###>>oooo   +++@%% O%%%%%%%%%XXX%XX,,,,,,,,,,,,,,,,,,,,,,",
",,,,,,,,,,,,,,$$$###>>>o  X %%+%%%%%%%%%%%%%%%XXXXX,,,,,,,,,,,,,,,,,,,,,,,,",
",,,,,,,,,,,,,$$$###o>;;>;XX%%%%%%%%%%%%%%%%%XXX,,,,,,,,,,,,,,,,,,,,,,,,,,,,",
",,,,,,,,,,,,$$$##ooo ,;;;;X%%%%%%%%%%%%%%%%XXX,,,,,,,,,,,,,,,,,,,,,,,,,,,,,",
",,,,,,,,,,,$$$>>oo  ,,,,;;X%%%X%%%%%%%%%%%XXX,,,,,,,,,,,,,,,,,,,,,,,,,,,,,,",
",,,,,,,,,,,$$>>>  ,,,,,,,,#%%%%%%%%%%%%XXXXX,,,,,,,,,,,,,,,,,,,,,,,,,,,,,,,",
",,,,,,,,,,,oo>;;,,,,,,,,,,,#X%%%%%XXXXXXXXX,,,,,,,,,,,,,,,,,,,,,,,,,,,,,,,,",
",,,,,,,,,,oo>;;;,,,,,,,,,,,#XX%%XXXXX=,XX,,,,,,,,,,,,,,,,,,,,,,,,,,,,,,,,,,",
",,,,,,,,oo  ;;##,,,,,,,,,,,,==XXXXX--=$,,,,,,,,,,,,,,,,,,,,,,,,,,,,,,,,,,,,",
",,,,,,oo  ,$$###,,,,,,,,,,,,#=###$--=$$$,,,,,,,,,,,,,,,,,,,,,,,,,,,,,,,,,,,",
",,,,oo  ,,,,$$##,,,,,,,,,,,,#####--==$$$$,,,,,,,,,,,,,,,,,,,,,,,,,,,,,,,,,,",
",,,o  ,,,,,,,$$#,,,,,,,,,,,#####---=$$$$$$,,,,,,,,,,,,,,,,,,,,,,,,,,,,,,,,,",
",,,  ,,,,,,,,,,,,,,,,,,,,,######---=$$$$$$$,,,,,,,,,,,,,,,,,,,,,,,,,,,,,,,,",
",,,,,,,,,,,,,,,,,,,,,,,,,###--#-----$$$$$$$$,,,,,,,,,,,,,,,,,,,,,,,,,,,,,,,",
",,,,,,,,,,,,,,,,,,,,,,,,####=-----==--$$$$$-=,,,,,,,,,,,,,,,,,,,,,,,,,,,,,,",
",,,,,,,,,,,,,,,,,,,,,,,####$==========-$$$$-$$,,,,,,,,,,,,,,,,,,,,,,,,,,,,,",
",,,,,,,,,,,,,,,,,,,,,,######$$=====##==-$$-=$$$,,,,,,,,,,,,,,,,,,,,,,,,,,,,",
",,,,,,,,,,,,,,,,,,,,,########$$===####$$-$=$$$$$,,,,,,,,,,,,,,,,,,,,,,,,,,,",
",,,,,,,,,,,,,,,,,,,,,############=##$$$$=-=$$$$$$,,,,,,,,,,,,,,,,,,,,,,,,,,",
",,,,,,,,,,,,,,,,,,,,,######$$$####=$$##$$=-$$$$$$$,,,,,,,,,,,,,,,,,,,,,,,,,",
",,,,,,,,,,,,,,,,,,,,,#########$###$=####$==$$$$$$$$,,,,,,,,,,,,,,,,,,,,,,,,",
",,,,,,,,,,,,,,,,,,,,,##############=#####=$$$$$$$$$,,,,,,,,,,,,,,,,,,,,,,,,",
",,,,,,,,,,,,,,,,,,,,,,----#########=####-=$$$$$$$$$$,,,,,,,,,,,,,,,,,,,,,,,",
",,,,,,,,,,,,,,,,,,,,,,,#=-------####=##-=$$$$$$$$$$$,,,,,,,,,,,,,,,,,,,,,,,",
",,,,,,,,,,,,,,,,,,,,,,,,##======-------=$$#$$$$$$$$$$,,,,,,,,,,,,,,,,,,,,,,",
",,,,,,,,,,,,,,,,,,,,,,,,,###===========$$##$$$$$$$$$$$,,,,,,,,,,,,,,,,,,,,,",
",,,,,,,,,,,,,,,,,,,,,,,,,,#############$###$$$$$$$$$$$$,,,,,,,,,,,,,,,,,,,,",
",,,,,,,,,,,,,,,,,,,,,,,,,,,,#########$$###$$$$$$$$$$$$$$,,,,,,,,,,,,,,,,,,,",
",,,,,,,,,,,,,,,,,,,,,,,,,,,,,,############$$#$$$$$$$$$$$,,,,,,,,,,,,,,,,,,,",
",,,,,,,,,,,,,,,,,,,,,,,,,,,,,,,##########$####$$$$$$$$$$,,,,,,,,,,,,,,,,,,,",
",,,,,,,,,,,,,,,,,,,,,,,,,,,,,,,,,##############$$$$$$$$$$,,,,,,,,,,,,,,,,,,",
",,,,,,,,,,,,,,,,,,,,,,,,,,,,,,,,,,,,,#########$#$$$$$$$$$,,,,,,,,,,,,,,,,,,",
",,,,,,,,,,,,,,,,,,,,,,,,,,,,,,,,,,,,,,,,,###$$$$#$$$$$$$$,,,,,,,,,,,,,,,,,,",
",,,,,,,,,,,,,,,,,,,,,,,,,,,,,,,,,,,,,,,,,,#######$$$$$$$$,,,,,,,,,,,,,,,,,,",
",,,,,,,,,,,,,,,,,,,,,,,,,,,,,,,,,,,,,,,,,,,,#####$$$$$$$,,,,,,,,,,,,,,,,,,,",
",,,,,,,,,,,,,,,,,,,,,,,,,,,,,,,,,,,,,,,,,,,,,,###$$$$$$$,,,,,,,,,,,,,,,,,,,",
",,,,,,,,,,,,,,,,,,,,,,,,,,,,,,,,,,,,,,,,,,,,,,,#$$$$$$$,,,,,,,,,,,,,,,,,,,,",
",,,,,,,,,,,,,,,,,,,,,,,,,,,,,,,,,,,,,,,,,,,,,,,,,,,,,,,,,,,,,,,,,,,,,,,,,,,",
",,,,,,,,,,,,,,,,,,,,,,,,,,,,,,,,,,,,,,,,,,,,,,,,,,,,,,,,,,,,,,,,,,,,,,,,,,,",
",,,,,,,,,,,,,,,,,,,,,,,,,,,,,,,,,,,,,,,,,,,,,,,,,,,,,,,,,,,,,,,,,,,,,,,,,,,",
",,,,,,,,,,,,,,,,,,,,,,,,,,,,,,,,,,,,,,,,,,,,,,,,,,,,,,,,,,,,,,,,,,,,,,,,,,,",
",,,,,,,,,,,,,,,,,,,,,,,,,,,,,,,,,,,,,,,,,,,,,,,,,,,,,,,,,,,,,,,,,,,,,,,,,,,"
};
