/* XPM */
static char *result[] = {
/* columns rows colors chars-per-pixel */
"75 75 18 1 ",
"  c #280916",
". c #20121C",
"X c #29072F",
"o c #3B0E20",
"O c #3B0F21",
"+ c #3E2530",
"@ c #4A2B38",
"# c #312841",
"$ c #3F3A57",
"% c #4D0C4F",
"& c #5A4772",
"* c #F22525",
"= c #BA5D22",
"- c #CD7A26",
"; c #875368",
": c #D1A22A",
"> c #A16891",
", c None",
/* pixels */
",,,,,,,,,,,,,,,,,,,,,,,,,,,,,,,,,,,,,,,,,,,,,,,,,,,,,,,,,,,,,,,,,,,,,,,,,,,",
",,,,,,,,,,,,,,,,,,,,,,,,,,,,,,,,,,,,,,,,,,,,,,,,,,,,,,,,,,,,,,,,,,,,,,,,,,,",
",,,,,,,,,,,,,,,,,,,,,,,,,,,,,,,,,,,,,,,,,,,,,,,,,,,,,,,,,,,,,,,,,,,,,,,,,,,",
",,,,,,,,,,,,,,,,,,,,,,,,,,,,,,,,,,,,,,,,,,,,,,,,,,,,,,,,,,,,,,,,,,,,,,,,,,,",
",,,,,,,,,,,,,,,,,,,,,,,,,,,,,,,,,,,,,,,,,,,,,,,,,,,,,,,,,,,,,,,,,,,,,,,,,,,",
",,,,,,,,,,,,,,,,,,,,,,,,,,,,,,,,,,,,,,,,,,,,,,,,,,,,,XX,,,,,,,,,,XXX,,,,,,,",
",,,,,,,,,,,,,,,,,,,,,,,,,,,,,,,,,,,,,,,,,,,,,,,,,,XXXXXX,,,,,,,,XXXXX,,,,,,",
",,,,,,,,,,,,,,,,,,,,,,,,,,,,,,,,,,,,,,,,,,,,,,,,,,,,,,,XX,,,,,,,,,,XX,,,,,,",
",,,,,,,,,,,,,,,,,,,,,,,,,,,,,,,,,,,,,,,,,,,,,,,,,,,,,,,,X,,,,,,,,,,,X,,,,,,",
",,,,,,,,,,,,,,,,,,,,,,,,,,,,,,,,,,,,,,,,,,,,,,,,,,,,,,,,,,,,,,,,,,,,X,,,,,,",
",,,,,,,,,,,,,,,,,,,,,,,,,,,,,,,,,,,,,,,,,,,,,,,,,,,,,,,,,,,,,,,,,,,,,,,,,,,",
",,,,,,,,,,,,,,,,,,,,,,,,,,,,,,,,,,,,,,,,,,,,,,,,,,,,,,,,,,,,,,,,,,,,,,,,,,,",
",,,,,,,,,,,,,,,,,,,,,,,,,,,,,,,,,,,,,,,,,,,,,,,,,,,,,,,,,,,,,,,,,,,,,,,,,,,",
",,,,,,,,,,,,,,,,,,,,,,,,,,,,,,,,,,,,,,,,,,,,,,,,,,,,,,,,,,,,,,,,,,,,,,,,,,,",
",,,,,,,,,,,,,,,,,,,,,,,,,,,,,,,,,,,,,,,,,,,,,,,,,,,,,,,,,,,,,,,,,,,,,,,,,,,",
",,,,,,,,,,,,,,,,,,,,,,,&&&&,,,,,,,,,,,,,,XXX,,,,,,,,,,,X%%%,,,,,,,,,,,,,,,,",
",,,,,,,,,,,,,,,,,,,,,,&&&&&&,,,,,,,,,,XXX%%%%X,,,,,,,,X%%%%%%,,,,,,,,,,,,,,",
",,,,,,,,,,,,,,,,,,,,,&$$$$&&&,,,,,,,XXXX%%%%%%%XXX,,,X%%%XX%%%,,,,,,,,,,,,,",
",,,,,,,,,,,,,,,,,,,,,$$$$$$&&,,,,,,XXXX%%%%%%%%%XX,,,%%%XX,XX%%,,,,,,,,,,,,",
",,,,,,,,,,,,,,,,,,,,,$.==$$$&,,,,,,XXXX%%%%%%%%%%X,,,%%XX,,,XX%%,,,,,,,,,,,",
",,,,,,,,,,,,,,,,,,,,,$.===$$&&,,,XXXXX%%%%%%%%%%%%%XX%%XX,,,,,X%,,,,,,,,,,,",
",,,,,,,,,,,,,,,,,,,,$..==-$$&&,,,XXXXX%%%%%%%%%%%%%%%%XX,,,,,,XX%,,,,,,,,,,",
",,,,,,,,,,,,,,,,,,,,&..---$$$XXXXXXXXX%%%%%%%%%%%%%%%%XX,,,,,,,X%,,,,,,,,,,",
",,,,,,,,,,,,,,,,,,,,$..--..$XXXXXXX+@X%%%%%%%%%%%%%%XXX,,,,,,,,,%,,,,,,,,,,",
",,,,,,,,,,,,,,,,,,,:$....;$-XXXX%%%+++X%%%%%%%%%%%%%XXX,,,,,,,,,XX,,,,,,,,,",
",,,,,,,,,,,,,,,,,,,-:...$>#XXXX%%%++++@@ %%%%%%%%%%%XX,,,,XX,,,,X%,,,X,,,,,",
",,,,,,,,,,,,,,,,,,,-:-$$$$XXX oOO+++%%+@ %%%%%%%%%%XX,,,,,,,%,,,XXXXX,,,,,,",
",,,,,,,,,,,,,,,,,,,:-$$$$XXX     O+%%%%@O%%%%%%%%%%X,,,,,,,,X%,,,XX,,,,,,,,",
",,,,,,,,,,,,,,,,,,,--::--XXX     OO%%%  O@%%%%%%XX%,,,,,,,,,XX,,,,,,,,,,,,,",
",,,,,,,,,,,,,,,,,,,=-==--XX       OO%O OO @%%%XXXX%,,,,,,,,,,X,,,,,,,,,,,,,",
",,,,,,,,,,,,,,,,,,$#-====XX   o    OOOOOO+@XXXXXXX,,,,,,,,,,,X,,,,,,,,,,,,,",
",,,,,,,,,,,,,,,,,$$#-=###Xo  o***@  OOOO%%%@X%XXX,,,,,,,,,,,,,,,,,,,,,,,,,,",
",,,,,,,,,,,,,,,,$$$##>>>#oo   +**@%  O%%%%%%%%%XX,,,,,,,,,,,,,,,,,,,,,,,,,,",
",,,,,,,,,,,,,,,$$$###>>oooo   +++@%% O%%%%%%%%%X,,,,,,,,,,,,,,,,,,,,,,,,,,,",
",,,,,,,,,,,,,,$$$###>>>o  X %%+%%%%%%%%%%%%%%%XX,,,,,,,,,,,,,,,,,,,,,,,,,,,",
",,,,,,,,,,,,,$$$###o>;;>;;XXX%%%%%%%%%%%%%XXXXX,,,,,,,,,,,,,,,,,,,,,,,,,,,,",
",,,,,,,,,,,,$$$##ooo ,;;;;#XX%%%%%%%%%%%%XXXXX,,,,,,,,,,,,,,,,,,,,,,,,,,,,,",
",,,,,,,,,,,$$$>>oo  ,,,,;;#XX%%%%%%%%%%%XX,,,,,,,,,,,,,,,,,,,,,,,,,,,,,,,,,",
",,,,,,,,,,,$$>>>  ,,,,,,,,#-XX%%%%%%%%%XX,,,,,,,,,,,,,,,,,,,,,,,,,,,,,,,,,,",
",,,,,,,,,,,oo>;;,,,,,,,,,,,#=##%%%%%XXX,,,,,,,,,,,,,,,,,,,,,,,,,,,,,,,,,,,,",
",,,,,,,,,,oo>;;;,,,,,,,,,,,#=###%XX$$$$$,,,,,,,,,,,,,,,,,,,,,,,,,,,,,,,,,,,",
",,,,,,,,oo  ;;##,,,,,,,,,,,,==####$$$$$$$,,,,,,,,,,,,,,,,,,,,,,,,,,,,,,,,,,",
",,,,,,oo  ,$$###,,,,,,,,,,,,,=###$$$$----=,,,,,,,,,,,,,,,,,,,,,,,,,,,,,,,,,",
",,,,oo  ,,,,$$##,,,,,,,,,,,,,,##$$=--===$$,,,,,,,,,,,,,,,,,,,,,,,,,,,,,,,,,",
",,,o  ,,,,,,,$$#,,,,,,,,,,,,,,,=--==$$$$$$,,,,,,,,,,,,,,,,,,,,,,,,,,,,,,,,,",
",,,  ,,,,,,,,,,,,,,,,,,,,,,,,---=$$$$$$$$$#,,,,,,,,,,,,,,,,,,,,,,,,,,,,,,,,",
",,,,,,,,,,,,,,,,,,,,,,,,,,,,-=$$$$$$$$$$$$#,,,,,,,,,,,,,,,,,,,,,,,,,,,,,,,,",
",,,,,,,,,,,,,,,,,,,,,,,,,,,=-=-$$$$$$$$$###,,,,,,,,,,,,,,,,,,,,,,,,,,,,,,,,",
",,,,,,,,,,,,,,,,,,,,,,,,,,$$====--$$$$$$####,,,,,,,,,,,,,,,,,,,,,,,,,,,,,,,",
",,,,,,,,,,,,,,,,,,,,,,,,,,$$$$$$$==--$$#####,,,,,,,,,,,,,,,,,,,,,,,,,,,,,,,",
",,,,,,,,,,,,,,,,,,,,,,,,,,$$$$$$$$$$==---####,,,,,,,,,,,,,,,,,,,,,,,,,,,,,,",
",,,,,,,,,,,,,,,,,,,,,,,,,,$$$$$$$$$$$$====--=,,,,,,,,,,,,,,,,,,,,,,,,,,,,,,",
",,,,,,,,,,,,,,,,,,,,,,,,,,$$$$$$$$$$$$$#######,,,,,,,,,,,,,,,,,,,,,,,,,,,,,",
",,,,,,,,,,,,,,,,,,,,,,,,,,$$$$$$$$$$$$$$######,,,,,,,,,,,,,,,,,,,,,,,,,,,,,",
",,,,,,,,,,,,,,,,,,,,,,,,,,,$$$$$$$$$$$$$$######,,,,,,,,,,,,,,,,,,,,,,,,,,,,",
",,,,,,,,,,,,,,,,,,,,,,,,,,,,$$$$$$$$$$$$$#######,,,,,,,,,,,,,,,,,,,,,,,,,,,",
",,,,,,,,,,,,,,,,,,,,,,,,,,,,,$$$$$$$$$$#########,,,,,,,,,,,,,,,,,,,,,,,,,,,",
",,,,,,,,,,,,,,,,,,,,,,,,,,,,,,$$$$$$$$$$$$#######,,,,,,,,,,,,,,,,,,,,,,,,,,",
",,,,,,,,,,,,,,,,,,,,,,,,,,,,,,,$$$$$$$$$$###$####,,,,,,,,,,,,,,,,,,,,,,,,,,",
",,,,,,,,,,,,,,,,,,,,,,,,,,,,,,,$$$$$$$$$$$$$######,,,,,,,,,,,,,,,,,,,,,,,,,",
",,,,,,,,,,,,,,,,,,,,,,,,,,,,,,,,$$$$$$$$$$###$####,,,,,,,,,,,,,,,,,,,,,,,,,",
",,,,,,,,,,,,,,,,,,,,,,,,,,,,,,,,,$$$$$$$$$$$$######,,,,,,,,,,,,,,,,,,,,,,,,",
",,,,,,,,,,,,,,,,,,,,,,,,,,,,,,,,,,$$$$$$$$$$########,,,,,,,,,,,,,,,,,,,,,,,",
",,,,,,,,,,,,,,,,,,,,,,,,,,,,,,,,,,,$$$$$$$$$##$#####,,,,,,,,,,,,,,,,,,,,,,,",
",,,,,,,,,,,,,,,,,,,,,,,,,,,,,,,,,,,,$$$$$$$$#$#######,,,,,,,,,,,,,,,,,,,,,,",
",,,,,,,,,,,,,,,,,,,,,,,,,,,,,,,,,,,,,,$$$$$#$########,,,,,,,,,,,,,,,,,,,,,,",
",,,,,,,,,,,,,,,,,,,,,,,,,,,,,,,,,,,,,,,$$######$$#####,,,,,,,,,,,,,,,,,,,,,",
",,,,,,,,,,,,,,,,,,,,,,,,,,,,,,,,,,,,,,,,,###$$$$######,,,,,,,,,,,,,,,,,,,,,",
",,,,,,,,,,,,,,,,,,,,,,,,,,,,,,,,,,,,,,,,,#############,,,,,,,,,,,,,,,,,,,,,",
",,,,,,,,,,,,,,,,,,,,,,,,,,,,,,,,,,,,,,,,,,###########,,,,,,,,,,,,,,,,,,,,,,",
",,,,,,,,,,,,,,,,,,,,,,,,,,,,,,,,,,,,,,,,,,,,,,,,,,,,,,,,,,,,,,,,,,,,,,,,,,,",
",,,,,,,,,,,,,,,,,,,,,,,,,,,,,,,,,,,,,,,,,,,,,,,,,,,,,,,,,,,,,,,,,,,,,,,,,,,",
",,,,,,,,,,,,,,,,,,,,,,,,,,,,,,,,,,,,,,,,,,,,,,,,,,,,,,,,,,,,,,,,,,,,,,,,,,,",
",,,,,,,,,,,,,,,,,,,,,,,,,,,,,,,,,,,,,,,,,,,,,,,,,,,,,,,,,,,,,,,,,,,,,,,,,,,",
",,,,,,,,,,,,,,,,,,,,,,,,,,,,,,,,,,,,,,,,,,,,,,,,,,,,,,,,,,,,,,,,,,,,,,,,,,,"
};
