/* XPM */
static char *result[] = {
/* columns rows colors chars-per-pixel */
"75 75 18 1 ",
"  c #280916",
". c #20121C",
"X c #3B0E20",
"o c #3B0F21",
"O c #3E2530",
"+ c #4A2B38",
"@ c #312841",
"# c #3F3A57",
"$ c #4D0C4F",
"% c #5A4772",
"& c #F22525",
"* c #BA5D22",
"= c #CD7A26",
"- c #875368",
"; c #D1A22A",
": c #A16891",
"> c gray98",
", c None",
/* pixels */
",,,,,,,,,,,,,,,,,,,,,,,,,$$$,,&>,&,,,$,,,,,,,,,,,,,,,,,,,,,,,,,,,,,,,,,,,,,",
",,,,,,,,,,,,,,,,,,&,,,,,,,$$,,,,,,,,,$,,,,,,,,,,&,,,,,,,,,,,,,,,,,,,,,,,,,,",
",,,,,,,,,,,,,,,,,,&,,,,,,$$$$,,,,,,,$,,,,,,,,,,,&,,,,,,,,,,,,,,,,,,,,,,,,,,",
",,,,,,,,,,,,,,,,,,&&,,,,,,$$$,,,,,,,$,,,>,,,,,&&&,,,,,,,,,,,,,,,,,,,,,,,,,,",
",,,,,,,,,,,,,,,,,,&>&,,,,,$$,,,,,,,$>,,>,,,,,,&>&,,,,,,,,,,,,,,,,,,,,,,,,,,",
",,,,,,,,,,,,,,,,,,&&>&,,,,$$,,,,,,,$$,,,,,,,,&>>&,,,,,,,,,,,,,,,,,,,,,,,,,,",
",,,,,,,,,,,,,,,,,,,&>>&,,,$$,,,,,,$$,,,,,,,&&>>&,,,,,,,,,,,,,,,,,,,,,,,,,,,",
",,,,,,,,,,,,$$$,,,,,&,,,,,,,,>,,,,$,,,,,,,,,,,,,,,,$$$,,,,,,,,,,,,,,,,,,,,,",
",,,,,,,,,,,$$$$$oo+,,>,,,,,,,>>,,,,,,>,,,,,,,,,,$$$$$,,,,,,,,,,,,,,,,,,,,,,",
",,,,,,,,,,,$$$$$+ o,,,,,,,,,,>>,,,,,,,,,,,,,,,$$$$$$,,,,,,,,,,,,,,,,,,,,,,,",
",,,,,,,,,,,,,$$$+ ooo,,,,,,,,,>,,,,,,,,,,,>,,,,,$$$,,,,,,,,,,,,,,,,,,,,,,,,",
",,,,,,,,,,,,,,$++O oo,,,,,,,,,,,,,,,,,,,,,>,,,,$$$,,,,,,,,,,,,,,,,,,,,,,,,,",
",,,,,,,,,,,,,,++O, ooo,,,,,,$$,,,,,,,,,,,$,,,,,,$,,,,,,,,,,,,,,,,,,,,,,,,,,",
",,,,,,,,,,,,,++OO, ooo,,,,,,$$$,,,,,,,,$$$,,,,,,,,,,,,,,,,,,,,,,,,,,,,,,,,,",
",,,,,,,,,,,,,++O,, ooo,,,,,,$$$,,,,,,,$$$$,,,,,,,,,,,,,,,,,,,,,,,,,,,,,,,,,",
",,,,,,,,,,,,,+OO,, oo ,,,,,,,,$,,,,,$$$$$,,,,,>&&&,,,,,,,,,,,,,,,,,,,,,,,,,",
",,,,,,,,,,,,,OOOO, oo $$,,,,,,,,,,$,,,,$,,,,,,,,,,,,,,$$$,,,,,,,,,,,,,,,,,,",
",,,,,,,,,,,,&OOOOOooo $$$$,,,,,,,$$$,,$,,,,,,,,,,,,,,,,,,,,,,,,,,,,,,,,,,,,",
",,,,,,,,,,&&&OOOOOooo ,$$,,,,,,,,,$,,,,,,,,,,,,,,&&&,,,,,,,,,,,,,,,,,,,,,,,",
",,,,,,,,&&>>>>OOOooo  ,,$$,,,,,,,,,,,,,,,,>>&,,,>>>&&&,,,,,,,,,,,,,,,,,,,,,",
",,,,,,,,,,&&&&&OOoo   ,,,,,,,,,,$,,,,,,,,,,>>&,>>>>>>&,,,,,,,,,,,,,,,,,,,,,",
",,,,,,,,,,,,,,,ooo   +,,,,,,,,,,,,,,,,,$$,&,,,,>&&>,,,,,,,,,,,,,,,,,,,,,,,,",
",,,,,,,,,,,,,,,ooo  O+O,,,,,,,,$$,,,,,,$$$,,,,,,$,,,,,,,,,,,,,,,,,,,,,,,,,,",
",,,,,,,,,,,,,,,X    OOOO,,,,,,$$$,,,,$>>,$$,,,,$$$,,,,,,,,,,,,,,,,,,,,,,,,,",
",,,,,,,,,,,,,,,     OOOO,,,$,,$$$,,,,,$>>>,,,,,,$$$,,,,,,,,,,,,,,,,,,,,,,,,",
",,,,,,,,,,,,,,,$   XOOOO,,$,,,,$,,,,,,,,>>,,,,,,$$$$,,,,,,,,,,,,,,,,,,,,,,,",
",,,,,,,,,,,,,$$$   XOOO,,,,,,,,,,,,$,,,,,>,,,,,,,,$$,,,,,,,,,,,,,,,,,,,,,,,",
",,,,,,,,,,,,,$,,,   XO>,,,,,,,,,,$$$$,%%%>%,,,,,,,,,,,,,,,,,,,,,,,,,,,,,,,,",
",,,,,,,,,,,,,,,,,,  XX>,,,,,,>,,,$$,,####%%%,,,,,,,,,,,,,,,,,,,,,,,,,,,,,,,",
",,,,,,,,,,,,,,,,,&    X,,,,,>>,,,$,,,#####%%%,,,,,,,,,,,,,,,,,,,,,,,,,,,,,,",
",,,,,,,,,,,,,,,,&>     ,,,&>>&,,,,,,,#.**##%%,,,,,,,,,,,,,,,,,,,,,,,,,,,,,,",
",,,,,,,,,,,,,,,,&>> X ,,,,&>>&,,,,,,#.**>>>&%%,,,,,,,,,,,,,,,,,,,,,,,,,,,,,",
",,,,,,,,,,,,,,,&>&,  X,$$,&>&,,,,,,$#.==&>>>&%,,,,,,,,,,,,,,,,,,,,,,,,,,,,,",
",,,,,,,,,,,,,,,&&,,X X,$$$&&,,,>,,,$..===&>>>&,,,,,,,,,,,,,,,,,,,,,,,,,,,,,",
",,,,,,,,,,,,,,,,,,,X X,$$$,,,,&>>>,$$.....&>>&=@;;,,,,,,,,,,,,,,,,,,,,,,,,,",
",,,,,,,,,,,,,,,,,,,  X$$,,,,,,&>>&=;$$$:@@-=&>#####,,,,,,,,,,,,,,,,,,,,,,,,",
",,,,,,,,,,,,,,,,,,,, X$,,,,,,,&>>&=;$$$###===&#######,,,,,,,,,,,,,,,,,,,,,,",
",,,,,,,,,,,,,,,,,,,, X$,,,,,,,&>&,;=##$#===***@@@#####,,,,,,,,,,,,,,,,,,,,,",
",,,,,,,,,,,,,,,,,,,, XX,,,,,,,&>&,*=;;==;=**@@@@@@@###,,,,,,,,,,,,,,,,,,,,,",
",,,,,,,,,,,,,,,,,,,, XX,,,,,,,&>,,,******@=@=@,,,@@@###,,,,,,,,,,,,,,,,,,,,",
",,,,,,,,,,,,,,,,,,,,, X,,,,,,,&>,,,#*@@##@=*@@,,,,@@###,,,,,,,,,,,,,,,,,,,,",
",,,,,,,,,,,,,,,,,,,,, X,,,,,,,&>,,###@##@=*@@@,,,,@@###,,,,,,,,,,,,,,,,,,,,",
",,,,,,,,,,,,,,,,,,,,,  X,,,,,,&>,##@@##@@=:@@@,,,@@@@@@,,,,,,,,,,,,,,,,,,,,",
",,,,,,,,,,,,,,,,,,,,,  X,,,,,,&&,##@@###@##@@@,,,@@@@@@,,,,,,,,,,,,,,,,,,,,",
",,,,,,,,,,,,,,,,,,,,,, X,,,,,,,,###@##@@*##@@@,,,:---@,,,,,,,,,,,,,,,,,,,,,",
",,,,,,,,,,,,,,,,,,,,,, X,,,,,,,,###@#@@*###@@,,,,::--,,,,,,,,,,,,,,,,,,,,,,",
",,,,,,,,,,,,,,,,,,,,,,  X,,,,,,###@#@@=*##@@@,,,,::--,,,,,,,,,,,,,,,,,,,,,,",
",,,,,,,,,,,,,,,,,,,,,,  X,,,,:-###@*@=*##@@@@,,,,::-,,,,,,,,,,,,,,,,,,,,,,,",
",,,,,,,,,,,,,,,,,,,,,,, X,,,,---@@@,=*@@@====*,,,,,,,,,,,,,,,,,,,,,,,,,,,,,",
",,,,,,,,,,,,,,,,,,,,,,,  ,,,,,--@@,,@======@@#,,,,,,,,,,,,,,,,,,,,,,,,,,,,,",
",,,,,,,,,,,,,,,,,,,,,,,  ,,,,,,,,,,@===***@###,,,,,,,,,,,,,,,,,,,,,,,,,,,,,",
",,,,,,,,,,,,,,,,,,,,,,,, ,,,,,,,,,,@==***@@###,,,,,,,,,,,,,,,,,,,,,,,,,,,,,",
",,,,,,,,,,,,,,,,,,,,,,,,  ,,,,,,,,@@==***@@###,,,,,,,,,,,,,,,,,,,,,,,,,,,,,",
",,,,,,,,,,,,,,,,,,,,,,,,  ,,,,,,,,@@=*@@=@@###,,,,,,,,,,,,,,,,,,,,,,,,,,,,,",
",,,,,,,,,,,,,,,,,,,,,,,,X ,,,,,,,@@@**#@=@@##@,,,,,,,,,,,,,,,,,,,,,,,,,,,,,",
",,,,,,,,,,,,,,,,,,,,,,,,,  ,,,,,,##@**#@=@@#@@,,,,,,,,,,,,,,,,,,,,,,,,,,,,,",
",,,,,,,,,,,,,,,,,,,,,,,,,  ,,,,,,###@*##@====*,,,,,,,,,,,,,,,,,,,,,,,,,,,,,",
",,,,,,,,,,,,,,,,,,,,,,,,,X ,,,,,,###@*##@===**,,,,,,,,,,,,,,,,,,,,,,,,,,,,,",
",,,,,,,,,,,,,,,,,,,,,,,,,X ,,,,,,###**##@==**,,,,,,,,,,,,,,,,,,,,,,,,,,,,,,",
",,,,,,,,,,,,,,,,,,,,,,,,,X ,,,,,,###**#@@=***,,,,,,,,,,,,,,,,,,,,,,,,,,,,,,",
",,,,,,,,,,,,,,,,,,,,,,,,,X ,,,,,,##@*##@@=**,,,,,,,,,,,,,,,,,,,,,,,,,,,,,,,",
",,,,,,,,,,,,,,,,,,,,,,,,,XX,,,,,,##@*##@==*@@,,,,,,,,,,,,,,,,,,,,,,,,,,,,,,",
",,,,,,,,,,,,,,,,,,,,,,,,,X ,,,,,,##@*##@=*@@@@,,,,,,,,,,,,,,,,,,,,,,,,,,,,,",
",,,,,,,,,,,,,,,,,,,,,,,,,X ,,,,,##@@*@@**@@@@@#,,,,,,,,,,,,,,,,,,,,,,,,,,,,",
",,,,,,,,,,,,,,,,,,,,,,,,,,X ,,,,@@@=**@@@@@@@#######,,,,,,,,,,,,,,,,,,,,,,,",
",,,,,,,,,,,,,,,,,,,,,,,,,,X ,,,,@@***@@@@@@##########,,,,,,,,,,,,,,,,,,,,,,",
",,,,,,,,,,,,,,,,,,,,,,,,,,,X ,,,==*@@@@@@#############,,,,,,,,,,,,,,,,,,,,,",
",,,,,,,,,,,,,,,,,,,,,,,,,,,X ,,,**@@@@@@@@#############,,,,,,,,,,,,,,,,,,,,",
",,,,,,,,,,,,,,,,,,,,,,,,,,,  ,,,@@@@@@@@@@@#############,,,,,,,,,,,,,,,,,,,",
",,,,,,,,,,,,,,,,,,,,,,,,,,,  ,,,@@@@@@@@@@@@@@@@@@@@@#@@,,,,,,,,,,,,,,,,,,,",
",,,,,,,,,,,,,,,,,,,,,,,,,,,  ,,,@@@@@@@@@@@@@@@@@@@@@@@@@,,,,,,,,,,,,,,,,,,",
",,,,,,,,,,,,,,,,,,,,,,,,,,,,,,,,,,,,,,,,,,,,,,,,,,,,,,,,,,,,,,,,,,,,,,,,,,,",
",,,,,,,,,,,,,,,,,,,,,,,,,,,,,,,,,,,,,,,,,,,,,,,,,,,,,,,,,,,,,,,,,,,,,,,,,,,",
",,,,,,,,,,,,,,,,,,,,,,,,,,,,,,,,,,,,,,,,,,,,,,,,,,,,,,,,,,,,,,,,,,,,,,,,,,,",
",,,,,,,,,,,,,,,,,,,,,,,,,,,,,,,,,,,,,,,,,,,,,,,,,,,,,,,,,,,,,,,,,,,,,,,,,,,"
};
