/* XPM */
static char *result[] = {
/* columns rows colors chars-per-pixel */
"75 75 18 1 ",
"  c #280916",
". c #20121C",
"X c #29072F",
"o c #3B0E20",
"O c #3B0F21",
"+ c #3E2530",
"@ c #4A2B38",
"# c #312841",
"$ c #3F3A57",
"% c #4D0C4F",
"& c #5A4772",
"* c #F22525",
"= c #BA5D22",
"- c #CD7A26",
"; c #875368",
": c #D1A22A",
"> c #A16891",
", c None",
/* pixels */
",,,,,,,,,,,,,,,,,,,,,,,,,,,,,,,,,,,,,,,,,,,,,,,,,,,,,,,,,,,,,,,,,,,,,,,,,,,",
",,,,,,,,,,,,,,,,,,,,,,,,,,,,,,,,,,,,,,,,,,,,,,,,,,,,,,,,,,,,,,,,,,,,,,,,,,,",
",,,,,,,,,,,,,,,,,,,,,,,,,,,,,,,,,,,,,,,,,,,,,,,,,,,,,,,,,,,,,,,,,,,,,,,,,,,",
",,,,,,,,,,,,,,,,,,,,,,,,,,,,,,,,,,,,,,,,,,,,,,,,,,,,,,,,,,,,,,,,,,,,,,,,,,,",
",,,,,,,,,,,,,,,,,,,,,,,,,,,,,,,,,,,,,,,,,,,,,,,,,,,,,,,,,,,,,,,,,,,,,,,,,,,",
",,,,,,,,,,,,,,,,,,,,,,,,,,,,,,,,,,,,,,,,,,,,,,,,,,,,,,,,,,,,,,,,,,,,,,,,,,,",
",,,,,,,,,,,,,,,,,,,,,,,,,,,,,,,,,,,,,,,,,,,,,,,,,,,,,,,,,,,,,,,,,,,,,,,,,,,",
",,,,,,,,,,,,,,,,,,,,,,,,,,,,,,,,,,,,,,,,,,,,,,,,,,,,,,,,,,,,,,,,,,,,,,,,,,,",
",,,,,,,,,,,,,,,,,,,,,,,,,,,,,,,,,,,,,,,,,,,,,,,,,,,,,,,,,,,,,,,,,,,,,,,,,,,",
",,,,,,,,,,,,,,,,,,,,,,,,,,,,,,,,,,,,,,,,,,,,,,,,,,,,,,,,,,X,,,,,,,,,,,,,,,,",
",,,,,,,,,,,,,,,,,,,,,,,,,,,,,,,,,,,,,,,,,,,,,,,,,,,,,,,,,,XX,,,,,,,,,,,,,,,",
",,,,,,,,,,,,,,,,,,,,,,,,,,,,,,,,,,,,,,,,,,,,,,,,,,,,,,,,,XXXX,,,,,,,,,,,,,,",
",,,,,,,,,,,,,,,,,,,,,,,,,,,,,,,,,,,,,,,,,,,,,,,,,,,,,,,,,XXXXX,,,,,,,,,,,,,",
",,,,,,,,,,,,,,,,,,,,,,,,,,,,,,,,,,,,,,,,,,,,,,,,,,,,,,,,,XXXXX,,,,,,,,,,,,,",
",,,,,,,,,,,,,,,,,,,,,,,,,,,,,,,,,,,,,,,,,,,,,%%%%%,,,,,,,,XXXXX,,,,,,,,,,,,",
",,,,,,,,,,,,,,,,,,,,,,,,,,,,,,,,,,,,,,,,,,,X%%%%%%,,,,,,,,XXXXX,,,,,,,,,,,,",
",,,,,,,,,,,,,,,,,,,,,,,,,,,,,,,,,,,,,,,,,,XXX%XXX%%,,,,,,,,XXXX,X,,,,,,,,,,",
",,,,,,,,,,,,,,,,,,,,,,,&&&&,,,,,,,,,,,,,,,XXX%,,XX,,,,,,,,,XXXX,,X,,,,,,,,,",
",,,,,,,,,,,,,,,,,,,,,,&&&&&&,,,,,,,,,,X%%%%XXX,,,X,,,,,,,,,XXXX,,,X,,,,,,,,",
",,,,,,,,,,,,,,,,,,,,,&$$$$&&&,,,,,,,X%%%%%%XXXX,,,,,,,,,,,XXXX,,,,%,,,,,,,,",
",,,,,,,,,,,,,,,,,,,,,$$$$$$&&,,,,,,XX%%%%%%%%XXX,,,,,,,,XXXXX,,,,,%X,,,,,,,",
",,,,,,,,,,,,,,,,,,,,,$.==$$$&,,,,,%%%%%%%%%%%%XXX,,,,,,,,,,,,,,,,%%X,,,,,,,",
",,,,,,,,,,,,,,,,,,,,,$.===$$&&,,,%%%%%%%%%%%%%X%%%%%,,,,,,,,,,,,%%%X,,,,,,,",
",,,,,,,,,,,,,,,,,,,,$..==-$$&&,,XX%%%%%%%%%%%%XX%%%%%,,,,,,,,,,%%%XX,,,,,,,",
",,,,,,,,,,,,,,,,,,,,&..---$$$&,,XXXXX%%%%%%%%XXX%%%%%%X,,,,,%%%%%XXX,,,,,,,",
",,,,,,,,,,,,,,,,,,,,$..--..$$&XXXXX+@X%%%%%%%XX%%%%X%%%%%%%%%%%%XXX,,,,,,,,",
",,,,,,,,,,,,,,,,,,,:$....;$-#XXXXXX+++X%%%%%XX%%%%XXXX%%%%%%%%%XXX,,,,,,,,,",
",,,,,,,,,,,,,,,,,,,-:...$>#;XXX%%%++++@@ %XXXX%%XXXXXXXX%%%%XXXXX,,,,,,,,,,",
",,,,,,,,,,,,,,,,,,,-:-$$$$$XX oOO+++%%+@ X%%%%%XXXX,,,,,XXXXXXXX,,,,,,,,,,,",
",,,,,,,,,,,,,,,,,,,:-$$$$-XX     O+%%%%@O%%%%%%%%X,,,,,,,,,,,,,,,,,,,,,,,,,",
",,,,,,,,,,,,,,,,,,,--::--:XX     OO%%%  O@%%%%%%%%,,,%,,,,,,,,,,,,,,,,,,,,,",
",,,,,,,,,,,,,,,,,,,=-==---X       OO%O OO @%%%%%%%,,,%%,,,,,,,,,,,,,,,,,,,,",
",,,,,,,,,,,,,,,,,,$#-=====X   o    OOOOOO+@%%%%%%X,,X%%,,,,,,,,,,,,,,,,,,,,",
",,,,,,,,,,,,,,,,,$$#-=####o  o***@  OOOO%%%@%%%%%,X,X%X,,,,,,,,,,,,,,,,,,,,",
",,,,,,,,,,,,,,,,$$$##>>>#oo   +**@%  O%%%%%%%%%%X,,X%%,,,,,,,,,,,,,,,,,,,,,",
",,,,,,,,,,,,,,,$$$###>>oooo   +++@%% O%%%%%%%%XXX,X%%X,,,,,,,,,,,,,,,,,,,,,",
",,,,,,,,,,,,,,$$$###>>>o  X %%+XXX%%%%%%%%%%%XXX,XX%,,,,,,,,,,,,,,,,,,,,,,,",
",,,,,,,,,,,,,$$$###o>;;>;;#XX%%XXX%%%%%%X%%%%XX,,,,,,,,,,,,,,,,,,,,,,,,,,,,",
",,,,,,,,,,,,$$$##ooo ,;;;;##XX%XXX%%%%%XX%%%XX,,,,,,,,,,,,,,,,,,,,,,,,,,,,,",
",,,,,,,,,,,$$$>>oo  ,,,,;;##XX%%X%%%%%XXXX%XX,,,,,,,,,,,,,,,,,,,,,,,,,,,,,,",
",,,,,,,,,,,$$>>>  ,,,,,,,,#--XX%%%%%%XXX,XXX,,,,,,,,,,,,,,,,,,,,,,,,,,,,,,,",
",,,,,,,,,,,oo>;;,,,,,,,,,,,#=#X%%%%XXX,,,,,,,,,,,,,,,,,,,,,,,,,,,,,,,,,,,,,",
",,,,,,,,,,oo>;;;,,,,,,,,,,,#=##XXXXX-=,,,,,,,,,,,,,,,,,,,,,,,,,,,,,,,,,,,,,",
",,,,,,,,oo  ;;##,,,,,,,,,,,,==###----=$$,,,,,,,,,,,,,,,,,,,,,,,,,,,,,,,,,,,",
",,,,,,oo  ,$$###,,,,,,,,,,,,,=#-:---=$$$,,,,,,,,,,,,,,,,,,,,,,,,,,,,,,,,,,,",
",,,,oo  ,,,,$$##,,,,,,,,,,,,,,#---=$$$$$$,,,,,,,,,,,,,,,,,,,,,,,,,,,,,,,,,,",
",,,o  ,,,,,,,$$#,,,,,,,,,,,,----===$$$$$$$,,,,,,,,,,,,,,,,,,,,,,,,,,,,,,,,,",
",,,  ,,,,,,,,,,,,,,,,,,,,,,----===$$$$$$$$$,,,,,,,,,,,,,,,,,,,,,,,,,,,,,,,,",
",,,,,,,,,,,,,,,,,,,,,,,,,,----==#=$$$$$----=,,,,,,$$$$$,,,,,,,,,,,,,,,,,,,,",
",,,,,,,,,,,,,,,,,,,,,,,,,,---=###=-$$=-===-=,,,,,$$$$$$,,,,,,,,,,,,,,,,,,,,",
",,,,,,,,,,,,,,,,,,,,,,,,,,===####==-==$$$$$$$$$$$$$$$$$$,,,,,,,,,,,,,,,,,,,",
",,,,,,,,,,,,,,,,,,,,,,,,,,#==####==-$$$$$$$$$$$$$$$$$$$$,,,,,,,,,,,,,,,,,,,",
",,,,,,,,,,,,,,,,,,,,,,,,,,##=#####==$$$$$$$$$$$$$$$$$$$$$,,,,,,,,,,,,,,,,,,",
",,,,,,,,,,,,,,,,,,,,,,,,,,##=####-=$$$$$$$$$$$$$$$$$$$$$$,,,,,,,,,,,,,,,,,,",
",,,,,,,,,,,,,,,,,,,,,,,,,,##=###-==#$$$$$$$$$$$$$$$$$$$$$,,,,,,,,,,,,,,,,,,",
",,,,,,,,,,,,,,,,,,,,,,,,,,##=##-=###$$$$$$$$$$$$$$$$$$$$$,,,,,,,,,,,,,,,,,,",
",,,,,,,,,,,,,,,,,,,,,,,,,,#=##-=#####$$$$$$$$$$$$$$$$$$$$,,,,,,,,,,,,,,,,,,",
",,,,,,,,,,,,,,,,,,,,,,,,,##=#==#$$$###$$$$$$$$$$$$$$$$$##,,,,,,,,,,,,,,,,,,",
",,,,,,,,,,,,,,,,,,,,,,,,,##===#$$$$####$$$$$$$$$$$$$$####,,,,,,,,,,,,,,,,,,",
",,,,,,,,,,,,,,,,,,,,,,,,#====#$$$$$#####$$$$$$$$$$$#####,,,,,,,,,,,,,,,,,,,",
",,,,,,,,,,,,,,,,,,,,,,,,===##$$$$$$######$$$$$$$########,,,,,,,,,,,,,,,,,,,",
",,,,,,,,,,,,,,,,,,,,,,,,,,###$$$$$$##$$###############,,,,,,,,,,,,,,,,,,,,,",
",,,,,,,,,,,,,,,,,,,,,,,,,,####$$$$$##$$$#############,,,,,,,,,,,,,,,,,,,,,,",
",,,,,,,,,,,,,,,,,,,,,,,,,,,#####$$$$##$$$$##########,,,,,,,,,,,,,,,,,,,,,,,",
",,,,,,,,,,,,,,,,,,,,,,,,,,,,#####$$$##$$$$$$$$$$####,,,,,,,,,,,,,,,,,,,,,,,",
",,,,,,,,,,,,,,,,,,,,,,,,,,,,,######$$##$$$$$$$$####,,,,,,,,,,,,,,,,,,,,,,,,",
",,,,,,,,,,,,,,,,,,,,,,,,,,,,,,######$$##$$$$$$###,,,,,,,,,,,,,,,,,,,,,,,,,,",
",,,,,,,,,,,,,,,,,,,,,,,,,,,,,,###########$$$#####,,,,,,,,,,,,,,,,,,,,,,,,,,",
",,,,,,,,,,,,,,,,,,,,,,,,,,,,,,,,###############,,,,,,,,,,,,,,,,,,,,,,,,,,,,",
",,,,,,,,,,,,,,,,,,,,,,,,,,,,,,,,###########,,,,,,,,,,,,,,,,,,,,,,,,,,,,,,,,",
",,,,,,,,,,,,,,,,,,,,,,,,,,,,,,,,,,,,,,,,,,,,,,,,,,,,,,,,,,,,,,,,,,,,,,,,,,,",
",,,,,,,,,,,,,,,,,,,,,,,,,,,,,,,,,,,,,,,,,,,,,,,,,,,,,,,,,,,,,,,,,,,,,,,,,,,",
",,,,,,,,,,,,,,,,,,,,,,,,,,,,,,,,,,,,,,,,,,,,,,,,,,,,,,,,,,,,,,,,,,,,,,,,,,,",
",,,,,,,,,,,,,,,,,,,,,,,,,,,,,,,,,,,,,,,,,,,,,,,,,,,,,,,,,,,,,,,,,,,,,,,,,,,",
",,,,,,,,,,,,,,,,,,,,,,,,,,,,,,,,,,,,,,,,,,,,,,,,,,,,,,,,,,,,,,,,,,,,,,,,,,,"
};
